<svg viewBox="-10 -10 20 20" xmlns="http://www.w3.org/2000/svg">
<style>
.cell-path {
                stroke-linejoin: round;
                fill: rgb(244, 244, 241);
                stroke: rgb(51, 51, 51);
                stroke-width: 0.1
            }
.dual .cell-path {
                fill: none;
                stroke: rgb(255, 0, 0);
                stroke-opacity: 0.5;
                stroke-width: 0.033333335
            }
</style>
<!-- (22289, 0, 0) -->
<path class="cell-path" d="M5.8284345 10.656849L5.1213284 9.949741L4.4142213 10.656848L5.1213274 11.363955Z"/>
<!-- (22286, 0, 0) -->
<path class="cell-path" d="M7.5355425 8.949744L6.5355425 8.949743L6.535542 9.949743L7.535542 9.949744Z"/>
<!-- (22285, 0, 0) -->
<path class="cell-path" d="M5.828435 10.65685L6.828435 10.656851L7.535542 9.949744L6.535542 9.949743Z"/>
<!-- (22284, 0, 0) -->
<path class="cell-path" d="M9.242648 10.656852L8.535542 9.949744L7.5355425 9.949744L8.242648 10.656851Z"/>
<!-- (22280, 0, 0) -->
<path class="cell-path" d="M7.535542 9.949744L6.828435 10.656851L7.535541 11.363957L8.242648 10.656851Z"/>
<!-- (22276, 0, 0) -->
<path class="cell-path" d="M5.828435 10.656849L6.535542 9.949742L6.5355425 8.949743L5.8284354 9.656849Z"/>
<!-- (22275, 0, 0) -->
<path class="cell-path" d="M5.828437 8.242636L5.12133 8.949742L5.828436 9.656849L6.535543 8.949743Z"/>
<!-- (22274, 0, 0) -->
<path class="cell-path" d="M5.828437 8.242636L6.535543 8.949743L7.5355425 8.949744L6.828437 8.242637Z"/>
<!-- (22273, 0, 0) -->
<path class="cell-path" d="M7.5355425 8.949743L8.242649 8.242637L7.5355434 7.53553L6.8284364 8.242636Z"/>
<!-- (22272, 0, 0) -->
<path class="cell-path" d="M7.5355444 6.53553L6.8284373 7.242636L6.8284364 8.242636L7.535544 7.53553Z"/>
<!-- (9998, 0, 0) -->
<path class="cell-path" d="M9.94976 -7.535538L9.94976 -6.5355387L10.9497595 -6.5355377L10.94976 -7.5355377Z"/>
<!-- (9988, 0, 0) -->
<path class="cell-path" d="M11.656866 -5.828431L10.9497595 -6.535538L9.9497595 -6.5355387L10.656866 -5.8284316Z"/>
<!-- (9987, 0, 0) -->
<path class="cell-path" d="M9.242652 -5.828432L9.949759 -5.121325L10.656865 -5.8284316L9.949759 -6.5355387Z"/>
<!-- (9986, 0, 0) -->
<path class="cell-path" d="M9.242652 -5.828432L9.949759 -6.535538L9.9497595 -7.535538L9.242653 -6.828432Z"/>
<!-- (9985, 0, 0) -->
<path class="cell-path" d="M9.9497595 -7.5355387L9.242653 -8.242645L8.535546 -7.535539L9.242653 -6.828432Z"/>
<!-- (9984, 0, 0) -->
<path class="cell-path" d="M7.5355463 -7.5355396L8.242653 -6.8284326L9.242653 -6.828432L8.535546 -7.535539Z"/>
<!-- (3406, 0, 0) -->
<path class="cell-path" d="M5.828434 -9.242643L6.535541 -9.94975L5.8284345 -10.656857L5.1213274 -9.94975Z"/>
<!-- (3405, 0, 0) -->
<path class="cell-path" d="M5.828435 -11.656857L5.121328 -10.94975L5.1213274 -9.94975L5.8284345 -10.656857Z"/>
<!-- (3404, 0, 0) -->
<path class="cell-path" d="M3.4142208 -9.242644L4.414221 -9.242643L5.1213274 -9.94975L4.121328 -9.949751Z"/>
<!-- (3401, 0, 0) -->
<path class="cell-path" d="M3.4142218 -11.6568575L3.4142213 -10.6568575L4.121328 -9.949751L4.1213284 -10.949751Z"/>
<!-- (3400, 0, 0) -->
<path class="cell-path" d="M5.121328 -9.94975L5.1213284 -10.94975L4.1213284 -10.94975L4.121328 -9.94975Z"/>
<!-- (3396, 0, 0) -->
<path class="cell-path" d="M5.828435 -11.656857L5.8284345 -10.656857L6.535541 -9.94975L6.5355415 -10.94975Z"/>
<!-- (3395, 0, 0) -->
<path class="cell-path" d="M7.535541 -9.949748L7.5355415 -10.949748L6.5355415 -10.949748L6.535541 -9.949749Z"/>
<!-- (3394, 0, 0) -->
<path class="cell-path" d="M7.535541 -9.949748L6.535541 -9.949749L5.828434 -9.242642L6.828434 -9.242641Z"/>
<!-- (3393, 0, 0) -->
<path class="cell-path" d="M5.828434 -9.242642L5.8284335 -8.242642L6.8284335 -8.242642L6.828434 -9.242642Z"/>
<!-- (3392, 0, 0) -->
<path class="cell-path" d="M7.5355396 -7.535535L7.53554 -8.535535L6.828434 -9.242641L6.828433 -8.242641Z"/>
<!-- (3294, 0, 0) -->
<path class="cell-path" d="M7.5355406 -9.949749L8.535541 -9.949748L8.535542 -10.949748L7.5355415 -10.949749Z"/>
<!-- (3284, 0, 0) -->
<path class="cell-path" d="M9.242648 -11.656855L8.535542 -10.949748L8.535541 -9.949748L9.242648 -10.656855Z"/>
<!-- (3283, 0, 0) -->
<path class="cell-path" d="M9.242647 -9.2426405L9.949755 -9.949747L9.242648 -10.656854L8.535541 -9.949747Z"/>
<!-- (3282, 0, 0) -->
<path class="cell-path" d="M9.242647 -9.2426405L8.535541 -9.949747L7.535541 -9.949748L8.242647 -9.242641Z"/>
<!-- (3281, 0, 0) -->
<path class="cell-path" d="M7.5355406 -9.949749L6.8284335 -9.242642L7.53554 -8.535536L8.242647 -9.242642Z"/>
<!-- (3280, 0, 0) -->
<path class="cell-path" d="M7.5355396 -7.535535L8.242647 -8.242641L8.242647 -9.242641L7.53554 -8.535535Z"/>
<!-- (3276, 0, 0) -->
<path class="cell-path" d="M11.65686 -9.24264L10.65686 -9.2426405L9.949754 -8.535534L10.949753 -8.535533Z"/>
<!-- (3275, 0, 0) -->
<path class="cell-path" d="M9.949753 -7.5355334L10.949753 -7.535533L10.949753 -8.535533L9.949754 -8.535533Z"/>
<!-- (3274, 0, 0) -->
<path class="cell-path" d="M9.949753 -7.5355334L9.949754 -8.535533L9.242647 -9.2426405L9.242646 -8.2426405Z"/>
<!-- (3273, 0, 0) -->
<path class="cell-path" d="M9.242647 -9.2426405L8.242647 -9.242641L8.242647 -8.242641L9.242646 -8.2426405Z"/>
<!-- (3272, 0, 0) -->
<path class="cell-path" d="M7.5355396 -7.535535L8.53554 -7.5355344L9.242646 -8.2426405L8.242647 -8.242641Z"/>
<!-- (3270, 0, 0) -->
<path class="cell-path" d="M9.242647 -9.2426405L9.949754 -8.535534L10.65686 -9.24264L9.949755 -9.949747Z"/>
<!-- (3269, 0, 0) -->
<path class="cell-path" d="M11.656861 -9.24264L10.949755 -9.949747L9.949755 -9.949747L10.656861 -9.2426405Z"/>
<!-- (3268, 0, 0) -->
<path class="cell-path" d="M9.242649 -11.656854L9.242648 -10.656854L9.949755 -9.949747L9.949756 -10.949747Z"/>
<!-- (3264, 0, 0) -->
<path class="cell-path" d="M9.949755 -9.949747L10.949755 -9.949747L10.949755 -10.949746L9.949755 -10.949747Z"/>
<!-- (2852, 0, 0) -->
<path class="cell-path" d="M1.7071109 -9.949746L1.0000043 -10.656853L4.2915344E-06 -10.656853L0.7071109 -9.949746Z"/>
<!-- (2851, 0, 0) -->
<path class="cell-path" d="M-0.707103 -9.949747L3.5762787E-06 -9.2426405L0.7071105 -9.949747L3.9339066E-06 -10.656854Z"/>
<!-- (2850, 0, 0) -->
<path class="cell-path" d="M-0.707103 -9.949747L3.9339066E-06 -10.656854L4.2915344E-06 -11.656854L-0.70710266 -10.949747Z"/>
<!-- (2845, 0, 0) -->
<path class="cell-path" d="M1.707111 -9.949746L1.7071115 -10.949746L1.000005 -11.656854L1.0000045 -10.656854Z"/>
<!-- (2843, 0, 0) -->
<path class="cell-path" d="M1.707111 -9.949746L2.707111 -9.949745L2.7071114 -10.949745L1.7071115 -10.949746Z"/>
<!-- (2836, 0, 0) -->
<path class="cell-path" d="M1.7071098 -7.5355334L2.4142168 -8.24264L2.414217 -9.24264L1.7071102 -8.535533Z"/>
<!-- (2835, 0, 0) -->
<path class="cell-path" d="M1.707111 -9.949747L1.000004 -9.2426405L1.7071104 -8.535534L2.4142175 -9.2426405Z"/>
<!-- (2834, 0, 0) -->
<path class="cell-path" d="M1.707111 -9.949747L2.4142172 -9.2426405L3.414217 -9.24264L2.707111 -9.949746Z"/>
<!-- (2833, 0, 0) -->
<path class="cell-path" d="M3.4142175 -9.24264L4.1213245 -9.949746L3.414218 -10.656853L2.707111 -9.949746Z"/>
<!-- (2832, 0, 0) -->
<path class="cell-path" d="M3.4142184 -11.656853L2.7071114 -10.949746L2.707111 -9.949746L3.414218 -10.656853Z"/>
<!-- (2830, 0, 0) -->
<path class="cell-path" d="M5.121324 -7.535531L5.1213245 -8.535531L4.1213245 -8.535531L4.121324 -7.5355315Z"/>
<!-- (2829, 0, 0) -->
<path class="cell-path" d="M3.4142177 -9.242639L3.4142172 -8.242639L4.1213236 -7.5355315L4.121324 -8.535532Z"/>
<!-- (2828, 0, 0) -->
<path class="cell-path" d="M3.4142168 -5.8284245L4.1213236 -6.535531L4.121324 -7.535531L3.414217 -6.8284245Z"/>
<!-- (2827, 0, 0) -->
<path class="cell-path" d="M3.4142177 -9.242639L2.4142177 -9.242639L2.4142172 -8.24264L3.4142172 -8.242639Z"/>
<!-- (2826, 0, 0) -->
<path class="cell-path" d="M1.7071104 -7.535532L2.7071104 -7.535532L3.4142175 -8.242639L2.4142172 -8.242639Z"/>
<!-- (2825, 0, 0) -->
<path class="cell-path" d="M1.7071104 -7.535532L2.414217 -6.828425L3.414217 -6.828425L2.7071104 -7.5355315Z"/>
<!-- (2824, 0, 0) -->
<path class="cell-path" d="M4.121324 -7.535531L3.4142175 -8.242638L2.7071104 -7.535531L3.4142172 -6.8284245Z"/>
<!-- (2820, 0, 0) -->
<path class="cell-path" d="M3.414218 -9.242639L4.1213245 -8.535532L5.1213245 -8.535531L4.414218 -9.242639Z"/>
<!-- (2819, 0, 0) -->
<path class="cell-path" d="M5.8284316 -9.242638L5.121325 -9.949744L4.414218 -9.242638L5.1213245 -8.535531Z"/>
<!-- (2818, 0, 0) -->
<path class="cell-path" d="M5.8284316 -9.242638L5.1213245 -8.535531L5.121324 -7.535531L5.828431 -8.242638Z"/>
<!-- (2817, 0, 0) -->
<path class="cell-path" d="M5.121324 -7.535531L5.8284307 -6.828424L6.5355377 -7.5355306L5.828431 -8.242638Z"/>
<!-- (2816, 0, 0) -->
<path class="cell-path" d="M7.5355377 -7.53553L6.828431 -8.242637L5.828431 -8.242638L6.5355377 -7.5355306Z"/>
<!-- (2806, 0, 0) -->
<path class="cell-path" d="M-0.7071037 -9.949748L-1.4142108 -9.242641L-0.7071045 -8.535535L2.6226044E-06 -9.2426405Z"/>
<!-- (2805, 0, 0) -->
<path class="cell-path" d="M-0.70710516 -7.5355344L2.026558E-06 -8.2426405L2.682209E-06 -9.2426405L-0.70710456 -8.535534Z"/>
<!-- (2804, 0, 0) -->
<path class="cell-path" d="M1.7071098 -9.949747L0.7071099 -9.949748L2.7418137E-06 -9.242641L1.0000026 -9.2426405Z"/>
<!-- (2803, 0, 0) -->
<path class="cell-path" d="M-0.70710516 -7.5355344L1.1920929E-06 -6.8284273L0.7071085 -7.5355334L2.0861626E-06 -8.2426405Z"/>
<!-- (2802, 0, 0) -->
<path class="cell-path" d="M1.7071085 -7.535533L1.000002 -8.24264L2.1457672E-06 -8.2426405L0.70710856 -7.5355334Z"/>
<!-- (2801, 0, 0) -->
<path class="cell-path" d="M1.7071085 -7.535533L1.7071091 -8.535533L1.0000026 -9.2426405L1.0000021 -8.2426405Z"/>
<!-- (2800, 0, 0) -->
<path class="cell-path" d="M2.6226044E-06 -9.2426405L2.166868E-06 -8.2426405L1.0000021 -8.24264L1.0000026 -9.2426405Z"/>
<!-- (2796, 0, 0) -->
<path class="cell-path" d="M-0.7071059 -7.535534L-0.7071054 -8.535534L-1.4142118 -9.242641L-1.4142122 -8.242641Z"/>
<!-- (2795, 0, 0) -->
<path class="cell-path" d="M-2.4142118 -9.242641L-2.4142122 -8.242641L-1.4142123 -8.2426405L-1.4142118 -9.2426405Z"/>
<!-- (2794, 0, 0) -->
<path class="cell-path" d="M-2.4142118 -9.242641L-1.4142119 -9.2426405L-0.7071047 -9.949747L-1.7071046 -9.949748Z"/>
<!-- (2793, 0, 0) -->
<path class="cell-path" d="M-0.70710444 -9.949748L-0.70710397 -10.949748L-1.707104 -10.949749L-1.7071044 -9.949749Z"/>
<!-- (2792, 0, 0) -->
<path class="cell-path" d="M-2.4142103 -11.656856L-2.4142108 -10.656856L-1.7071046 -9.949748L-1.707104 -10.949748Z"/>
<!-- (2788, 0, 0) -->
<path class="cell-path" d="M-0.70710504 -7.5355334L-1.4142121 -6.8284273L-1.4142127 -5.8284273L-0.7071055 -6.5355334Z"/>
<!-- (2787, 0, 0) -->
<path class="cell-path" d="M-0.7071065 -5.12132L6.556511E-07 -5.828426L-0.70710564 -6.535533L-1.4142127 -5.828427Z"/>
<!-- (2786, 0, 0) -->
<path class="cell-path" d="M-0.7071065 -5.12132L-1.4142127 -5.828427L-2.4142127 -5.8284273L-1.7071064 -5.1213202Z"/>
<!-- (2785, 0, 0) -->
<path class="cell-path" d="M-2.4142127 -5.8284273L-3.1213198 -5.1213207L-2.4142134 -4.414214L-1.7071064 -5.1213202Z"/>
<!-- (2784, 0, 0) -->
<path class="cell-path" d="M-2.4142141 -3.4142141L-1.7071071 -4.1213202L-1.7071064 -5.1213202L-2.4142137 -4.414214Z"/>
<!-- (2782, 0, 0) -->
<path class="cell-path" d="M-4.8284254 -9.242643L-4.1213193 -8.535536L-3.414212 -9.242642L-4.1213183 -9.94975Z"/>
<!-- (2781, 0, 0) -->
<path class="cell-path" d="M-2.4142118 -9.242641L-3.1213179 -9.949749L-4.121318 -9.949749L-3.4142118 -9.242642Z"/>
<!-- (2780, 0, 0) -->
<path class="cell-path" d="M-4.828424 -11.6568575L-4.8284245 -10.6568575L-4.1213183 -9.949751L-4.121318 -10.94975Z"/>
<!-- (2779, 0, 0) -->
<path class="cell-path" d="M-2.4142118 -9.242641L-1.7071044 -9.949748L-2.4142106 -10.656855L-3.1213179 -9.949749Z"/>
<!-- (2778, 0, 0) -->
<path class="cell-path" d="M-2.4142103 -11.656856L-3.1213174 -10.949749L-3.121318 -9.949749L-2.4142108 -10.656856Z"/>
<!-- (2776, 0, 0) -->
<path class="cell-path" d="M-4.1213183 -9.94975L-3.1213183 -9.949749L-3.1213179 -10.949749L-4.121318 -10.94975Z"/>
<!-- (2772, 0, 0) -->
<path class="cell-path" d="M-2.4142118 -9.242641L-3.4142118 -9.242641L-4.121319 -8.535535L-3.1213188 -8.535535Z"/>
<!-- (2771, 0, 0) -->
<path class="cell-path" d="M-4.1213193 -7.535536L-3.1213193 -7.5355353L-3.1213188 -8.535536L-4.121319 -8.535536Z"/>
<!-- (2770, 0, 0) -->
<path class="cell-path" d="M-4.1213193 -7.535536L-4.121319 -8.535536L-4.8284254 -9.242642L-4.828426 -8.242642Z"/>
<!-- (2769, 0, 0) -->
<path class="cell-path" d="M-4.8284254 -9.242643L-5.8284254 -9.242643L-5.828426 -8.242643L-4.828426 -8.242643Z"/>
<!-- (2768, 0, 0) -->
<path class="cell-path" d="M-6.535533 -7.535537L-5.535533 -7.5355363L-4.828426 -8.242643L-5.828426 -8.242643Z"/>
<!-- (2764, 0, 0) -->
<path class="cell-path" d="M-2.4142132 -5.828428L-3.1213198 -6.535535L-4.12132 -6.5355353L-3.4142132 -5.8284283Z"/>
<!-- (2763, 0, 0) -->
<path class="cell-path" d="M-4.828427 -5.828429L-4.1213202 -5.121322L-3.4142132 -5.8284283L-4.12132 -6.535536Z"/>
<!-- (2762, 0, 0) -->
<path class="cell-path" d="M-4.828427 -5.828429L-4.12132 -6.5355353L-4.121319 -7.5355353L-4.8284264 -6.828429Z"/>
<!-- (2761, 0, 0) -->
<path class="cell-path" d="M-4.1213193 -7.535536L-4.828426 -8.242643L-5.535533 -7.5355363L-4.8284264 -6.828429Z"/>
<!-- (2760, 0, 0) -->
<path class="cell-path" d="M-6.535533 -7.535537L-5.8284264 -6.8284297L-4.8284264 -6.828429L-5.535533 -7.5355363Z"/>
<!-- (2758, 0, 0) -->
<path class="cell-path" d="M-4.1213193 -7.5355353L-4.12132 -6.5355353L-3.1213198 -6.535535L-3.1213193 -7.535535Z"/>
<!-- (2757, 0, 0) -->
<path class="cell-path" d="M-2.4142132 -5.828428L-2.4142127 -6.828428L-3.121319 -7.535535L-3.1213195 -6.535535Z"/>
<!-- (2756, 0, 0) -->
<path class="cell-path" d="M-2.4142118 -9.242641L-3.1213188 -8.535535L-3.1213193 -7.535535L-2.4142122 -8.242641Z"/>
<!-- (2755, 0, 0) -->
<path class="cell-path" d="M-2.4142132 -5.828428L-1.4142132 -5.8284273L-1.4142126 -6.8284273L-2.4142127 -6.828428Z"/>
<!-- (2754, 0, 0) -->
<path class="cell-path" d="M-0.70710564 -7.535534L-1.7071056 -7.5355344L-2.4142127 -6.828428L-1.4142127 -6.8284273Z"/>
<!-- (2753, 0, 0) -->
<path class="cell-path" d="M-0.70710564 -7.535534L-1.4142121 -8.242641L-2.414212 -8.242641L-1.7071056 -7.5355344Z"/>
<!-- (2752, 0, 0) -->
<path class="cell-path" d="M-3.1213193 -7.535535L-2.4142127 -6.828428L-1.7071058 -7.5355344L-2.4142122 -8.242641Z"/>
<!-- (2702, 0, 0) -->
<path class="cell-path" d="M-6.535531 -9.949751L-5.535531 -9.94975L-5.5355306 -10.94975L-6.5355306 -10.949751Z"/>
<!-- (2692, 0, 0) -->
<path class="cell-path" d="M-4.8284235 -11.656857L-5.5355306 -10.94975L-5.535531 -9.94975L-4.828424 -10.656857Z"/>
<!-- (2691, 0, 0) -->
<path class="cell-path" d="M-4.8284254 -9.242642L-4.1213183 -9.949749L-4.8284245 -10.656856L-5.5355315 -9.94975Z"/>
<!-- (2690, 0, 0) -->
<path class="cell-path" d="M-4.8284254 -9.242642L-5.5355315 -9.94975L-6.5355315 -9.949751L-5.8284254 -9.242643Z"/>
<!-- (2689, 0, 0) -->
<path class="cell-path" d="M-6.5355315 -9.94975L-7.2426386 -9.242643L-6.535532 -8.535537L-5.8284254 -9.242643Z"/>
<!-- (2688, 0, 0) -->
<path class="cell-path" d="M-6.535533 -7.535537L-5.828426 -8.242643L-5.8284254 -9.242643L-6.5355325 -8.535537Z"/>
<!-- (2340, 0, 0) -->
<path class="cell-path" d="M9.949754 -1.7071018L9.949754 -0.70710194L10.65686 4.887581E-06L10.65686 -0.999995Z"/>
<!-- (2338, 0, 0) -->
<path class="cell-path" d="M11.65686 5.4836273E-06L10.65686 5.1895727E-06L9.949754 0.70711166L10.949754 0.70711195Z"/>
<!-- (2337, 0, 0) -->
<path class="cell-path" d="M9.949753 0.70711184L9.949753 1.7071117L10.949753 1.7071118L10.949753 0.70711195Z"/>
<!-- (2334, 0, 0) -->
<path class="cell-path" d="M9.949753 0.70711136L10.656859 4.9471855E-06L9.949754 -0.70710206L9.242646 4.4107437E-06Z"/>
<!-- (2333, 0, 0) -->
<path class="cell-path" d="M9.949754 -1.707102L9.242647 -0.9999955L9.242646 4.4107437E-06L9.949754 -0.70710206Z"/>
<!-- (2332, 0, 0) -->
<path class="cell-path" d="M7.5355396 0.70711064L8.53554 0.707111L9.242646 4.6491623E-06L8.242646 4.2915344E-06Z"/>
<!-- (2331, 0, 0) -->
<path class="cell-path" d="M9.949754 -1.707102L9.242647 -2.414209L8.535541 -1.7071025L9.242647 -0.9999955Z"/>
<!-- (2330, 0, 0) -->
<path class="cell-path" d="M7.5355406 -1.7071028L8.242647 -0.9999959L9.242647 -0.99999565L8.535541 -1.7071025Z"/>
<!-- (2329, 0, 0) -->
<path class="cell-path" d="M7.5355406 -1.7071028L7.53554 -0.7071029L8.242647 4.053116E-06L8.242647 -0.9999958Z"/>
<!-- (2328, 0, 0) -->
<path class="cell-path" d="M9.242647 4.529953E-06L9.242647 -0.99999535L8.242647 -0.9999956L8.242647 4.295503E-06Z"/>
<!-- (2324, 0, 0) -->
<path class="cell-path" d="M11.656861 -3.414208L10.656861 -3.4142082L9.949755 -2.7071018L10.949755 -2.7071013Z"/>
<!-- (2323, 0, 0) -->
<path class="cell-path" d="M9.949754 -1.7071018L10.949754 -1.7071015L10.949754 -2.7071013L9.949754 -2.7071018Z"/>
<!-- (2322, 0, 0) -->
<path class="cell-path" d="M9.949754 -1.7071018L9.949754 -2.7071016L9.242648 -3.4142087L9.242647 -2.414209Z"/>
<!-- (2321, 0, 0) -->
<path class="cell-path" d="M9.242648 -3.414209L8.242648 -3.4142091L8.242648 -2.4142094L9.242648 -2.414209Z"/>
<!-- (2320, 0, 0) -->
<path class="cell-path" d="M7.5355406 -1.7071028L8.535541 -1.7071024L9.242647 -2.414209L8.242647 -2.4142091Z"/>
<!-- (2318, 0, 0) -->
<path class="cell-path" d="M9.242648 -5.8284225L8.535542 -5.121316L9.242648 -4.4142094L9.949755 -5.1213155Z"/>
<!-- (2317, 0, 0) -->
<path class="cell-path" d="M9.242648 -3.414209L9.949755 -4.1213155L9.949756 -5.121315L9.242648 -4.414209Z"/>
<!-- (2316, 0, 0) -->
<path class="cell-path" d="M11.656862 -5.8284216L10.656862 -5.828422L9.949756 -5.1213155L10.949756 -5.121315Z"/>
<!-- (2315, 0, 0) -->
<path class="cell-path" d="M9.242648 -3.414209L9.949755 -2.7071018L10.656861 -3.4142084L9.949755 -4.1213155Z"/>
<!-- (2314, 0, 0) -->
<path class="cell-path" d="M11.656861 -3.4142084L10.949755 -4.121315L9.949755 -4.1213155L10.656861 -3.4142087Z"/>
<!-- (2312, 0, 0) -->
<path class="cell-path" d="M9.949755 -5.1213155L9.949755 -4.1213155L10.949755 -4.1213155L10.949755 -5.1213155Z"/>
<!-- (2308, 0, 0) -->
<path class="cell-path" d="M9.242648 -3.4142094L9.242648 -4.4142094L8.535542 -5.121316L8.535542 -4.1213164Z"/>
<!-- (2307, 0, 0) -->
<path class="cell-path" d="M7.5355415 -5.121317L7.535541 -4.121317L8.535542 -4.121317L8.535542 -5.1213164Z"/>
<!-- (2306, 0, 0) -->
<path class="cell-path" d="M7.5355415 -5.121317L8.535542 -5.1213164L9.242648 -5.828423L8.242648 -5.8284235Z"/>
<!-- (2305, 0, 0) -->
<path class="cell-path" d="M9.242649 -5.8284225L9.242649 -6.8284225L8.242649 -6.8284225L8.242649 -5.8284225Z"/>
<!-- (2304, 0, 0) -->
<path class="cell-path" d="M7.5355425 -7.53553L7.535542 -6.53553L8.242649 -5.8284235L8.242649 -6.828423Z"/>
<!-- (2292, 0, 0) -->
<path class="cell-path" d="M9.949755 -1.7071021L10.656861 -0.99999505L11.65686 -0.9999945L10.949755 -1.7071015Z"/>
<!-- (2212, 0, 0) -->
<path class="cell-path" d="M11.656858 4.828432L10.656858 4.8284316L9.949752 5.535538L10.949752 5.5355387Z"/>
<!-- (2211, 0, 0) -->
<path class="cell-path" d="M9.949751 6.535538L10.949751 6.5355387L10.949751 5.5355387L9.949751 5.535538Z"/>
<!-- (2210, 0, 0) -->
<path class="cell-path" d="M9.949751 6.535538L9.949751 5.535538L9.242645 4.828431L9.242644 5.828431Z"/>
<!-- (2209, 0, 0) -->
<path class="cell-path" d="M9.242645 4.828431L8.242645 4.8284307L8.242645 5.8284307L9.242645 5.828431Z"/>
<!-- (2208, 0, 0) -->
<path class="cell-path" d="M7.5355377 6.5355372L8.535538 6.5355377L9.242644 5.828431L8.242644 5.8284307Z"/>
<!-- (2206, 0, 0) -->
<path class="cell-path" d="M9.242645 4.828431L9.949752 5.535538L10.656858 4.828432L9.949753 4.121325Z"/>
<!-- (2205, 0, 0) -->
<path class="cell-path" d="M11.656859 4.8284326L10.949753 4.1213255L9.949753 4.1213245L10.656859 4.828432Z"/>
<!-- (2204, 0, 0) -->
<path class="cell-path" d="M9.242647 2.414218L9.242646 3.4142177L9.949753 4.1213245L9.949754 3.121325Z"/>
<!-- (2201, 0, 0) -->
<path class="cell-path" d="M11.65686 2.4142191L10.65686 2.4142187L9.949754 3.121325L10.949753 3.1213255Z"/>
<!-- (2200, 0, 0) -->
<path class="cell-path" d="M9.949753 4.121325L10.949753 4.1213255L10.949753 3.1213255L9.949753 3.121325Z"/>
<!-- (2142, 0, 0) -->
<path class="cell-path" d="M9.949751 6.5355387L9.94975 7.5355387L10.94975 7.535539L10.949751 6.535539Z"/>
<!-- (2132, 0, 0) -->
<path class="cell-path" d="M11.656857 8.242646L10.94975 7.5355396L9.94975 7.535539L10.656857 8.242646Z"/>
<!-- (2131, 0, 0) -->
<path class="cell-path" d="M9.242643 8.242646L9.94975 8.949753L10.656857 8.242646L9.94975 7.5355396Z"/>
<!-- (2130, 0, 0) -->
<path class="cell-path" d="M9.242643 8.242646L9.94975 7.5355396L9.949751 6.5355396L9.242643 7.242646Z"/>
<!-- (2129, 0, 0) -->
<path class="cell-path" d="M9.949751 6.535539L9.242644 5.828432L8.535538 6.535539L9.242644 7.2426457Z"/>
<!-- (2128, 0, 0) -->
<path class="cell-path" d="M7.535537 6.5355387L8.242643 7.2426457L9.242643 7.2426457L8.535537 6.5355387Z"/>
<!-- (2124, 0, 0) -->
<path class="cell-path" d="M9.242642 10.656859L9.242642 9.656859L8.535536 8.949753L8.535536 9.949753Z"/>
<!-- (2123, 0, 0) -->
<path class="cell-path" d="M7.535536 8.949752L7.5355353 9.949752L8.535536 9.949752L8.535536 8.949752Z"/>
<!-- (2122, 0, 0) -->
<path class="cell-path" d="M7.535536 8.949752L8.535536 8.949752L9.242642 8.242646L8.242642 8.242645Z"/>
<!-- (2121, 0, 0) -->
<path class="cell-path" d="M9.242643 8.242646L9.242643 7.242646L8.242643 7.242646L8.242643 8.242646Z"/>
<!-- (2120, 0, 0) -->
<path class="cell-path" d="M7.535537 6.5355387L7.5355363 7.5355387L8.242643 8.242645L8.242643 7.2426457Z"/>
<!-- (2118, 0, 0) -->
<path class="cell-path" d="M9.242642 8.242646L8.535536 8.949753L9.242642 9.656859L9.949749 8.949753Z"/>
<!-- (2117, 0, 0) -->
<path class="cell-path" d="M9.242642 10.656859L9.949749 9.949753L9.94975 8.949753L9.242642 9.656859Z"/>
<!-- (2116, 0, 0) -->
<path class="cell-path" d="M11.656857 8.242647L10.656857 8.242647L9.94975 8.949754L10.94975 8.949754Z"/>
<!-- (2115, 0, 0) -->
<path class="cell-path" d="M9.242642 10.656859L9.949749 11.363966L10.656856 10.65686L9.949749 9.949753Z"/>
<!-- (2114, 0, 0) -->
<path class="cell-path" d="M11.656856 10.65686L10.949749 9.949754L9.949749 9.949753L10.656856 10.65686Z"/>
<!-- (2112, 0, 0) -->
<path class="cell-path" d="M9.949749 8.949753L9.949749 9.949753L10.949749 9.949753L10.949749 8.949753Z"/>
<!-- (1870, 0, 0) -->
<path class="cell-path" d="M-8.242641 -5.8284297L-8.949748 -6.535537L-9.656855 -5.8284307L-8.949749 -5.121323Z"/>
<!-- (1869, 0, 0) -->
<path class="cell-path" d="M-10.656856 -5.828431L-9.949749 -5.121324L-8.949749 -5.121323L-9.656856 -5.8284307Z"/>
<!-- (1868, 0, 0) -->
<path class="cell-path" d="M-8.242642 -3.4142158L-8.242641 -4.414216L-8.949748 -5.121323L-8.949749 -4.121323Z"/>
<!-- (1867, 0, 0) -->
<path class="cell-path" d="M-10.656856 -5.828431L-11.363963 -5.1213245L-10.656857 -4.4142175L-9.949749 -5.1213236Z"/>
<!-- (1866, 0, 0) -->
<path class="cell-path" d="M-10.656857 -3.414217L-9.949749 -4.1213236L-9.949749 -5.1213236L-10.656857 -4.414217Z"/>
<!-- (1865, 0, 0) -->
<path class="cell-path" d="M-10.656857 -3.414217L-9.656857 -3.4142165L-8.949749 -4.121323L-9.949749 -4.1213236Z"/>
<!-- (1864, 0, 0) -->
<path class="cell-path" d="M-8.949749 -5.121323L-9.949749 -5.1213236L-9.94975 -4.1213236L-8.949749 -4.121323Z"/>
<!-- (1860, 0, 0) -->
<path class="cell-path" d="M-10.656855 -5.828431L-9.656855 -5.8284307L-8.949747 -6.5355372L-9.949747 -6.5355377Z"/>
<!-- (1859, 0, 0) -->
<path class="cell-path" d="M-8.949747 -7.5355372L-9.949747 -7.5355377L-9.949748 -6.5355377L-8.949748 -6.5355372Z"/>
<!-- (1858, 0, 0) -->
<path class="cell-path" d="M-8.949747 -7.5355372L-8.949748 -6.5355372L-8.242641 -5.82843L-8.2426405 -6.82843Z"/>
<!-- (1857, 0, 0) -->
<path class="cell-path" d="M-8.242641 -5.82843L-7.2426414 -5.8284297L-7.242641 -6.8284297L-8.2426405 -6.82843Z"/>
<!-- (1856, 0, 0) -->
<path class="cell-path" d="M-6.535533 -7.535536L-7.535533 -7.5355363L-8.2426405 -6.82843L-7.24264 -6.828429Z"/>
<!-- (1771, 0, 0) -->
<path class="cell-path" d="M-10.656853 -9.242645L-9.949745 -9.949752L-10.656852 -10.656858L-11.363959 -9.949753Z"/>
<!-- (1758, 0, 0) -->
<path class="cell-path" d="M-8.949747 -7.535537L-8.949746 -8.535537L-9.949746 -8.535538L-9.949747 -7.5355377Z"/>
<!-- (1757, 0, 0) -->
<path class="cell-path" d="M-10.656853 -9.242645L-10.656854 -8.242645L-9.949747 -7.5355377L-9.949746 -8.535538Z"/>
<!-- (1756, 0, 0) -->
<path class="cell-path" d="M-10.656856 -5.828431L-9.949748 -6.5355372L-9.949747 -7.5355377L-10.656855 -6.828431Z"/>
<!-- (1752, 0, 0) -->
<path class="cell-path" d="M-9.949747 -7.5355377L-10.656854 -8.242645L-11.36396 -7.5355387L-10.656855 -6.828431Z"/>
<!-- (1748, 0, 0) -->
<path class="cell-path" d="M-10.656853 -9.242645L-9.949746 -8.535538L-8.949746 -8.535538L-9.656853 -9.242645Z"/>
<!-- (1747, 0, 0) -->
<path class="cell-path" d="M-8.24264 -9.242643L-8.949746 -9.949751L-9.656853 -9.242644L-8.949747 -8.535537Z"/>
<!-- (1746, 0, 0) -->
<path class="cell-path" d="M-8.24264 -9.242643L-8.949747 -8.535537L-8.949747 -7.535537L-8.2426405 -8.242643Z"/>
<!-- (1745, 0, 0) -->
<path class="cell-path" d="M-8.949747 -7.5355372L-8.2426405 -6.82843L-7.5355334 -7.535537L-8.24264 -8.242643Z"/>
<!-- (1744, 0, 0) -->
<path class="cell-path" d="M-6.535533 -7.535536L-7.2426395 -8.242643L-8.24264 -8.242643L-7.535533 -7.5355363Z"/>
<!-- (1740, 0, 0) -->
<path class="cell-path" d="M-8.242638 -11.656858L-8.242639 -10.656858L-7.535532 -9.949751L-7.535531 -10.949751Z"/>
<!-- (1739, 0, 0) -->
<path class="cell-path" d="M-6.5355315 -9.94975L-6.535531 -10.94975L-7.535531 -10.949751L-7.5355315 -9.949751Z"/>
<!-- (1738, 0, 0) -->
<path class="cell-path" d="M-6.5355315 -9.94975L-7.5355315 -9.949751L-8.242639 -9.242644L-7.2426386 -9.242643Z"/>
<!-- (1737, 0, 0) -->
<path class="cell-path" d="M-8.242639 -9.242643L-8.24264 -8.242643L-7.242639 -8.242642L-7.2426386 -9.242642Z"/>
<!-- (1736, 0, 0) -->
<path class="cell-path" d="M-6.535533 -7.535536L-6.5355325 -8.535536L-7.2426386 -9.242643L-7.2426395 -8.242643Z"/>
<!-- (1734, 0, 0) -->
<path class="cell-path" d="M-8.242639 -9.242645L-7.5355315 -9.949752L-8.242638 -10.656858L-8.949745 -9.949753Z"/>
<!-- (1733, 0, 0) -->
<path class="cell-path" d="M-8.242637 -11.656859L-8.949744 -10.949753L-8.949744 -9.949753L-8.242638 -10.656859Z"/>
<!-- (1732, 0, 0) -->
<path class="cell-path" d="M-10.656852 -9.242646L-9.656852 -9.242645L-8.949744 -9.949752L-9.949744 -9.949753Z"/>
<!-- (1729, 0, 0) -->
<path class="cell-path" d="M-10.656851 -11.65686L-10.656852 -10.65686L-9.949745 -9.949753L-9.949744 -10.949753Z"/>
<!-- (1728, 0, 0) -->
<path class="cell-path" d="M-8.949745 -9.949753L-8.949744 -10.949753L-9.949745 -10.949754L-9.949745 -9.949754Z"/>
<!-- (1316, 0, 0) -->
<path class="cell-path" d="M-8.949748 -1.7071099L-9.656855 -1.0000031L-9.656855 -3.0994415E-06L-8.949748 -0.70711Z"/>
<!-- (1315, 0, 0) -->
<path class="cell-path" d="M-8.949749 0.7071036L-8.242642 -3.0994415E-06L-8.949749 -0.7071099L-9.656856 -3.2186508E-06Z"/>
<!-- (1314, 0, 0) -->
<path class="cell-path" d="M-8.949749 0.7071036L-9.656856 -3.2782555E-06L-10.656856 -3.4570694E-06L-9.949749 0.7071034Z"/>
<!-- (1313, 0, 0) -->
<path class="cell-path" d="M-10.656856 -3.33786E-06L-11.363962 0.70710343L-10.656856 1.4142102L-9.949749 0.70710343Z"/>
<!-- (1312, 0, 0) -->
<path class="cell-path" d="M-10.656856 2.4142103L-9.949749 1.7071036L-9.949749 0.7071036L-10.656856 1.4142103Z"/>
<!-- (1310, 0, 0) -->
<path class="cell-path" d="M-10.656856 -3.8146973E-06L-9.656856 -3.606081E-06L-9.656856 -1.0000036L-10.656856 -1.0000038Z"/>
<!-- (1309, 0, 0) -->
<path class="cell-path" d="M-8.949748 -1.7071103L-9.949748 -1.7071105L-10.656855 -1.000004L-9.656855 -1.0000037Z"/>
<!-- (1307, 0, 0) -->
<path class="cell-path" d="M-8.949748 -1.7071103L-8.949748 -2.7071104L-9.949748 -2.7071106L-9.949748 -1.7071106Z"/>
<!-- (1306, 0, 0) -->
<path class="cell-path" d="M-10.656855 -3.4142175L-10.656855 -2.4142175L-9.949748 -1.7071105L-9.949748 -2.7071106Z"/>
<!-- (1304, 0, 0) -->
<path class="cell-path" d="M-10.656855 -1.0000038L-9.949748 -1.7071105L-10.656855 -2.4142175L-11.363961 -1.7071106Z"/>
<!-- (1300, 0, 0) -->
<path class="cell-path" d="M-6.535535 -1.7071096L-7.2426414 -2.4142165L-8.242641 -2.4142165L-7.535535 -1.7071097Z"/>
<!-- (1299, 0, 0) -->
<path class="cell-path" d="M-8.949748 -1.7071103L-8.242641 -1.0000033L-7.535535 -1.7071099L-8.242641 -2.414217Z"/>
<!-- (1298, 0, 0) -->
<path class="cell-path" d="M-8.949748 -1.7071103L-8.242641 -2.4142168L-8.2426405 -3.4142165L-8.949748 -2.7071102Z"/>
<!-- (1297, 0, 0) -->
<path class="cell-path" d="M-8.242641 -3.414217L-8.949748 -4.1213236L-9.656855 -3.4142172L-8.949748 -2.7071104Z"/>
<!-- (1296, 0, 0) -->
<path class="cell-path" d="M-10.656855 -3.4142175L-9.949748 -2.7071106L-8.949748 -2.7071104L-9.656855 -3.4142172Z"/>
<!-- (1294, 0, 0) -->
<path class="cell-path" d="M-6.5355334 -5.1213236L-7.5355334 -5.1213236L-7.5355334 -4.1213236L-6.5355334 -4.1213236Z"/>
<!-- (1293, 0, 0) -->
<path class="cell-path" d="M-8.2426405 -3.414217L-7.2426405 -3.4142168L-6.5355334 -4.1213236L-7.5355334 -4.1213236Z"/>
<!-- (1292, 0, 0) -->
<path class="cell-path" d="M-4.828427 -3.4142165L-5.5355334 -4.1213236L-6.5355334 -4.1213236L-5.828427 -3.4142168Z"/>
<!-- (1291, 0, 0) -->
<path class="cell-path" d="M-8.2426405 -3.414217L-8.2426405 -2.414217L-7.2426405 -2.4142168L-7.2426405 -3.4142168Z"/>
<!-- (1290, 0, 0) -->
<path class="cell-path" d="M-6.535534 -1.7071099L-6.535534 -2.70711L-7.2426405 -3.4142168L-7.2426405 -2.4142168Z"/>
<!-- (1289, 0, 0) -->
<path class="cell-path" d="M-6.535534 -1.7071099L-5.8284273 -2.4142165L-5.828427 -3.4142165L-6.535534 -2.70711Z"/>
<!-- (1288, 0, 0) -->
<path class="cell-path" d="M-6.535534 -4.1213236L-7.2426405 -3.4142168L-6.535534 -2.70711L-5.8284273 -3.4142168Z"/>
<!-- (1284, 0, 0) -->
<path class="cell-path" d="M-8.2426405 -3.414217L-7.535534 -4.1213236L-7.5355334 -5.1213236L-8.2426405 -4.414217Z"/>
<!-- (1283, 0, 0) -->
<path class="cell-path" d="M-8.2426405 -5.828431L-8.949747 -5.1213245L-8.2426405 -4.4142175L-7.535534 -5.121324Z"/>
<!-- (1282, 0, 0) -->
<path class="cell-path" d="M-8.2426405 -5.828431L-7.535534 -5.121324L-6.535534 -5.121324L-7.2426405 -5.828431Z"/>
<!-- (1281, 0, 0) -->
<path class="cell-path" d="M-6.5355334 -5.121324L-5.8284264 -5.8284307L-6.5355334 -6.5355377L-7.24264 -5.828431Z"/>
<!-- (1280, 0, 0) -->
<path class="cell-path" d="M-6.535533 -7.5355377L-7.24264 -6.828431L-7.24264 -5.828431L-6.535533 -6.5355377Z"/>
<!-- (1270, 0, 0) -->
<path class="cell-path" d="M-8.949749 0.70710444L-8.242642 1.4142115L-7.535536 0.707105L-8.242642 -2.026558E-06Z"/>
<!-- (1269, 0, 0) -->
<path class="cell-path" d="M-6.535535 0.70710516L-7.2426414 -1.9073486E-06L-8.242641 -2.3841858E-06L-7.535535 0.70710474Z"/>
<!-- (1268, 0, 0) -->
<path class="cell-path" d="M-8.949748 -1.7071092L-8.949748 -0.70710933L-8.242641 -2.3841858E-06L-8.242641 -1.0000023Z"/>
<!-- (1267, 0, 0) -->
<path class="cell-path" d="M-6.535535 0.70710516L-5.828428 -1.3113022E-06L-6.5355344 -0.7071085L-7.2426414 -1.9669533E-06Z"/>
<!-- (1266, 0, 0) -->
<path class="cell-path" d="M-6.5355344 -1.7071085L-7.2426414 -1.0000019L-7.2426414 -1.9073486E-06L-6.535535 -0.7071085Z"/>
<!-- (1265, 0, 0) -->
<path class="cell-path" d="M-6.5355344 -1.7071085L-7.5355344 -1.7071087L-8.242641 -1.0000021L-7.2426414 -1.0000019Z"/>
<!-- (1264, 0, 0) -->
<path class="cell-path" d="M-8.242641 -2.1457672E-06L-7.2426414 -1.9369213E-06L-7.2426414 -1.0000019L-8.242641 -1.0000021Z"/>
<!-- (1260, 0, 0) -->
<path class="cell-path" d="M-6.5355353 0.7071054L-7.5355353 0.70710516L-8.242642 1.4142118L-7.2426424 1.414212Z"/>
<!-- (1259, 0, 0) -->
<path class="cell-path" d="M-8.242643 2.4142118L-7.2426434 2.414212L-7.242643 1.4142121L-8.242643 1.4142118Z"/>
<!-- (1258, 0, 0) -->
<path class="cell-path" d="M-8.242643 2.4142118L-8.242643 1.4142119L-8.949749 0.7071049L-8.94975 1.7071047Z"/>
<!-- (1257, 0, 0) -->
<path class="cell-path" d="M-8.949749 0.70710456L-9.949749 0.7071043L-9.949749 1.7071043L-8.949749 1.7071046Z"/>
<!-- (1256, 0, 0) -->
<path class="cell-path" d="M-10.656857 2.4142108L-9.656857 2.414211L-8.949749 1.7071047L-9.94975 1.7071042Z"/>
<!-- (1252, 0, 0) -->
<path class="cell-path" d="M-6.5355344 0.7071047L-5.828428 1.4142116L-4.828428 1.4142119L-5.5355344 0.7071049Z"/>
<!-- (1251, 0, 0) -->
<path class="cell-path" d="M-4.1213207 0.70710576L-4.8284273 -1.2516975E-06L-5.5355344 0.7071053L-4.828428 1.4142122Z"/>
<!-- (1250, 0, 0) -->
<path class="cell-path" d="M-4.1213207 0.70710576L-4.828428 1.4142122L-4.8284283 2.4142122L-4.121321 1.7071056Z"/>
<!-- (1249, 0, 0) -->
<path class="cell-path" d="M-4.8284283 2.4142122L-4.1213217 3.1213193L-3.4142146 2.4142127L-4.121321 1.7071056Z"/>
<!-- (1248, 0, 0) -->
<path class="cell-path" d="M-2.4142146 2.4142132L-3.1213212 1.7071061L-4.121321 1.7071059L-3.4142146 2.4142127Z"/>
<!-- (1246, 0, 0) -->
<path class="cell-path" d="M-8.242643 4.828426L-7.5355363 4.1213193L-8.242642 3.4142122L-8.94975 4.121319Z"/>
<!-- (1245, 0, 0) -->
<path class="cell-path" d="M-8.242642 2.4142118L-8.94975 3.1213183L-8.94975 4.1213183L-8.242643 3.4142118Z"/>
<!-- (1244, 0, 0) -->
<path class="cell-path" d="M-10.6568575 4.8284245L-9.6568575 4.828425L-8.94975 4.1213183L-9.94975 4.121318Z"/>
<!-- (1243, 0, 0) -->
<path class="cell-path" d="M-8.242642 2.4142118L-8.949749 1.7071044L-9.656857 2.4142108L-8.94975 3.1213183Z"/>
<!-- (1242, 0, 0) -->
<path class="cell-path" d="M-10.656857 2.4142108L-9.94975 3.1213179L-8.94975 3.1213183L-9.656857 2.414211Z"/>
<!-- (1241, 0, 0) -->
<path class="cell-path" d="M-10.656857 2.4142108L-10.656857 3.4142108L-9.949751 4.1213183L-9.94975 3.1213179Z"/>
<!-- (1240, 0, 0) -->
<path class="cell-path" d="M-8.94975 4.1213183L-8.94975 3.1213183L-9.94975 3.1213179L-9.94975 4.121318Z"/>
<!-- (1236, 0, 0) -->
<path class="cell-path" d="M-8.242643 2.4142118L-8.242643 3.4142118L-7.535537 4.121319L-7.535537 3.1213186Z"/>
<!-- (1235, 0, 0) -->
<path class="cell-path" d="M-6.5355363 4.1213193L-6.5355363 3.1213193L-7.5355363 3.1213193L-7.5355363 4.1213193Z"/>
<!-- (1234, 0, 0) -->
<path class="cell-path" d="M-6.5355363 4.1213193L-7.5355363 4.1213193L-8.242643 4.8284254L-7.2426434 4.828426Z"/>
<!-- (1233, 0, 0) -->
<path class="cell-path" d="M-8.242643 4.828426L-8.242643 5.828426L-7.2426434 5.828426L-7.2426434 4.828426Z"/>
<!-- (1232, 0, 0) -->
<path class="cell-path" d="M-6.535537 6.535533L-6.535537 5.535533L-7.2426434 4.828426L-7.2426434 5.828426Z"/>
<!-- (1228, 0, 0) -->
<path class="cell-path" d="M-4.8284283 2.4142127L-5.5355353 3.1213193L-5.5355353 4.1213193L-4.8284283 3.4142127Z"/>
<!-- (1227, 0, 0) -->
<path class="cell-path" d="M-4.828429 4.8284264L-4.121322 4.12132L-4.8284287 3.4142127L-5.535536 4.1213193Z"/>
<!-- (1226, 0, 0) -->
<path class="cell-path" d="M-4.828429 4.8284264L-5.535536 4.1213193L-6.535536 4.121319L-5.828429 4.828426Z"/>
<!-- (1225, 0, 0) -->
<path class="cell-path" d="M-6.5355363 4.1213193L-7.2426434 4.828426L-6.535537 5.535533L-5.8284297 4.8284264Z"/>
<!-- (1224, 0, 0) -->
<path class="cell-path" d="M-6.535537 6.535533L-5.8284297 5.8284264L-5.828429 4.8284264L-6.5355363 5.535533Z"/>
<!-- (1222, 0, 0) -->
<path class="cell-path" d="M-6.535536 4.121319L-5.535536 4.1213193L-5.535536 3.121319L-6.5355353 3.1213188Z"/>
<!-- (1221, 0, 0) -->
<path class="cell-path" d="M-4.8284283 2.414212L-5.8284283 2.4142118L-6.5355353 3.1213183L-5.5355353 3.1213186Z"/>
<!-- (1220, 0, 0) -->
<path class="cell-path" d="M-8.242642 2.4142113L-7.535536 3.1213183L-6.535536 3.1213186L-7.2426424 2.4142115Z"/>
<!-- (1219, 0, 0) -->
<path class="cell-path" d="M-4.8284283 2.414212L-4.828428 1.414212L-5.828428 1.4142116L-5.8284283 2.4142115Z"/>
<!-- (1218, 0, 0) -->
<path class="cell-path" d="M-6.535535 0.7071047L-6.535535 1.7071047L-5.8284283 2.4142118L-5.8284283 1.4142115Z"/>
<!-- (1217, 0, 0) -->
<path class="cell-path" d="M-6.535535 0.7071047L-7.242642 1.4142113L-7.242642 2.4142113L-6.535535 1.7071047Z"/>
<!-- (1216, 0, 0) -->
<path class="cell-path" d="M-6.5355353 3.1213183L-5.8284283 2.4142118L-6.5355353 1.7071047L-7.242642 2.4142115Z"/>
<!-- (1169, 0, 0) -->
<path class="cell-path" d="M-10.656857 4.828424L-9.94975 4.121318L-10.656856 3.4142108L-11.363963 4.121317Z"/>
<!-- (1166, 0, 0) -->
<path class="cell-path" d="M-8.949751 6.535532L-8.949751 5.535532L-9.94975 5.535532L-9.949751 6.5355315Z"/>
<!-- (1165, 0, 0) -->
<path class="cell-path" d="M-10.656857 4.8284245L-10.656857 5.8284245L-9.949751 6.5355315L-9.94975 5.5355315Z"/>
<!-- (1164, 0, 0) -->
<path class="cell-path" d="M-10.656858 8.242638L-9.949752 7.535531L-9.949751 6.5355315L-10.656858 7.2426376Z"/>
<!-- (1160, 0, 0) -->
<path class="cell-path" d="M-9.949751 6.5355315L-10.6568575 5.8284245L-11.363964 6.535531L-10.6568575 7.242638Z"/>
<!-- (1156, 0, 0) -->
<path class="cell-path" d="M-10.656857 4.8284245L-9.94975 5.5355315L-8.94975 5.535532L-9.656857 4.828425Z"/>
<!-- (1155, 0, 0) -->
<path class="cell-path" d="M-8.242642 4.8284254L-8.949749 4.1213183L-9.656856 4.828425L-8.949749 5.535532Z"/>
<!-- (1154, 0, 0) -->
<path class="cell-path" d="M-8.242642 4.8284254L-8.949749 5.5355315L-8.94975 6.5355315L-8.242643 5.8284254Z"/>
<!-- (1153, 0, 0) -->
<path class="cell-path" d="M-8.94975 6.535532L-8.242643 7.242639L-7.535537 6.5355325L-8.242643 5.8284254Z"/>
<!-- (1152, 0, 0) -->
<path class="cell-path" d="M-6.535537 6.535533L-7.2426434 5.828426L-8.242643 5.8284254L-7.535537 6.5355325Z"/>
<!-- (804, 0, 0) -->
<path class="cell-path" d="M1.7071052 8.949751L0.70710516 8.949751L-1.7881393E-06 9.6568575L0.99999833 9.6568575Z"/>
<!-- (803, 0, 0) -->
<path class="cell-path" d="M-2.3841858E-06 10.656857L0.9999976 10.656857L0.99999774 9.656857L-2.2093402E-06 9.656857Z"/>
<!-- (802, 0, 0) -->
<path class="cell-path" d="M-2.3841858E-06 10.656857L-2.1497356E-06 9.656857L-0.7071087 8.94975L-0.7071089 9.94975Z"/>
<!-- (801, 0, 0) -->
<path class="cell-path" d="M-0.70710886 8.94975L-1.7071089 8.94975L-1.707109 9.94975L-0.7071089 9.94975Z"/>
<!-- (800, 0, 0) -->
<path class="cell-path" d="M-2.414216 10.656857L-1.414216 10.656857L-0.7071091 9.94975L-1.7071092 9.94975Z"/>
<!-- (798, 0, 0) -->
<path class="cell-path" d="M-0.70710826 8.94975L-1.7285347E-06 9.656857L0.70710516 8.94975L-1.3113022E-06 8.242643Z"/>
<!-- (797, 0, 0) -->
<path class="cell-path" d="M1.7071055 8.949751L0.999999 8.242644L-1.0728836E-06 8.242643L0.7071055 8.949751Z"/>
<!-- (796, 0, 0) -->
<path class="cell-path" d="M-0.70710754 6.535537L-0.70710784 7.535537L-1.3709068E-06 8.242643L-1.0728836E-06 7.242644Z"/>
<!-- (795, 0, 0) -->
<path class="cell-path" d="M1.7071055 8.949751L2.4142127 8.242644L1.7071061 7.5355372L0.999999 8.242643Z"/>
<!-- (794, 0, 0) -->
<path class="cell-path" d="M1.7071061 6.5355372L0.9999992 7.242644L0.99999905 8.242643L1.707106 7.5355372Z"/>
<!-- (793, 0, 0) -->
<path class="cell-path" d="M1.7071061 6.5355372L0.7071061 6.535537L-9.536743E-07 7.2426434L0.99999917 7.242644Z"/>
<!-- (792, 0, 0) -->
<path class="cell-path" d="M-1.1920929E-06 8.242643L0.9999988 8.242643L0.9999989 7.2426434L-1.0172473E-06 7.2426434Z"/>
<!-- (788, 0, 0) -->
<path class="cell-path" d="M3.4142115 10.656858L3.4142118 9.656858L2.7071052 8.949752L2.707105 9.949752Z"/>
<!-- (787, 0, 0) -->
<path class="cell-path" d="M1.7071053 8.949751L1.7071049 9.949751L2.707105 9.949751L2.7071052 8.949751Z"/>
<!-- (786, 0, 0) -->
<path class="cell-path" d="M1.7071053 8.949751L2.7071052 8.949751L3.414212 8.242645L2.4142122 8.242644Z"/>
<!-- (785, 0, 0) -->
<path class="cell-path" d="M3.4142122 8.242644L3.4142125 7.2426443L2.4142127 7.2426443L2.4142122 8.242644Z"/>
<!-- (784, 0, 0) -->
<path class="cell-path" d="M1.7071061 6.5355372L1.7071058 7.5355372L2.4142122 8.242644L2.4142127 7.2426443Z"/>
<!-- (782, 0, 0) -->
<path class="cell-path" d="M5.8284264 8.242645L5.12132 7.535538L4.414213 8.242645L5.1213193 8.949752Z"/>
<!-- (781, 0, 0) -->
<path class="cell-path" d="M3.4142127 8.242645L4.1213193 8.949752L5.1213193 8.949753L4.4142127 8.242645Z"/>
<!-- (780, 0, 0) -->
<path class="cell-path" d="M5.828426 10.656858L5.828426 9.656858L5.12132 8.949752L5.1213193 9.949752Z"/>
<!-- (779, 0, 0) -->
<path class="cell-path" d="M3.4142127 8.242645L2.7071056 8.949752L3.4142122 9.656858L4.1213193 8.949752Z"/>
<!-- (778, 0, 0) -->
<path class="cell-path" d="M3.4142122 10.656858L4.121319 9.949752L4.1213193 8.949752L3.4142122 9.656858Z"/>
<!-- (777, 0, 0) -->
<path class="cell-path" d="M3.4142122 10.656858L4.414212 10.656858L5.1213193 9.949752L4.1213193 9.949752Z"/>
<!-- (776, 0, 0) -->
<path class="cell-path" d="M5.1213193 8.949752L4.1213193 8.949752L4.1213193 9.949752L5.1213193 9.949752Z"/>
<!-- (772, 0, 0) -->
<path class="cell-path" d="M3.4142127 8.242644L4.4142127 8.242644L5.12132 7.5355377L4.12132 7.5355377Z"/>
<!-- (771, 0, 0) -->
<path class="cell-path" d="M5.1213202 6.535538L4.1213202 6.5355377L4.12132 7.5355377L5.12132 7.535538Z"/>
<!-- (770, 0, 0) -->
<path class="cell-path" d="M5.1213202 6.535538L5.12132 7.535538L5.8284264 8.242645L5.828427 7.2426453Z"/>
<!-- (769, 0, 0) -->
<path class="cell-path" d="M5.8284264 8.242645L6.8284264 8.242645L6.8284264 7.2426453L5.8284264 7.2426453Z"/>
<!-- (768, 0, 0) -->
<path class="cell-path" d="M7.535534 6.5355387L6.535534 6.535538L5.828427 7.242645L6.828427 7.2426453Z"/>
<!-- (756, 0, 0) -->
<path class="cell-path" d="M1.7071047 8.949751L0.9999977 9.6568575L0.9999972 10.6568575L1.7071042 9.949751Z"/>
<!-- (753, 0, 0) -->
<path class="cell-path" d="M3.4142108 10.656858L2.7071042 9.949752L1.7071044 9.949751L2.4142108 10.656858Z"/>
<!-- (752, 0, 0) -->
<path class="cell-path" d="M0.9999974 10.6568575L1.707104 11.363964L2.4142108 10.6568575L1.7071043 9.949751Z"/>
<!-- (745, 0, 0) -->
<path class="cell-path" d="M-3.0994415E-06 10.6568575L-0.70710963 9.949751L-1.4142168 10.656857L-0.70711017 11.363964Z"/>
<!-- (676, 0, 0) -->
<path class="cell-path" d="M-4.828429 10.656856L-4.828429 9.656856L-5.5355353 8.949749L-5.535536 9.949749Z"/>
<!-- (675, 0, 0) -->
<path class="cell-path" d="M-6.535536 8.949748L-6.5355363 9.949748L-5.5355363 9.949748L-5.535536 8.949748Z"/>
<!-- (674, 0, 0) -->
<path class="cell-path" d="M-6.535536 8.949748L-5.535536 8.949748L-4.828429 8.242642L-5.8284287 8.242641Z"/>
<!-- (673, 0, 0) -->
<path class="cell-path" d="M-4.8284287 8.242642L-4.8284287 7.2426424L-5.8284283 7.2426424L-5.8284287 8.242642Z"/>
<!-- (672, 0, 0) -->
<path class="cell-path" d="M-6.535535 6.535535L-6.5355353 7.535535L-5.8284287 8.242641L-5.8284283 7.242642Z"/>
<!-- (670, 0, 0) -->
<path class="cell-path" d="M-4.828429 8.242643L-5.5355363 8.94975L-4.8284297 9.656857L-4.1213226 8.94975Z"/>
<!-- (669, 0, 0) -->
<path class="cell-path" d="M-4.82843 10.656857L-4.121323 9.94975L-4.1213226 8.94975L-4.8284297 9.656857Z"/>
<!-- (668, 0, 0) -->
<path class="cell-path" d="M-2.4142156 8.242644L-3.4142153 8.242644L-4.1213226 8.94975L-3.1213226 8.949751Z"/>
<!-- (667, 0, 0) -->
<path class="cell-path" d="M-4.82843 10.656857L-4.1213236 11.363964L-3.4142168 10.6568575L-4.121323 9.94975Z"/>
<!-- (666, 0, 0) -->
<path class="cell-path" d="M-2.4142165 10.6568575L-3.121323 9.949751L-4.1213226 9.94975L-3.4142165 10.6568575Z"/>
<!-- (665, 0, 0) -->
<path class="cell-path" d="M-2.4142165 10.6568575L-2.414216 9.6568575L-3.1213226 8.949751L-3.1213229 9.949751Z"/>
<!-- (664, 0, 0) -->
<path class="cell-path" d="M-4.1213226 8.94975L-4.121323 9.94975L-3.121323 9.94975L-3.1213226 8.94975Z"/>
<!-- (619, 0, 0) -->
<path class="cell-path" d="M-8.242643 10.656855L-8.94975 9.949747L-9.656857 10.656854L-8.949751 11.363961Z"/>
<!-- (606, 0, 0) -->
<path class="cell-path" d="M-6.535536 8.949748L-7.535536 8.949747L-7.5355363 9.949747L-6.5355363 9.949748Z"/>
<!-- (605, 0, 0) -->
<path class="cell-path" d="M-8.242643 10.656855L-7.2426434 10.656856L-6.5355363 9.949749L-7.5355363 9.949748Z"/>
<!-- (604, 0, 0) -->
<path class="cell-path" d="M-4.8284297 10.656856L-5.5355363 9.949748L-6.5355363 9.949748L-5.8284297 10.656855Z"/>
<!-- (600, 0, 0) -->
<path class="cell-path" d="M-6.5355363 9.949749L-7.2426434 10.656856L-6.535537 11.363962L-5.8284297 10.656857Z"/>
<!-- (596, 0, 0) -->
<path class="cell-path" d="M-8.242643 10.656855L-7.535537 9.949748L-7.5355363 8.949748L-8.242643 9.656855Z"/>
<!-- (595, 0, 0) -->
<path class="cell-path" d="M-8.242643 8.2426405L-8.94975 8.949747L-8.242643 9.656854L-7.535537 8.949747Z"/>
<!-- (594, 0, 0) -->
<path class="cell-path" d="M-8.242643 8.2426405L-7.535537 8.949747L-6.535537 8.949748L-7.2426434 8.2426405Z"/>
<!-- (593, 0, 0) -->
<path class="cell-path" d="M-6.5355363 8.949747L-5.828429 8.2426405L-6.5355363 7.5355334L-7.242643 8.2426405Z"/>
<!-- (592, 0, 0) -->
<path class="cell-path" d="M-6.535536 6.535534L-7.242643 7.2426405L-7.242643 8.2426405L-6.535536 7.535534Z"/>
<!-- (588, 0, 0) -->
<path class="cell-path" d="M-10.656857 8.24264L-9.656857 8.24264L-8.94975 7.535533L-9.94975 7.535533Z"/>
<!-- (587, 0, 0) -->
<path class="cell-path" d="M-8.949749 6.5355334L-9.949749 6.535533L-9.949749 7.535533L-8.949749 7.5355334Z"/>
<!-- (586, 0, 0) -->
<path class="cell-path" d="M-8.949749 6.5355334L-8.949749 7.5355334L-8.242642 8.2426405L-8.242642 7.2426405Z"/>
<!-- (585, 0, 0) -->
<path class="cell-path" d="M-8.242643 8.2426405L-7.2426434 8.2426405L-7.2426434 7.2426405L-8.242643 7.2426405Z"/>
<!-- (584, 0, 0) -->
<path class="cell-path" d="M-6.535536 6.535534L-7.535536 6.5355334L-8.242643 7.24264L-7.242643 7.2426405Z"/>
<!-- (582, 0, 0) -->
<path class="cell-path" d="M-8.242643 8.2426405L-8.94975 7.5355334L-9.656857 8.2426405L-8.94975 8.949747Z"/>
<!-- (581, 0, 0) -->
<path class="cell-path" d="M-10.6568575 8.24264L-9.949751 8.949746L-8.949751 8.949747L-9.6568575 8.24264Z"/>
<!-- (580, 0, 0) -->
<path class="cell-path" d="M-8.242643 10.656854L-8.242643 9.656854L-8.94975 8.949747L-8.94975 9.949747Z"/>
<!-- (579, 0, 0) -->
<path class="cell-path" d="M-10.6568575 8.24264L-11.363964 8.949746L-10.6568575 9.656853L-9.949751 8.949746Z"/>
<!-- (578, 0, 0) -->
<path class="cell-path" d="M-10.6568575 10.656854L-9.949751 9.949747L-9.949751 8.949747L-10.6568575 9.656854Z"/>
<!-- (577, 0, 0) -->
<path class="cell-path" d="M-10.6568575 10.656854L-9.6568575 10.656854L-8.949751 9.949747L-9.949751 9.949747Z"/>
<!-- (576, 0, 0) -->
<path class="cell-path" d="M-8.94975 8.949747L-9.94975 8.949747L-9.94975 9.949747L-8.94975 9.949747Z"/>
<!-- (438, 0, 0) -->
<path class="cell-path" d="M-0.7071066 4.1213202L-1.4142134 4.8284264L-0.7071072 5.5355334L-2.9802322E-07 4.8284273Z"/>
<!-- (437, 0, 0) -->
<path class="cell-path" d="M-0.70710754 6.5355334L-5.9604645E-07 5.8284273L-1.1920929E-07 4.8284273L-0.70710707 5.535534Z"/>
<!-- (436, 0, 0) -->
<path class="cell-path" d="M1.7071065 4.121321L0.70710677 4.1213207L-1.1920929E-07 4.828427L0.99999964 4.8284273Z"/>
<!-- (435, 0, 0) -->
<path class="cell-path" d="M-0.70710754 6.5355334L-1.2516975E-06 7.2426405L0.70710576 6.535534L-5.364418E-07 5.8284273Z"/>
<!-- (434, 0, 0) -->
<path class="cell-path" d="M1.7071056 6.5355344L0.99999917 5.828428L-5.9604645E-07 5.8284273L0.7071059 6.5355344Z"/>
<!-- (433, 0, 0) -->
<path class="cell-path" d="M1.7071056 6.5355344L1.707106 5.535535L0.99999964 4.828428L0.9999993 5.8284273Z"/>
<!-- (432, 0, 0) -->
<path class="cell-path" d="M-2.3841858E-07 4.8284273L-4.9664254E-07 5.8284273L0.9999993 5.8284273L0.9999995 4.828428Z"/>
<!-- (428, 0, 0) -->
<path class="cell-path" d="M-0.7071091 6.5355334L-0.7071088 5.5355334L-1.4142153 4.8284264L-1.4142156 5.8284264Z"/>
<!-- (427, 0, 0) -->
<path class="cell-path" d="M-2.414215 4.8284264L-2.4142156 5.8284264L-1.4142156 5.8284264L-1.4142152 4.828427Z"/>
<!-- (426, 0, 0) -->
<path class="cell-path" d="M-2.414215 4.8284264L-1.4142153 4.828427L-0.70710826 4.1213207L-1.7071081 4.12132Z"/>
<!-- (425, 0, 0) -->
<path class="cell-path" d="M-0.70710814 4.1213202L-0.70710784 3.1213202L-1.7071078 3.12132L-1.707108 4.12132Z"/>
<!-- (424, 0, 0) -->
<path class="cell-path" d="M-2.4142141 2.4142127L-2.4142146 3.4142127L-1.707108 4.12132L-1.7071078 3.1213198Z"/>
<!-- (420, 0, 0) -->
<path class="cell-path" d="M-0.7071084 6.5355344L-1.4142152 7.242641L-1.4142156 8.2426405L-0.7071086 7.535534Z"/>
<!-- (419, 0, 0) -->
<path class="cell-path" d="M-0.70710933 8.949748L-2.4437904E-06 8.242641L-0.70710886 7.535535L-1.4142158 8.242641Z"/>
<!-- (418, 0, 0) -->
<path class="cell-path" d="M-0.70710933 8.949748L-1.4142156 8.242641L-2.4142156 8.2426405L-1.707109 8.949748Z"/>
<!-- (417, 0, 0) -->
<path class="cell-path" d="M-2.4142156 8.2426405L-3.1213224 8.949747L-2.414216 9.656854L-1.7071091 8.949747Z"/>
<!-- (416, 0, 0) -->
<path class="cell-path" d="M-2.4142165 10.656854L-1.7071097 9.949747L-1.7071093 8.949747L-2.4142163 9.656854Z"/>
<!-- (414, 0, 0) -->
<path class="cell-path" d="M-4.8284287 4.8284254L-4.121322 5.5355325L-3.4142153 4.828426L-4.1213217 4.121319Z"/>
<!-- (413, 0, 0) -->
<path class="cell-path" d="M-2.414215 4.8284264L-3.1213214 4.1213193L-4.1213217 4.121319L-3.414215 4.828426Z"/>
<!-- (412, 0, 0) -->
<path class="cell-path" d="M-4.828428 2.4142118L-4.8284283 3.4142118L-4.1213217 4.121319L-4.1213217 3.1213188Z"/>
<!-- (411, 0, 0) -->
<path class="cell-path" d="M-2.414215 4.8284264L-1.7071079 4.12132L-2.4142144 3.4142127L-3.1213214 4.1213193Z"/>
<!-- (410, 0, 0) -->
<path class="cell-path" d="M-2.4142141 2.4142127L-3.1213212 3.1213193L-3.1213214 4.1213193L-2.4142146 3.4142127Z"/>
<!-- (409, 0, 0) -->
<path class="cell-path" d="M-2.4142141 2.4142127L-3.4142141 2.4142122L-4.121321 3.1213188L-3.1213212 3.1213193Z"/>
<!-- (408, 0, 0) -->
<path class="cell-path" d="M-4.1213217 4.121319L-3.1213217 4.1213193L-3.1213212 3.1213193L-4.121321 3.1213188Z"/>
<!-- (404, 0, 0) -->
<path class="cell-path" d="M-2.414215 4.8284264L-3.414215 4.8284264L-4.1213217 5.535533L-3.121322 5.535533Z"/>
<!-- (403, 0, 0) -->
<path class="cell-path" d="M-4.1213226 6.5355325L-3.1213226 6.5355325L-3.1213226 5.535533L-4.1213226 5.5355325Z"/>
<!-- (402, 0, 0) -->
<path class="cell-path" d="M-4.1213226 6.5355325L-4.121322 5.5355325L-4.8284287 4.828426L-4.828429 5.8284254Z"/>
<!-- (401, 0, 0) -->
<path class="cell-path" d="M-4.8284287 4.8284254L-5.8284287 4.8284254L-5.8284287 5.8284254L-4.8284287 5.8284254Z"/>
<!-- (400, 0, 0) -->
<path class="cell-path" d="M-6.535536 6.535532L-5.535536 6.535532L-4.828429 5.8284254L-5.828429 5.8284254Z"/>
<!-- (396, 0, 0) -->
<path class="cell-path" d="M-2.414216 8.24264L-3.1213226 7.535533L-4.1213226 7.5355325L-3.414216 8.24264Z"/>
<!-- (395, 0, 0) -->
<path class="cell-path" d="M-4.8284297 8.24264L-4.121323 8.949746L-3.4142163 8.24264L-4.1213226 7.535533Z"/>
<!-- (394, 0, 0) -->
<path class="cell-path" d="M-4.8284297 8.24264L-4.1213226 7.535533L-4.1213226 6.535533L-4.828429 7.2426395Z"/>
<!-- (393, 0, 0) -->
<path class="cell-path" d="M-4.1213226 6.535533L-4.828429 5.8284264L-5.535536 6.535533L-4.828429 7.2426395Z"/>
<!-- (392, 0, 0) -->
<path class="cell-path" d="M-6.535536 6.535532L-5.828429 7.242639L-4.828429 7.242639L-5.535536 6.535532Z"/>
<!-- (390, 0, 0) -->
<path class="cell-path" d="M-4.1213217 6.535533L-4.121322 7.535533L-3.1213222 7.535533L-3.1213217 6.5355334Z"/>
<!-- (389, 0, 0) -->
<path class="cell-path" d="M-2.4142156 8.2426405L-2.4142153 7.2426405L-3.1213217 6.535534L-3.1213222 7.5355334Z"/>
<!-- (388, 0, 0) -->
<path class="cell-path" d="M-2.4142148 4.828427L-3.1213217 5.5355334L-3.1213222 6.535533L-2.414215 5.828427Z"/>
<!-- (387, 0, 0) -->
<path class="cell-path" d="M-2.4142156 8.2426405L-1.4142156 8.2426405L-1.4142152 7.242641L-2.414215 7.2426405Z"/>
<!-- (386, 0, 0) -->
<path class="cell-path" d="M-0.7071085 6.535534L-1.7071084 6.535534L-2.414215 7.2426405L-1.4142153 7.2426405Z"/>
<!-- (385, 0, 0) -->
<path class="cell-path" d="M-0.7071085 6.535534L-1.4142151 5.8284273L-2.414215 5.828427L-1.7071084 6.535534Z"/>
<!-- (384, 0, 0) -->
<path class="cell-path" d="M-3.121322 6.5355334L-2.4142153 7.24264L-1.7071085 6.5355334L-2.414215 5.828427Z"/>
<!-- (356, 0, 0) -->
<path class="cell-path" d="M1.7071071 4.1213193L1.0000005 3.4142125L4.7683716E-07 3.4142122L0.70710707 4.1213193Z"/>
<!-- (355, 0, 0) -->
<path class="cell-path" d="M-0.7071068 4.121319L-2.3841858E-07 4.828426L0.7071067 4.1213193L1.1920929E-07 3.4142122Z"/>
<!-- (354, 0, 0) -->
<path class="cell-path" d="M-0.7071068 4.121319L1.1920929E-07 3.4142122L4.7683716E-07 2.4142125L-0.7071065 3.1213188Z"/>
<!-- (353, 0, 0) -->
<path class="cell-path" d="M4.7683716E-07 2.414212L-0.7071062 1.7071052L-1.4142131 2.4142118L-0.7071064 3.1213186Z"/>
<!-- (352, 0, 0) -->
<path class="cell-path" d="M-2.4142132 2.4142113L-1.7071066 3.1213183L-0.7071066 3.1213183L-1.4142132 2.4142115Z"/>
<!-- (350, 0, 0) -->
<path class="cell-path" d="M9.536743E-07 2.4142125L5.364418E-07 3.4142125L1.0000005 3.4142127L1.000001 2.414213Z"/>
<!-- (349, 0, 0) -->
<path class="cell-path" d="M1.7071072 4.12132L1.7071077 3.1213198L1.0000012 2.4142127L1.0000007 3.4142127Z"/>
<!-- (348, 0, 0) -->
<path class="cell-path" d="M1.7071084 0.70710623L1.0000014 1.4142127L1.000001 2.4142127L1.7071079 1.7071061Z"/>
<!-- (347, 0, 0) -->
<path class="cell-path" d="M1.7071072 4.12132L2.707107 4.1213202L2.7071075 3.1213202L1.7071077 3.1213198Z"/>
<!-- (346, 0, 0) -->
<path class="cell-path" d="M3.4142146 2.4142137L2.4142146 2.4142134L1.7071075 3.12132L2.7071075 3.1213202Z"/>
<!-- (345, 0, 0) -->
<path class="cell-path" d="M3.4142146 2.4142137L2.707108 1.7071066L1.707108 1.7071064L2.4142146 2.4142132Z"/>
<!-- (344, 0, 0) -->
<path class="cell-path" d="M1.000001 2.4142127L1.7071075 3.1213198L2.4142146 2.4142132L1.7071079 1.7071061Z"/>
<!-- (340, 0, 0) -->
<path class="cell-path" d="M1.707106 6.535533L2.414213 5.8284264L2.4142132 4.8284264L1.7071064 5.535533Z"/>
<!-- (339, 0, 0) -->
<path class="cell-path" d="M1.7071072 4.12132L1.0000002 4.8284264L1.7071066 5.535533L2.4142137 4.828427Z"/>
<!-- (338, 0, 0) -->
<path class="cell-path" d="M1.7071072 4.12132L2.4142134 4.828427L3.4142132 4.8284273L2.707107 4.1213202Z"/>
<!-- (337, 0, 0) -->
<path class="cell-path" d="M3.4142137 4.8284273L4.1213207 4.1213207L3.4142141 3.414214L2.707107 4.1213202Z"/>
<!-- (336, 0, 0) -->
<path class="cell-path" d="M3.4142146 2.4142137L2.7071075 3.12132L2.707107 4.12132L3.4142141 3.4142137Z"/>
<!-- (334, 0, 0) -->
<path class="cell-path" d="M5.1213202 6.535535L5.1213207 5.535535L4.1213207 5.535535L4.1213202 6.5355344Z"/>
<!-- (333, 0, 0) -->
<path class="cell-path" d="M3.414214 4.8284273L3.4142134 5.8284273L4.12132 6.5355344L4.1213202 5.5355344Z"/>
<!-- (332, 0, 0) -->
<path class="cell-path" d="M3.414213 8.242641L4.12132 7.535535L4.1213202 6.535535L3.4142132 7.2426414Z"/>
<!-- (331, 0, 0) -->
<path class="cell-path" d="M3.414214 4.8284273L2.414214 4.828427L2.4142134 5.828427L3.4142134 5.8284273Z"/>
<!-- (330, 0, 0) -->
<path class="cell-path" d="M1.7071066 6.535534L2.7071066 6.535534L3.4142137 5.8284273L2.4142134 5.8284273Z"/>
<!-- (329, 0, 0) -->
<path class="cell-path" d="M1.7071066 6.535534L2.4142132 7.242641L3.4142132 7.242641L2.7071066 6.5355344Z"/>
<!-- (328, 0, 0) -->
<path class="cell-path" d="M4.1213202 6.535535L3.4142137 5.828428L2.7071066 6.535535L3.4142134 7.2426414Z"/>
<!-- (324, 0, 0) -->
<path class="cell-path" d="M3.4142141 4.8284273L4.1213207 5.5355344L5.1213207 5.5355344L4.414214 4.828428Z"/>
<!-- (323, 0, 0) -->
<path class="cell-path" d="M5.828428 4.8284283L5.121321 4.121321L4.414214 4.828428L5.1213207 5.535535Z"/>
<!-- (322, 0, 0) -->
<path class="cell-path" d="M5.828428 4.8284283L5.1213207 5.535535L5.1213202 6.535535L5.8284273 5.8284283Z"/>
<!-- (321, 0, 0) -->
<path class="cell-path" d="M5.1213202 6.535535L5.828427 7.242642L6.535534 6.5355353L5.8284273 5.8284283Z"/>
<!-- (320, 0, 0) -->
<path class="cell-path" d="M7.535534 6.535536L6.8284273 5.8284287L5.8284273 5.8284283L6.535534 6.5355353Z"/>
<!-- (292, 0, 0) -->
<path class="cell-path" d="M-4.1213207 -1.7071095L-4.1213207 -0.7071096L-3.4142141 -2.7418137E-06L-3.4142141 -1.0000026Z"/>
<!-- (291, 0, 0) -->
<path class="cell-path" d="M-2.4142146 -2.1457672E-06L-2.4142144 -1.000002L-3.4142141 -1.0000023L-3.4142146 -2.3802174E-06Z"/>
<!-- (290, 0, 0) -->
<path class="cell-path" d="M-2.4142146 -2.1457672E-06L-3.4142144 -2.439822E-06L-4.121321 0.707104L-3.1213214 0.7071043Z"/>
<!-- (289, 0, 0) -->
<path class="cell-path" d="M-4.1213217 0.7071042L-4.1213217 1.7071041L-3.121322 1.7071042L-3.1213217 0.7071043Z"/>
<!-- (288, 0, 0) -->
<path class="cell-path" d="M-2.414215 2.4142113L-2.4142148 1.4142114L-3.1213214 0.70710456L-3.1213217 1.7071044Z"/>
<!-- (286, 0, 0) -->
<path class="cell-path" d="M-4.121321 0.7071037L-3.4142141 -2.682209E-06L-4.1213207 -0.7071097L-4.828428 -3.2186508E-06Z"/>
<!-- (285, 0, 0) -->
<path class="cell-path" d="M-4.1213207 -1.7071096L-4.828428 -1.0000031L-4.8284283 -3.2186508E-06L-4.121321 -0.7071097Z"/>
<!-- (284, 0, 0) -->
<path class="cell-path" d="M-6.535535 0.707103L-5.535535 0.7071034L-4.8284283 -2.9802322E-06L-5.828428 -3.33786E-06Z"/>
<!-- (283, 0, 0) -->
<path class="cell-path" d="M-4.1213207 -1.7071096L-4.8284273 -2.4142165L-5.535534 -1.7071102L-4.828428 -1.0000031Z"/>
<!-- (282, 0, 0) -->
<path class="cell-path" d="M-6.535534 -1.7071104L-5.8284273 -1.0000036L-4.8284273 -1.0000033L-5.535534 -1.7071102Z"/>
<!-- (281, 0, 0) -->
<path class="cell-path" d="M-6.535534 -1.7071104L-6.5355344 -0.7071105L-5.828428 -3.5762787E-06L-5.8284273 -1.0000035Z"/>
<!-- (280, 0, 0) -->
<path class="cell-path" d="M-4.828428 -3.0994415E-06L-4.828428 -1.000003L-5.8284273 -1.0000032L-5.828428 -3.3338918E-06Z"/>
<!-- (276, 0, 0) -->
<path class="cell-path" d="M-2.4142132 -3.4142156L-3.4142132 -3.4142158L-4.12132 -2.7071095L-3.12132 -2.707109Z"/>
<!-- (275, 0, 0) -->
<path class="cell-path" d="M-4.1213207 -1.7071095L-3.1213207 -1.7071091L-3.1213205 -2.707109L-4.1213202 -2.7071095Z"/>
<!-- (274, 0, 0) -->
<path class="cell-path" d="M-4.1213207 -1.7071095L-4.1213202 -2.7071092L-4.8284264 -3.4142163L-4.8284273 -2.4142165Z"/>
<!-- (273, 0, 0) -->
<path class="cell-path" d="M-4.8284264 -3.4142165L-5.8284264 -3.4142168L-5.8284264 -2.414217L-4.828427 -2.4142165Z"/>
<!-- (272, 0, 0) -->
<path class="cell-path" d="M-6.535534 -1.7071104L-5.535534 -1.70711L-4.8284273 -2.4142165L-5.828427 -2.4142168Z"/>
<!-- (270, 0, 0) -->
<path class="cell-path" d="M-4.8284264 -5.82843L-5.5355334 -5.1213236L-4.828427 -4.414217L-4.12132 -5.121323Z"/>
<!-- (269, 0, 0) -->
<path class="cell-path" d="M-4.8284264 -3.4142165L-4.1213193 -4.121323L-4.121319 -5.1213226L-4.828426 -4.4142165Z"/>
<!-- (268, 0, 0) -->
<path class="cell-path" d="M-2.4142127 -5.828429L-3.4142125 -5.8284297L-4.1213193 -5.121323L-3.1213195 -5.1213226Z"/>
<!-- (267, 0, 0) -->
<path class="cell-path" d="M-4.8284264 -3.4142165L-4.12132 -2.7071095L-3.414213 -3.414216L-4.1213193 -4.121323Z"/>
<!-- (266, 0, 0) -->
<path class="cell-path" d="M-2.4142132 -3.414216L-3.1213198 -4.1213226L-4.12132 -4.121323L-3.4142132 -3.4142163Z"/>
<!-- (265, 0, 0) -->
<path class="cell-path" d="M-2.4142132 -3.414216L-2.414213 -4.414216L-3.1213195 -5.1213226L-3.1213198 -4.121323Z"/>
<!-- (264, 0, 0) -->
<path class="cell-path" d="M-4.12132 -5.121323L-4.12132 -4.121323L-3.12132 -4.121323L-3.1213198 -5.121323Z"/>
<!-- (260, 0, 0) -->
<path class="cell-path" d="M-4.8284264 -3.414217L-4.8284264 -4.414217L-5.5355325 -5.1213236L-5.535533 -4.121324Z"/>
<!-- (259, 0, 0) -->
<path class="cell-path" d="M-6.535533 -5.1213245L-6.5355334 -4.1213245L-5.5355334 -4.1213245L-5.535533 -5.121324Z"/>
<!-- (258, 0, 0) -->
<path class="cell-path" d="M-6.535533 -5.1213245L-5.535533 -5.121324L-4.8284264 -5.8284307L-5.828426 -5.828431Z"/>
<!-- (257, 0, 0) -->
<path class="cell-path" d="M-4.828426 -5.82843L-4.828426 -6.82843L-5.8284254 -6.82843L-5.828426 -5.82843Z"/>
<!-- (256, 0, 0) -->
<path class="cell-path" d="M-6.535532 -7.5355377L-6.5355325 -6.5355377L-5.828426 -5.828431L-5.8284254 -6.8284307Z"/>
<!-- (246, 0, 0) -->
<path class="cell-path" d="M5.1213226 0.7071068L5.828429 1.4142139L6.535536 0.7071076L5.8284297 4.7683716E-07Z"/>
<!-- (245, 0, 0) -->
<path class="cell-path" d="M7.535536 0.707108L6.828429 8.34465E-07L5.828429 1.7881393E-07L6.535536 0.7071074Z"/>
<!-- (244, 0, 0) -->
<path class="cell-path" d="M5.1213236 -1.7071068L5.121323 -0.70710695L5.828429 1.1920929E-07L5.8284297 -0.9999997Z"/>
<!-- (243, 0, 0) -->
<path class="cell-path" d="M7.535536 0.707108L8.242643 1.66893E-06L7.535537 -0.70710564L6.828429 7.748604E-07Z"/>
<!-- (242, 0, 0) -->
<path class="cell-path" d="M7.5355372 -1.7071056L6.82843 -0.99999917L6.8284297 7.1525574E-07L7.535537 -0.7071057Z"/>
<!-- (241, 0, 0) -->
<path class="cell-path" d="M7.5355372 -1.7071056L6.5355372 -1.7071061L5.82843 -0.9999997L6.82843 -0.9999992Z"/>
<!-- (240, 0, 0) -->
<path class="cell-path" d="M5.8284297 3.5762787E-07L6.8284297 7.639861E-07L6.82843 -0.9999992L5.82843 -0.99999964Z"/>
<!-- (236, 0, 0) -->
<path class="cell-path" d="M7.5355363 0.7071086L6.5355363 0.70710814L5.828429 1.4142146L6.828429 1.4142151Z"/>
<!-- (235, 0, 0) -->
<path class="cell-path" d="M5.8284283 2.4142146L6.8284283 2.414215L6.8284287 1.4142151L5.8284287 1.4142146Z"/>
<!-- (234, 0, 0) -->
<path class="cell-path" d="M5.8284283 2.4142146L5.8284287 1.4142147L5.1213226 0.70710754L5.121322 1.7071075Z"/>
<!-- (233, 0, 0) -->
<path class="cell-path" d="M5.1213226 0.7071073L4.1213226 0.7071068L4.121322 1.7071068L5.121322 1.7071073Z"/>
<!-- (232, 0, 0) -->
<path class="cell-path" d="M3.4142146 2.4142132L4.4142146 2.4142137L5.1213217 1.7071073L4.1213217 1.7071068Z"/>
<!-- (228, 0, 0) -->
<path class="cell-path" d="M7.535537 0.70710766L8.242643 1.4142147L9.242643 1.4142152L8.535537 0.7071081Z"/>
<!-- (227, 0, 0) -->
<path class="cell-path" d="M9.949751 0.70710886L9.242644 1.7285347E-06L8.535538 0.70710814L9.242643 1.4142153Z"/>
<!-- (226, 0, 0) -->
<path class="cell-path" d="M9.949751 0.70710886L9.242643 1.4142151L9.242643 2.414215L9.94975 1.7071087Z"/>
<!-- (225, 0, 0) -->
<path class="cell-path" d="M9.242643 2.4142153L9.94975 3.1213224L10.656857 2.414216L9.949751 1.7071089Z"/>
<!-- (224, 0, 0) -->
<path class="cell-path" d="M11.656857 2.4142165L10.94975 1.7071095L9.94975 1.7071089L10.656857 2.414216Z"/>
<!-- (222, 0, 0) -->
<path class="cell-path" d="M5.8284273 4.8284283L6.5355344 4.1213217L5.8284283 3.4142146L5.1213207 4.121321Z"/>
<!-- (221, 0, 0) -->
<path class="cell-path" d="M5.8284283 2.4142146L5.1213207 3.121321L5.1213202 4.121321L5.828428 3.4142146Z"/>
<!-- (220, 0, 0) -->
<path class="cell-path" d="M3.4142132 4.8284273L4.414213 4.828428L5.1213207 4.1213217L4.1213202 4.121321Z"/>
<!-- (219, 0, 0) -->
<path class="cell-path" d="M5.8284283 2.4142146L5.1213217 1.7071072L4.4142146 2.4142137L5.1213207 3.121321Z"/>
<!-- (218, 0, 0) -->
<path class="cell-path" d="M3.4142146 2.4142132L4.121321 3.1213202L5.121321 3.121321L4.4142146 2.4142137Z"/>
<!-- (217, 0, 0) -->
<path class="cell-path" d="M3.4142146 2.4142132L3.4142141 3.4142132L4.1213202 4.1213207L4.121321 3.1213205Z"/>
<!-- (216, 0, 0) -->
<path class="cell-path" d="M5.1213207 4.121321L5.121321 3.1213212L4.121321 3.1213207L4.1213207 4.1213207Z"/>
<!-- (212, 0, 0) -->
<path class="cell-path" d="M5.8284283 2.4142146L5.828428 3.4142146L6.535535 4.1213217L6.535535 3.1213217Z"/>
<!-- (211, 0, 0) -->
<path class="cell-path" d="M7.535535 4.121322L7.5355353 3.1213222L6.5355353 3.1213217L6.535535 4.1213217Z"/>
<!-- (210, 0, 0) -->
<path class="cell-path" d="M7.535535 4.121322L6.535535 4.1213217L5.8284283 4.8284283L6.828428 4.8284287Z"/>
<!-- (209, 0, 0) -->
<path class="cell-path" d="M5.828428 4.8284283L5.8284273 5.8284283L6.8284273 5.8284283L6.828428 4.8284287Z"/>
<!-- (208, 0, 0) -->
<path class="cell-path" d="M7.535534 6.535536L7.5355344 5.535536L6.828428 4.8284287L6.8284273 5.8284287Z"/>
<!-- (204, 0, 0) -->
<path class="cell-path" d="M9.242642 2.4142156L8.535536 3.1213222L8.535535 4.121322L9.242642 3.4142156Z"/>
<!-- (203, 0, 0) -->
<path class="cell-path" d="M9.242641 4.8284297L9.949749 4.121323L9.242642 3.414216L8.535535 4.1213226Z"/>
<!-- (202, 0, 0) -->
<path class="cell-path" d="M9.242641 4.8284297L8.535535 4.1213226L7.535535 4.121322L8.242641 4.828429Z"/>
<!-- (201, 0, 0) -->
<path class="cell-path" d="M7.535535 4.121322L6.828428 4.8284287L7.5355344 5.535536L8.242641 4.828429Z"/>
<!-- (200, 0, 0) -->
<path class="cell-path" d="M7.535534 6.535536L8.242641 5.828429L8.242641 4.828429L7.5355344 5.535536Z"/>
<!-- (198, 0, 0) -->
<path class="cell-path" d="M7.535535 4.1213217L8.535535 4.121322L8.535535 3.1213222L7.5355353 3.1213217Z"/>
<!-- (197, 0, 0) -->
<path class="cell-path" d="M9.242642 2.4142156L8.242642 2.414215L7.5355353 3.1213217L8.535536 3.1213222Z"/>
<!-- (196, 0, 0) -->
<path class="cell-path" d="M5.8284287 2.4142144L6.5355353 3.1213214L7.535535 3.121322L6.8284287 2.4142148Z"/>
<!-- (195, 0, 0) -->
<path class="cell-path" d="M9.242642 2.4142156L9.242643 1.4142156L8.242643 1.4142151L8.242642 2.414215Z"/>
<!-- (194, 0, 0) -->
<path class="cell-path" d="M7.5355363 0.707108L7.535536 1.707108L8.242642 2.414215L8.242643 1.414215Z"/>
<!-- (193, 0, 0) -->
<path class="cell-path" d="M7.5355363 0.707108L6.828429 1.4142146L6.8284287 2.4142146L7.535536 1.707108Z"/>
<!-- (192, 0, 0) -->
<path class="cell-path" d="M7.5355353 3.1213217L8.242642 2.414215L7.535536 1.707108L6.8284287 2.4142146Z"/>
<!-- (164, 0, 0) -->
<path class="cell-path" d="M5.121323 -1.7071061L4.4142165 -0.99999934L4.414216 7.1525574E-07L5.121323 -0.7071062Z"/>
<!-- (163, 0, 0) -->
<path class="cell-path" d="M5.121323 0.7071074L5.82843 7.1525574E-07L5.121323 -0.7071061L4.4142165 5.9604645E-07Z"/>
<!-- (162, 0, 0) -->
<path class="cell-path" d="M5.121323 0.7071074L4.4142165 5.9604645E-07L3.4142165 3.5762787E-07L4.121323 0.7071073Z"/>
<!-- (161, 0, 0) -->
<path class="cell-path" d="M3.414216 4.7683716E-07L2.7071092 0.70710725L3.414216 1.414214L4.1213226 0.70710725Z"/>
<!-- (160, 0, 0) -->
<path class="cell-path" d="M3.414216 2.4142141L4.1213226 1.7071074L4.121323 0.7071074L3.414216 1.4142141Z"/>
<!-- (158, 0, 0) -->
<path class="cell-path" d="M3.414216 0L4.414216 2.0861626E-07L4.414216 -0.99999964L3.4142163 -0.9999999Z"/>
<!-- (157, 0, 0) -->
<path class="cell-path" d="M5.121323 -1.7071066L4.121323 -1.7071068L3.414216 -1.0000002L4.414216 -1Z"/>
<!-- (156, 0, 0) -->
<path class="cell-path" d="M1.7071095 -1.7071071L2.414216 -1.0000002L3.4142158 -0.99999994L2.7071095 -1.7071068Z"/>
<!-- (155, 0, 0) -->
<path class="cell-path" d="M5.121323 -1.7071066L5.1213236 -2.7071066L4.1213236 -2.707107L4.121323 -1.707107Z"/>
<!-- (154, 0, 0) -->
<path class="cell-path" d="M3.4142165 -3.4142137L3.4142165 -2.4142137L4.121323 -1.7071068L4.121323 -2.7071068Z"/>
<!-- (153, 0, 0) -->
<path class="cell-path" d="M3.4142165 -3.4142137L2.7071097 -2.707107L2.7071095 -1.7071071L3.4142165 -2.4142137Z"/>
<!-- (152, 0, 0) -->
<path class="cell-path" d="M3.414216 -1L4.1213226 -1.7071067L3.414216 -2.4142134L2.7071095 -1.7071068Z"/>
<!-- (148, 0, 0) -->
<path class="cell-path" d="M7.5355363 -1.707106L6.8284297 -2.4142127L5.8284297 -2.414213L6.5355363 -1.7071061Z"/>
<!-- (147, 0, 0) -->
<path class="cell-path" d="M5.1213226 -1.7071066L5.828429 -0.99999976L6.535536 -1.7071064L5.828429 -2.4142132Z"/>
<!-- (146, 0, 0) -->
<path class="cell-path" d="M5.1213226 -1.7071066L5.8284297 -2.4142132L5.8284297 -3.414213L5.121323 -2.7071064Z"/>
<!-- (145, 0, 0) -->
<path class="cell-path" d="M5.82843 -3.4142132L5.1213236 -4.12132L4.414217 -3.4142132L5.1213236 -2.7071066Z"/>
<!-- (144, 0, 0) -->
<path class="cell-path" d="M3.4142165 -3.4142137L4.121323 -2.7071068L5.121323 -2.7071066L4.4142165 -3.4142134Z"/>
<!-- (142, 0, 0) -->
<path class="cell-path" d="M7.535537 -5.1213202L6.535537 -5.1213202L6.535537 -4.1213207L7.535537 -4.1213202Z"/>
<!-- (141, 0, 0) -->
<path class="cell-path" d="M5.82843 -3.4142137L6.82843 -3.4142134L7.5355372 -4.1213202L6.5355372 -4.1213202Z"/>
<!-- (140, 0, 0) -->
<path class="cell-path" d="M9.242643 -3.4142132L8.535537 -4.12132L7.535537 -4.1213202L8.242643 -3.4142134Z"/>
<!-- (139, 0, 0) -->
<path class="cell-path" d="M5.82843 -3.4142137L5.82843 -2.4142137L6.82843 -2.4142134L6.82843 -3.4142134Z"/>
<!-- (138, 0, 0) -->
<path class="cell-path" d="M7.535537 -1.7071066L7.535537 -2.7071066L6.82843 -3.4142134L6.82843 -2.4142134Z"/>
<!-- (137, 0, 0) -->
<path class="cell-path" d="M7.535537 -1.7071066L8.242643 -2.4142132L8.242643 -3.4142132L7.535537 -2.7071066Z"/>
<!-- (136, 0, 0) -->
<path class="cell-path" d="M7.535537 -4.1213202L6.82843 -3.4142134L7.535537 -2.7071066L8.242643 -3.4142134Z"/>
<!-- (132, 0, 0) -->
<path class="cell-path" d="M5.82843 -3.4142137L6.535537 -4.1213202L6.5355372 -5.1213202L5.82843 -4.4142137Z"/>
<!-- (131, 0, 0) -->
<path class="cell-path" d="M5.8284307 -5.8284273L5.1213236 -5.1213207L5.8284307 -4.414214L6.5355372 -5.1213207Z"/>
<!-- (130, 0, 0) -->
<path class="cell-path" d="M5.8284307 -5.8284273L6.5355372 -5.1213202L7.535537 -5.1213202L6.8284307 -5.8284273Z"/>
<!-- (129, 0, 0) -->
<path class="cell-path" d="M7.5355372 -5.1213202L8.242644 -5.828427L7.5355372 -6.535534L6.8284307 -5.828427Z"/>
<!-- (128, 0, 0) -->
<path class="cell-path" d="M7.5355377 -7.535534L6.828431 -6.8284273L6.8284307 -5.8284273L7.5355377 -6.535534Z"/>
<!-- (100, 0, 0) -->
<path class="cell-path" d="M1.707109 -5.1213217L0.707109 -5.1213217L2.026558E-06 -4.414215L1.0000021 -4.414215Z"/>
<!-- (99, 0, 0) -->
<path class="cell-path" d="M1.4305115E-06 -3.414215L1.0000014 -3.4142148L1.0000015 -4.414215L1.605357E-06 -4.414215Z"/>
<!-- (98, 0, 0) -->
<path class="cell-path" d="M1.4305115E-06 -3.414215L1.6649617E-06 -4.414215L-0.70710486 -5.1213217L-0.7071051 -4.121322Z"/>
<!-- (97, 0, 0) -->
<path class="cell-path" d="M-0.70710504 -5.121322L-1.707105 -5.121322L-1.7071052 -4.121322L-0.7071051 -4.121322Z"/>
<!-- (96, 0, 0) -->
<path class="cell-path" d="M-2.4142122 -3.4142156L-1.4142122 -3.4142153L-0.7071053 -4.121322L-1.7071054 -4.121322Z"/>
<!-- (94, 0, 0) -->
<path class="cell-path" d="M-0.70710444 -5.1213226L2.0861626E-06 -4.4142156L0.707109 -5.121322L2.503395E-06 -5.828429Z"/>
<!-- (93, 0, 0) -->
<path class="cell-path" d="M1.7071093 -5.1213217L1.0000029 -5.8284287L2.7418137E-06 -5.828429L0.70710933 -5.121322Z"/>
<!-- (92, 0, 0) -->
<path class="cell-path" d="M-0.7071037 -7.535536L-0.707104 -6.535536L2.4437904E-06 -5.828429L2.7418137E-06 -6.8284287Z"/>
<!-- (91, 0, 0) -->
<path class="cell-path" d="M1.7071093 -5.1213217L2.4142165 -5.8284283L1.7071099 -6.5355353L1.0000029 -5.8284287Z"/>
<!-- (90, 0, 0) -->
<path class="cell-path" d="M1.7071099 -7.5355353L1.0000031 -6.8284287L1.0000029 -5.8284287L1.7071098 -6.5355353Z"/>
<!-- (89, 0, 0) -->
<path class="cell-path" d="M1.7071099 -7.5355353L0.7071099 -7.535536L2.861023E-06 -6.828429L1.000003 -6.8284287Z"/>
<!-- (88, 0, 0) -->
<path class="cell-path" d="M2.6226044E-06 -5.828429L1.0000026 -5.828429L1.0000027 -6.828429L2.79745E-06 -6.828429Z"/>
<!-- (84, 0, 0) -->
<path class="cell-path" d="M3.4142153 -3.4142146L3.4142156 -4.4142146L2.707109 -5.121321L2.7071087 -4.1213217Z"/>
<!-- (83, 0, 0) -->
<path class="cell-path" d="M1.7071091 -5.1213217L1.7071087 -4.1213217L2.7071087 -4.1213217L2.707109 -5.121321Z"/>
<!-- (82, 0, 0) -->
<path class="cell-path" d="M1.7071091 -5.1213217L2.707109 -5.121321L3.4142158 -5.828428L2.414216 -5.8284283Z"/>
<!-- (81, 0, 0) -->
<path class="cell-path" d="M3.414216 -5.8284283L3.4142163 -6.8284283L2.4142165 -6.8284283L2.414216 -5.8284283Z"/>
<!-- (80, 0, 0) -->
<path class="cell-path" d="M1.7071099 -7.5355353L1.7071096 -6.5355353L2.414216 -5.8284283L2.4142165 -6.8284283Z"/>
<!-- (78, 0, 0) -->
<path class="cell-path" d="M5.82843 -5.8284273L5.1213236 -6.5355344L4.414217 -5.828428L5.121323 -5.1213207Z"/>
<!-- (77, 0, 0) -->
<path class="cell-path" d="M3.4142165 -5.828428L4.121323 -5.1213207L5.121323 -5.1213207L4.4142165 -5.8284273Z"/>
<!-- (76, 0, 0) -->
<path class="cell-path" d="M5.8284297 -3.4142137L5.8284297 -4.4142137L5.1213236 -5.1213202L5.121323 -4.1213207Z"/>
<!-- (75, 0, 0) -->
<path class="cell-path" d="M3.4142165 -5.828428L2.7071095 -5.121321L3.414216 -4.414214L4.121323 -5.1213207Z"/>
<!-- (74, 0, 0) -->
<path class="cell-path" d="M3.414216 -3.4142141L4.1213226 -4.1213207L4.121323 -5.1213207L3.414216 -4.414214Z"/>
<!-- (73, 0, 0) -->
<path class="cell-path" d="M3.414216 -3.4142141L4.414216 -3.414214L5.121323 -4.1213207L4.121323 -4.1213207Z"/>
<!-- (72, 0, 0) -->
<path class="cell-path" d="M5.121323 -5.1213207L4.121323 -5.1213207L4.121323 -4.1213207L5.121323 -4.1213207Z"/>
<!-- (68, 0, 0) -->
<path class="cell-path" d="M3.4142165 -5.8284283L4.4142165 -5.8284283L5.1213236 -6.535535L4.1213236 -6.535535Z"/>
<!-- (67, 0, 0) -->
<path class="cell-path" d="M5.121324 -7.5355344L4.121324 -7.535535L4.1213236 -6.535535L5.1213236 -6.5355344Z"/>
<!-- (66, 0, 0) -->
<path class="cell-path" d="M5.121324 -7.5355344L5.1213236 -6.5355344L5.82843 -5.8284273L5.8284307 -6.8284273Z"/>
<!-- (65, 0, 0) -->
<path class="cell-path" d="M5.82843 -5.8284273L6.82843 -5.8284273L6.82843 -6.8284273L5.82843 -6.8284273Z"/>
<!-- (64, 0, 0) -->
<path class="cell-path" d="M7.5355377 -7.535534L6.5355377 -7.5355344L5.8284307 -6.828428L6.8284307 -6.8284273Z"/>
<!-- (54, 0, 0) -->
<path class="cell-path" d="M7.1525574E-07 -3.4142141L4.4703484E-07 -2.4142141L1.0000004 -2.4142141L1.0000006 -3.414214Z"/>
<!-- (53, 0, 0) -->
<path class="cell-path" d="M1.7071072 -1.7071068L1.7071075 -2.7071068L1.000001 -3.4142137L1.0000007 -2.4142137Z"/>
<!-- (52, 0, 0) -->
<path class="cell-path" d="M1.707108 -5.1213202L1.0000012 -4.4142137L1.0000008 -3.414214L1.7071078 -4.1213202Z"/>
<!-- (51, 0, 0) -->
<path class="cell-path" d="M1.7071072 -1.7071068L2.707107 -1.7071065L2.7071075 -2.7071066L1.7071075 -2.7071068Z"/>
<!-- (50, 0, 0) -->
<path class="cell-path" d="M3.4142144 -3.4142132L2.4142146 -3.4142134L1.7071077 -2.7071068L2.7071075 -2.7071066Z"/>
<!-- (49, 0, 0) -->
<path class="cell-path" d="M3.4142144 -3.4142132L2.7071078 -4.1213202L1.7071078 -4.1213202L2.4142146 -3.4142134Z"/>
<!-- (48, 0, 0) -->
<path class="cell-path" d="M1.0000007 -3.4142137L1.7071073 -2.7071068L2.4142141 -3.4142134L1.7071075 -4.1213202Z"/>
<!-- (44, 0, 0) -->
<path class="cell-path" d="M1.7071068 -1.7071058L1.0000002 -2.4142127L1.1920929E-07 -2.414213L0.7071068 -1.707106Z"/>
<!-- (43, 0, 0) -->
<path class="cell-path" d="M-0.70710707 -1.7071067L-4.7683716E-07 -0.9999997L0.7071066 -1.7071064L-5.9604645E-08 -2.4142132Z"/>
<!-- (42, 0, 0) -->
<path class="cell-path" d="M-0.70710707 -1.7071067L-5.9604645E-08 -2.4142132L3.5762787E-07 -3.4142132L-0.70710665 -2.7071066Z"/>
<!-- (41, 0, 0) -->
<path class="cell-path" d="M2.3841858E-07 -3.4142134L-0.7071064 -4.1213202L-1.4142134 -3.4142137L-0.7071067 -2.7071068Z"/>
<!-- (40, 0, 0) -->
<path class="cell-path" d="M-2.4142134 -3.4142141L-1.7071068 -2.707107L-0.7071068 -2.7071068L-1.4142134 -3.414214Z"/>
<!-- (36, 0, 0) -->
<path class="cell-path" d="M1.7071077 -1.7071061L1.7071075 -0.70710623L2.4142141 5.9604645E-07L2.4142141 -0.9999993Z"/>
<!-- (35, 0, 0) -->
<path class="cell-path" d="M3.414214 1.1920929E-06L3.4142141 -0.9999987L2.4142141 -0.9999989L2.4142141 9.576427E-07Z"/>
<!-- (34, 0, 0) -->
<path class="cell-path" d="M3.414214 1.1920929E-06L2.4142141 8.980381E-07L1.7071072 0.70710737L2.707107 0.70710766Z"/>
<!-- (33, 0, 0) -->
<path class="cell-path" d="M1.7071071 0.70710754L1.707107 1.7071074L2.7071068 1.7071075L2.707107 0.70710766Z"/>
<!-- (32, 0, 0) -->
<path class="cell-path" d="M3.4142134 2.4142146L3.4142137 1.4142147L2.707107 0.7071079L2.7071068 1.7071078Z"/>
<!-- (30, 0, 0) -->
<path class="cell-path" d="M-2.4142146 -2.3841858E-07L-1.4142146 1.4901161E-07L-1.4142143 -0.9999999L-2.4142141 -1.0000002Z"/>
<!-- (29, 0, 0) -->
<path class="cell-path" d="M-0.70710707 -1.7071066L-1.7071071 -1.7071071L-2.4142141 -1.0000006L-1.4142141 -1.0000001Z"/>
<!-- (28, 0, 0) -->
<path class="cell-path" d="M-4.1213207 -1.7071078L-3.4142141 -1.0000007L-2.4142144 -1.0000002L-3.1213207 -1.7071073Z"/>
<!-- (27, 0, 0) -->
<path class="cell-path" d="M-0.70710707 -1.7071066L-0.7071066 -2.7071066L-1.7071066 -2.707107L-1.7071071 -1.7071071Z"/>
<!-- (26, 0, 0) -->
<path class="cell-path" d="M-2.4142134 -3.4142141L-2.4142137 -2.4142141L-1.7071071 -1.7071072L-1.7071068 -2.707107Z"/>
<!-- (25, 0, 0) -->
<path class="cell-path" d="M-2.4142134 -3.4142141L-3.1213205 -2.7071075L-3.1213207 -1.7071075L-2.4142137 -2.4142141Z"/>
<!-- (24, 0, 0) -->
<path class="cell-path" d="M-2.4142141 -1.0000005L-1.7071071 -1.7071071L-2.4142137 -2.4142141L-3.1213207 -1.7071075Z"/>
<!-- (20, 0, 0) -->
<path class="cell-path" d="M-0.70710695 -1.7071066L-1.4142137 -0.9999998L-1.4142138 2.3841858E-07L-0.70710695 -0.70710665Z"/>
<!-- (19, 0, 0) -->
<path class="cell-path" d="M-0.7071073 0.70710695L-4.7683716E-07 2.3841858E-07L-0.7071072 -0.7071066L-1.414214 1.1920929E-07Z"/>
<!-- (18, 0, 0) -->
<path class="cell-path" d="M-0.7071073 0.70710695L-1.4142139 5.9604645E-08L-2.414214 -1.1920929E-07L-1.7071072 0.7071067Z"/>
<!-- (17, 0, 0) -->
<path class="cell-path" d="M-2.4142141 0L-3.121321 0.70710677L-2.4142141 1.4142135L-1.7071073 0.70710677Z"/>
<!-- (16, 0, 0) -->
<path class="cell-path" d="M-2.4142144 2.4142137L-1.7071075 1.707107L-1.7071073 0.70710695L-2.4142144 1.4142137Z"/>
<!-- (12, 0, 0) -->
<path class="cell-path" d="M1.7071068 0.70710754L0.7071068 0.7071075L-1.1920929E-07 1.4142141L1 1.4142143Z"/>
<!-- (11, 0, 0) -->
<path class="cell-path" d="M-7.1525574E-07 2.4142141L0.9999993 2.4142144L0.9999994 1.4142144L-5.4041016E-07 1.4142141Z"/>
<!-- (10, 0, 0) -->
<path class="cell-path" d="M-7.1525574E-07 2.4142141L-4.8080557E-07 1.4142143L-0.707107 0.7071074L-0.70710725 1.7071073Z"/>
<!-- (9, 0, 0) -->
<path class="cell-path" d="M-0.7071072 0.7071072L-1.7071072 0.7071071L-1.7071073 1.7071071L-0.70710725 1.7071072Z"/>
<!-- (8, 0, 0) -->
<path class="cell-path" d="M-2.4142144 2.4142137L-1.4142144 2.414214L-0.7071074 1.7071072L-1.7071075 1.7071071Z"/>
<!-- (6, 0, 0) -->
<path class="cell-path" d="M-0.70710695 0.7071066L-2.9802322E-07 1.4142134L0.7071065 0.70710677L-1.1920929E-07 -5.9604645E-08Z"/>
<!-- (5, 0, 0) -->
<path class="cell-path" d="M1.7071067 0.7071068L1 -5.9604645E-08L1.1920929E-07 -2.3841858E-07L0.7071067 0.7071067Z"/>
<!-- (4, 0, 0) -->
<path class="cell-path" d="M-0.7071067 -1.7071071L-0.7071068 -0.7071072L-2.3841858E-07 -3.5762787E-07L-1.1920929E-07 -1.0000002Z"/>
<!-- (3, 0, 0) -->
<path class="cell-path" d="M1.7071067 0.7071068L2.4142137 1.7881393E-07L1.7071071 -0.7071068L1 -1.1920929E-07Z"/>
<!-- (2, 0, 0) -->
<path class="cell-path" d="M1.707107 -1.7071068L1.0000002 -1L1.0000001 0L1.707107 -0.7071069Z"/>
<!-- (1, 0, 0) -->
<path class="cell-path" d="M1.707107 -1.7071068L0.70710695 -1.707107L0 -1.0000002L1.0000001 -1.0000001Z"/>
<!-- (0, 0, 0) -->
<path class="cell-path" d="M0 0L1 0L1 -1L0 -1Z"/>
</svg>
