<svg viewBox="-2 -2 4 4" xmlns="http://www.w3.org/2000/svg">
<style>path{stroke-linejoin: round}</style>
<!-- (0, 0, 0) -->
<path style="fill: rgb(244, 244, 241); stroke: rgb(51, 51, 51); stroke-width: 0.1" d="M1.498412 0.156048L1.31728 -0.133956L1.1159 -0.456372L0.869804 -0.6604L0.771412 -0.741972L0.968684 -0.87152L1.392152 -0.70322L1.428 -0.688972Z"/>
<!-- (1, 0, 0) -->
<path style="fill: rgb(244, 244, 241); stroke: rgb(51, 51, 51); stroke-width: 0.1" d="M0.771412 -0.741972L0.58388 -0.945772L0.858752 -0.990392L1.052584 -0.904516L1.293404 -0.884328L1.392152 -0.70322L0.968684 -0.87152Z"/>
<!-- (2, 0, 0) -->
<path style="fill: rgb(244, 244, 241); stroke: rgb(51, 51, 51); stroke-width: 0.1" d="M1.31728 -0.133956L1.30728 0.058888L1.051124 -0.16194L0.850912 -0.515256L0.869804 -0.6604L1.1159 -0.456372Z"/>
<!-- (3, 0, 0) -->
<path style="fill: rgb(244, 244, 241); stroke: rgb(51, 51, 51); stroke-width: 0.1" d="M1.30728 0.058888L1.380888 0.117772L1.380888 0.474036L1.210224 0.291392L0.877408 -0.064776L0.827356 -0.329764L0.850912 -0.515256L1.051124 -0.16194Z"/>
<!-- (4, 0, 0) -->
<path style="fill: rgb(244, 244, 241); stroke: rgb(51, 51, 51); stroke-width: 0.1" d="M1.210224 0.291392L1.27784 0.974572L1.225524 0.854844L0.839132 -0.029444L0.877408 -0.064776Z"/>
<!-- (5, 0, 0) -->
<path style="fill: rgb(244, 244, 241); stroke: rgb(51, 51, 51); stroke-width: 0.1" d="M0.839132 -0.029444L0.651792 0.22306L0.59638 0.297748L0.568256 0.335652L0.570892 0.255664L0.577088 0.06772L0.599984 0.031352L0.827356 -0.329764L0.877408 -0.064776Z"/>
<!-- (6, 0, 0) -->
<path style="fill: rgb(244, 244, 241); stroke: rgb(51, 51, 51); stroke-width: 0.1" d="M1.225524 0.854844L1.118844 1.136512L1.094572 1.014012L0.99224 0.497592L0.651792 0.22306L0.839132 -0.029444Z"/>
<!-- (7, 0, 0) -->
<path style="fill: rgb(244, 244, 241); stroke: rgb(51, 51, 51); stroke-width: 0.1" d="M1.094572 1.014012L0.774164 1.527124L0.771872 1.36822L0.75944 0.506424L0.59638 0.297748L0.651792 0.22306L0.99224 0.497592Z"/>
<!-- (8, 0, 0) -->
<path style="fill: rgb(244, 244, 241); stroke: rgb(51, 51, 51); stroke-width: 0.1" d="M1.02424 -1.481688L1.248876 -1.385424L1.46234 -0.870164L1.293404 -0.884328L1.052584 -0.904516L0.858752 -0.990392L0.58388 -0.945772L0.549596 -0.983032L0.475988 -0.9953L0.812132 -1.216124Z"/>
<!-- (9, 0, 0) -->
<path style="fill: rgb(244, 244, 241); stroke: rgb(51, 51, 51); stroke-width: 0.1" d="M0.570892 0.255664L0.383056 0.05518L0.341252 -0.019012L0.256292 -0.169784L0.383056 -0.23042L0.599984 0.031352L0.577088 0.06772Z"/>
<!-- (10, 0, 0) -->
<path style="fill: rgb(244, 244, 241); stroke: rgb(51, 51, 51); stroke-width: 0.1" d="M0.568256 0.335652L0.565604 0.384944L0.444888 0.496828L0.182844 0.526272L0.031412 0.48482L0.047404 0.334892L0.197564 0.29956L0.291784 0.1494L0.341252 -0.019012L0.383056 0.05518L0.570892 0.255664Z"/>
<!-- (11, 0, 0) -->
<path style="fill: rgb(244, 244, 241); stroke: rgb(51, 51, 51); stroke-width: 0.1" d="M0.050348 0.202396L0 0.255396L-0.050348 0.202396L-0.291784 0.1494L0 0.034568L0.291784 0.1494Z"/>
<!-- (12, 0, 0) -->
<path style="fill: rgb(244, 244, 241); stroke: rgb(51, 51, 51); stroke-width: 0.1" d="M0 0.47622L-0.031412 0.48482L-0.047404 0.334892L-0.197564 0.29956L-0.291784 0.1494L-0.050348 0.202396L0 0.255396L0.050348 0.202396L0.291784 0.1494L0.197564 0.29956L0.047404 0.334892L0.031412 0.48482Z"/>
<!-- (13, 0, 0) -->
<path style="fill: rgb(244, 244, 241); stroke: rgb(51, 51, 51); stroke-width: 0.1" d="M0.663712 -0.5477L0.56266 -0.457132L0.327116 -0.4483L0.280004 -0.354084L0.377168 -0.33936L0.421332 -0.286364L0.383056 -0.23042L0.256292 -0.169784L0.174008 -0.315804L0.218528 -0.471384L0.40932 -0.58162Z"/>
<!-- (14, 0, 0) -->
<path style="fill: rgb(244, 244, 241); stroke: rgb(51, 51, 51); stroke-width: 0.1" d="M0.56266 -0.457132L0.377168 -0.33936L0.280004 -0.354084L0.327116 -0.4483Z"/>
<!-- (15, 0, 0) -->
<path style="fill: rgb(244, 244, 241); stroke: rgb(51, 51, 51); stroke-width: 0.1" d="M0.599984 0.031352L0.383056 -0.23042L0.421332 -0.286364L0.377168 -0.33936L0.56266 -0.457132L0.663712 -0.5477L0.869804 -0.6604L0.850912 -0.515256L0.827356 -0.329764Z"/>
<!-- (16, 0, 0) -->
<path style="fill: rgb(244, 244, 241); stroke: rgb(51, 51, 51); stroke-width: 0.1" d="M0.771872 1.36822L0.75264 1.316976L0.444888 0.496828L0.565604 0.384944L0.568256 0.335652L0.59638 0.297748L0.75944 0.506424Z"/>
<!-- (17, 0, 0) -->
<path style="fill: rgb(244, 244, 241); stroke: rgb(51, 51, 51); stroke-width: 0.1" d="M0.444888 0.496828L0.409556 0.614604L0.156344 0.785372L0.135796 0.784988L0.103476 0.784376L0 0.782428L-0.103476 0.784376L-0.135796 0.784988L-0.156344 0.785372L-0.409556 0.614604L-0.444888 0.496828L-0.182844 0.526272L-0.031412 0.48482L0 0.47622L0.031412 0.48482L0.182844 0.526272Z"/>
<!-- (18, 0, 0) -->
<path style="fill: rgb(244, 244, 241); stroke: rgb(51, 51, 51); stroke-width: 0.1" d="M0 0.782428L0.103476 0.784376L0 1.053308L-0.103476 0.784376Z"/>
<!-- (19, 0, 0) -->
<path style="fill: rgb(244, 244, 241); stroke: rgb(51, 51, 51); stroke-width: 0.1" d="M0.75264 1.316976L0.486108 1.736392L0.436232 1.518472L0.294728 0.900204L0.135796 0.784988L0.156344 0.785372L0.409556 0.614604L0.444888 0.496828Z"/>
<!-- (20, 0, 0) -->
<path style="fill: rgb(244, 244, 241); stroke: rgb(51, 51, 51); stroke-width: 0.1" d="M0 1.188748L0.175292 1.392016L0 1.583288L-0.175292 1.392016Z"/>
<!-- (21, 0, 0) -->
<path style="fill: rgb(244, 244, 241); stroke: rgb(51, 51, 51); stroke-width: 0.1" d="M0.869804 -0.6604L0.663712 -0.5477L0.40932 -0.58162L0.218528 -0.471384L0.082852 -0.60706L0.171888 -0.874168L0.341484 -0.980164L0.38812 -1.07344L0.564316 -1.402596L0.802316 -1.459032L0.929904 -1.564536L1.113924 -1.59398L1.02424 -1.481688L0.812132 -1.216124L0.475988 -0.9953L0.549596 -0.983032L0.58388 -0.945772L0.771412 -0.741972Z"/>
<!-- (22, 0, 0) -->
<path style="fill: rgb(244, 244, 241); stroke: rgb(51, 51, 51); stroke-width: 0.1" d="M0.153228 -1.61042L0 -1.272556L-0.153228 -1.61042L0 -1.520372Z"/>
<!-- (23, 0, 0) -->
<path style="fill: rgb(244, 244, 241); stroke: rgb(51, 51, 51); stroke-width: 0.1" d="M-1.498412 0.156048L-1.428 -0.688972L-1.392152 -0.70322L-0.968684 -0.87152L-0.771412 -0.741972L-0.869804 -0.6604L-1.1159 -0.456372L-1.31728 -0.133956Z"/>
<!-- (24, 0, 0) -->
<path style="fill: rgb(244, 244, 241); stroke: rgb(51, 51, 51); stroke-width: 0.1" d="M-0.771412 -0.741972L-0.968684 -0.87152L-1.392152 -0.70322L-1.293404 -0.884328L-1.052584 -0.904516L-0.858752 -0.990392L-0.58388 -0.945772Z"/>
<!-- (25, 0, 0) -->
<path style="fill: rgb(244, 244, 241); stroke: rgb(51, 51, 51); stroke-width: 0.1" d="M-1.31728 -0.133956L-1.1159 -0.456372L-0.869804 -0.6604L-0.850912 -0.515256L-1.051124 -0.16194L-1.30728 0.058888Z"/>
<!-- (26, 0, 0) -->
<path style="fill: rgb(244, 244, 241); stroke: rgb(51, 51, 51); stroke-width: 0.1" d="M-1.30728 0.058888L-1.051124 -0.16194L-0.850912 -0.515256L-0.827356 -0.329764L-0.877408 -0.064776L-1.210224 0.291392L-1.380888 0.474036L-1.380888 0.117772Z"/>
<!-- (27, 0, 0) -->
<path style="fill: rgb(244, 244, 241); stroke: rgb(51, 51, 51); stroke-width: 0.1" d="M-1.210224 0.291392L-0.877408 -0.064776L-0.839132 -0.029444L-1.225524 0.854844L-1.27784 0.974572Z"/>
<!-- (28, 0, 0) -->
<path style="fill: rgb(244, 244, 241); stroke: rgb(51, 51, 51); stroke-width: 0.1" d="M-0.839132 -0.029444L-0.877408 -0.064776L-0.827356 -0.329764L-0.599984 0.031352L-0.577088 0.06772L-0.570892 0.255664L-0.568256 0.335652L-0.59638 0.297748L-0.651792 0.22306Z"/>
<!-- (29, 0, 0) -->
<path style="fill: rgb(244, 244, 241); stroke: rgb(51, 51, 51); stroke-width: 0.1" d="M-1.225524 0.854844L-0.839132 -0.029444L-0.651792 0.22306L-0.99224 0.497592L-1.094572 1.014012L-1.118844 1.136512Z"/>
<!-- (30, 0, 0) -->
<path style="fill: rgb(244, 244, 241); stroke: rgb(51, 51, 51); stroke-width: 0.1" d="M-1.094572 1.014012L-0.99224 0.497592L-0.651792 0.22306L-0.59638 0.297748L-0.75944 0.506424L-0.771872 1.36822L-0.774164 1.527124Z"/>
<!-- (31, 0, 0) -->
<path style="fill: rgb(244, 244, 241); stroke: rgb(51, 51, 51); stroke-width: 0.1" d="M-1.02424 -1.481688L-0.812132 -1.216124L-0.475988 -0.9953L-0.549596 -0.983032L-0.58388 -0.945772L-0.858752 -0.990392L-1.052584 -0.904516L-1.293404 -0.884328L-1.46234 -0.870164L-1.248876 -1.385424Z"/>
<!-- (32, 0, 0) -->
<path style="fill: rgb(244, 244, 241); stroke: rgb(51, 51, 51); stroke-width: 0.1" d="M-0.570892 0.255664L-0.577088 0.06772L-0.599984 0.031352L-0.383056 -0.23042L-0.256292 -0.169784L-0.341252 -0.019012L-0.383056 0.05518Z"/>
<!-- (33, 0, 0) -->
<path style="fill: rgb(244, 244, 241); stroke: rgb(51, 51, 51); stroke-width: 0.1" d="M-0.568256 0.335652L-0.570892 0.255664L-0.383056 0.05518L-0.341252 -0.019012L-0.291784 0.1494L-0.197564 0.29956L-0.047404 0.334892L-0.031412 0.48482L-0.182844 0.526272L-0.444888 0.496828L-0.565604 0.384944Z"/>
<!-- (34, 0, 0) -->
<path style="fill: rgb(244, 244, 241); stroke: rgb(51, 51, 51); stroke-width: 0.1" d="M-0.663712 -0.5477L-0.40932 -0.58162L-0.218528 -0.471384L-0.174008 -0.315804L-0.256292 -0.169784L-0.383056 -0.23042L-0.421332 -0.286364L-0.377168 -0.33936L-0.280004 -0.354084L-0.327116 -0.4483L-0.56266 -0.457132Z"/>
<!-- (35, 0, 0) -->
<path style="fill: rgb(244, 244, 241); stroke: rgb(51, 51, 51); stroke-width: 0.1" d="M-0.56266 -0.457132L-0.327116 -0.4483L-0.280004 -0.354084L-0.377168 -0.33936Z"/>
<!-- (36, 0, 0) -->
<path style="fill: rgb(244, 244, 241); stroke: rgb(51, 51, 51); stroke-width: 0.1" d="M-0.599984 0.031352L-0.827356 -0.329764L-0.850912 -0.515256L-0.869804 -0.6604L-0.663712 -0.5477L-0.56266 -0.457132L-0.377168 -0.33936L-0.421332 -0.286364L-0.383056 -0.23042Z"/>
<!-- (37, 0, 0) -->
<path style="fill: rgb(244, 244, 241); stroke: rgb(51, 51, 51); stroke-width: 0.1" d="M-0.771872 1.36822L-0.75944 0.506424L-0.59638 0.297748L-0.568256 0.335652L-0.565604 0.384944L-0.444888 0.496828L-0.75264 1.316976Z"/>
<!-- (38, 0, 0) -->
<path style="fill: rgb(244, 244, 241); stroke: rgb(51, 51, 51); stroke-width: 0.1" d="M-0.75264 1.316976L-0.444888 0.496828L-0.409556 0.614604L-0.156344 0.785372L-0.135796 0.784988L-0.294728 0.900204L-0.436232 1.518472L-0.486108 1.736392Z"/>
<!-- (39, 0, 0) -->
<path style="fill: rgb(244, 244, 241); stroke: rgb(51, 51, 51); stroke-width: 0.1" d="M-0.341252 -0.019012L-0.256292 -0.169784L-0.174008 -0.315804L-0.218528 -0.471384L-0.082852 -0.60706L-0.171888 -0.874168L-0.341484 -0.980164L-0.38812 -1.07344L0 -0.920808L0.38812 -1.07344L0.341484 -0.980164L0.171888 -0.874168L0.082852 -0.60706L0.218528 -0.471384L0.174008 -0.315804L0.256292 -0.169784L0.341252 -0.019012L0.291784 0.1494L0 0.034568L-0.291784 0.1494Z"/>
<!-- (40, 0, 0) -->
<path style="fill: rgb(244, 244, 241); stroke: rgb(51, 51, 51); stroke-width: 0.1" d="M-0.869804 -0.6604L-0.771412 -0.741972L-0.58388 -0.945772L-0.549596 -0.983032L-0.475988 -0.9953L-0.812132 -1.216124L-1.02424 -1.481688L-1.113924 -1.59398L-0.929904 -1.564536L-0.802316 -1.459032L-0.564316 -1.402596L-0.38812 -1.07344L-0.341484 -0.980164L-0.171888 -0.874168L-0.082852 -0.60706L-0.218528 -0.471384L-0.40932 -0.58162L-0.663712 -0.5477Z"/>
<!-- (41, 0, 0) -->
<path style="fill: rgb(244, 244, 241); stroke: rgb(51, 51, 51); stroke-width: 0.1" d="M-0.436232 1.518472L-0.294728 0.900204L-0.135796 0.784988L-0.103476 0.784376L0 1.053308L0.103476 0.784376L0.135796 0.784988L0.294728 0.900204L0.436232 1.518472L0.350668 1.792336L0.324172 2L0.238784 1.801168L0.256452 1.486124L0.175292 1.392016L0 1.188748L-0.175292 1.392016L-0.256452 1.486124L-0.238784 1.801168L-0.324172 2L-0.350668 1.792336Z"/>
<!-- (42, 0, 0) -->
<path style="fill: rgb(244, 244, 241); stroke: rgb(51, 51, 51); stroke-width: 0.1" d="M-0.466172 -1.667588L-0.453904 -1.836888L-0.53242 -1.878596L-0.441636 -1.871236L-0.203636 -1.721568L-0.189648 -1.69072L-0.153228 -1.61042L0 -1.272556L0.153228 -1.61042L0.189648 -1.69072L0.203636 -1.721568L0.441636 -1.871236L0.53242 -1.878596L0.453904 -1.836888L0.466172 -1.667588L0.29442 -1.358432L0 -1.174412L-0.29442 -1.358432Z"/>
<!-- (43, 0, 0) -->
<path style="fill: rgb(244, 244, 241); stroke: rgb(51, 51, 51); stroke-width: 0.1" d="M0.29442 -1.358432L0.466172 -1.667588L1.133556 -1.96202L1.089388 -1.701936L0.929904 -1.564536L0.802316 -1.459032L0.564316 -1.402596L0.38812 -1.07344L0 -0.920808L-0.38812 -1.07344L-0.564316 -1.402596L-0.802316 -1.459032L-0.929904 -1.564536L-1.089388 -1.701936L-1.133556 -1.96202L-0.466172 -1.667588L-0.29442 -1.358432L0 -1.174412Z"/>
</svg>
