<svg viewBox="-10 -10 20 20" xmlns="http://www.w3.org/2000/svg">
<style>
.cell-path {
                stroke-linejoin: round;
                fill: rgb(244, 244, 241);
                stroke: rgb(51, 51, 51);
                stroke-width: 0.1
            }
.dual .cell-path {
                fill: none;
                stroke: rgb(255, 0, 0);
                stroke-opacity: 0.5;
                stroke-width: 0.033333335
            }
</style>
<!-- (3703, 0, 0) -->
<path class="cell-path" d="M5.00001 12.124348L6.0000105 12.124348L5.50001 11.258322L6.0000095 10.392296L5.5000095 9.526271L5.0000095 10.392297L4.50001 11.258322L4.00001 12.124348Z"/>
<!-- (3702, 0, 0) -->
<path class="cell-path" d="M7.50001 11.258321L7.00001 10.392296L6.5000095 9.52627L6.0000095 8.660245L5.5000095 9.52627L6.0000095 10.392296L5.5000095 11.258321L6.50001 11.258321Z"/>
<!-- (3655, 0, 0) -->
<path class="cell-path" d="M6.0000086 8.660246L5.5000086 7.7942204L5.000008 6.928195L4.500008 6.06217L4.000008 6.9281955L4.5000086 7.794221L4.0000086 8.660246L5.0000086 8.660246Z"/>
<!-- (3654, 0, 0) -->
<path class="cell-path" d="M3.500008 7.7942204L2.500008 7.794221L3.0000083 8.660246L2.5000086 9.526272L3.000009 10.392297L3.5000086 9.526271L4.0000086 8.660246L4.500008 7.79422Z"/>
<!-- (3653, 0, 0) -->
<path class="cell-path" d="M2.0000088 10.392298L3.0000088 10.392297L2.5000086 9.526272L3.0000086 8.660246L2.500008 7.794221L2.0000083 8.660247L1.5000086 9.526272L1.0000088 10.392298Z"/>
<!-- (3652, 0, 0) -->
<path class="cell-path" d="M3.500008 7.7942204L4.500008 7.7942204L4.0000076 6.928195L4.5000076 6.0621696L4.0000076 5.196144L3.5000076 6.06217L3.0000079 6.9281955L2.500008 7.794221Z"/>
<!-- (3650, 0, 0) -->
<path class="cell-path" d="M3.500009 11.258324L4.500009 11.258323L4.0000086 10.392298L4.5000086 9.526272L4.0000086 8.660247L3.5000086 9.526273L3.0000088 10.392298L2.500009 11.258324Z"/>
<!-- (3649, 0, 0) -->
<path class="cell-path" d="M5.0000086 8.660246L4.0000086 8.660246L4.5000086 9.526272L4.0000086 10.392297L4.500009 11.258323L5.0000086 10.392297L5.5000086 9.526272L6.0000086 8.660246Z"/>
<!-- (3575, 0, 0) -->
<path class="cell-path" d="M10.0000105 8.660249L9.0000105 8.660249L8.0000105 8.66025L7.00001 8.66025L7.5000105 9.526275L8.5000105 9.526275L9.0000105 10.3923L9.5000105 9.526275Z"/>
<!-- (3574, 0, 0) -->
<path class="cell-path" d="M8.000011 10.392301L7.5000124 11.258326L8.500012 11.258326L9.000012 12.124351L10.000012 12.124351L9.500012 11.258326L9.000011 10.3923L8.500011 9.526275Z"/>
<!-- (3572, 0, 0) -->
<path class="cell-path" d="M8.000011 10.3923L8.5000105 9.526275L7.500011 9.526275L7.0000105 8.66025L6.0000105 8.66025L6.500011 9.526275L7.000011 10.392301L7.5000114 11.258326Z"/>
<!-- (3569, 0, 0) -->
<path class="cell-path" d="M9.500011 9.526275L9.000011 10.3923L10.000011 10.3923L10.500012 11.258326L11.500012 11.258325L11.000011 10.3923L10.500011 9.526274L10.000011 8.660249Z"/>
<!-- (3563, 0, 0) -->
<path class="cell-path" d="M9.500011 6.062174L9.000012 6.9281993L10.000012 6.928199L10.500012 7.794224L11.500012 7.794224L11.000012 6.9281983L10.500011 6.062173L10.000011 5.196148Z"/>
<!-- (3562, 0, 0) -->
<path class="cell-path" d="M9.000012 8.66025L10.000012 8.66025L11.000012 8.660249L12.000012 8.660249L11.500012 7.7942233L10.500012 7.794224L10.000011 6.928199L9.500012 7.7942243Z"/>
<!-- (3561, 0, 0) -->
<path class="cell-path" d="M6.0000124 8.660251L7.0000124 8.660251L8.000012 8.66025L9.000012 8.66025L8.500012 7.7942243L7.5000124 7.7942247L7.000012 6.9282L6.500012 7.794225Z"/>
<!-- (3560, 0, 0) -->
<path class="cell-path" d="M10.000011 6.928199L9.000011 6.928199L8.000011 6.9281993L7.0000114 6.9282L7.5000114 7.7942247L8.500011 7.7942247L9.000011 8.66025L9.500011 7.7942243Z"/>
<!-- (3559, 0, 0) -->
<path class="cell-path" d="M6.500012 7.7942243L7.000012 6.928199L6.000012 6.928199L5.5000114 6.062174L4.5000114 6.062174L5.000012 6.9281993L5.500012 7.7942243L6.0000124 8.66025Z"/>
<!-- (3558, 0, 0) -->
<path class="cell-path" d="M7.0000114 5.196148L6.0000114 5.196148L5.0000114 5.1961484L4.0000114 5.196149L4.5000114 6.062174L5.5000114 6.062174L6.000012 6.928199L6.5000114 6.0621734Z"/>
<!-- (3557, 0, 0) -->
<path class="cell-path" d="M10.000011 5.1961474L9.000011 5.196148L8.000011 5.196148L7.0000114 5.196148L7.5000114 6.0621734L8.500011 6.0621734L9.000011 6.9281983L9.500011 6.062173Z"/>
<!-- (3556, 0, 0) -->
<path class="cell-path" d="M6.000012 6.9281993L7.000012 6.9281993L8.000011 6.928199L9.000011 6.928199L8.500011 6.0621734L7.500012 6.062174L7.0000114 5.1961484L6.500012 6.062174Z"/>
<!-- (1023, 0, 0) -->
<path class="cell-path" d="M-6.9999995 8.660253L-8 8.660254L-7.499999 9.5262785L-7.9999986 10.392304L-7.499998 11.258329L-6.9999986 10.392303L-6.499999 9.526278L-5.9999995 8.660252Z"/>
<!-- (1022, 0, 0) -->
<path class="cell-path" d="M-9.5 9.526279L-8.999999 10.392304L-8.499999 11.258329L-7.999998 12.124355L-7.4999986 11.258329L-7.999999 10.392304L-7.5 9.5262785L-8.5 9.5262785Z"/>
<!-- (1021, 0, 0) -->
<path class="cell-path" d="M-11.000002 6.928204L-10.500001 7.7942295L-10.000001 8.6602545L-9.5 9.526279L-9 8.660254L-9.500001 7.7942286L-9.000002 6.9282026L-10.000002 6.9282036Z"/>
<!-- (1020, 0, 0) -->
<path class="cell-path" d="M-7.499999 9.5262785L-7.9999995 8.660254L-8.5 7.794228L-9.000001 6.9282026L-9.5 7.7942286L-9 8.660254L-9.5 9.526279L-8.499999 9.526279Z"/>
<!-- (1019, 0, 0) -->
<path class="cell-path" d="M-7.999999 8.660254L-7.4999995 7.7942276L-6.9999995 6.9282017L-6.5 6.062176L-7.5 6.0621767L-8 6.9282026L-9 6.9282026L-8.5 7.794228Z"/>
<!-- (1018, 0, 0) -->
<path class="cell-path" d="M-8.500001 6.0621767L-9.000001 5.1961513L-9.500001 6.062177L-10.500001 6.0621777L-11 6.9282036L-10 6.928203L-9 6.928202L-8 6.9282017Z"/>
<!-- (1017, 0, 0) -->
<path class="cell-path" d="M-11.500001 6.0621786L-11.000001 6.9282036L-10.500001 6.0621777L-9.500001 6.062177L-9.000002 5.1961517L-10.000002 5.196152L-11.000002 5.1961527L-12.000002 5.196153Z"/>
<!-- (1016, 0, 0) -->
<path class="cell-path" d="M-8.500001 6.0621767L-8.000001 6.9282017L-7.500001 6.0621758L-6.500001 6.0621753L-6.0000014 5.19615L-7.000002 5.1961503L-8.000002 5.196151L-9.000002 5.1961513Z"/>
<!-- (1015, 0, 0) -->
<path class="cell-path" d="M-1.9999983 8.66025L-1.4999986 7.794224L-0.9999989 6.928198L-0.49999928 6.0621724L-1.4999994 6.062173L-1.9999992 6.928199L-2.9999993 6.928199L-2.4999988 7.7942243Z"/>
<!-- (1014, 0, 0) -->
<path class="cell-path" d="M-2.5 6.062174L-3.0000005 5.1961484L-3.5 6.0621743L-4.5 6.062175L-5 6.9282007L-3.9999995 6.9282002L-2.9999995 6.9281993L-1.9999993 6.928199Z"/>
<!-- (1013, 0, 0) -->
<path class="cell-path" d="M-5.5000005 6.0621758L-5 6.9282007L-4.5 6.062175L-3.5000002 6.0621743L-3.0000005 5.196149L-4.000001 5.1961493L-5.000001 5.19615L-6.000001 5.1961503Z"/>
<!-- (1012, 0, 0) -->
<path class="cell-path" d="M-2.5 6.062174L-1.9999994 6.928199L-1.4999998 6.062173L-0.49999976 6.0621724L0 5.196147L-1.0000002 5.1961474L-2.0000005 5.196148L-3.0000005 5.1961484Z"/>
<!-- (1011, 0, 0) -->
<path class="cell-path" d="M-6.000001 5.196151L-6.500001 6.0621767L-7.0000005 6.928202L-7.5000005 7.794228L-6.5 7.7942276L-6.0000005 6.9282017L-5 6.9282017L-5.5000005 6.062176Z"/>
<!-- (1010, 0, 0) -->
<path class="cell-path" d="M-5.4999995 7.7942266L-4.999999 8.660252L-4.499999 7.7942266L-3.4999993 7.7942257L-2.9999995 6.9282002L-3.9999998 6.9282007L-5 6.928201L-6 6.9282017Z"/>
<!-- (1009, 0, 0) -->
<path class="cell-path" d="M-2.499999 7.794225L-2.9999995 6.9282002L-3.499999 7.7942257L-4.499999 7.794226L-4.999999 8.660252L-3.9999988 8.660252L-2.9999986 8.660251L-1.9999986 8.660251Z"/>
<!-- (1008, 0, 0) -->
<path class="cell-path" d="M-5.4999995 7.794227L-6 6.928202L-6.4999995 7.7942276L-7.5 7.794228L-7.9999995 8.660254L-6.999999 8.660254L-5.999999 8.660253L-4.999999 8.660253Z"/>
<!-- (1007, 0, 0) -->
<path class="cell-path" d="M-2.0000005 8.660252L-3.0000007 8.660252L-4.000001 8.660252L-5.000001 8.660253L-4.500001 9.526278L-3.5000005 9.526278L-3.0000002 10.392303L-2.5000005 9.526278Z"/>
<!-- (1006, 0, 0) -->
<path class="cell-path" d="M-4 10.392303L-4.5 11.258329L-3.4999998 11.258328L-2.9999993 12.124353L-1.9999993 12.124353L-2.4999995 11.258328L-3 10.3923025L-3.5000005 9.526278Z"/>
<!-- (1004, 0, 0) -->
<path class="cell-path" d="M-4 10.3923025L-3.5000005 9.526278L-4.5000005 9.526278L-5.000001 8.660252L-6.000001 8.660253L-5.500001 9.526278L-5.0000005 10.392303L-4.5 11.258328Z"/>
<!-- (1003, 0, 0) -->
<path class="cell-path" d="M0.49999982 9.526275L-8.34465E-07 8.66025L-0.50000036 9.526276L-1.5000002 9.526276L-2 10.392302L-0.99999976 10.392301L3.5762787E-07 10.392301L1.0000005 10.3923Z"/>
<!-- (1002, 0, 0) -->
<path class="cell-path" d="M-1.5000013 7.7942243L-2.000001 8.66025L-2.5000005 9.526276L-3 10.392302L-2 10.392301L-1.5000004 9.526276L-0.50000024 9.526275L-1.0000007 8.66025Z"/>
<!-- (1001, 0, 0) -->
<path class="cell-path" d="M-2.6226044E-06 5.196147L-0.50000215 6.062173L-1.0000017 6.9281983L-1.5000013 7.7942243L-0.50000125 7.794224L-1.66893E-06 6.928198L0.99999845 6.9281974L0.4999979 6.062172Z"/>
<!-- (1000, 0, 0) -->
<path class="cell-path" d="M-0.50000024 9.526275L-5.9604645E-07 8.660249L0.49999905 7.7942233L0.9999987 6.928198L-1.4305115E-06 6.928198L-0.500001 7.794224L-1.5000011 7.7942243L-1.0000007 8.66025Z"/>
<!-- (999, 0, 0) -->
<path class="cell-path" d="M0.49999863 6.062173L0.99999917 6.9281983L1.4999988 6.062173L2.4999988 6.062172L2.9999986 5.1961465L1.9999983 5.196147L0.9999982 5.1961474L-1.9073486E-06 5.196148Z"/>
<!-- (998, 0, 0) -->
<path class="cell-path" d="M2.499999 7.794223L2.9999986 6.928197L3.4999983 6.0621715L3.999998 5.196146L2.9999979 5.196146L2.4999983 6.062172L1.4999982 6.0621724L1.9999986 6.928198Z"/>
<!-- (997, 0, 0) -->
<path class="cell-path" d="M1.0000002 10.3923L1.4999999 9.526274L1.9999995 8.660248L2.499999 7.794223L1.499999 7.794223L0.99999946 8.660249L-5.9604645E-07 8.66025L0.49999982 9.526275Z"/>
<!-- (996, 0, 0) -->
<path class="cell-path" d="M1.4999983 6.0621724L0.99999857 6.928198L0.49999887 7.794224L-8.34465E-07 8.66025L0.9999992 8.660249L1.4999989 7.7942233L2.499999 7.794223L1.9999986 6.928198Z"/>
<!-- (961, 0, 0) -->
<path class="cell-path" d="M-6.000001 8.660253L-6.5000005 9.5262785L-7.0000005 10.392303L-7.5 11.258329L-6.5 11.258329L-6.0000005 10.392303L-5.0000005 10.392303L-5.5000005 9.526278Z"/>
<!-- (774, 0, 0) -->
<path class="cell-path" d="M-10 10.3923025L-9.500001 9.526278L-10.500001 9.526278L-11.000001 8.660253L-12.000001 8.660253L-11.500001 9.526278L-11 10.392303L-10.5 11.258328Z"/>
<!-- (773, 0, 0) -->
<path class="cell-path" d="M-11.500002 7.794227L-12.000002 8.660253L-11.000001 8.660253L-10.500001 9.526278L-9.500001 9.526278L-10.000001 8.660253L-10.500002 7.794227L-11.000002 6.9282017Z"/>
<!-- (772, 0, 0) -->
<path class="cell-path" d="M-10.000001 10.392303L-10.500001 11.258328L-9.5 11.258328L-9 12.124353L-8 12.124353L-8.5 11.258328L-9.000001 10.3923025L-9.500001 9.526278Z"/>
<!-- (751, 0, 0) -->
<path class="cell-path" d="M-8.500004 -7.7942295L-9.000003 -6.9282036L-8.000003 -6.9282045L-7.5000024 -6.0621786L-6.5000024 -6.0621796L-7.000003 -6.9282045L-7.5000033 -7.79423L-8.000004 -8.660255Z"/>
<!-- (750, 0, 0) -->
<path class="cell-path" d="M-9.000002 -5.1961527L-8.000002 -5.196153L-7.000002 -5.1961536L-6.0000014 -5.1961536L-6.500002 -6.062179L-7.500002 -6.0621786L-8.000002 -6.928204L-8.500002 -6.0621786Z"/>
<!-- (749, 0, 0) -->
<path class="cell-path" d="M-12.000003 -5.1961517L-11.000003 -5.196152L-10.000003 -5.1961527L-9.000002 -5.1961527L-9.500003 -6.062178L-10.500003 -6.0621777L-11.000004 -6.928203L-11.500003 -6.0621777Z"/>
<!-- (748, 0, 0) -->
<path class="cell-path" d="M-8.000003 -6.928204L-9.000003 -6.9282036L-10.000003 -6.9282036L-11.000004 -6.928203L-10.500003 -6.0621777L-9.500003 -6.062178L-9.000003 -5.1961527L-8.500003 -6.0621786Z"/>
<!-- (747, 0, 0) -->
<path class="cell-path" d="M-9.000002 -6.928204L-9.500002 -7.7942295L-10.000002 -8.6602545L-10.500002 -9.52628L-11.000002 -8.6602545L-10.500002 -7.7942295L-11.000002 -6.9282036L-10.000002 -6.928204Z"/>
<!-- (739, 0, 0) -->
<path class="cell-path" d="M-11.000002 -10.392305L-10.500002 -9.526279L-10.000002 -8.6602545L-9.500002 -7.794229L-9.000002 -8.6602545L-9.500002 -9.526279L-9.000002 -10.392305L-10.000002 -10.392305Z"/>
<!-- (738, 0, 0) -->
<path class="cell-path" d="M-8.500002 -9.52628L-7.500002 -9.526281L-8.000002 -10.392306L-7.5000024 -11.258331L-8.000003 -12.124357L-8.500002 -11.258331L-9.000002 -10.392306L-9.500002 -9.52628Z"/>
<!-- (737, 0, 0) -->
<path class="cell-path" d="M-7.000003 -12.124357L-8.000003 -12.124357L-7.500003 -11.258331L-8.000003 -10.392306L-7.5000024 -9.52628L-7.000003 -10.392306L-6.500003 -11.258331L-6.000003 -12.124357Z"/>
<!-- (736, 0, 0) -->
<path class="cell-path" d="M-8.500002 -9.52628L-9.500002 -9.52628L-9.000002 -8.6602545L-9.500002 -7.794229L-9.000002 -6.9282036L-8.500002 -7.7942295L-8.000002 -8.6602545L-7.5000024 -9.52628Z"/>
<!-- (727, 0, 0) -->
<path class="cell-path" d="M-8.000002 -8.660254L-7.500002 -7.794228L-7.000002 -6.9282026L-6.500002 -6.062177L-6.000002 -6.9282026L-6.500002 -7.794228L-6.000002 -8.660254L-7.000002 -8.660254Z"/>
<!-- (726, 0, 0) -->
<path class="cell-path" d="M-5.500002 -7.7942295L-4.500002 -7.7942295L-5.000002 -8.660255L-4.5000024 -9.52628L-5.0000024 -10.392305L-5.5000024 -9.52628L-6.000002 -8.6602545L-6.500002 -7.794229Z"/>
<!-- (725, 0, 0) -->
<path class="cell-path" d="M-4.000002 -10.392305L-5.000002 -10.392305L-4.500002 -9.526279L-5.000002 -8.6602545L-4.500002 -7.7942286L-4.000002 -8.6602545L-3.500002 -9.526279L-3.0000021 -10.392305Z"/>
<!-- (724, 0, 0) -->
<path class="cell-path" d="M-5.500002 -7.7942295L-6.500002 -7.794229L-6.000002 -6.9282036L-6.500002 -6.062178L-6.0000014 -5.1961527L-5.500002 -6.0621786L-5.000002 -6.928204L-4.500002 -7.7942295Z"/>
<!-- (722, 0, 0) -->
<path class="cell-path" d="M-5.500003 -11.258331L-6.500003 -11.258331L-6.000003 -10.392305L-6.500003 -9.52628L-6.0000024 -8.6602545L-5.500003 -9.52628L-5.000003 -10.392305L-4.500003 -11.258331Z"/>
<!-- (721, 0, 0) -->
<path class="cell-path" d="M-7.000003 -8.6602545L-6.000003 -8.6602545L-6.500003 -9.52628L-6.000003 -10.392305L-6.500003 -11.258331L-7.000003 -10.392305L-7.500003 -9.526279L-8.000003 -8.6602545Z"/>
<!-- (717, 0, 0) -->
<path class="cell-path" d="M-8.000002 -5.196153L-9.000002 -5.1961527L-10.000002 -5.1961527L-11.000002 -5.1961527L-10.500002 -4.3301272L-9.500002 -4.3301272L-9.000002 -3.4641023L-8.500002 -4.3301277Z"/>
<!-- (716, 0, 0) -->
<path class="cell-path" d="M-12.000002 -3.4641013L-11.000002 -3.4641016L-10.000002 -3.4641016L-9.000002 -3.4641018L-9.500002 -4.3301272L-10.500002 -4.330127L-11.000002 -5.196152L-11.500002 -4.330127Z"/>
<!-- (715, 0, 0) -->
<path class="cell-path" d="M-11.000002 -3.4641008L-10.500002 -2.5980754L-10.000002 -1.73205L-9.500002 -0.8660245L-9.000002 -1.73205L-9.500002 -2.5980754L-9.000002 -3.4641008L-10.000002 -3.4641008Z"/>
<!-- (714, 0, 0) -->
<path class="cell-path" d="M-8.500001 -2.598076L-7.500001 -2.5980763L-8.000001 -3.4641018L-7.5000014 -4.3301272L-8.000002 -5.1961527L-8.500001 -4.330127L-9.000001 -3.4641013L-9.500001 -2.5980759Z"/>
<!-- (713, 0, 0) -->
<path class="cell-path" d="M-7.000002 -5.1961527L-8.000002 -5.196152L-7.500002 -4.330127L-8.000002 -3.4641013L-7.5000014 -2.598076L-7.000002 -3.4641018L-6.500002 -4.3301272L-6.000002 -5.1961527Z"/>
<!-- (712, 0, 0) -->
<path class="cell-path" d="M-8.500002 -2.5980759L-9.500002 -2.5980759L-9.000001 -1.7320504L-9.500001 -0.86602485L-9.000001 4.7683716E-07L-8.500001 -0.8660251L-8.000001 -1.7320507L-7.5000014 -2.598076Z"/>
<!-- (709, 0, 0) -->
<path class="cell-path" d="M-10.000001 6.2584877E-07L-11.000001 7.748604E-07L-10.500001 0.86602616L-11.000001 1.7320517L-10.500001 2.598077L-10.000001 1.7320515L-9.500001 0.866026L-9.000001 4.7683716E-07Z"/>
<!-- (707, 0, 0) -->
<path class="cell-path" d="M-9.000002 4.7683716E-07L-9.500002 -0.866025L-10.000002 -1.7320504L-10.500002 -2.5980759L-11.000002 -1.7320504L-10.500002 -0.86602503L-11.000002 3.5762787E-07L-10.000002 4.172325E-07Z"/>
<!-- (255, 0, 0) -->
<path class="cell-path" d="M5.9999976 -12.124355L5.499997 -11.25833L4.999997 -10.392304L4.499997 -9.526279L5.499997 -9.526279L5.999997 -10.392304L6.999997 -10.392304L6.4999976 -11.258329Z"/>
<!-- (254, 0, 0) -->
<path class="cell-path" d="M6.499997 -9.526278L6.999997 -8.660253L7.499997 -9.526278L8.499997 -9.526278L8.999997 -10.392303L7.999997 -10.392303L6.999997 -10.392303L5.999997 -10.392303Z"/>
<!-- (253, 0, 0) -->
<path class="cell-path" d="M9.499997 -9.526278L8.999997 -10.392303L8.499997 -9.5262785L7.499997 -9.5262785L6.999997 -8.660253L7.999997 -8.660253L8.999997 -8.660253L9.999997 -8.660253Z"/>
<!-- (252, 0, 0) -->
<path class="cell-path" d="M6.499997 -9.526279L5.999997 -10.392304L5.499997 -9.526279L4.499997 -9.526279L3.9999971 -8.660254L4.999997 -8.660254L5.999997 -8.660254L6.999997 -8.660254Z"/>
<!-- (241, 0, 0) -->
<path class="cell-path" d="M11.999997 -8.660253L11.499997 -9.526278L10.999997 -10.392303L10.499997 -11.258329L9.999997 -10.392303L10.499997 -9.5262785L9.999997 -8.660253L10.999997 -8.660253Z"/>
<!-- (240, 0, 0) -->
<path class="cell-path" d="M8.499997 -11.258329L8.999997 -10.392303L9.499997 -9.5262785L9.999997 -8.660253L10.499997 -9.5262785L9.999997 -10.392303L10.499997 -11.258329L9.499997 -11.258329Z"/>
<!-- (239, 0, 0) -->
<path class="cell-path" d="M0.4999976 -9.526278L0.9999973 -10.3923025L-2.7418137E-06 -10.3923025L-0.500003 -11.2583275L-1.5000031 -11.2583275L-1.0000027 -10.3923025L-0.50000244 -9.526277L-2.1457672E-06 -8.660252Z"/>
<!-- (235, 0, 0) -->
<path class="cell-path" d="M0.9999974 -10.392302L1.4999974 -9.526276L1.9999975 -8.660251L2.4999976 -7.794225L2.9999974 -8.660251L2.4999976 -9.526276L2.9999974 -10.392302L1.9999974 -10.392302Z"/>
<!-- (234, 0, 0) -->
<path class="cell-path" d="M3.4999976 -9.526277L4.4999976 -9.526278L3.9999974 -10.3923025L4.499997 -11.2583275L3.9999971 -12.124353L3.4999971 -11.2583275L2.9999974 -10.3923025L2.4999976 -9.526277Z"/>
<!-- (233, 0, 0) -->
<path class="cell-path" d="M4.999997 -12.124353L3.9999971 -12.124353L4.499997 -11.2583275L3.9999974 -10.3923025L4.4999976 -9.526277L4.999997 -10.3923025L5.499997 -11.2583275L5.999997 -12.124353Z"/>
<!-- (232, 0, 0) -->
<path class="cell-path" d="M3.4999976 -9.526277L2.4999976 -9.526277L2.9999976 -8.660251L2.4999979 -7.794225L2.999998 -6.9282L3.4999979 -7.7942257L3.9999976 -8.660251L4.4999976 -9.526277Z"/>
<!-- (231, 0, 0) -->
<path class="cell-path" d="M-2.000002 -5.1961484L-1.5000019 -4.330123L-1.0000018 -3.4640975L-0.50000167 -2.598072L-1.9073486E-06 -3.4640975L-0.5000018 -4.330123L-1.9073486E-06 -5.1961484L-1.0000019 -5.1961484Z"/>
<!-- (230, 0, 0) -->
<path class="cell-path" d="M0.4999982 -4.330124L1.4999982 -4.330124L0.999998 -5.1961493L1.4999979 -6.062175L0.9999976 -6.9282002L0.4999978 -6.062175L-1.9967556E-06 -5.196149L-0.5000018 -4.3301234Z"/>
<!-- (229, 0, 0) -->
<path class="cell-path" d="M1.9999979 -6.9282002L0.99999785 -6.9282L1.499998 -6.062175L0.9999981 -5.196149L1.4999982 -4.330124L1.9999981 -5.1961493L2.499998 -6.062175L2.9999979 -6.9282002Z"/>
<!-- (228, 0, 0) -->
<path class="cell-path" d="M0.4999982 -4.330124L-0.5000018 -4.3301234L-1.66893E-06 -3.4640982L-0.50000155 -2.5980725L-1.4305115E-06 -1.7320473L0.49999845 -2.598073L0.99999833 -3.4640985L1.4999982 -4.330124Z"/>
<!-- (227, 0, 0) -->
<path class="cell-path" d="M2.9999971 -6.9282L2.4999971 -7.794225L1.9999971 -8.660251L1.4999973 -9.526276L0.99999726 -8.660251L1.4999971 -7.794225L0.99999714 -6.9282L1.9999971 -6.9282Z"/>
<!-- (226, 0, 0) -->
<path class="cell-path" d="M0.49999714 -7.794225L-0.50000286 -7.7942247L-2.7418137E-06 -6.9282L-0.5000026 -6.062174L-2.503395E-06 -5.196149L0.49999738 -6.0621743L0.99999726 -6.9282L1.4999971 -7.794225Z"/>
<!-- (225, 0, 0) -->
<path class="cell-path" d="M-1.0000026 -5.196149L-2.6226044E-06 -5.196149L-0.5000026 -6.0621743L-2.7418137E-06 -6.9282L-0.50000274 -7.794225L-1.0000026 -6.9282L-1.5000026 -6.0621743L-2.0000026 -5.196149Z"/>
<!-- (224, 0, 0) -->
<path class="cell-path" d="M0.49999726 -7.794225L1.4999973 -7.794225L0.99999726 -8.660251L1.4999971 -9.526276L0.99999714 -10.392302L0.4999972 -9.526276L-2.771616E-06 -8.660251L-0.50000274 -7.794225Z"/>
<!-- (223, 0, 0) -->
<path class="cell-path" d="M-2.5000021 -4.3301244L-3.000002 -3.4640987L-2.000002 -3.464099L-1.5000017 -2.5980735L-0.50000167 -2.598074L-1.0000019 -3.4640992L-1.5000021 -4.3301244L-2.0000024 -5.19615Z"/>
<!-- (222, 0, 0) -->
<path class="cell-path" d="M-3.000002 -1.732048L-2.000002 -1.7320482L-1.0000019 -1.7320483L-1.9073486E-06 -1.7320485L-0.50000215 -2.5980737L-1.500002 -2.5980737L-2.0000021 -3.464099L-2.500002 -2.5980735Z"/>
<!-- (221, 0, 0) -->
<path class="cell-path" d="M-6.000002 -1.7320476L-5.000002 -1.7320477L-4.000002 -1.7320478L-3.000002 -1.732048L-3.5000021 -2.5980732L-4.500002 -2.5980732L-5.000002 -3.4640985L-5.500002 -2.598073Z"/>
<!-- (220, 0, 0) -->
<path class="cell-path" d="M-2.0000021 -3.464099L-3.0000021 -3.464099L-4.000002 -3.4640987L-5.000002 -3.4640987L-4.500002 -2.5980735L-3.5000021 -2.5980735L-3.000002 -1.732048L-2.5000021 -2.5980735Z"/>
<!-- (219, 0, 0) -->
<path class="cell-path" d="M-3.000002 -3.4640992L-3.500002 -4.330125L-4.000002 -5.19615L-4.500002 -6.0621758L-5.000002 -5.19615L-4.500002 -4.330125L-5.000002 -3.4640994L-4.000002 -3.4640992Z"/>
<!-- (218, 0, 0) -->
<path class="cell-path" d="M-5.500002 -4.3301244L-6.500002 -4.330124L-6.000002 -3.4640987L-6.500002 -2.598073L-6.0000014 -1.7320478L-5.500002 -2.5980735L-5.000002 -3.464099L-4.500002 -4.3301244Z"/>
<!-- (217, 0, 0) -->
<path class="cell-path" d="M-7.000002 -1.732048L-6.000002 -1.7320482L-6.500002 -2.5980735L-6.000002 -3.464099L-6.500002 -4.3301244L-7.000002 -3.464099L-7.500002 -2.5980735L-8.000002 -1.732048Z"/>
<!-- (216, 0, 0) -->
<path class="cell-path" d="M-5.500002 -4.3301244L-4.500002 -4.3301244L-5.000002 -5.19615L-4.500002 -6.0621753L-5.000002 -6.9282007L-5.500002 -6.0621753L-6.000002 -5.19615L-6.500002 -4.3301244Z"/>
<!-- (215, 0, 0) -->
<path class="cell-path" d="M-2.3841858E-06 -8.660252L-0.5000024 -9.526278L-1.0000024 -10.3923025L-1.5000023 -11.2583275L-2.0000024 -10.3923025L-1.5000024 -9.526278L-2.0000024 -8.660252L-1.0000024 -8.660252Z"/>
<!-- (214, 0, 0) -->
<path class="cell-path" d="M-2.5000024 -9.526278L-3.5000024 -9.526278L-3.0000024 -8.660252L-3.5000021 -7.794226L-3.000002 -6.9282007L-2.5000021 -7.7942266L-2.0000024 -8.660252L-1.5000024 -9.526278Z"/>
<!-- (213, 0, 0) -->
<path class="cell-path" d="M-4.000002 -6.9282007L-3.000002 -6.9282007L-3.500002 -7.794226L-3.000002 -8.660252L-3.500002 -9.526278L-4.000002 -8.660252L-4.500002 -7.794226L-5.000002 -6.9282007Z"/>
<!-- (212, 0, 0) -->
<path class="cell-path" d="M-2.5000024 -9.526278L-1.5000024 -9.526278L-2.0000024 -10.392303L-1.5000025 -11.258328L-2.0000024 -12.124353L-2.5000024 -11.258328L-3.0000024 -10.392303L-3.5000024 -9.526278Z"/>
<!-- (211, 0, 0) -->
<path class="cell-path" d="M-5.000002 -6.9282007L-4.500002 -6.0621753L-4.000002 -5.19615L-3.5000021 -4.330124L-3.000002 -5.1961493L-3.500002 -6.062175L-3.0000017 -6.9282002L-4.000002 -6.9282007Z"/>
<!-- (210, 0, 0) -->
<path class="cell-path" d="M-2.500002 -6.0621758L-1.5000019 -6.0621758L-2.000002 -6.928201L-1.500002 -7.7942266L-2.000002 -8.660252L-2.500002 -7.7942266L-3.000002 -6.928201L-3.500002 -6.0621758Z"/>
<!-- (209, 0, 0) -->
<path class="cell-path" d="M-1.0000014 -8.660252L-2.0000014 -8.660252L-1.5000015 -7.794226L-2.0000014 -6.9282007L-1.5000017 -6.0621758L-1.0000015 -6.9282007L-0.5000015 -7.794226L-1.4305115E-06 -8.660252Z"/>
<!-- (208, 0, 0) -->
<path class="cell-path" d="M-2.5000017 -6.0621753L-3.5000017 -6.0621753L-3.000002 -5.19615L-3.5000017 -4.330125L-3.000002 -3.4640992L-2.500002 -4.3301244L-2.0000017 -5.19615L-1.5000017 -6.0621753Z"/>
<!-- (187, 0, 0) -->
<path class="cell-path" d="M13.000001 -2.3841858E-06L12.000001 -2.115965E-06L11.000001 -1.847744E-06L10 -1.5795231E-06L10.500001 0.8660238L11.500001 0.86602354L12.000001 1.7320489L12.500001 0.86602324Z"/>
<!-- (184, 0, 0) -->
<path class="cell-path" d="M11.000002 1.7320492L11.500001 0.86602366L10.500001 0.866024L10.000001 -1.1920929E-06L9.000001 -9.536743E-07L9.500001 0.8660244L10.000002 1.7320497L10.500002 2.598075Z"/>
<!-- (183, 0, 0) -->
<path class="cell-path" d="M9.999998 -5.196154L8.999998 -5.1961536L7.999998 -5.1961536L6.9999976 -5.196153L7.499998 -4.3301277L8.499998 -4.330128L8.999998 -3.4641027L9.499998 -4.3301287Z"/>
<!-- (182, 0, 0) -->
<path class="cell-path" d="M7.9999995 -3.4641025L7.5 -2.5980768L8.5 -2.5980773L9 -1.7320523L10 -1.7320526L9.5 -2.5980778L8.999999 -3.464103L8.499999 -4.330128Z"/>
<!-- (181, 0, 0) -->
<path class="cell-path" d="M9.500001 -0.8660266L10 -1.7320522L9 -1.7320518L8.5 -2.598077L7.5 -2.5980768L8 -1.7320515L8.500001 -0.8660262L9.000001 -9.536743E-07Z"/>
<!-- (180, 0, 0) -->
<path class="cell-path" d="M7.999999 -3.4641025L8.499999 -4.330128L7.499999 -4.3301277L6.9999986 -5.1961527L5.9999986 -5.1961527L6.499999 -4.3301272L6.999999 -3.464102L7.4999995 -2.5980768Z"/>
<!-- (179, 0, 0) -->
<path class="cell-path" d="M9 -1.1920929E-06L10 -1.4007092E-06L11 -1.6093254E-06L12 -1.8179417E-06L11.5 -0.86602724L10.5 -0.866027L10 -1.7320524L9.5 -0.8660268Z"/>
<!-- (178, 0, 0) -->
<path class="cell-path" d="M11 -1.7320528L11.499999 -2.5980783L10.499999 -2.598078L9.999999 -3.4641032L8.999999 -3.464103L9.499999 -2.5980778L10 -1.7320523L10.5 -0.8660271Z"/>
<!-- (177, 0, 0) -->
<path class="cell-path" d="M9.499999 -4.3301287L8.999999 -3.4641027L10 -3.4641032L10.5 -2.5980778L11.5 -2.5980783L11 -3.4641035L10.499999 -4.3301287L9.999999 -5.196154Z"/>
<!-- (175, 0, 0) -->
<path class="cell-path" d="M10 -5.1961536L10.5 -4.330128L11 -3.4641027L11.5 -2.5980773L12 -3.4641027L11.5 -4.330128L12 -5.1961536L11 -5.1961536Z"/>
<!-- (171, 0, 0) -->
<path class="cell-path" d="M9.499999 -7.7942286L9 -6.928203L10 -6.9282036L10.5 -6.0621786L11.5 -6.0621786L11 -6.928204L10.499999 -7.7942295L9.999999 -8.6602545Z"/>
<!-- (170, 0, 0) -->
<path class="cell-path" d="M9 -5.1961527L10 -5.196153L11 -5.196153L12 -5.1961536L11.5 -6.062179L10.5 -6.0621786L9.999999 -6.9282036L9.5 -6.062178Z"/>
<!-- (169, 0, 0) -->
<path class="cell-path" d="M6 -5.1961517L7 -5.196152L8 -5.196152L9 -5.1961527L8.5 -6.062178L7.4999995 -6.0621777L6.9999995 -6.9282026L6.4999995 -6.062177Z"/>
<!-- (168, 0, 0) -->
<path class="cell-path" d="M9.999999 -6.9282036L8.999999 -6.928203L7.999999 -6.928203L6.999999 -6.9282026L7.499999 -6.0621777L8.499999 -6.0621777L9 -5.1961527L9.499999 -6.062178Z"/>
<!-- (167, 0, 0) -->
<path class="cell-path" d="M6.4999995 -6.062178L6.9999995 -6.928204L5.9999995 -6.9282036L5.499999 -7.7942286L4.499999 -7.7942286L4.999999 -6.928203L5.4999995 -6.062178L6 -5.1961527Z"/>
<!-- (166, 0, 0) -->
<path class="cell-path" d="M6.999999 -8.6602545L5.999999 -8.6602545L4.999999 -8.660254L3.999999 -8.660254L4.499999 -7.7942286L5.499999 -7.7942286L5.9999995 -6.9282036L6.499999 -7.794229Z"/>
<!-- (165, 0, 0) -->
<path class="cell-path" d="M9.999999 -8.660255L8.999999 -8.660255L7.999999 -8.6602545L6.999999 -8.6602545L7.499999 -7.7942295L8.499999 -7.7942295L9 -6.9282045L9.499999 -7.79423Z"/>
<!-- (164, 0, 0) -->
<path class="cell-path" d="M5.9999995 -6.928203L6.9999995 -6.928203L7.9999995 -6.9282036L9 -6.9282036L8.499999 -7.794229L7.4999995 -7.7942286L6.999999 -8.660254L6.4999995 -7.7942286Z"/>
<!-- (162, 0, 0) -->
<path class="cell-path" d="M12.999999 -8.660255L11.999999 -8.660255L10.999999 -8.6602545L9.999999 -8.6602545L10.499999 -7.7942295L11.499999 -7.7942295L12 -6.9282045L12.499999 -7.79423Z"/>
<!-- (63, 0, 0) -->
<path class="cell-path" d="M3.5000005 -2.5980763L3 -3.4641016L2.5000005 -2.5980759L1.5000002 -2.5980754L1.0000005 -1.7320496L2.0000007 -1.7320501L3.000001 -1.7320505L4.000001 -1.732051Z"/>
<!-- (62, 0, 0) -->
<path class="cell-path" d="M1.4999999 -4.330127L1.0000001 -3.464101L0.5000004 -2.5980754L7.1525574E-07 -1.7320497L1.0000008 -1.73205L1.5000005 -2.5980759L2.5000005 -2.598076L2.0000002 -3.4641013Z"/>
<!-- (61, 0, 0) -->
<path class="cell-path" d="M2.999999 -6.9282036L2.4999993 -6.0621777L1.9999995 -5.196152L1.4999999 -4.330127L2.5 -4.330127L2.9999998 -5.1961527L3.9999998 -5.1961527L3.4999995 -6.062178Z"/>
<!-- (60, 0, 0) -->
<path class="cell-path" d="M2.5000007 -2.5980759L3.0000005 -3.4641016L3.5000005 -4.3301272L4 -5.1961527L3 -5.1961527L2.5000002 -4.330127L1.5000002 -4.330127L2.0000005 -3.4641013Z"/>
<!-- (59, 0, 0) -->
<path class="cell-path" d="M3.0000005 -3.4641016L4.0000005 -3.4641018L5.000001 -3.464102L6.000001 -3.4641023L5.5000005 -4.3301277L4.5000005 -4.3301272L4 -5.1961527L3.5000005 -4.3301272Z"/>
<!-- (58, 0, 0) -->
<path class="cell-path" d="M5 -5.196153L5.5 -6.062179L4.5 -6.0621786L3.9999995 -6.9282036L2.9999995 -6.9282036L3.4999998 -6.062178L4 -5.196153L4.5000005 -4.3301277Z"/>
<!-- (57, 0, 0) -->
<path class="cell-path" d="M3.4999993 -7.794229L2.9999995 -6.928203L3.9999995 -6.9282036L4.5 -6.062178L5.5 -6.0621786L4.9999995 -6.9282036L4.4999995 -7.794229L3.999999 -8.6602545Z"/>
<!-- (56, 0, 0) -->
<path class="cell-path" d="M5 -5.196153L4.5000005 -4.3301272L5.5000005 -4.3301277L6.000001 -3.4641023L7.000001 -3.4641027L6.5000005 -4.3301277L6.0000005 -5.196153L5.5 -6.0621786Z"/>
<!-- (55, 0, 0) -->
<path class="cell-path" d="M6.0000024 1.7320502L7.0000024 1.73205L8.000003 1.7320497L9.000003 1.7320496L8.500002 0.86602414L7.5000024 0.8660244L7.000002 -1.0728836E-06L6.5000024 0.86602455Z"/>
<!-- (54, 0, 0) -->
<path class="cell-path" d="M8.000002 -1.3709068E-06L8.500002 -0.866027L7.500002 -0.86602664L7.0000014 -1.7320518L6.0000014 -1.7320516L6.500002 -0.8660263L7.000002 -1.013279E-06L7.5000024 0.86602426Z"/>
<!-- (53, 0, 0) -->
<path class="cell-path" d="M6.500001 -2.598077L6.0000014 -1.7320515L7.0000014 -1.7320518L7.500002 -0.8660264L8.500002 -0.8660269L8.000002 -1.7320521L7.5000014 -2.5980773L7.000001 -3.4641027Z"/>
<!-- (52, 0, 0) -->
<path class="cell-path" d="M8.000002 -1.2516975E-06L7.5000024 0.8660244L8.500003 0.866024L9.000003 1.7320495L10.000003 1.732049L9.500003 0.8660238L9.000002 -1.5497208E-06L8.500002 -0.8660269Z"/>
<!-- (51, 0, 0) -->
<path class="cell-path" d="M7.000001 -3.4641023L6.000001 -3.4641023L5.0000005 -3.464102L4 -3.4641018L4.5000005 -2.5980763L5.500001 -2.5980766L6.000001 -1.732051L6.500001 -2.5980766Z"/>
<!-- (50, 0, 0) -->
<path class="cell-path" d="M5.000001 -1.7320507L4.5000014 -0.8660251L5.5000014 -0.86602545L6.000002 0L7.000002 -4.7683716E-07L6.5000014 -0.8660257L6.0000014 -1.732051L5.500001 -2.5980763Z"/>
<!-- (49, 0, 0) -->
<path class="cell-path" d="M6.500002 0.8660253L7.000002 -2.3841858E-07L6.0000014 0L5.5000014 -0.86602545L4.500001 -0.8660252L5.0000014 1.1920929E-07L5.500002 0.8660255L6.000002 1.7320509Z"/>
<!-- (48, 0, 0) -->
<path class="cell-path" d="M5.000001 -1.7320508L5.500001 -2.5980763L4.5000005 -2.598076L4.0000005 -3.4641016L3.0000002 -3.4641013L3.5000005 -2.5980759L4.000001 -1.7320507L4.500001 -0.8660252Z"/>
<!-- (47, 0, 0) -->
<path class="cell-path" d="M6.000001 1.7320507L5.500001 0.8660252L5.000001 -2.3841858E-07L4.500001 -0.8660257L4.000001 -2.3841858E-07L4.500001 0.86602515L4.000001 1.7320505L5.000001 1.7320507Z"/>
<!-- (46, 0, 0) -->
<path class="cell-path" d="M3.500001 0.86602557L2.500001 0.86602575L3.000001 1.7320511L2.5000012 2.5980768L3.0000014 3.464102L3.5000012 2.5980763L4.000001 1.7320509L4.500001 0.86602545Z"/>
<!-- (45, 0, 0) -->
<path class="cell-path" d="M2.0000012 3.4641018L3.0000012 3.4641018L2.5000012 2.5980763L3.000001 1.7320509L2.500001 0.86602545L2.0000012 1.7320509L1.5000012 2.5980763L1.0000012 3.4641018Z"/>
<!-- (44, 0, 0) -->
<path class="cell-path" d="M3.500001 0.8660254L4.500001 0.8660253L4.000001 -5.9604645E-08L4.500001 -0.86602545L4.000001 -1.7320509L3.500001 -0.86602545L3.000001 0L2.500001 0.86602545Z"/>
<!-- (43, 0, 0) -->
<path class="cell-path" d="M6.5000014 4.3301263L7.0000014 3.4641004L6.0000014 3.4641008L5.500001 2.5980756L4.500001 2.5980759L5.000001 3.4641013L5.5000014 4.3301263L6.000002 5.1961517Z"/>
<!-- (42, 0, 0) -->
<path class="cell-path" d="M7.000001 1.7320496L6.000001 1.7320498L5.000001 1.7320501L4.000001 1.7320504L4.500001 2.5980756L5.500001 2.5980754L6.0000014 3.4641006L6.500001 2.5980752Z"/>
<!-- (41, 0, 0) -->
<path class="cell-path" d="M10.000001 1.7320489L9.000001 1.7320491L8.000001 1.7320493L7.000001 1.7320497L7.500001 2.598075L8.500001 2.5980747L9.000002 3.4641L9.500001 2.5980744Z"/>
<!-- (40, 0, 0) -->
<path class="cell-path" d="M6.0000014 3.4641008L7.0000014 3.4641006L8.000002 3.4641006L9.000002 3.4641004L8.500001 2.598075L7.5000014 2.5980752L7.000001 1.73205L6.5000014 2.5980754Z"/>
<!-- (39, 0, 0) -->
<path class="cell-path" d="M9.500001 2.5980752L9.000001 3.4641008L10.000002 3.4641004L10.500002 4.330126L11.500002 4.3301253L11.000002 3.4641001L10.500001 2.598075L10.000001 1.7320495Z"/>
<!-- (38, 0, 0) -->
<path class="cell-path" d="M9.000002 5.1961513L10.000002 5.1961513L11.000002 5.196151L12.000002 5.196151L11.500002 4.3301253L10.500002 4.330126L10.000002 3.4641004L9.500002 4.330126Z"/>
<!-- (37, 0, 0) -->
<path class="cell-path" d="M6.000002 5.1961517L7.000002 5.1961517L8.000002 5.1961513L9.000002 5.1961513L8.500002 4.330126L7.500002 4.3301263L7.0000014 3.4641008L6.500002 4.3301263Z"/>
<!-- (36, 0, 0) -->
<path class="cell-path" d="M10.000002 3.4641004L9.000002 3.4641004L8.000002 3.4641006L7.000002 3.4641006L7.500002 4.330126L8.500002 4.330126L9.000002 5.1961513L9.500002 4.330126Z"/>
<!-- (35, 0, 0) -->
<path class="cell-path" d="M3.5000012 2.598076L3.0000014 3.4641018L4.0000014 3.4641013L4.500002 4.330127L5.500002 4.3301263L5.0000014 3.464101L4.5000014 2.5980759L4.000001 1.7320504Z"/>
<!-- (34, 0, 0) -->
<path class="cell-path" d="M3.000002 5.196152L4.000002 5.196152L5.000002 5.1961517L6.000002 5.1961517L5.500002 4.3301263L4.500002 4.330127L4.0000014 3.4641013L3.5000017 4.330127Z"/>
<!-- (33, 0, 0) -->
<path class="cell-path" d="M1.9073486E-06 5.1961527L1.0000019 5.1961527L2.000002 5.196152L3.000002 5.196152L2.5000017 4.330127L1.5000018 4.3301272L1.0000017 3.4641018L0.5000018 4.3301272Z"/>
<!-- (32, 0, 0) -->
<path class="cell-path" d="M4.000002 3.4641013L3.000002 3.4641013L2.000002 3.4641016L1.0000019 3.4641016L1.5000019 4.330127L2.500002 4.330127L3.0000021 5.196152L3.500002 4.330127Z"/>
<!-- (31, 0, 0) -->
<path class="cell-path" d="M-5.999999 1.732053L-6.499999 0.8660276L-6.999999 2.1457672E-06L-7.499999 -0.8660233L-7.999999 2.1457672E-06L-7.499999 0.86602753L-7.999999 1.7320529L-6.999999 1.732053Z"/>
<!-- (30, 0, 0) -->
<path class="cell-path" d="M-8.499999 0.86602795L-9.499999 0.86602813L-8.999999 1.7320535L-9.499999 2.5980792L-8.999999 3.4641044L-8.499999 2.5980787L-7.999999 1.7320533L-7.499999 0.86602783Z"/>
<!-- (29, 0, 0) -->
<path class="cell-path" d="M-9.999999 3.4641042L-8.999999 3.4641042L-9.499999 2.5980787L-8.999999 1.7320533L-9.499999 0.86602783L-9.999999 1.7320533L-10.499999 2.5980787L-10.999999 3.4641042Z"/>
<!-- (28, 0, 0) -->
<path class="cell-path" d="M-8.499999 0.8660278L-7.499999 0.8660277L-7.999999 2.3245811E-06L-7.499999 -0.86602306L-7.999999 -1.7320485L-8.499999 -0.86602306L-8.999999 2.3841858E-06L-9.499999 0.86602783Z"/>
<!-- (27, 0, 0) -->
<path class="cell-path" d="M-5.4999986 4.330128L-4.9999986 3.4641023L-5.9999986 3.4641027L-6.499999 2.5980775L-7.499999 2.5980778L-6.999999 3.4641032L-6.4999986 4.330128L-5.999998 5.1961536Z"/>
<!-- (26, 0, 0) -->
<path class="cell-path" d="M-4.999999 1.732052L-5.999999 1.7320522L-6.999999 1.7320524L-7.999999 1.7320528L-7.499999 2.598078L-6.499999 2.5980778L-5.9999986 3.464103L-5.499999 2.5980775Z"/>
<!-- (25, 0, 0) -->
<path class="cell-path" d="M-1.999999 1.7320513L-2.999999 1.7320515L-3.999999 1.7320517L-4.999999 1.7320521L-4.499999 2.5980773L-3.4999988 2.598077L-2.9999986 3.4641023L-2.4999988 2.5980768Z"/>
<!-- (24, 0, 0) -->
<path class="cell-path" d="M-5.9999986 3.4641032L-4.9999986 3.464103L-3.9999986 3.464103L-2.9999986 3.4641027L-3.4999988 2.5980773L-4.4999986 2.5980775L-4.999999 1.7320523L-5.4999986 2.5980778Z"/>
<!-- (23, 0, 0) -->
<path class="cell-path" d="M-2.4999986 2.5980775L-2.9999983 3.4641032L-1.9999983 3.4641027L-1.4999981 4.330128L-0.49999785 4.3301277L-0.9999982 3.4641025L-1.4999986 2.5980773L-1.9999988 1.7320518Z"/>
<!-- (22, 0, 0) -->
<path class="cell-path" d="M-2.999998 5.1961536L-1.9999981 5.1961536L-0.9999981 5.196153L1.9073486E-06 5.196153L-0.49999833 4.3301277L-1.4999982 4.330128L-1.9999983 3.4641027L-2.4999983 4.330128Z"/>
<!-- (21, 0, 0) -->
<path class="cell-path" d="M-5.999998 5.196154L-4.999998 5.196154L-3.999998 5.1961536L-2.999998 5.1961536L-3.4999983 4.330128L-4.499998 4.3301287L-4.9999986 3.4641032L-5.499998 4.3301287Z"/>
<!-- (20, 0, 0) -->
<path class="cell-path" d="M-1.9999983 3.4641027L-2.9999983 3.4641027L-3.9999983 3.464103L-4.999998 3.464103L-4.499998 4.330128L-3.499998 4.330128L-2.999998 5.1961536L-2.4999983 4.330128Z"/>
<!-- (19, 0, 0) -->
<path class="cell-path" d="M-8.499999 2.5980785L-8.999999 3.4641042L-7.9999986 3.4641037L-7.499998 4.330129L-6.499998 4.3301287L-6.9999986 3.4641035L-7.4999986 2.5980783L-7.999999 1.7320528Z"/>
<!-- (18, 0, 0) -->
<path class="cell-path" d="M-8.999998 5.1961546L-7.999998 5.1961546L-6.999998 5.196154L-5.999998 5.196154L-6.499998 4.3301287L-7.499998 4.330129L-7.9999986 3.4641037L-8.499998 4.330129Z"/>
<!-- (17, 0, 0) -->
<path class="cell-path" d="M-11.999998 5.196155L-10.999998 5.196155L-9.999998 5.1961546L-8.999998 5.1961546L-9.499998 4.330129L-10.499998 4.3301296L-10.999998 3.4641042L-11.499998 4.3301296Z"/>
<!-- (16, 0, 0) -->
<path class="cell-path" d="M-7.999998 3.4641037L-8.999998 3.4641037L-9.999998 3.464104L-10.999998 3.464104L-10.499998 4.330129L-9.499998 4.330129L-8.999998 5.1961546L-8.499998 4.330129Z"/>
<!-- (15, 0, 0) -->
<path class="cell-path" d="M-1.9999994 1.7320509L-1.4999995 2.5980763L-0.9999996 3.464102L-0.49999964 4.3301277L4.7683716E-07 3.4641023L-0.4999994 2.5980768L8.34465E-07 1.7320513L-0.9999993 1.7320511Z"/>
<!-- (14, 0, 0) -->
<path class="cell-path" d="M0.5000006 2.5980763L1.5000006 2.598076L1.0000006 1.7320507L1.5000006 0.8660252L1.0000005 -2.3841858E-07L0.50000054 0.8660253L5.662441E-07 1.7320509L-0.4999994 2.5980763Z"/>
<!-- (13, 0, 0) -->
<path class="cell-path" d="M2.000001 -2.9802322E-08L1.000001 -5.9604645E-08L1.5000008 0.86602545L1.000001 1.7320509L1.5000007 2.5980763L2.000001 1.7320509L2.500001 0.86602545L3.000001 0Z"/>
<!-- (12, 0, 0) -->
<path class="cell-path" d="M0.5000007 2.5980763L-0.49999928 2.5980763L5.9604645E-07 3.4641018L-0.49999928 4.3301272L4.7683716E-07 5.1961527L0.5000006 4.3301272L1.0000007 3.4641018L1.5000007 2.5980763Z"/>
<!-- (11, 0, 0) -->
<path class="cell-path" d="M-2.5000005 -0.86602503L-3.0000002 5.9604645E-07L-2.0000002 2.3841858E-07L-1.5 0.8660257L-0.49999976 0.8660252L-1.0000001 0L-1.5000005 -0.8660253L-2.0000007 -1.7320507Z"/>
<!-- (10, 0, 0) -->
<path class="cell-path" d="M-3 1.7320511L-2 1.732051L-1 1.7320508L0 1.7320507L-0.50000024 0.8660253L-1.5000001 0.8660255L-2.0000002 2.3841858E-07L-2.5000002 0.8660257Z"/>
<!-- (9, 0, 0) -->
<path class="cell-path" d="M-6 1.7320517L-5 1.7320516L-4 1.7320514L-3 1.7320513L-3.5000002 0.8660259L-4.5 0.8660261L-5.0000005 8.34465E-07L-5.5 0.8660263Z"/>
<!-- (8, 0, 0) -->
<path class="cell-path" d="M-2.0000002 2.3841858E-07L-3.0000002 3.2584137E-07L-4 4.1326413E-07L-5 5.006869E-07L-4.5 0.86602587L-3.5 0.86602575L-3 1.7320511L-2.5000002 0.8660257Z"/>
<!-- (7, 0, 0) -->
<path class="cell-path" d="M-5.5 0.86602575L-5.0000005 2.3841858E-07L-6.0000005 4.7683716E-07L-6.5000005 -0.8660251L-7.5000005 -0.8660246L-7.0000005 5.9604645E-07L-6.5 0.8660259L-6 1.7320513Z"/>
<!-- (6, 0, 0) -->
<path class="cell-path" d="M-5 -1.7320503L-6 -1.7320502L-7 -1.7320502L-8 -1.7320501L-7.5 -0.8660247L-6.5 -0.8660248L-6 5.9604645E-07L-5.5 -0.86602485Z"/>
<!-- (5, 0, 0) -->
<path class="cell-path" d="M-2 -1.7320505L-3 -1.7320504L-4 -1.7320504L-5 -1.7320503L-4.5 -0.8660249L-3.5 -0.86602503L-2.9999998 3.5762787E-07L-2.5 -0.8660251Z"/>
<!-- (4, 0, 0) -->
<path class="cell-path" d="M-6 5.9604645E-07L-5 5.9604645E-07L-4 5.9604645E-07L-3 5.9604645E-07L-3.5 -0.8660248L-4.5 -0.8660248L-5 -1.7320502L-5.5 -0.8660248Z"/>
<!-- (3, 0, 0) -->
<path class="cell-path" d="M0.49999985 0.86602515L0.9999997 -3.5762787E-07L-2.9802322E-07 -1.1920929E-07L-0.50000054 -0.8660257L-1.5000005 -0.8660252L-1.0000004 0L-0.5000002 0.8660253L0 1.7320507Z"/>
<!-- (2, 0, 0) -->
<path class="cell-path" d="M0.99999976 -1.7320509L-2.3841858E-07 -1.7320508L-1.0000002 -1.7320508L-2.0000002 -1.7320507L-1.5000002 -0.86602527L-0.5000001 -0.8660254L-5.9604645E-08 0L0.49999985 -0.86602545Z"/>
<!-- (1, 0, 0) -->
<path class="cell-path" d="M3.9999998 -1.7320511L2.9999998 -1.732051L1.9999998 -1.732051L0.99999976 -1.7320509L1.4999998 -0.8660255L2.5 -0.8660256L3 -2.3841858E-07L3.4999998 -0.8660257Z"/>
<!-- (0, 0, 0) -->
<path class="cell-path" d="M0 0L1 0L2 0L3 0L2.5 -0.8660254L1.5 -0.8660254L1 -1.7320508L0.5 -0.8660254Z"/>
</svg>
