<?xml version="1.0" encoding="UTF-8"?>
<svg width="38pt" height="38pt" version="1.1" viewBox="0 0 50.667 50.667" xml:space="preserve" xmlns="http://www.w3.org/2000/svg" xmlns:xlink="http://www.w3.org/1999/xlink"><defs>
	

		
		
		
	<clipPath id="clipPath1559"><path d="m137.78 204.22 48.67-48.67h135.81l48.71 48.74-116.61 118.59-116.58-118.66" fill="#7a43f1" opacity=".998" stroke="#000" stroke-width="1px"/></clipPath><clipPath id="clipPath942"><g display="none"><path d="m188.11 168.04v110.83h142v-63.066h17.628c-17.312-17.303-34.627-34.604-51.939-51.907h-107.69v4.1477z" fill="#fff" stroke-width="2.0738"/></g><path class="powerclip" d="m132.42 150.05h244.25v178.54h-244.25zm55.686 17.992v110.83h142v-63.066h17.628c-17.312-17.303-34.627-34.604-51.939-51.907h-107.69v4.1477z"/></clipPath></defs>
<style type="text/css">
	.st0{fill:#7A43F1;}
	.st1{fill:#A180FD;}
	.st2{display:none;}
	.st3{display:inline;}
	.st4{fill:#5E009C;}
	.st5{fill:#FFFFFF;}
	.st6{fill:#340073;}
</style>

<g opacity=".998"><g transform="matrix(.21154 0 0 .21154 -28.503 -23.496)" clip-path="url(#clipPath942)" fill="none" stroke="#7a43f1"><path d="m137.78 204.22 48.67-48.67h135.81l48.71 48.74-116.61 118.59-116.58-118.66" opacity="1" stop-color="#000000" style="font-variation-settings:normal"/><g clip-path="url(#clipPath1559)" opacity="1" stop-color="#000000" stroke-width=".60277" style="font-variation-settings:normal"><g id="use1458" transform="matrix(1.6596 0 0 1.6584 -48.793 -223.7)" fill="none" stop-color="#000000" stroke="#7a43f1" stroke-width=".60277" style="font-variation-settings:normal"><g stop-color="#000000" style="font-variation-settings:normal"><path transform="translate(-25.554 -74.419)" d="m223.41 189.99-5.7031 20 14.688 14.695 5.7012-19.98z" fill="none" stop-color="#000000" stroke="#7a43f1" stroke-width=".60277" style="font-variation-settings:normal"/><path d="m192.15 135.57 20.389-5.2852" fill="none" stop-color="#000000" stroke="#7a43f1" stroke-width=".60277" style="font-variation-settings:normal"/></g><g transform="translate(14.688 14.695)" stop-color="#000000" style="font-variation-settings:normal"><path transform="translate(-25.554 -74.419)" d="m223.41 189.99-5.7031 20 14.688 14.695 5.7012-19.98z" fill="none" stop-color="#000000" stroke="#7a43f1" stroke-width=".60277" style="font-variation-settings:normal"/><path d="m192.15 135.57 20.389-5.2852" fill="none" stop-color="#000000" stroke="#7a43f1" stroke-width=".60277" style="font-variation-settings:normal"/></g><g transform="translate(-5.7012 19.98)" stop-color="#000000" style="font-variation-settings:normal"><path transform="translate(-25.554 -74.419)" d="m223.41 189.99-5.7031 20 14.688 14.695 5.7012-19.98z" fill="none" stop-color="#000000" stroke="#7a43f1" stroke-width=".60277" style="font-variation-settings:normal"/><path d="m192.15 135.57 20.389-5.2852" fill="none" stop-color="#000000" stroke="#7a43f1" stroke-width=".60277" style="font-variation-settings:normal"/></g><g transform="translate(8.9863 34.676)" stop-color="#000000" style="font-variation-settings:normal"><path transform="translate(-25.554 -74.419)" d="m223.41 189.99-5.7031 20 14.688 14.695 5.7012-19.98z" fill="none" stop-color="#000000" stroke="#7a43f1" stroke-width=".60277" style="font-variation-settings:normal"/><path d="m192.15 135.57 20.389-5.2852" fill="none" stop-color="#000000" stroke="#7a43f1" stroke-width=".60277" style="font-variation-settings:normal"/></g><g transform="translate(29.375 29.391)" stop-color="#000000" style="font-variation-settings:normal"><path transform="translate(-25.554 -74.419)" d="m223.41 189.99-5.7031 20 14.688 14.695 5.7012-19.98z" fill="none" stop-color="#000000" stroke="#7a43f1" stroke-width=".60277" style="font-variation-settings:normal"/><path d="m192.15 135.57 20.389-5.2852" fill="none" stop-color="#000000" stroke="#7a43f1" stroke-width=".60277" style="font-variation-settings:normal"/></g><g transform="translate(44.062 44.086)" stop-color="#000000" style="font-variation-settings:normal"><path transform="translate(-25.554 -74.419)" d="m223.41 189.99-5.7031 20 14.688 14.695 5.7012-19.98z" fill="none" stop-color="#000000" stroke="#7a43f1" stroke-width=".60277" style="font-variation-settings:normal"/><path d="m192.15 135.57 20.389-5.2852" fill="none" stop-color="#000000" stroke="#7a43f1" stroke-width=".60277" style="font-variation-settings:normal"/></g><g transform="translate(23.674 49.371)" stop-color="#000000" style="font-variation-settings:normal"><path transform="translate(-25.554 -74.419)" d="m223.41 189.99-5.7031 20 14.688 14.695 5.7012-19.98z" fill="none" stop-color="#000000" stroke="#7a43f1" stroke-width=".60277" style="font-variation-settings:normal"/><path d="m192.15 135.57 20.389-5.2852" fill="none" stop-color="#000000" stroke="#7a43f1" stroke-width=".60277" style="font-variation-settings:normal"/></g><g transform="translate(38.361 64.066)" stop-color="#000000" style="font-variation-settings:normal"><path transform="translate(-25.554 -74.419)" d="m223.41 189.99-5.7031 20 14.688 14.695 5.7012-19.98z" fill="none" stop-color="#000000" stroke="#7a43f1" stroke-width=".60277" style="font-variation-settings:normal"/><path d="m192.15 135.57 20.389-5.2852" fill="none" stop-color="#000000" stroke="#7a43f1" stroke-width=".60277" style="font-variation-settings:normal"/></g><g transform="translate(-11.402 39.961)" stop-color="#000000" style="font-variation-settings:normal"><path transform="translate(-25.554 -74.419)" d="m223.41 189.99-5.7031 20 14.688 14.695 5.7012-19.98z" fill="none" stop-color="#000000" stroke="#7a43f1" stroke-width=".60277" style="font-variation-settings:normal"/><path d="m192.15 135.57 20.389-5.2852" fill="none" stop-color="#000000" stroke="#7a43f1" stroke-width=".60277" style="font-variation-settings:normal"/></g><g transform="translate(3.2852 54.656)" stop-color="#000000" style="font-variation-settings:normal"><path transform="translate(-25.554 -74.419)" d="m223.41 189.99-5.7031 20 14.688 14.695 5.7012-19.98z" fill="none" stop-color="#000000" stroke="#7a43f1" stroke-width=".60277" style="font-variation-settings:normal"/><path d="m192.15 135.57 20.389-5.2852" fill="none" stop-color="#000000" stroke="#7a43f1" stroke-width=".60277" style="font-variation-settings:normal"/></g><g transform="translate(-17.104 59.941)" stop-color="#000000" style="font-variation-settings:normal"><path transform="translate(-25.554 -74.419)" d="m223.41 189.99-5.7031 20 14.688 14.695 5.7012-19.98z" fill="none" stop-color="#000000" stroke="#7a43f1" stroke-width=".60277" style="font-variation-settings:normal"/><path d="m192.15 135.57 20.389-5.2852" fill="none" stop-color="#000000" stroke="#7a43f1" stroke-width=".60277" style="font-variation-settings:normal"/></g><g transform="translate(-2.416 74.637)" stop-color="#000000" style="font-variation-settings:normal"><path transform="translate(-25.554 -74.419)" d="m223.41 189.99-5.7031 20 14.688 14.695 5.7012-19.98z" fill="none" stop-color="#000000" stroke="#7a43f1" stroke-width=".60277" style="font-variation-settings:normal"/><path d="m192.15 135.57 20.389-5.2852" fill="none" stop-color="#000000" stroke="#7a43f1" stroke-width=".60277" style="font-variation-settings:normal"/></g><g transform="translate(17.973 69.352)" stop-color="#000000" style="font-variation-settings:normal"><path transform="translate(-25.554 -74.419)" d="m223.41 189.99-5.7031 20 14.688 14.695 5.7012-19.98z" fill="none" stop-color="#000000" stroke="#7a43f1" stroke-width=".60277" style="font-variation-settings:normal"/><path d="m192.15 135.57 20.389-5.2852" fill="none" stop-color="#000000" stroke="#7a43f1" stroke-width=".60277" style="font-variation-settings:normal"/></g><g transform="translate(32.66 84.047)" stop-color="#000000" style="font-variation-settings:normal"><path transform="translate(-25.554 -74.419)" d="m223.41 189.99-5.7031 20 14.688 14.695 5.7012-19.98z" fill="none" stop-color="#000000" stroke="#7a43f1" stroke-width=".60277" style="font-variation-settings:normal"/><path d="m192.15 135.57 20.389-5.2852" fill="none" stop-color="#000000" stroke="#7a43f1" stroke-width=".60277" style="font-variation-settings:normal"/></g><g transform="translate(12.271 89.332)" stop-color="#000000" style="font-variation-settings:normal"><path transform="translate(-25.554 -74.419)" d="m223.41 189.99-5.7031 20 14.688 14.695 5.7012-19.98z" fill="none" stop-color="#000000" stroke="#7a43f1" stroke-width=".60277" style="font-variation-settings:normal"/><path d="m192.15 135.57 20.389-5.2852" fill="none" stop-color="#000000" stroke="#7a43f1" stroke-width=".60277" style="font-variation-settings:normal"/></g><g transform="translate(26.959 104.03)" stop-color="#000000" style="font-variation-settings:normal"><path transform="translate(-25.554 -74.419)" d="m223.41 189.99-5.7031 20 14.688 14.695 5.7012-19.98z" fill="none" stop-color="#000000" stroke="#7a43f1" stroke-width=".60277" style="font-variation-settings:normal"/><path d="m192.15 135.57 20.389-5.2852" fill="none" stop-color="#000000" stroke="#7a43f1" stroke-width=".60277" style="font-variation-settings:normal"/></g></g><g id="use1462" transform="matrix(1.6596 0 0 1.6584 -184.15 -188.61)" fill="none" stop-color="#000000" stroke="#7a43f1" stroke-width=".60277" style="font-variation-settings:normal"><g stop-color="#000000" style="font-variation-settings:normal"><path transform="translate(-25.554 -74.419)" d="m223.41 189.99-5.7031 20 14.688 14.695 5.7012-19.98z" fill="none" stop-color="#000000" stroke="#7a43f1" stroke-width=".60277" style="font-variation-settings:normal"/><path d="m192.15 135.57 20.389-5.2852" fill="none" stop-color="#000000" stroke="#7a43f1" stroke-width=".60277" style="font-variation-settings:normal"/></g><g transform="translate(14.688 14.695)" stop-color="#000000" style="font-variation-settings:normal"><path transform="translate(-25.554 -74.419)" d="m223.41 189.99-5.7031 20 14.688 14.695 5.7012-19.98z" fill="none" stop-color="#000000" stroke="#7a43f1" stroke-width=".60277" style="font-variation-settings:normal"/><path d="m192.15 135.57 20.389-5.2852" fill="none" stop-color="#000000" stroke="#7a43f1" stroke-width=".60277" style="font-variation-settings:normal"/></g><g transform="translate(-5.7012 19.98)" stop-color="#000000" style="font-variation-settings:normal"><path transform="translate(-25.554 -74.419)" d="m223.41 189.99-5.7031 20 14.688 14.695 5.7012-19.98z" fill="none" stop-color="#000000" stroke="#7a43f1" stroke-width=".60277" style="font-variation-settings:normal"/><path d="m192.15 135.57 20.389-5.2852" fill="none" stop-color="#000000" stroke="#7a43f1" stroke-width=".60277" style="font-variation-settings:normal"/></g><g transform="translate(8.9863 34.676)" stop-color="#000000" style="font-variation-settings:normal"><path transform="translate(-25.554 -74.419)" d="m223.41 189.99-5.7031 20 14.688 14.695 5.7012-19.98z" fill="none" stop-color="#000000" stroke="#7a43f1" stroke-width=".60277" style="font-variation-settings:normal"/><path d="m192.15 135.57 20.389-5.2852" fill="none" stop-color="#000000" stroke="#7a43f1" stroke-width=".60277" style="font-variation-settings:normal"/></g><g transform="translate(29.375 29.391)" stop-color="#000000" style="font-variation-settings:normal"><path transform="translate(-25.554 -74.419)" d="m223.41 189.99-5.7031 20 14.688 14.695 5.7012-19.98z" fill="none" stop-color="#000000" stroke="#7a43f1" stroke-width=".60277" style="font-variation-settings:normal"/><path d="m192.15 135.57 20.389-5.2852" fill="none" stop-color="#000000" stroke="#7a43f1" stroke-width=".60277" style="font-variation-settings:normal"/></g><g transform="translate(44.062 44.086)" stop-color="#000000" style="font-variation-settings:normal"><path transform="translate(-25.554 -74.419)" d="m223.41 189.99-5.7031 20 14.688 14.695 5.7012-19.98z" fill="none" stop-color="#000000" stroke="#7a43f1" stroke-width=".60277" style="font-variation-settings:normal"/><path d="m192.15 135.57 20.389-5.2852" fill="none" stop-color="#000000" stroke="#7a43f1" stroke-width=".60277" style="font-variation-settings:normal"/></g><g transform="translate(23.674 49.371)" stop-color="#000000" style="font-variation-settings:normal"><path transform="translate(-25.554 -74.419)" d="m223.41 189.99-5.7031 20 14.688 14.695 5.7012-19.98z" fill="none" stop-color="#000000" stroke="#7a43f1" stroke-width=".60277" style="font-variation-settings:normal"/><path d="m192.15 135.57 20.389-5.2852" fill="none" stop-color="#000000" stroke="#7a43f1" stroke-width=".60277" style="font-variation-settings:normal"/></g><g transform="translate(38.361 64.066)" stop-color="#000000" style="font-variation-settings:normal"><path transform="translate(-25.554 -74.419)" d="m223.41 189.99-5.7031 20 14.688 14.695 5.7012-19.98z" fill="none" stop-color="#000000" stroke="#7a43f1" stroke-width=".60277" style="font-variation-settings:normal"/><path d="m192.15 135.57 20.389-5.2852" fill="none" stop-color="#000000" stroke="#7a43f1" stroke-width=".60277" style="font-variation-settings:normal"/></g><g transform="translate(-11.402 39.961)" stop-color="#000000" style="font-variation-settings:normal"><path transform="translate(-25.554 -74.419)" d="m223.41 189.99-5.7031 20 14.688 14.695 5.7012-19.98z" fill="none" stop-color="#000000" stroke="#7a43f1" stroke-width=".60277" style="font-variation-settings:normal"/><path d="m192.15 135.57 20.389-5.2852" fill="none" stop-color="#000000" stroke="#7a43f1" stroke-width=".60277" style="font-variation-settings:normal"/></g><g transform="translate(3.2852 54.656)" stop-color="#000000" style="font-variation-settings:normal"><path transform="translate(-25.554 -74.419)" d="m223.41 189.99-5.7031 20 14.688 14.695 5.7012-19.98z" fill="none" stop-color="#000000" stroke="#7a43f1" stroke-width=".60277" style="font-variation-settings:normal"/><path d="m192.15 135.57 20.389-5.2852" fill="none" stop-color="#000000" stroke="#7a43f1" stroke-width=".60277" style="font-variation-settings:normal"/></g><g transform="translate(-17.104 59.941)" stop-color="#000000" style="font-variation-settings:normal"><path transform="translate(-25.554 -74.419)" d="m223.41 189.99-5.7031 20 14.688 14.695 5.7012-19.98z" fill="none" stop-color="#000000" stroke="#7a43f1" stroke-width=".60277" style="font-variation-settings:normal"/><path d="m192.15 135.57 20.389-5.2852" fill="none" stop-color="#000000" stroke="#7a43f1" stroke-width=".60277" style="font-variation-settings:normal"/></g><g transform="translate(-2.416 74.637)" stop-color="#000000" style="font-variation-settings:normal"><path transform="translate(-25.554 -74.419)" d="m223.41 189.99-5.7031 20 14.688 14.695 5.7012-19.98z" fill="none" stop-color="#000000" stroke="#7a43f1" stroke-width=".60277" style="font-variation-settings:normal"/><path d="m192.15 135.57 20.389-5.2852" fill="none" stop-color="#000000" stroke="#7a43f1" stroke-width=".60277" style="font-variation-settings:normal"/></g><g transform="translate(17.973 69.352)" stop-color="#000000" style="font-variation-settings:normal"><path transform="translate(-25.554 -74.419)" d="m223.41 189.99-5.7031 20 14.688 14.695 5.7012-19.98z" fill="none" stop-color="#000000" stroke="#7a43f1" stroke-width=".60277" style="font-variation-settings:normal"/><path d="m192.15 135.57 20.389-5.2852" fill="none" stop-color="#000000" stroke="#7a43f1" stroke-width=".60277" style="font-variation-settings:normal"/></g><g transform="translate(32.66 84.047)" stop-color="#000000" style="font-variation-settings:normal"><path transform="translate(-25.554 -74.419)" d="m223.41 189.99-5.7031 20 14.688 14.695 5.7012-19.98z" fill="none" stop-color="#000000" stroke="#7a43f1" stroke-width=".60277" style="font-variation-settings:normal"/><path d="m192.15 135.57 20.389-5.2852" fill="none" stop-color="#000000" stroke="#7a43f1" stroke-width=".60277" style="font-variation-settings:normal"/></g><g transform="translate(12.271 89.332)" stop-color="#000000" style="font-variation-settings:normal"><path transform="translate(-25.554 -74.419)" d="m223.41 189.99-5.7031 20 14.688 14.695 5.7012-19.98z" fill="none" stop-color="#000000" stroke="#7a43f1" stroke-width=".60277" style="font-variation-settings:normal"/><path d="m192.15 135.57 20.389-5.2852" fill="none" stop-color="#000000" stroke="#7a43f1" stroke-width=".60277" style="font-variation-settings:normal"/></g><g transform="translate(26.959 104.03)" stop-color="#000000" style="font-variation-settings:normal"><path transform="translate(-25.554 -74.419)" d="m223.41 189.99-5.7031 20 14.688 14.695 5.7012-19.98z" fill="none" stop-color="#000000" stroke="#7a43f1" stroke-width=".60277" style="font-variation-settings:normal"/><path d="m192.15 135.57 20.389-5.2852" fill="none" stop-color="#000000" stroke="#7a43f1" stroke-width=".60277" style="font-variation-settings:normal"/></g></g><use transform="translate(-37.85 132.57)" width="100%" height="100%" stop-color="#000000" style="font-variation-settings:normal" xlink:href="#use1458"/><g transform="matrix(1.6596 0 0 1.6584 48.709 -126.22)" stop-color="#000000" style="font-variation-settings:normal"><g stop-color="#000000" style="font-variation-settings:normal"><path transform="translate(-25.554 -74.419)" d="m223.41 189.99-5.7031 20 14.688 14.695 5.7012-19.98z" stop-color="#000000" style="font-variation-settings:normal"/><path d="m192.15 135.57 20.389-5.2852" stop-color="#000000" style="font-variation-settings:normal"/></g><g transform="translate(14.688 14.695)" stop-color="#000000" style="font-variation-settings:normal"><path transform="translate(-25.554 -74.419)" d="m223.41 189.99-5.7031 20 14.688 14.695 5.7012-19.98z" stop-color="#000000" style="font-variation-settings:normal"/><path d="m192.15 135.57 20.389-5.2852" stop-color="#000000" style="font-variation-settings:normal"/></g><g transform="translate(-5.7012 19.98)" stop-color="#000000" style="font-variation-settings:normal"><path transform="translate(-25.554 -74.419)" d="m223.41 189.99-5.7031 20 14.688 14.695 5.7012-19.98z" stop-color="#000000" style="font-variation-settings:normal"/><path d="m192.15 135.57 20.389-5.2852" stop-color="#000000" style="font-variation-settings:normal"/></g><g transform="translate(8.9863 34.676)" stop-color="#000000" style="font-variation-settings:normal"><path transform="translate(-25.554 -74.419)" d="m223.41 189.99-5.7031 20 14.688 14.695 5.7012-19.98z" stop-color="#000000" style="font-variation-settings:normal"/><path d="m192.15 135.57 20.389-5.2852" stop-color="#000000" style="font-variation-settings:normal"/></g><g transform="translate(29.375 29.391)" stop-color="#000000" style="font-variation-settings:normal"><path transform="translate(-25.554 -74.419)" d="m223.41 189.99-5.7031 20 14.688 14.695 5.7012-19.98z" stop-color="#000000" style="font-variation-settings:normal"/><path d="m192.15 135.57 20.389-5.2852" stop-color="#000000" style="font-variation-settings:normal"/></g><g transform="translate(44.062 44.086)" stop-color="#000000" style="font-variation-settings:normal"><path transform="translate(-25.554 -74.419)" d="m223.41 189.99-5.7031 20 14.688 14.695 5.7012-19.98z" stop-color="#000000" style="font-variation-settings:normal"/><path d="m192.15 135.57 20.389-5.2852" stop-color="#000000" style="font-variation-settings:normal"/></g><g transform="translate(23.674 49.371)" stop-color="#000000" style="font-variation-settings:normal"><path transform="translate(-25.554 -74.419)" d="m223.41 189.99-5.7031 20 14.688 14.695 5.7012-19.98z" stop-color="#000000" style="font-variation-settings:normal"/><path d="m192.15 135.57 20.389-5.2852" stop-color="#000000" style="font-variation-settings:normal"/></g><g transform="translate(38.361 64.066)" stop-color="#000000" style="font-variation-settings:normal"><path transform="translate(-25.554 -74.419)" d="m223.41 189.99-5.7031 20 14.688 14.695 5.7012-19.98z" stop-color="#000000" style="font-variation-settings:normal"/><path d="m192.15 135.57 20.389-5.2852" stop-color="#000000" style="font-variation-settings:normal"/></g><g transform="translate(-11.402 39.961)" stop-color="#000000" style="font-variation-settings:normal"><path transform="translate(-25.554 -74.419)" d="m223.41 189.99-5.7031 20 14.688 14.695 5.7012-19.98z" stop-color="#000000" style="font-variation-settings:normal"/><path d="m192.15 135.57 20.389-5.2852" stop-color="#000000" style="font-variation-settings:normal"/></g><g transform="translate(3.2852 54.656)" stop-color="#000000" style="font-variation-settings:normal"><path transform="translate(-25.554 -74.419)" d="m223.41 189.99-5.7031 20 14.688 14.695 5.7012-19.98z" stop-color="#000000" style="font-variation-settings:normal"/><path d="m192.15 135.57 20.389-5.2852" stop-color="#000000" style="font-variation-settings:normal"/></g><g transform="translate(-17.104 59.941)" stop-color="#000000" style="font-variation-settings:normal"><path transform="translate(-25.554 -74.419)" d="m223.41 189.99-5.7031 20 14.688 14.695 5.7012-19.98z" stop-color="#000000" style="font-variation-settings:normal"/><path d="m192.15 135.57 20.389-5.2852" stop-color="#000000" style="font-variation-settings:normal"/></g><g transform="translate(-2.416 74.637)" stop-color="#000000" style="font-variation-settings:normal"><path transform="translate(-25.554 -74.419)" d="m223.41 189.99-5.7031 20 14.688 14.695 5.7012-19.98z" stop-color="#000000" style="font-variation-settings:normal"/><path d="m192.15 135.57 20.389-5.2852" stop-color="#000000" style="font-variation-settings:normal"/></g><g transform="translate(17.973 69.352)" stop-color="#000000" style="font-variation-settings:normal"><path transform="translate(-25.554 -74.419)" d="m223.41 189.99-5.7031 20 14.688 14.695 5.7012-19.98z" stop-color="#000000" style="font-variation-settings:normal"/><path d="m192.15 135.57 20.389-5.2852" stop-color="#000000" style="font-variation-settings:normal"/></g><g transform="translate(32.66 84.047)" stop-color="#000000" style="font-variation-settings:normal"><path transform="translate(-25.554 -74.419)" d="m223.41 189.99-5.7031 20 14.688 14.695 5.7012-19.98z" stop-color="#000000" style="font-variation-settings:normal"/><path d="m192.15 135.57 20.389-5.2852" stop-color="#000000" style="font-variation-settings:normal"/></g><g transform="translate(12.271 89.332)" stop-color="#000000" style="font-variation-settings:normal"><path transform="translate(-25.554 -74.419)" d="m223.41 189.99-5.7031 20 14.688 14.695 5.7012-19.98z" stop-color="#000000" style="font-variation-settings:normal"/><path d="m192.15 135.57 20.389-5.2852" stop-color="#000000" style="font-variation-settings:normal"/></g><g transform="translate(26.959 104.03)" stop-color="#000000" style="font-variation-settings:normal"><path transform="translate(-25.554 -74.419)" d="m223.41 189.99-5.7031 20 14.688 14.695 5.7012-19.98z" stop-color="#000000" style="font-variation-settings:normal"/><path d="m192.15 135.57 20.389-5.2852" stop-color="#000000" style="font-variation-settings:normal"/></g></g><use transform="translate(195 194.96)" width="100%" height="100%" stop-color="#000000" style="font-variation-settings:normal" xlink:href="#use1462"/><g transform="matrix(1.6596 0 0 1.6584 -221.99 -56.067)" stop-color="#000000" style="font-variation-settings:normal"><g stop-color="#000000" style="font-variation-settings:normal"><path transform="translate(-25.554 -74.419)" d="m223.41 189.99-5.7031 20 14.688 14.695 5.7012-19.98z" stop-color="#000000" style="font-variation-settings:normal"/><path d="m192.15 135.57 20.389-5.2852" stop-color="#000000" style="font-variation-settings:normal"/></g><g transform="translate(14.688 14.695)" stop-color="#000000" style="font-variation-settings:normal"><path transform="translate(-25.554 -74.419)" d="m223.41 189.99-5.7031 20 14.688 14.695 5.7012-19.98z" stop-color="#000000" style="font-variation-settings:normal"/><path d="m192.15 135.57 20.389-5.2852" stop-color="#000000" style="font-variation-settings:normal"/></g><g transform="translate(-5.7012 19.98)" stop-color="#000000" style="font-variation-settings:normal"><path transform="translate(-25.554 -74.419)" d="m223.41 189.99-5.7031 20 14.688 14.695 5.7012-19.98z" stop-color="#000000" style="font-variation-settings:normal"/><path d="m192.15 135.57 20.389-5.2852" stop-color="#000000" style="font-variation-settings:normal"/></g><g transform="translate(8.9863 34.676)" stop-color="#000000" style="font-variation-settings:normal"><path transform="translate(-25.554 -74.419)" d="m223.41 189.99-5.7031 20 14.688 14.695 5.7012-19.98z" stop-color="#000000" style="font-variation-settings:normal"/><path d="m192.15 135.57 20.389-5.2852" stop-color="#000000" style="font-variation-settings:normal"/></g><g transform="translate(29.375 29.391)" stop-color="#000000" style="font-variation-settings:normal"><path transform="translate(-25.554 -74.419)" d="m223.41 189.99-5.7031 20 14.688 14.695 5.7012-19.98z" stop-color="#000000" style="font-variation-settings:normal"/><path d="m192.15 135.57 20.389-5.2852" stop-color="#000000" style="font-variation-settings:normal"/></g><g transform="translate(44.062 44.086)" stop-color="#000000" style="font-variation-settings:normal"><path transform="translate(-25.554 -74.419)" d="m223.41 189.99-5.7031 20 14.688 14.695 5.7012-19.98z" stop-color="#000000" style="font-variation-settings:normal"/><path d="m192.15 135.57 20.389-5.2852" stop-color="#000000" style="font-variation-settings:normal"/></g><g transform="translate(23.674 49.371)" stop-color="#000000" style="font-variation-settings:normal"><path transform="translate(-25.554 -74.419)" d="m223.41 189.99-5.7031 20 14.688 14.695 5.7012-19.98z" stop-color="#000000" style="font-variation-settings:normal"/><path d="m192.15 135.57 20.389-5.2852" stop-color="#000000" style="font-variation-settings:normal"/></g><g transform="translate(38.361 64.066)" stop-color="#000000" style="font-variation-settings:normal"><path transform="translate(-25.554 -74.419)" d="m223.41 189.99-5.7031 20 14.688 14.695 5.7012-19.98z" stop-color="#000000" style="font-variation-settings:normal"/><path d="m192.15 135.57 20.389-5.2852" stop-color="#000000" style="font-variation-settings:normal"/></g><g transform="translate(-11.402 39.961)" stop-color="#000000" style="font-variation-settings:normal"><path transform="translate(-25.554 -74.419)" d="m223.41 189.99-5.7031 20 14.688 14.695 5.7012-19.98z" stop-color="#000000" style="font-variation-settings:normal"/><path d="m192.15 135.57 20.389-5.2852" stop-color="#000000" style="font-variation-settings:normal"/></g><g transform="translate(3.2852 54.656)" stop-color="#000000" style="font-variation-settings:normal"><path transform="translate(-25.554 -74.419)" d="m223.41 189.99-5.7031 20 14.688 14.695 5.7012-19.98z" stop-color="#000000" style="font-variation-settings:normal"/><path d="m192.15 135.57 20.389-5.2852" stop-color="#000000" style="font-variation-settings:normal"/></g><g transform="translate(-17.104 59.941)" stop-color="#000000" style="font-variation-settings:normal"><path transform="translate(-25.554 -74.419)" d="m223.41 189.99-5.7031 20 14.688 14.695 5.7012-19.98z" stop-color="#000000" style="font-variation-settings:normal"/><path d="m192.15 135.57 20.389-5.2852" stop-color="#000000" style="font-variation-settings:normal"/></g><g transform="translate(-2.416 74.637)" stop-color="#000000" style="font-variation-settings:normal"><path transform="translate(-25.554 -74.419)" d="m223.41 189.99-5.7031 20 14.688 14.695 5.7012-19.98z" stop-color="#000000" style="font-variation-settings:normal"/><path d="m192.15 135.57 20.389-5.2852" stop-color="#000000" style="font-variation-settings:normal"/></g><g transform="translate(17.973 69.352)" stop-color="#000000" style="font-variation-settings:normal"><path transform="translate(-25.554 -74.419)" d="m223.41 189.99-5.7031 20 14.688 14.695 5.7012-19.98z" stop-color="#000000" style="font-variation-settings:normal"/><path d="m192.15 135.57 20.389-5.2852" stop-color="#000000" style="font-variation-settings:normal"/></g><g transform="translate(32.66 84.047)" stop-color="#000000" style="font-variation-settings:normal"><path transform="translate(-25.554 -74.419)" d="m223.41 189.99-5.7031 20 14.688 14.695 5.7012-19.98z" stop-color="#000000" style="font-variation-settings:normal"/><path d="m192.15 135.57 20.389-5.2852" stop-color="#000000" style="font-variation-settings:normal"/></g><g transform="translate(12.271 89.332)" stop-color="#000000" style="font-variation-settings:normal"><path transform="translate(-25.554 -74.419)" d="m223.41 189.99-5.7031 20 14.688 14.695 5.7012-19.98z" stop-color="#000000" style="font-variation-settings:normal"/><path d="m192.15 135.57 20.389-5.2852" stop-color="#000000" style="font-variation-settings:normal"/></g><g transform="translate(26.959 104.03)" stop-color="#000000" style="font-variation-settings:normal"><path transform="translate(-25.554 -74.419)" d="m223.41 189.99-5.7031 20 14.688 14.695 5.7012-19.98z" stop-color="#000000" style="font-variation-settings:normal"/><path d="m192.15 135.57 20.389-5.2852" stop-color="#000000" style="font-variation-settings:normal"/></g></g><use transform="translate(-75.697 265.12)" width="100%" height="100%" stop-color="#000000" style="font-variation-settings:normal" xlink:href="#use1458"/></g></g></g><g><g transform="matrix(.43871 0 0 .43871 -13.33 -82.143)">
			<path class="st0" d="m62.12 262.15v-13.03h43.43v-2.17h-43.43v-28.24h23.88l13.04 13.03h-23.9v2.17h43.45v28.24zm39.09-30.41-13.03-13.03h8.69l13.03 13.03zm15.21 0-13.03-13.03h2.17l13.04 13.03z"/>
			
			
			
			
			
			
		</g><path class="st1" d="m38.544 19.366-5.5629-5.5585h-0.95201l5.5585 5.5585zm-9.5288-0.94762h-8.0416v0.952h8.9936zm0.95201 0 0.95201 0.952h3.8124l-0.952-0.952h-1.3732l-4.6065-4.6065h-0.95639l4.6152 4.6065zm-14.71 7.6204h19.053v-0.952h-19.053v-11.279h-1.3293v12.389h1.3293zm0 1.1099h-1.3293v5.7164h24.778v-1.1099h-23.449z" stroke-width=".43871"/></g></svg>
