<svg viewBox="-5 -5 10 10" xmlns="http://www.w3.org/2000/svg">
<style>
.cell-path {
                stroke-linejoin: round;
                fill: rgb(244, 244, 241);
                stroke: rgb(51, 51, 51);
                stroke-width: 0.1
            }
.dual .cell-path {
                fill: none;
                stroke: rgb(255, 0, 0);
                stroke-opacity: 0.5;
                stroke-width: 0.033333335
            }
</style>
<!-- (648, 0, 0) -->
<path class="cell-path" d="M-7 7L-6 7L-5 7L-5 6L-6 6L-6 5L-7 5L-7 6Z"/>
<!-- (170, 0, 0) -->
<path class="cell-path" d="M4 -4L5 -4L6 -4L6 -5L5 -5L5 -6L4 -6L4 -5Z"/>
<!-- (168, 0, 0) -->
<path class="cell-path" d="M5 -5L6 -5L7 -5L7 -6L6 -6L6 -7L5 -7L5 -6Z"/>
<!-- (163, 0, 0) -->
<path class="cell-path" d="M2 -6L2 -5L2 -4L3 -4L3 -5L4 -5L4 -6L3 -6Z"/>
<!-- (162, 0, 0) -->
<path class="cell-path" d="M2 -2L3 -2L4 -2L4 -3L3 -3L3 -4L2 -4L2 -3Z"/>
<!-- (161, 0, 0) -->
<path class="cell-path" d="M6 -2L6 -3L6 -4L5 -4L5 -3L4 -3L4 -2L5 -2Z"/>
<!-- (160, 0, 0) -->
<path class="cell-path" d="M3 -3L4 -3L5 -3L5 -4L4 -4L4 -5L3 -5L3 -4Z"/>
<!-- (57, 0, 0) -->
<path class="cell-path" d="M-4 -4L-3 -4L-2 -4L-2 -5L-3 -5L-3 -6L-4 -6L-4 -5Z"/>
<!-- (56, 0, 0) -->
<path class="cell-path" d="M-3 -7L-3 -6L-3 -5L-2 -5L-2 -6L-1 -6L-1.0000001 -7L-2 -7Z"/>
<!-- (55, 0, 0) -->
<path class="cell-path" d="M-5.9999995 -6L-5.9999995 -5L-5.999999 -4L-4.9999995 -4L-4.9999995 -5L-3.9999998 -5L-3.9999998 -6L-4.9999995 -6Z"/>
<!-- (54, 0, 0) -->
<path class="cell-path" d="M-5.9999995 -2L-4.9999995 -2L-3.9999995 -2L-3.9999995 -3L-4.9999995 -3L-4.9999995 -4L-5.9999995 -4L-5.9999995 -3Z"/>
<!-- (53, 0, 0) -->
<path class="cell-path" d="M-2.0000002 -2L-2.0000002 -3L-2 -3.9999998L-3 -3.9999998L-3 -3L-3.9999998 -3L-4 -2.0000002L-3 -2.0000002Z"/>
<!-- (52, 0, 0) -->
<path class="cell-path" d="M-4.9999995 -3L-3.9999998 -3L-3 -3L-3 -4L-3.9999998 -4L-3.9999998 -5L-4.9999995 -5L-4.9999995 -4Z"/>
<!-- (47, 0, 0) -->
<path class="cell-path" d="M-2.0000002 -2L-3 -1.9999999L-4 -1.9999998L-4 -0.9999999L-3 -1L-3 -1.1920929E-07L-2 -2.3841858E-07L-2 -1.0000001Z"/>
<!-- (46, 0, 0) -->
<path class="cell-path" d="M-6 -1.9999998L-6 -0.9999998L-6 1.1920929E-07L-5 5.9604645E-08L-5 -0.9999999L-4 -0.99999994L-4 -1.9999999L-5 -1.9999998Z"/>
<!-- (45, 0, 0) -->
<path class="cell-path" d="M-6 1.9999999L-5 1.9999999L-4 1.9999999L-4 1L-5 1L-5 1.1920929E-07L-6 1.1920929E-07L-6 1Z"/>
<!-- (44, 0, 0) -->
<path class="cell-path" d="M-5 -0.9999999L-5 5.9604645E-08L-5 1L-4 0.99999994L-4 0L-3 -5.9604645E-08L-3 -1L-4 -0.99999994Z"/>
<!-- (43, 0, 0) -->
<path class="cell-path" d="M-4 1.1920929E-07L-4 1L-4 2L-3 2L-3 1L-2 0.99999994L-2 0L-3 5.9604645E-08Z"/>
<!-- (42, 0, 0) -->
<path class="cell-path" d="M-4 4L-3 4L-2 4L-2 3L-3 3L-3 2L-4 2L-4 3Z"/>
<!-- (41, 0, 0) -->
<path class="cell-path" d="M-1.1920929E-07 4L-5.9604645E-08 3L0 2L-0.99999994 2L-1 3L-2 3L-2 4L-1 4Z"/>
<!-- (40, 0, 0) -->
<path class="cell-path" d="M-3 3L-2 3L-1 3L-1 2L-2 2L-2 1L-3 1L-3 2Z"/>
<!-- (39, 0, 0) -->
<path class="cell-path" d="M-1.9999999 6L-1 6L-1.1920929E-07 6L-1.1920929E-07 5L-1 5L-1 4L-1.9999999 4L-1.9999999 5Z"/>
<!-- (38, 0, 0) -->
<path class="cell-path" d="M1.9999998 6L1.9999998 5L1.9999999 4L0.99999994 4L0.9999999 5L-5.9604645E-08 5L-1.1920929E-07 6L0.9999998 6Z"/>
<!-- (37, 0, 0) -->
<path class="cell-path" d="M2 2.0000002L1.0000001 2L2.3841858E-07 2L1.1920929E-07 3L1 3L0.9999999 4L1.9999998 4L1.9999999 3Z"/>
<!-- (36, 0, 0) -->
<path class="cell-path" d="M0.9999999 5L0.99999994 4L1 3L5.9604645E-08 3L0 4L-0.99999994 4L-1 5L-5.9604645E-08 5Z"/>
<!-- (35, 0, 0) -->
<path class="cell-path" d="M-6 2L-6 3L-6 4L-5 4L-5 3L-4 3L-4 2L-5 2Z"/>
<!-- (34, 0, 0) -->
<path class="cell-path" d="M-6 6L-5 6L-4 6L-4 5L-5 5L-5 4L-6 4L-6 5Z"/>
<!-- (33, 0, 0) -->
<path class="cell-path" d="M-2 6L-2 5L-2 4L-3 4L-3 5L-4 5L-4 6L-3 6Z"/>
<!-- (32, 0, 0) -->
<path class="cell-path" d="M-5 5L-4 5L-3 5L-3 4L-4 4L-4 3L-5 3L-5 4Z"/>
<!-- (31, 0, 0) -->
<path class="cell-path" d="M2 2.0000002L2.0000002 3L2.0000002 4L3 3.9999998L3 3L3.9999998 3L3.9999998 2L3 2.0000002Z"/>
<!-- (30, 0, 0) -->
<path class="cell-path" d="M2 5.9999995L3 5.9999995L4 5.9999995L4 4.9999995L3 4.9999995L3 3.9999995L2 3.9999995L2 4.9999995Z"/>
<!-- (29, 0, 0) -->
<path class="cell-path" d="M6 5.9999995L6 4.9999995L6 3.9999998L5 3.9999998L5 4.9999995L4 4.9999995L4 5.999999L5 5.9999995Z"/>
<!-- (28, 0, 0) -->
<path class="cell-path" d="M3 4.9999995L4 4.9999995L5 4.9999995L5 3.9999998L4 3.9999998L4 3L3 3L3 3.9999998Z"/>
<!-- (27, 0, 0) -->
<path class="cell-path" d="M4 4L5 4L6 4L6 3L5 3L5 2L4 2L4 3Z"/>
<!-- (24, 0, 0) -->
<path class="cell-path" d="M7 3L7 2L7 1.0000001L6 1L6 2L5 2L5 3L6 3Z"/>
<!-- (15, 0, 0) -->
<path class="cell-path" d="M1.9999996 -6L0.99999976 -6L-1.1920929E-07 -6L0 -5L0.9999999 -5L1 -4L1.9999999 -4L1.9999998 -5Z"/>
<!-- (14, 0, 0) -->
<path class="cell-path" d="M-2 -6L-2 -5L-1.9999999 -4L-0.99999994 -4L-1 -5L-5.9604645E-08 -5L-1.1920929E-07 -6L-1 -6Z"/>
<!-- (13, 0, 0) -->
<path class="cell-path" d="M-1.9999998 -2L-0.9999999 -2L0 -2L0 -3L-0.9999999 -3L-0.9999999 -4L-1.9999998 -4L-1.9999998 -3Z"/>
<!-- (12, 0, 0) -->
<path class="cell-path" d="M-1 -5L-0.99999994 -4L-0.9999999 -3L5.9604645E-08 -3L0 -4L0.99999994 -4L0.9999999 -5L-5.9604645E-08 -5Z"/>
<!-- (11, 0, 0) -->
<path class="cell-path" d="M0 -4L5.9604645E-08 -3L1.1920929E-07 -2L1 -2L1 -3L2 -3L1.9999999 -4L0.99999994 -4Z"/>
<!-- (10, 0, 0) -->
<path class="cell-path" d="M0 0L1 0L2 0L2 -1L1 -1L1 -2L0 -2L0 -1Z"/>
<!-- (9, 0, 0) -->
<path class="cell-path" d="M4 0L4 -0.99999994L4 -1.9999999L3 -2L3 -1L2 -1L2 -1.1920929E-07L3 -5.9604645E-08Z"/>
<!-- (8, 0, 0) -->
<path class="cell-path" d="M1 -1L2 -1L3 -1L3 -2L2 -2L2 -3L1 -3L1 -2Z"/>
<!-- (7, 0, 0) -->
<path class="cell-path" d="M2 1.9999998L3 1.9999998L4 1.9999998L4 0.9999999L3 0.9999999L3 0L2 0L2 0.9999999Z"/>
<!-- (6, 0, 0) -->
<path class="cell-path" d="M6 2L6 1L6 1.1920929E-07L5 5.9604645E-08L5 1L4 0.99999994L4 1.9999999L5 2Z"/>
<!-- (5, 0, 0) -->
<path class="cell-path" d="M6 -1.9999996L5 -1.9999998L4 -1.9999999L4 -1L5 -0.9999999L5 0L6 1.1920929E-07L6 -0.99999976Z"/>
<!-- (4, 0, 0) -->
<path class="cell-path" d="M5 1L5 5.9604645E-08L5 -0.9999999L4 -0.99999994L4 0L3 -5.9604645E-08L3 0.9999999L4 0.99999994Z"/>
<!-- (3, 0, 0) -->
<path class="cell-path" d="M-2 -1.9999999L-2 -0.99999994L-1.9999999 0L-0.99999994 -5.9604645E-08L-1 -1L-5.9604645E-08 -1L-1.1920929E-07 -2L-1 -2Z"/>
<!-- (2, 0, 0) -->
<path class="cell-path" d="M-2 2L-1 2L0 2L0 1L-1 1L-1 0L-2 0L-2 1Z"/>
<!-- (1, 0, 0) -->
<path class="cell-path" d="M1.9999999 2L2 1L2 1.1920929E-07L1 5.9604645E-08L1 1L5.9604645E-08 0.99999994L0 1.9999999L0.99999994 2Z"/>
<!-- (0, 0, 0) -->
<path class="cell-path" d="M-1 1L0 1L1 1L1 0L0 0L0 -1L-1 -1L-1 0Z"/>
<g transform="translate(-6.125,6.205) scale(1)">
<text text-anchor="middle" alignment-baseline="middle" style="fill: rgb(51, 51, 51); font-size: 0.3px;stroke: white; stroke-width: 0.05"><tspan style="fill: hsl(90, 100%, 35%); font-weight: bold" >648</tspan></text>
<text text-anchor="middle" alignment-baseline="middle" style="fill: rgb(51, 51, 51); font-size: 0.3px;"><tspan style="fill: hsl(90, 100%, 35%); font-weight: bold" >648</tspan></text>
</g>
<g transform="translate(4.875,-4.795) scale(1)">
<text text-anchor="middle" alignment-baseline="middle" style="fill: rgb(51, 51, 51); font-size: 0.3px;stroke: white; stroke-width: 0.05"><tspan style="fill: hsl(90, 100%, 35%); font-weight: bold" >170</tspan></text>
<text text-anchor="middle" alignment-baseline="middle" style="fill: rgb(51, 51, 51); font-size: 0.3px;"><tspan style="fill: hsl(90, 100%, 35%); font-weight: bold" >170</tspan></text>
</g>
<g transform="translate(5.875,-5.795) scale(1)">
<text text-anchor="middle" alignment-baseline="middle" style="fill: rgb(51, 51, 51); font-size: 0.3px;stroke: white; stroke-width: 0.05"><tspan style="fill: hsl(90, 100%, 35%); font-weight: bold" >168</tspan></text>
<text text-anchor="middle" alignment-baseline="middle" style="fill: rgb(51, 51, 51); font-size: 0.3px;"><tspan style="fill: hsl(90, 100%, 35%); font-weight: bold" >168</tspan></text>
</g>
<g transform="translate(2.875,-5.045) scale(1)">
<text text-anchor="middle" alignment-baseline="middle" style="fill: rgb(51, 51, 51); font-size: 0.3px;stroke: white; stroke-width: 0.05"><tspan style="fill: hsl(90, 100%, 35%); font-weight: bold" >163</tspan></text>
<text text-anchor="middle" alignment-baseline="middle" style="fill: rgb(51, 51, 51); font-size: 0.3px;"><tspan style="fill: hsl(90, 100%, 35%); font-weight: bold" >163</tspan></text>
</g>
<g transform="translate(2.875,-2.795) scale(1)">
<text text-anchor="middle" alignment-baseline="middle" style="fill: rgb(51, 51, 51); font-size: 0.3px;stroke: white; stroke-width: 0.05"><tspan style="fill: hsl(90, 100%, 35%); font-weight: bold" >162</tspan></text>
<text text-anchor="middle" alignment-baseline="middle" style="fill: rgb(51, 51, 51); font-size: 0.3px;"><tspan style="fill: hsl(90, 100%, 35%); font-weight: bold" >162</tspan></text>
</g>
<g transform="translate(5.125,-2.795) scale(1)">
<text text-anchor="middle" alignment-baseline="middle" style="fill: rgb(51, 51, 51); font-size: 0.3px;stroke: white; stroke-width: 0.05"><tspan style="fill: hsl(90, 100%, 35%); font-weight: bold" >161</tspan></text>
<text text-anchor="middle" alignment-baseline="middle" style="fill: rgb(51, 51, 51); font-size: 0.3px;"><tspan style="fill: hsl(90, 100%, 35%); font-weight: bold" >161</tspan></text>
</g>
<g transform="translate(3.875,-3.795) scale(1)">
<text text-anchor="middle" alignment-baseline="middle" style="fill: rgb(51, 51, 51); font-size: 0.3px;stroke: white; stroke-width: 0.05"><tspan style="fill: hsl(90, 100%, 35%); font-weight: bold" >160</tspan></text>
<text text-anchor="middle" alignment-baseline="middle" style="fill: rgb(51, 51, 51); font-size: 0.3px;"><tspan style="fill: hsl(90, 100%, 35%); font-weight: bold" >160</tspan></text>
</g>
<g transform="translate(-3.125,-4.795) scale(1)">
<text text-anchor="middle" alignment-baseline="middle" style="fill: rgb(51, 51, 51); font-size: 0.3px;stroke: white; stroke-width: 0.05"><tspan style="fill: hsl(90, 100%, 35%); font-weight: bold" >57</tspan></text>
<text text-anchor="middle" alignment-baseline="middle" style="fill: rgb(51, 51, 51); font-size: 0.3px;"><tspan style="fill: hsl(90, 100%, 35%); font-weight: bold" >57</tspan></text>
</g>
<g transform="translate(-2.125,-6.045) scale(1)">
<text text-anchor="middle" alignment-baseline="middle" style="fill: rgb(51, 51, 51); font-size: 0.3px;stroke: white; stroke-width: 0.05"><tspan style="fill: hsl(90, 100%, 35%); font-weight: bold" >56</tspan></text>
<text text-anchor="middle" alignment-baseline="middle" style="fill: rgb(51, 51, 51); font-size: 0.3px;"><tspan style="fill: hsl(90, 100%, 35%); font-weight: bold" >56</tspan></text>
</g>
<g transform="translate(-5.1249995,-5.045) scale(1)">
<text text-anchor="middle" alignment-baseline="middle" style="fill: rgb(51, 51, 51); font-size: 0.3px;stroke: white; stroke-width: 0.05"><tspan style="fill: hsl(90, 100%, 35%); font-weight: bold" >55</tspan></text>
<text text-anchor="middle" alignment-baseline="middle" style="fill: rgb(51, 51, 51); font-size: 0.3px;"><tspan style="fill: hsl(90, 100%, 35%); font-weight: bold" >55</tspan></text>
</g>
<g transform="translate(-5.1249995,-2.795) scale(1)">
<text text-anchor="middle" alignment-baseline="middle" style="fill: rgb(51, 51, 51); font-size: 0.3px;stroke: white; stroke-width: 0.05"><tspan style="fill: hsl(90, 100%, 35%); font-weight: bold" >54</tspan></text>
<text text-anchor="middle" alignment-baseline="middle" style="fill: rgb(51, 51, 51); font-size: 0.3px;"><tspan style="fill: hsl(90, 100%, 35%); font-weight: bold" >54</tspan></text>
</g>
<g transform="translate(-2.875,-2.795) scale(1)">
<text text-anchor="middle" alignment-baseline="middle" style="fill: rgb(51, 51, 51); font-size: 0.3px;stroke: white; stroke-width: 0.05"><tspan style="fill: hsl(90, 100%, 35%); font-weight: bold" >53</tspan></text>
<text text-anchor="middle" alignment-baseline="middle" style="fill: rgb(51, 51, 51); font-size: 0.3px;"><tspan style="fill: hsl(90, 100%, 35%); font-weight: bold" >53</tspan></text>
</g>
<g transform="translate(-4.1249995,-3.795) scale(1)">
<text text-anchor="middle" alignment-baseline="middle" style="fill: rgb(51, 51, 51); font-size: 0.3px;stroke: white; stroke-width: 0.05"><tspan style="fill: hsl(90, 100%, 35%); font-weight: bold" >52</tspan></text>
<text text-anchor="middle" alignment-baseline="middle" style="fill: rgb(51, 51, 51); font-size: 0.3px;"><tspan style="fill: hsl(90, 100%, 35%); font-weight: bold" >52</tspan></text>
</g>
<g transform="translate(-2.875,-1.045) scale(1)">
<text text-anchor="middle" alignment-baseline="middle" style="fill: rgb(51, 51, 51); font-size: 0.3px;stroke: white; stroke-width: 0.05"><tspan style="fill: hsl(90, 100%, 35%); font-weight: bold" >47</tspan></text>
<text text-anchor="middle" alignment-baseline="middle" style="fill: rgb(51, 51, 51); font-size: 0.3px;"><tspan style="fill: hsl(90, 100%, 35%); font-weight: bold" >47</tspan></text>
</g>
<g transform="translate(-5.125,-1.0449998807907104) scale(1)">
<text text-anchor="middle" alignment-baseline="middle" style="fill: rgb(51, 51, 51); font-size: 0.3px;stroke: white; stroke-width: 0.05"><tspan style="fill: hsl(90, 100%, 35%); font-weight: bold" >46</tspan></text>
<text text-anchor="middle" alignment-baseline="middle" style="fill: rgb(51, 51, 51); font-size: 0.3px;"><tspan style="fill: hsl(90, 100%, 35%); font-weight: bold" >46</tspan></text>
</g>
<g transform="translate(-5.125,1.205) scale(1)">
<text text-anchor="middle" alignment-baseline="middle" style="fill: rgb(51, 51, 51); font-size: 0.3px;stroke: white; stroke-width: 0.05"><tspan style="fill: hsl(90, 100%, 35%); font-weight: bold" >45</tspan></text>
<text text-anchor="middle" alignment-baseline="middle" style="fill: rgb(51, 51, 51); font-size: 0.3px;"><tspan style="fill: hsl(90, 100%, 35%); font-weight: bold" >45</tspan></text>
</g>
<g transform="translate(-4.125,-0.044999985098838804) scale(1)">
<text text-anchor="middle" alignment-baseline="middle" style="fill: rgb(51, 51, 51); font-size: 0.3px;stroke: white; stroke-width: 0.05"><tspan style="fill: hsl(90, 100%, 35%); font-weight: bold" >44</tspan></text>
<text text-anchor="middle" alignment-baseline="middle" style="fill: rgb(51, 51, 51); font-size: 0.3px;"><tspan style="fill: hsl(90, 100%, 35%); font-weight: bold" >44</tspan></text>
</g>
<g transform="translate(-3.125,0.955) scale(1)">
<text text-anchor="middle" alignment-baseline="middle" style="fill: rgb(51, 51, 51); font-size: 0.3px;stroke: white; stroke-width: 0.05"><tspan style="fill: hsl(90, 100%, 35%); font-weight: bold" >43</tspan></text>
<text text-anchor="middle" alignment-baseline="middle" style="fill: rgb(51, 51, 51); font-size: 0.3px;"><tspan style="fill: hsl(90, 100%, 35%); font-weight: bold" >43</tspan></text>
</g>
<g transform="translate(-3.125,3.205) scale(1)">
<text text-anchor="middle" alignment-baseline="middle" style="fill: rgb(51, 51, 51); font-size: 0.3px;stroke: white; stroke-width: 0.05"><tspan style="fill: hsl(90, 100%, 35%); font-weight: bold" >42</tspan></text>
<text text-anchor="middle" alignment-baseline="middle" style="fill: rgb(51, 51, 51); font-size: 0.3px;"><tspan style="fill: hsl(90, 100%, 35%); font-weight: bold" >42</tspan></text>
</g>
<g transform="translate(-0.875,3.205) scale(1)">
<text text-anchor="middle" alignment-baseline="middle" style="fill: rgb(51, 51, 51); font-size: 0.3px;stroke: white; stroke-width: 0.05"><tspan style="fill: hsl(90, 100%, 35%); font-weight: bold" >41</tspan></text>
<text text-anchor="middle" alignment-baseline="middle" style="fill: rgb(51, 51, 51); font-size: 0.3px;"><tspan style="fill: hsl(90, 100%, 35%); font-weight: bold" >41</tspan></text>
</g>
<g transform="translate(-2.125,2.205) scale(1)">
<text text-anchor="middle" alignment-baseline="middle" style="fill: rgb(51, 51, 51); font-size: 0.3px;stroke: white; stroke-width: 0.05"><tspan style="fill: hsl(90, 100%, 35%); font-weight: bold" >40</tspan></text>
<text text-anchor="middle" alignment-baseline="middle" style="fill: rgb(51, 51, 51); font-size: 0.3px;"><tspan style="fill: hsl(90, 100%, 35%); font-weight: bold" >40</tspan></text>
</g>
<g transform="translate(-1.125,5.205) scale(1)">
<text text-anchor="middle" alignment-baseline="middle" style="fill: rgb(51, 51, 51); font-size: 0.3px;stroke: white; stroke-width: 0.05"><tspan style="fill: hsl(90, 100%, 35%); font-weight: bold" >39</tspan></text>
<text text-anchor="middle" alignment-baseline="middle" style="fill: rgb(51, 51, 51); font-size: 0.3px;"><tspan style="fill: hsl(90, 100%, 35%); font-weight: bold" >39</tspan></text>
</g>
<g transform="translate(1.1249999,5.205) scale(1)">
<text text-anchor="middle" alignment-baseline="middle" style="fill: rgb(51, 51, 51); font-size: 0.3px;stroke: white; stroke-width: 0.05"><tspan style="fill: hsl(90, 100%, 35%); font-weight: bold" >38</tspan></text>
<text text-anchor="middle" alignment-baseline="middle" style="fill: rgb(51, 51, 51); font-size: 0.3px;"><tspan style="fill: hsl(90, 100%, 35%); font-weight: bold" >38</tspan></text>
</g>
<g transform="translate(1.125,2.955) scale(1)">
<text text-anchor="middle" alignment-baseline="middle" style="fill: rgb(51, 51, 51); font-size: 0.3px;stroke: white; stroke-width: 0.05"><tspan style="fill: hsl(90, 100%, 35%); font-weight: bold" >37</tspan></text>
<text text-anchor="middle" alignment-baseline="middle" style="fill: rgb(51, 51, 51); font-size: 0.3px;"><tspan style="fill: hsl(90, 100%, 35%); font-weight: bold" >37</tspan></text>
</g>
<g transform="translate(0.124999985,4.205) scale(1)">
<text text-anchor="middle" alignment-baseline="middle" style="fill: rgb(51, 51, 51); font-size: 0.3px;stroke: white; stroke-width: 0.05"><tspan style="fill: hsl(90, 100%, 35%); font-weight: bold" >36</tspan></text>
<text text-anchor="middle" alignment-baseline="middle" style="fill: rgb(51, 51, 51); font-size: 0.3px;"><tspan style="fill: hsl(90, 100%, 35%); font-weight: bold" >36</tspan></text>
</g>
<g transform="translate(-5.125,2.955) scale(1)">
<text text-anchor="middle" alignment-baseline="middle" style="fill: rgb(51, 51, 51); font-size: 0.3px;stroke: white; stroke-width: 0.05"><tspan style="fill: hsl(90, 100%, 35%); font-weight: bold" >35</tspan></text>
<text text-anchor="middle" alignment-baseline="middle" style="fill: rgb(51, 51, 51); font-size: 0.3px;"><tspan style="fill: hsl(90, 100%, 35%); font-weight: bold" >35</tspan></text>
</g>
<g transform="translate(-5.125,5.205) scale(1)">
<text text-anchor="middle" alignment-baseline="middle" style="fill: rgb(51, 51, 51); font-size: 0.3px;stroke: white; stroke-width: 0.05"><tspan style="fill: hsl(90, 100%, 35%); font-weight: bold" >34</tspan></text>
<text text-anchor="middle" alignment-baseline="middle" style="fill: rgb(51, 51, 51); font-size: 0.3px;"><tspan style="fill: hsl(90, 100%, 35%); font-weight: bold" >34</tspan></text>
</g>
<g transform="translate(-2.875,5.205) scale(1)">
<text text-anchor="middle" alignment-baseline="middle" style="fill: rgb(51, 51, 51); font-size: 0.3px;stroke: white; stroke-width: 0.05"><tspan style="fill: hsl(90, 100%, 35%); font-weight: bold" >33</tspan></text>
<text text-anchor="middle" alignment-baseline="middle" style="fill: rgb(51, 51, 51); font-size: 0.3px;"><tspan style="fill: hsl(90, 100%, 35%); font-weight: bold" >33</tspan></text>
</g>
<g transform="translate(-4.125,4.205) scale(1)">
<text text-anchor="middle" alignment-baseline="middle" style="fill: rgb(51, 51, 51); font-size: 0.3px;stroke: white; stroke-width: 0.05"><tspan style="fill: hsl(90, 100%, 35%); font-weight: bold" >32</tspan></text>
<text text-anchor="middle" alignment-baseline="middle" style="fill: rgb(51, 51, 51); font-size: 0.3px;"><tspan style="fill: hsl(90, 100%, 35%); font-weight: bold" >32</tspan></text>
</g>
<g transform="translate(2.875,2.955) scale(1)">
<text text-anchor="middle" alignment-baseline="middle" style="fill: rgb(51, 51, 51); font-size: 0.3px;stroke: white; stroke-width: 0.05"><tspan style="fill: hsl(90, 100%, 35%); font-weight: bold" >31</tspan></text>
<text text-anchor="middle" alignment-baseline="middle" style="fill: rgb(51, 51, 51); font-size: 0.3px;"><tspan style="fill: hsl(90, 100%, 35%); font-weight: bold" >31</tspan></text>
</g>
<g transform="translate(2.875,5.204999523162842) scale(1)">
<text text-anchor="middle" alignment-baseline="middle" style="fill: rgb(51, 51, 51); font-size: 0.3px;stroke: white; stroke-width: 0.05"><tspan style="fill: hsl(90, 100%, 35%); font-weight: bold" >30</tspan></text>
<text text-anchor="middle" alignment-baseline="middle" style="fill: rgb(51, 51, 51); font-size: 0.3px;"><tspan style="fill: hsl(90, 100%, 35%); font-weight: bold" >30</tspan></text>
</g>
<g transform="translate(5.125,5.204999523162842) scale(1)">
<text text-anchor="middle" alignment-baseline="middle" style="fill: rgb(51, 51, 51); font-size: 0.3px;stroke: white; stroke-width: 0.05"><tspan style="fill: hsl(90, 100%, 35%); font-weight: bold" >29</tspan></text>
<text text-anchor="middle" alignment-baseline="middle" style="fill: rgb(51, 51, 51); font-size: 0.3px;"><tspan style="fill: hsl(90, 100%, 35%); font-weight: bold" >29</tspan></text>
</g>
<g transform="translate(3.875,4.204999523162842) scale(1)">
<text text-anchor="middle" alignment-baseline="middle" style="fill: rgb(51, 51, 51); font-size: 0.3px;stroke: white; stroke-width: 0.05"><tspan style="fill: hsl(90, 100%, 35%); font-weight: bold" >28</tspan></text>
<text text-anchor="middle" alignment-baseline="middle" style="fill: rgb(51, 51, 51); font-size: 0.3px;"><tspan style="fill: hsl(90, 100%, 35%); font-weight: bold" >28</tspan></text>
</g>
<g transform="translate(4.875,3.205) scale(1)">
<text text-anchor="middle" alignment-baseline="middle" style="fill: rgb(51, 51, 51); font-size: 0.3px;stroke: white; stroke-width: 0.05"><tspan style="fill: hsl(90, 100%, 35%); font-weight: bold" >27</tspan></text>
<text text-anchor="middle" alignment-baseline="middle" style="fill: rgb(51, 51, 51); font-size: 0.3px;"><tspan style="fill: hsl(90, 100%, 35%); font-weight: bold" >27</tspan></text>
</g>
<g transform="translate(6.125,2.205) scale(1)">
<text text-anchor="middle" alignment-baseline="middle" style="fill: rgb(51, 51, 51); font-size: 0.3px;stroke: white; stroke-width: 0.05"><tspan style="fill: hsl(90, 100%, 35%); font-weight: bold" >24</tspan></text>
<text text-anchor="middle" alignment-baseline="middle" style="fill: rgb(51, 51, 51); font-size: 0.3px;"><tspan style="fill: hsl(90, 100%, 35%); font-weight: bold" >24</tspan></text>
</g>
<g transform="translate(1.1249999,-5.045) scale(1)">
<text text-anchor="middle" alignment-baseline="middle" style="fill: rgb(51, 51, 51); font-size: 0.3px;stroke: white; stroke-width: 0.05"><tspan style="fill: hsl(90, 100%, 35%); font-weight: bold" >15</tspan></text>
<text text-anchor="middle" alignment-baseline="middle" style="fill: rgb(51, 51, 51); font-size: 0.3px;"><tspan style="fill: hsl(90, 100%, 35%); font-weight: bold" >15</tspan></text>
</g>
<g transform="translate(-1.125,-5.045) scale(1)">
<text text-anchor="middle" alignment-baseline="middle" style="fill: rgb(51, 51, 51); font-size: 0.3px;stroke: white; stroke-width: 0.05"><tspan style="fill: hsl(90, 100%, 35%); font-weight: bold" >14</tspan></text>
<text text-anchor="middle" alignment-baseline="middle" style="fill: rgb(51, 51, 51); font-size: 0.3px;"><tspan style="fill: hsl(90, 100%, 35%); font-weight: bold" >14</tspan></text>
</g>
<g transform="translate(-1.1249999,-2.795) scale(1)">
<text text-anchor="middle" alignment-baseline="middle" style="fill: rgb(51, 51, 51); font-size: 0.3px;stroke: white; stroke-width: 0.05"><tspan style="fill: hsl(90, 100%, 35%); font-weight: bold" >13</tspan></text>
<text text-anchor="middle" alignment-baseline="middle" style="fill: rgb(51, 51, 51); font-size: 0.3px;"><tspan style="fill: hsl(90, 100%, 35%); font-weight: bold" >13</tspan></text>
</g>
<g transform="translate(-0.125,-4.045) scale(1)">
<text text-anchor="middle" alignment-baseline="middle" style="fill: rgb(51, 51, 51); font-size: 0.3px;stroke: white; stroke-width: 0.05"><tspan style="fill: hsl(90, 100%, 35%); font-weight: bold" >12</tspan></text>
<text text-anchor="middle" alignment-baseline="middle" style="fill: rgb(51, 51, 51); font-size: 0.3px;"><tspan style="fill: hsl(90, 100%, 35%); font-weight: bold" >12</tspan></text>
</g>
<g transform="translate(0.875,-3.045) scale(1)">
<text text-anchor="middle" alignment-baseline="middle" style="fill: rgb(51, 51, 51); font-size: 0.3px;stroke: white; stroke-width: 0.05"><tspan style="fill: hsl(90, 100%, 35%); font-weight: bold" >11</tspan></text>
<text text-anchor="middle" alignment-baseline="middle" style="fill: rgb(51, 51, 51); font-size: 0.3px;"><tspan style="fill: hsl(90, 100%, 35%); font-weight: bold" >11</tspan></text>
</g>
<g transform="translate(0.875,-0.795) scale(1)">
<text text-anchor="middle" alignment-baseline="middle" style="fill: rgb(51, 51, 51); font-size: 0.3px;stroke: white; stroke-width: 0.05"><tspan style="fill: hsl(90, 100%, 35%); font-weight: bold" >10</tspan></text>
<text text-anchor="middle" alignment-baseline="middle" style="fill: rgb(51, 51, 51); font-size: 0.3px;"><tspan style="fill: hsl(90, 100%, 35%); font-weight: bold" >10</tspan></text>
</g>
<g transform="translate(3.125,-0.795) scale(1)">
<text text-anchor="middle" alignment-baseline="middle" style="fill: rgb(51, 51, 51); font-size: 0.3px;stroke: white; stroke-width: 0.05"><tspan style="fill: hsl(90, 100%, 35%); font-weight: bold" >9</tspan></text>
<text text-anchor="middle" alignment-baseline="middle" style="fill: rgb(51, 51, 51); font-size: 0.3px;"><tspan style="fill: hsl(90, 100%, 35%); font-weight: bold" >9</tspan></text>
</g>
<g transform="translate(1.875,-1.795) scale(1)">
<text text-anchor="middle" alignment-baseline="middle" style="fill: rgb(51, 51, 51); font-size: 0.3px;stroke: white; stroke-width: 0.05"><tspan style="fill: hsl(90, 100%, 35%); font-weight: bold" >8</tspan></text>
<text text-anchor="middle" alignment-baseline="middle" style="fill: rgb(51, 51, 51); font-size: 0.3px;"><tspan style="fill: hsl(90, 100%, 35%); font-weight: bold" >8</tspan></text>
</g>
<g transform="translate(2.875,1.2049998807907105) scale(1)">
<text text-anchor="middle" alignment-baseline="middle" style="fill: rgb(51, 51, 51); font-size: 0.3px;stroke: white; stroke-width: 0.05"><tspan style="fill: hsl(90, 100%, 35%); font-weight: bold" >7</tspan></text>
<text text-anchor="middle" alignment-baseline="middle" style="fill: rgb(51, 51, 51); font-size: 0.3px;"><tspan style="fill: hsl(90, 100%, 35%); font-weight: bold" >7</tspan></text>
</g>
<g transform="translate(5.125,1.205) scale(1)">
<text text-anchor="middle" alignment-baseline="middle" style="fill: rgb(51, 51, 51); font-size: 0.3px;stroke: white; stroke-width: 0.05"><tspan style="fill: hsl(90, 100%, 35%); font-weight: bold" >6</tspan></text>
<text text-anchor="middle" alignment-baseline="middle" style="fill: rgb(51, 51, 51); font-size: 0.3px;"><tspan style="fill: hsl(90, 100%, 35%); font-weight: bold" >6</tspan></text>
</g>
<g transform="translate(5.125,-1.0449998807907104) scale(1)">
<text text-anchor="middle" alignment-baseline="middle" style="fill: rgb(51, 51, 51); font-size: 0.3px;stroke: white; stroke-width: 0.05"><tspan style="fill: hsl(90, 100%, 35%); font-weight: bold" >5</tspan></text>
<text text-anchor="middle" alignment-baseline="middle" style="fill: rgb(51, 51, 51); font-size: 0.3px;"><tspan style="fill: hsl(90, 100%, 35%); font-weight: bold" >5</tspan></text>
</g>
<g transform="translate(4.125,0.20500000000000002) scale(1)">
<text text-anchor="middle" alignment-baseline="middle" style="fill: rgb(51, 51, 51); font-size: 0.3px;stroke: white; stroke-width: 0.05"><tspan style="fill: hsl(90, 100%, 35%); font-weight: bold" >4</tspan></text>
<text text-anchor="middle" alignment-baseline="middle" style="fill: rgb(51, 51, 51); font-size: 0.3px;"><tspan style="fill: hsl(90, 100%, 35%); font-weight: bold" >4</tspan></text>
</g>
<g transform="translate(-1.125,-1.045) scale(1)">
<text text-anchor="middle" alignment-baseline="middle" style="fill: rgb(51, 51, 51); font-size: 0.3px;stroke: white; stroke-width: 0.05"><tspan style="fill: hsl(90, 100%, 35%); font-weight: bold" >3</tspan></text>
<text text-anchor="middle" alignment-baseline="middle" style="fill: rgb(51, 51, 51); font-size: 0.3px;"><tspan style="fill: hsl(90, 100%, 35%); font-weight: bold" >3</tspan></text>
</g>
<g transform="translate(-1.125,1.205) scale(1)">
<text text-anchor="middle" alignment-baseline="middle" style="fill: rgb(51, 51, 51); font-size: 0.3px;stroke: white; stroke-width: 0.05"><tspan style="fill: hsl(90, 100%, 35%); font-weight: bold" >2</tspan></text>
<text text-anchor="middle" alignment-baseline="middle" style="fill: rgb(51, 51, 51); font-size: 0.3px;"><tspan style="fill: hsl(90, 100%, 35%); font-weight: bold" >2</tspan></text>
</g>
<g transform="translate(1.125,1.205) scale(1)">
<text text-anchor="middle" alignment-baseline="middle" style="fill: rgb(51, 51, 51); font-size: 0.3px;stroke: white; stroke-width: 0.05"><tspan style="fill: hsl(90, 100%, 35%); font-weight: bold" >1</tspan></text>
<text text-anchor="middle" alignment-baseline="middle" style="fill: rgb(51, 51, 51); font-size: 0.3px;"><tspan style="fill: hsl(90, 100%, 35%); font-weight: bold" >1</tspan></text>
</g>
<g transform="translate(-0.125,0.20500000000000002) scale(1)">
<text text-anchor="middle" alignment-baseline="middle" style="fill: rgb(51, 51, 51); font-size: 0.3px;stroke: white; stroke-width: 0.05"><tspan style="fill: hsl(90, 100%, 35%); font-weight: bold" >0</tspan></text>
<text text-anchor="middle" alignment-baseline="middle" style="fill: rgb(51, 51, 51); font-size: 0.3px;"><tspan style="fill: hsl(90, 100%, 35%); font-weight: bold" >0</tspan></text>
</g>
</svg>
