<svg viewBox="-2 -2 4 4" xmlns="http://www.w3.org/2000/svg">
<style>
.cell-path {
                stroke-linejoin: round;
                fill: rgb(244, 244, 241);
                stroke: rgb(51, 51, 51);
                stroke-width: 0.1
            }
.dual .cell-path {
                fill: none;
                stroke: rgb(255, 0, 0);
                stroke-opacity: 0.5;
                stroke-width: 0.033333335
            }
</style>
<!-- (0, -3, -3) -->
<path class="cell-path" d="M-3 3L-3.3 3L-3.15 3.2598076Z"/>
<!-- (1, -3, -3) -->
<path class="cell-path" d="M-2.85 2.7401924L-3.15 2.7401924L-3 3Z"/>
<!-- (2, -3, -3) -->
<path class="cell-path" d="M-3 3L-3.15 2.7401924L-3.3 3Z"/>
<!-- (3, -3, -3) -->
<path class="cell-path" d="M-2.7 3L-3 3L-2.85 3.2598076Z"/>
<!-- (5, -3, -3) -->
<path class="cell-path" d="M-2.7 3L-2.85 2.7401924L-3 3Z"/>
<!-- (0, -3, -2) -->
<path class="cell-path" d="M-3 2L-3.3 2L-3.15 2.2598076Z"/>
<!-- (2, -3, -2) -->
<path class="cell-path" d="M-3 2L-3.15 1.7401924L-3.3 2Z"/>
<!-- (3, -3, -2) -->
<path class="cell-path" d="M-2.7 2L-3 2L-2.85 2.2598076Z"/>
<!-- (4, -3, -2) -->
<path class="cell-path" d="M-2.85 2.2598076L-3 2L-3.15 2.2598076Z"/>
<!-- (5, -3, -2) -->
<path class="cell-path" d="M-2.7 2L-2.85 1.7401924L-3 2Z"/>
<!-- (0, -3, -1) -->
<path class="cell-path" d="M-3 1L-3.3 1L-3.15 1.2598076Z"/>
<!-- (1, -3, -1) -->
<path class="cell-path" d="M-2.85 0.7401924L-3.15 0.7401924L-3 1Z"/>
<!-- (2, -3, -1) -->
<path class="cell-path" d="M-3 1L-3.15 0.7401924L-3.3 1Z"/>
<!-- (3, -3, -1) -->
<path class="cell-path" d="M-2.7 1L-3 1L-2.85 1.2598076Z"/>
<!-- (5, -3, -1) -->
<path class="cell-path" d="M-2.7 1L-2.85 0.7401924L-3 1Z"/>
<!-- (0, -3, 0) -->
<path class="cell-path" d="M-3 0L-3.3 0L-3.15 0.25980762Z"/>
<!-- (2, -3, 0) -->
<path class="cell-path" d="M-3 0L-3.15 -0.25980762L-3.3 0Z"/>
<!-- (3, -3, 0) -->
<path class="cell-path" d="M-2.7 0L-3 0L-2.85 0.25980762Z"/>
<!-- (4, -3, 0) -->
<path class="cell-path" d="M-2.85 0.25980762L-3 0L-3.15 0.25980762Z"/>
<!-- (5, -3, 0) -->
<path class="cell-path" d="M-2.7 0L-2.85 -0.25980762L-3 0Z"/>
<!-- (0, -3, 1) -->
<path class="cell-path" d="M-3 -1L-3.3 -1L-3.15 -0.7401924Z"/>
<!-- (1, -3, 1) -->
<path class="cell-path" d="M-2.85 -1.2598076L-3.15 -1.2598076L-3 -1Z"/>
<!-- (2, -3, 1) -->
<path class="cell-path" d="M-3 -1L-3.15 -1.2598076L-3.3 -1Z"/>
<!-- (3, -3, 1) -->
<path class="cell-path" d="M-2.7 -1L-3 -1L-2.85 -0.7401924Z"/>
<!-- (5, -3, 1) -->
<path class="cell-path" d="M-2.7 -1L-2.85 -1.2598076L-3 -1Z"/>
<!-- (0, -3, 2) -->
<path class="cell-path" d="M-3 -2L-3.3 -2L-3.15 -1.7401924Z"/>
<!-- (2, -3, 2) -->
<path class="cell-path" d="M-3 -2L-3.15 -2.2598076L-3.3 -2Z"/>
<!-- (3, -3, 2) -->
<path class="cell-path" d="M-2.7 -2L-3 -2L-2.85 -1.7401924Z"/>
<!-- (4, -3, 2) -->
<path class="cell-path" d="M-2.85 -1.7401924L-3 -2L-3.15 -1.7401924Z"/>
<!-- (5, -3, 2) -->
<path class="cell-path" d="M-2.7 -2L-2.85 -2.2598076L-3 -2Z"/>
<!-- (0, -3, 3) -->
<path class="cell-path" d="M-3 -3L-3.3 -3L-3.15 -2.7401924Z"/>
<!-- (1, -3, 3) -->
<path class="cell-path" d="M-2.85 -3.2598076L-3.15 -3.2598076L-3 -3Z"/>
<!-- (2, -3, 3) -->
<path class="cell-path" d="M-3 -3L-3.15 -3.2598076L-3.3 -3Z"/>
<!-- (3, -3, 3) -->
<path class="cell-path" d="M-2.7 -3L-3 -3L-2.85 -2.7401924Z"/>
<!-- (5, -3, 3) -->
<path class="cell-path" d="M-2.7 -3L-2.85 -3.2598076L-3 -3Z"/>
<!-- (1, -2, -3) -->
<path class="cell-path" d="M-1.85 2.7401924L-2.15 2.7401924L-2 3Z"/>
<!-- (2, -2, -3) -->
<path class="cell-path" d="M-2 3L-2.15 2.7401924L-2.3 3Z"/>
<!-- (3, -2, -3) -->
<path class="cell-path" d="M-1.7 3L-2 3L-1.85 3.2598076Z"/>
<!-- (4, -2, -3) -->
<path class="cell-path" d="M-1.85 3.2598076L-2 3L-2.15 3.2598076Z"/>
<!-- (5, -2, -3) -->
<path class="cell-path" d="M-1.7 3L-1.85 2.7401924L-2 3Z"/>
<!-- (0, -2, -2) -->
<path class="cell-path" d="M-2 2L-2.3 2L-2.15 2.2598076Z"/>
<!-- (1, -2, -2) -->
<path class="cell-path" d="M-1.85 1.7401924L-2.15 1.7401924L-2 2Z"/>
<!-- (2, -2, -2) -->
<path class="cell-path" d="M-2 2L-2.15 1.7401924L-2.3 2Z"/>
<!-- (4, -2, -2) -->
<path class="cell-path" d="M-1.85 2.2598076L-2 2L-2.15 2.2598076Z"/>
<!-- (5, -2, -2) -->
<path class="cell-path" d="M-1.7 2L-1.85 1.7401924L-2 2Z"/>
<!-- (1, -2, -1) -->
<path class="cell-path" d="M-1.85 0.7401924L-2.15 0.7401924L-2 1Z"/>
<!-- (2, -2, -1) -->
<path class="cell-path" d="M-2 1L-2.15 0.7401924L-2.3 1Z"/>
<!-- (3, -2, -1) -->
<path class="cell-path" d="M-1.7 1L-2 1L-1.85 1.2598076Z"/>
<!-- (4, -2, -1) -->
<path class="cell-path" d="M-1.85 1.2598076L-2 1L-2.15 1.2598076Z"/>
<!-- (5, -2, -1) -->
<path class="cell-path" d="M-1.7 1L-1.85 0.7401924L-2 1Z"/>
<!-- (0, -2, 0) -->
<path class="cell-path" d="M-2 0L-2.3 0L-2.15 0.25980762Z"/>
<!-- (1, -2, 0) -->
<path class="cell-path" d="M-1.85 -0.25980762L-2.15 -0.25980762L-2 0Z"/>
<!-- (2, -2, 0) -->
<path class="cell-path" d="M-2 0L-2.15 -0.25980762L-2.3 0Z"/>
<!-- (4, -2, 0) -->
<path class="cell-path" d="M-1.85 0.25980762L-2 0L-2.15 0.25980762Z"/>
<!-- (5, -2, 0) -->
<path class="cell-path" d="M-1.7 0L-1.85 -0.25980762L-2 0Z"/>
<!-- (1, -2, 1) -->
<path class="cell-path" d="M-1.85 -1.2598076L-2.15 -1.2598076L-2 -1Z"/>
<!-- (2, -2, 1) -->
<path class="cell-path" d="M-2 -1L-2.15 -1.2598076L-2.3 -1Z"/>
<!-- (3, -2, 1) -->
<path class="cell-path" d="M-1.7 -1L-2 -1L-1.85 -0.7401924Z"/>
<!-- (4, -2, 1) -->
<path class="cell-path" d="M-1.85 -0.7401924L-2 -1L-2.15 -0.7401924Z"/>
<!-- (5, -2, 1) -->
<path class="cell-path" d="M-1.7 -1L-1.85 -1.2598076L-2 -1Z"/>
<!-- (0, -2, 2) -->
<path class="cell-path" d="M-2 -2L-2.3 -2L-2.15 -1.7401924Z"/>
<!-- (1, -2, 2) -->
<path class="cell-path" d="M-1.85 -2.2598076L-2.15 -2.2598076L-2 -2Z"/>
<!-- (2, -2, 2) -->
<path class="cell-path" d="M-2 -2L-2.15 -2.2598076L-2.3 -2Z"/>
<!-- (4, -2, 2) -->
<path class="cell-path" d="M-1.85 -1.7401924L-2 -2L-2.15 -1.7401924Z"/>
<!-- (5, -2, 2) -->
<path class="cell-path" d="M-1.7 -2L-1.85 -2.2598076L-2 -2Z"/>
<!-- (1, -2, 3) -->
<path class="cell-path" d="M-1.85 -3.2598076L-2.15 -3.2598076L-2 -3Z"/>
<!-- (2, -2, 3) -->
<path class="cell-path" d="M-2 -3L-2.15 -3.2598076L-2.3 -3Z"/>
<!-- (3, -2, 3) -->
<path class="cell-path" d="M-1.7 -3L-2 -3L-1.85 -2.7401924Z"/>
<!-- (4, -2, 3) -->
<path class="cell-path" d="M-1.85 -2.7401924L-2 -3L-2.15 -2.7401924Z"/>
<!-- (5, -2, 3) -->
<path class="cell-path" d="M-1.7 -3L-1.85 -3.2598076L-2 -3Z"/>
<!-- (0, -1, -3) -->
<path class="cell-path" d="M-1 3L-1.3 3L-1.15 3.2598076Z"/>
<!-- (2, -1, -3) -->
<path class="cell-path" d="M-1 3L-1.15 2.7401924L-1.3 3Z"/>
<!-- (3, -1, -3) -->
<path class="cell-path" d="M-0.7 3L-1 3L-0.85 3.2598076Z"/>
<!-- (4, -1, -3) -->
<path class="cell-path" d="M-0.85 3.2598076L-1 3L-1.15 3.2598076Z"/>
<!-- (5, -1, -3) -->
<path class="cell-path" d="M-0.7 3L-0.85 2.7401924L-1 3Z"/>
<!-- (0, -1, -2) -->
<path class="cell-path" d="M-1 2L-1.3 2L-1.15 2.2598076Z"/>
<!-- (1, -1, -2) -->
<path class="cell-path" d="M-0.85 1.7401924L-1.15 1.7401924L-1 2Z"/>
<!-- (2, -1, -2) -->
<path class="cell-path" d="M-1 2L-1.15 1.7401924L-1.3 2Z"/>
<!-- (3, -1, -2) -->
<path class="cell-path" d="M-0.7 2L-1 2L-0.85 2.2598076Z"/>
<!-- (5, -1, -2) -->
<path class="cell-path" d="M-0.7 2L-0.85 1.7401924L-1 2Z"/>
<!-- (0, -1, -1) -->
<path class="cell-path" d="M-1 1L-1.3 1L-1.15 1.2598076Z"/>
<!-- (2, -1, -1) -->
<path class="cell-path" d="M-1 1L-1.15 0.7401924L-1.3 1Z"/>
<!-- (3, -1, -1) -->
<path class="cell-path" d="M-0.7 1L-1 1L-0.85 1.2598076Z"/>
<!-- (4, -1, -1) -->
<path class="cell-path" d="M-0.85 1.2598076L-1 1L-1.15 1.2598076Z"/>
<!-- (5, -1, -1) -->
<path class="cell-path" d="M-0.7 1L-0.85 0.7401924L-1 1Z"/>
<!-- (0, -1, 0) -->
<path class="cell-path" d="M-1 0L-1.3 0L-1.15 0.25980762Z"/>
<!-- (1, -1, 0) -->
<path class="cell-path" d="M-0.85 -0.25980762L-1.15 -0.25980762L-1 0Z"/>
<!-- (2, -1, 0) -->
<path class="cell-path" d="M-1 0L-1.15 -0.25980762L-1.3 0Z"/>
<!-- (3, -1, 0) -->
<path class="cell-path" d="M-0.7 0L-1 0L-0.85 0.25980762Z"/>
<!-- (5, -1, 0) -->
<path class="cell-path" d="M-0.7 0L-0.85 -0.25980762L-1 0Z"/>
<!-- (0, -1, 1) -->
<path class="cell-path" d="M-1 -1L-1.3 -1L-1.15 -0.7401924Z"/>
<!-- (2, -1, 1) -->
<path class="cell-path" d="M-1 -1L-1.15 -1.2598076L-1.3 -1Z"/>
<!-- (3, -1, 1) -->
<path class="cell-path" d="M-0.7 -1L-1 -1L-0.85 -0.7401924Z"/>
<!-- (4, -1, 1) -->
<path class="cell-path" d="M-0.85 -0.7401924L-1 -1L-1.15 -0.7401924Z"/>
<!-- (5, -1, 1) -->
<path class="cell-path" d="M-0.7 -1L-0.85 -1.2598076L-1 -1Z"/>
<!-- (0, -1, 2) -->
<path class="cell-path" d="M-1 -2L-1.3 -2L-1.15 -1.7401924Z"/>
<!-- (1, -1, 2) -->
<path class="cell-path" d="M-0.85 -2.2598076L-1.15 -2.2598076L-1 -2Z"/>
<!-- (2, -1, 2) -->
<path class="cell-path" d="M-1 -2L-1.15 -2.2598076L-1.3 -2Z"/>
<!-- (3, -1, 2) -->
<path class="cell-path" d="M-0.7 -2L-1 -2L-0.85 -1.7401924Z"/>
<!-- (5, -1, 2) -->
<path class="cell-path" d="M-0.7 -2L-0.85 -2.2598076L-1 -2Z"/>
<!-- (0, -1, 3) -->
<path class="cell-path" d="M-1 -3L-1.3 -3L-1.15 -2.7401924Z"/>
<!-- (2, -1, 3) -->
<path class="cell-path" d="M-1 -3L-1.15 -3.2598076L-1.3 -3Z"/>
<!-- (3, -1, 3) -->
<path class="cell-path" d="M-0.7 -3L-1 -3L-0.85 -2.7401924Z"/>
<!-- (4, -1, 3) -->
<path class="cell-path" d="M-0.85 -2.7401924L-1 -3L-1.15 -2.7401924Z"/>
<!-- (5, -1, 3) -->
<path class="cell-path" d="M-0.7 -3L-0.85 -3.2598076L-1 -3Z"/>
<!-- (1, 0, -3) -->
<path class="cell-path" d="M0.15 2.7401924L-0.15 2.7401924L0 3Z"/>
<!-- (2, 0, -3) -->
<path class="cell-path" d="M0 3L-0.15 2.7401924L-0.3 3Z"/>
<!-- (3, 0, -3) -->
<path class="cell-path" d="M0.3 3L0 3L0.15 3.2598076Z"/>
<!-- (4, 0, -3) -->
<path class="cell-path" d="M0.15 3.2598076L0 3L-0.15 3.2598076Z"/>
<!-- (5, 0, -3) -->
<path class="cell-path" d="M0.3 3L0.15 2.7401924L0 3Z"/>
<!-- (0, 0, -2) -->
<path class="cell-path" d="M0 2L-0.3 2L-0.15 2.2598076Z"/>
<!-- (1, 0, -2) -->
<path class="cell-path" d="M0.15 1.7401924L-0.15 1.7401924L0 2Z"/>
<!-- (2, 0, -2) -->
<path class="cell-path" d="M0 2L-0.15 1.7401924L-0.3 2Z"/>
<!-- (4, 0, -2) -->
<path class="cell-path" d="M0.15 2.2598076L0 2L-0.15 2.2598076Z"/>
<!-- (5, 0, -2) -->
<path class="cell-path" d="M0.3 2L0.15 1.7401924L0 2Z"/>
<!-- (1, 0, -1) -->
<path class="cell-path" d="M0.15 0.7401924L-0.15 0.7401924L0 1Z"/>
<!-- (2, 0, -1) -->
<path class="cell-path" d="M0 1L-0.15 0.7401924L-0.3 1Z"/>
<!-- (3, 0, -1) -->
<path class="cell-path" d="M0.3 1L0 1L0.15 1.2598076Z"/>
<!-- (4, 0, -1) -->
<path class="cell-path" d="M0.15 1.2598076L0 1L-0.15 1.2598076Z"/>
<!-- (5, 0, -1) -->
<path class="cell-path" d="M0.3 1L0.15 0.7401924L0 1Z"/>
<!-- (0, 0, 0) -->
<path class="cell-path" d="M0 0L-0.3 0L-0.15 0.25980762Z"/>
<!-- (1, 0, 0) -->
<path class="cell-path" d="M0.15 -0.25980762L-0.15 -0.25980762L0 0Z"/>
<!-- (2, 0, 0) -->
<path class="cell-path" d="M0 0L-0.15 -0.25980762L-0.3 0Z"/>
<!-- (4, 0, 0) -->
<path class="cell-path" d="M0.15 0.25980762L0 0L-0.15 0.25980762Z"/>
<!-- (5, 0, 0) -->
<path class="cell-path" d="M0.3 0L0.15 -0.25980762L0 0Z"/>
<!-- (1, 0, 1) -->
<path class="cell-path" d="M0.15 -1.2598076L-0.15 -1.2598076L0 -1Z"/>
<!-- (2, 0, 1) -->
<path class="cell-path" d="M0 -1L-0.15 -1.2598076L-0.3 -1Z"/>
<!-- (3, 0, 1) -->
<path class="cell-path" d="M0.3 -1L0 -1L0.15 -0.7401924Z"/>
<!-- (4, 0, 1) -->
<path class="cell-path" d="M0.15 -0.7401924L0 -1L-0.15 -0.7401924Z"/>
<!-- (5, 0, 1) -->
<path class="cell-path" d="M0.3 -1L0.15 -1.2598076L0 -1Z"/>
<!-- (0, 0, 2) -->
<path class="cell-path" d="M0 -2L-0.3 -2L-0.15 -1.7401924Z"/>
<!-- (1, 0, 2) -->
<path class="cell-path" d="M0.15 -2.2598076L-0.15 -2.2598076L0 -2Z"/>
<!-- (2, 0, 2) -->
<path class="cell-path" d="M0 -2L-0.15 -2.2598076L-0.3 -2Z"/>
<!-- (4, 0, 2) -->
<path class="cell-path" d="M0.15 -1.7401924L0 -2L-0.15 -1.7401924Z"/>
<!-- (5, 0, 2) -->
<path class="cell-path" d="M0.3 -2L0.15 -2.2598076L0 -2Z"/>
<!-- (1, 0, 3) -->
<path class="cell-path" d="M0.15 -3.2598076L-0.15 -3.2598076L0 -3Z"/>
<!-- (2, 0, 3) -->
<path class="cell-path" d="M0 -3L-0.15 -3.2598076L-0.3 -3Z"/>
<!-- (3, 0, 3) -->
<path class="cell-path" d="M0.3 -3L0 -3L0.15 -2.7401924Z"/>
<!-- (4, 0, 3) -->
<path class="cell-path" d="M0.15 -2.7401924L0 -3L-0.15 -2.7401924Z"/>
<!-- (5, 0, 3) -->
<path class="cell-path" d="M0.3 -3L0.15 -3.2598076L0 -3Z"/>
<!-- (0, 1, -3) -->
<path class="cell-path" d="M1 3L0.7 3L0.85 3.2598076Z"/>
<!-- (1, 1, -3) -->
<path class="cell-path" d="M1.15 2.7401924L0.85 2.7401924L1 3Z"/>
<!-- (2, 1, -3) -->
<path class="cell-path" d="M1 3L0.85 2.7401924L0.7 3Z"/>
<!-- (3, 1, -3) -->
<path class="cell-path" d="M1.3 3L1 3L1.15 3.2598076Z"/>
<!-- (4, 1, -3) -->
<path class="cell-path" d="M1.15 3.2598076L1 3L0.85 3.2598076Z"/>
<!-- (0, 1, -2) -->
<path class="cell-path" d="M1 2L0.7 2L0.85 2.2598076Z"/>
<!-- (2, 1, -2) -->
<path class="cell-path" d="M1 2L0.85 1.7401924L0.7 2Z"/>
<!-- (3, 1, -2) -->
<path class="cell-path" d="M1.3 2L1 2L1.15 2.2598076Z"/>
<!-- (4, 1, -2) -->
<path class="cell-path" d="M1.15 2.2598076L1 2L0.85 2.2598076Z"/>
<!-- (5, 1, -2) -->
<path class="cell-path" d="M1.3 2L1.15 1.7401924L1 2Z"/>
<!-- (0, 1, -1) -->
<path class="cell-path" d="M1 1L0.7 1L0.85 1.2598076Z"/>
<!-- (1, 1, -1) -->
<path class="cell-path" d="M1.15 0.7401924L0.85 0.7401924L1 1Z"/>
<!-- (2, 1, -1) -->
<path class="cell-path" d="M1 1L0.85 0.7401924L0.7 1Z"/>
<!-- (3, 1, -1) -->
<path class="cell-path" d="M1.3 1L1 1L1.15 1.2598076Z"/>
<!-- (5, 1, -1) -->
<path class="cell-path" d="M1.3 1L1.15 0.7401924L1 1Z"/>
<!-- (0, 1, 0) -->
<path class="cell-path" d="M1 0L0.7 0L0.85 0.25980762Z"/>
<!-- (2, 1, 0) -->
<path class="cell-path" d="M1 0L0.85 -0.25980762L0.7 0Z"/>
<!-- (3, 1, 0) -->
<path class="cell-path" d="M1.3 0L1 0L1.15 0.25980762Z"/>
<!-- (4, 1, 0) -->
<path class="cell-path" d="M1.15 0.25980762L1 0L0.85 0.25980762Z"/>
<!-- (5, 1, 0) -->
<path class="cell-path" d="M1.3 0L1.15 -0.25980762L1 0Z"/>
<!-- (0, 1, 1) -->
<path class="cell-path" d="M1 -1L0.7 -1L0.85 -0.7401924Z"/>
<!-- (1, 1, 1) -->
<path class="cell-path" d="M1.15 -1.2598076L0.85 -1.2598076L1 -1Z"/>
<!-- (2, 1, 1) -->
<path class="cell-path" d="M1 -1L0.85 -1.2598076L0.7 -1Z"/>
<!-- (3, 1, 1) -->
<path class="cell-path" d="M1.3 -1L1 -1L1.15 -0.7401924Z"/>
<!-- (5, 1, 1) -->
<path class="cell-path" d="M1.3 -1L1.15 -1.2598076L1 -1Z"/>
<!-- (0, 1, 2) -->
<path class="cell-path" d="M1 -2L0.7 -2L0.85 -1.7401924Z"/>
<!-- (2, 1, 2) -->
<path class="cell-path" d="M1 -2L0.85 -2.2598076L0.7 -2Z"/>
<!-- (3, 1, 2) -->
<path class="cell-path" d="M1.3 -2L1 -2L1.15 -1.7401924Z"/>
<!-- (4, 1, 2) -->
<path class="cell-path" d="M1.15 -1.7401924L1 -2L0.85 -1.7401924Z"/>
<!-- (5, 1, 2) -->
<path class="cell-path" d="M1.3 -2L1.15 -2.2598076L1 -2Z"/>
<!-- (0, 1, 3) -->
<path class="cell-path" d="M1 -3L0.7 -3L0.85 -2.7401924Z"/>
<!-- (1, 1, 3) -->
<path class="cell-path" d="M1.15 -3.2598076L0.85 -3.2598076L1 -3Z"/>
<!-- (2, 1, 3) -->
<path class="cell-path" d="M1 -3L0.85 -3.2598076L0.7 -3Z"/>
<!-- (3, 1, 3) -->
<path class="cell-path" d="M1.3 -3L1 -3L1.15 -2.7401924Z"/>
<!-- (4, 1, 3) -->
<path class="cell-path" d="M1.15 -2.7401924L1 -3L0.85 -2.7401924Z"/>
<!-- (0, 2, -3) -->
<path class="cell-path" d="M2 3L1.7 3L1.85 3.2598076Z"/>
<!-- (1, 2, -3) -->
<path class="cell-path" d="M2.15 2.7401924L1.85 2.7401924L2 3Z"/>
<!-- (3, 2, -3) -->
<path class="cell-path" d="M2.3 3L2 3L2.15 3.2598076Z"/>
<!-- (4, 2, -3) -->
<path class="cell-path" d="M2.15 3.2598076L2 3L1.85 3.2598076Z"/>
<!-- (5, 2, -3) -->
<path class="cell-path" d="M2.3 3L2.15 2.7401924L2 3Z"/>
<!-- (1, 2, -2) -->
<path class="cell-path" d="M2.15 1.7401924L1.85 1.7401924L2 2Z"/>
<!-- (2, 2, -2) -->
<path class="cell-path" d="M2 2L1.85 1.7401924L1.7 2Z"/>
<!-- (3, 2, -2) -->
<path class="cell-path" d="M2.3 2L2 2L2.15 2.2598076Z"/>
<!-- (4, 2, -2) -->
<path class="cell-path" d="M2.15 2.2598076L2 2L1.85 2.2598076Z"/>
<!-- (5, 2, -2) -->
<path class="cell-path" d="M2.3 2L2.15 1.7401924L2 2Z"/>
<!-- (0, 2, -1) -->
<path class="cell-path" d="M2 1L1.7 1L1.85 1.2598076Z"/>
<!-- (1, 2, -1) -->
<path class="cell-path" d="M2.15 0.7401924L1.85 0.7401924L2 1Z"/>
<!-- (2, 2, -1) -->
<path class="cell-path" d="M2 1L1.85 0.7401924L1.7 1Z"/>
<!-- (4, 2, -1) -->
<path class="cell-path" d="M2.15 1.2598076L2 1L1.85 1.2598076Z"/>
<!-- (5, 2, -1) -->
<path class="cell-path" d="M2.3 1L2.15 0.7401924L2 1Z"/>
<!-- (1, 2, 0) -->
<path class="cell-path" d="M2.15 -0.25980762L1.85 -0.25980762L2 0Z"/>
<!-- (2, 2, 0) -->
<path class="cell-path" d="M2 0L1.85 -0.25980762L1.7 0Z"/>
<!-- (3, 2, 0) -->
<path class="cell-path" d="M2.3 0L2 0L2.15 0.25980762Z"/>
<!-- (4, 2, 0) -->
<path class="cell-path" d="M2.15 0.25980762L2 0L1.85 0.25980762Z"/>
<!-- (5, 2, 0) -->
<path class="cell-path" d="M2.3 0L2.15 -0.25980762L2 0Z"/>
<!-- (0, 2, 1) -->
<path class="cell-path" d="M2 -1L1.7 -1L1.85 -0.7401924Z"/>
<!-- (1, 2, 1) -->
<path class="cell-path" d="M2.15 -1.2598076L1.85 -1.2598076L2 -1Z"/>
<!-- (3, 2, 1) -->
<path class="cell-path" d="M2.3 -1L2 -1L2.15 -0.7401924Z"/>
<!-- (4, 2, 1) -->
<path class="cell-path" d="M2.15 -0.7401924L2 -1L1.85 -0.7401924Z"/>
<!-- (5, 2, 1) -->
<path class="cell-path" d="M2.3 -1L2.15 -1.2598076L2 -1Z"/>
<!-- (0, 2, 2) -->
<path class="cell-path" d="M2 -2L1.7 -2L1.85 -1.7401924Z"/>
<!-- (1, 2, 2) -->
<path class="cell-path" d="M2.15 -2.2598076L1.85 -2.2598076L2 -2Z"/>
<!-- (2, 2, 2) -->
<path class="cell-path" d="M2 -2L1.85 -2.2598076L1.7 -2Z"/>
<!-- (3, 2, 2) -->
<path class="cell-path" d="M2.3 -2L2 -2L2.15 -1.7401924Z"/>
<!-- (4, 2, 2) -->
<path class="cell-path" d="M2.15 -1.7401924L2 -2L1.85 -1.7401924Z"/>
<!-- (0, 2, 3) -->
<path class="cell-path" d="M2 -3L1.7 -3L1.85 -2.7401924Z"/>
<!-- (1, 2, 3) -->
<path class="cell-path" d="M2.15 -3.2598076L1.85 -3.2598076L2 -3Z"/>
<!-- (3, 2, 3) -->
<path class="cell-path" d="M2.3 -3L2 -3L2.15 -2.7401924Z"/>
<!-- (4, 2, 3) -->
<path class="cell-path" d="M2.15 -2.7401924L2 -3L1.85 -2.7401924Z"/>
<!-- (5, 2, 3) -->
<path class="cell-path" d="M2.3 -3L2.15 -3.2598076L2 -3Z"/>
<!-- (0, 3, -3) -->
<path class="cell-path" d="M3 3L2.7 3L2.85 3.2598076Z"/>
<!-- (2, 3, -3) -->
<path class="cell-path" d="M3 3L2.85 2.7401924L2.7 3Z"/>
<!-- (3, 3, -3) -->
<path class="cell-path" d="M3.3 3L3 3L3.15 3.2598076Z"/>
<!-- (4, 3, -3) -->
<path class="cell-path" d="M3.15 3.2598076L3 3L2.85 3.2598076Z"/>
<!-- (5, 3, -3) -->
<path class="cell-path" d="M3.3 3L3.15 2.7401924L3 3Z"/>
<!-- (0, 3, -2) -->
<path class="cell-path" d="M3 2L2.7 2L2.85 2.2598076Z"/>
<!-- (1, 3, -2) -->
<path class="cell-path" d="M3.15 1.7401924L2.85 1.7401924L3 2Z"/>
<!-- (2, 3, -2) -->
<path class="cell-path" d="M3 2L2.85 1.7401924L2.7 2Z"/>
<!-- (3, 3, -2) -->
<path class="cell-path" d="M3.3 2L3 2L3.15 2.2598076Z"/>
<!-- (5, 3, -2) -->
<path class="cell-path" d="M3.3 2L3.15 1.7401924L3 2Z"/>
<!-- (0, 3, -1) -->
<path class="cell-path" d="M3 1L2.7 1L2.85 1.2598076Z"/>
<!-- (2, 3, -1) -->
<path class="cell-path" d="M3 1L2.85 0.7401924L2.7 1Z"/>
<!-- (3, 3, -1) -->
<path class="cell-path" d="M3.3 1L3 1L3.15 1.2598076Z"/>
<!-- (4, 3, -1) -->
<path class="cell-path" d="M3.15 1.2598076L3 1L2.85 1.2598076Z"/>
<!-- (5, 3, -1) -->
<path class="cell-path" d="M3.3 1L3.15 0.7401924L3 1Z"/>
<!-- (0, 3, 0) -->
<path class="cell-path" d="M3 0L2.7 0L2.85 0.25980762Z"/>
<!-- (1, 3, 0) -->
<path class="cell-path" d="M3.15 -0.25980762L2.85 -0.25980762L3 0Z"/>
<!-- (2, 3, 0) -->
<path class="cell-path" d="M3 0L2.85 -0.25980762L2.7 0Z"/>
<!-- (3, 3, 0) -->
<path class="cell-path" d="M3.3 0L3 0L3.15 0.25980762Z"/>
<!-- (5, 3, 0) -->
<path class="cell-path" d="M3.3 0L3.15 -0.25980762L3 0Z"/>
<!-- (0, 3, 1) -->
<path class="cell-path" d="M3 -1L2.7 -1L2.85 -0.7401924Z"/>
<!-- (2, 3, 1) -->
<path class="cell-path" d="M3 -1L2.85 -1.2598076L2.7 -1Z"/>
<!-- (3, 3, 1) -->
<path class="cell-path" d="M3.3 -1L3 -1L3.15 -0.7401924Z"/>
<!-- (4, 3, 1) -->
<path class="cell-path" d="M3.15 -0.7401924L3 -1L2.85 -0.7401924Z"/>
<!-- (5, 3, 1) -->
<path class="cell-path" d="M3.3 -1L3.15 -1.2598076L3 -1Z"/>
<!-- (0, 3, 2) -->
<path class="cell-path" d="M3 -2L2.7 -2L2.85 -1.7401924Z"/>
<!-- (1, 3, 2) -->
<path class="cell-path" d="M3.15 -2.2598076L2.85 -2.2598076L3 -2Z"/>
<!-- (2, 3, 2) -->
<path class="cell-path" d="M3 -2L2.85 -2.2598076L2.7 -2Z"/>
<!-- (3, 3, 2) -->
<path class="cell-path" d="M3.3 -2L3 -2L3.15 -1.7401924Z"/>
<!-- (5, 3, 2) -->
<path class="cell-path" d="M3.3 -2L3.15 -2.2598076L3 -2Z"/>
<!-- (0, 3, 3) -->
<path class="cell-path" d="M3 -3L2.7 -3L2.85 -2.7401924Z"/>
<!-- (2, 3, 3) -->
<path class="cell-path" d="M3 -3L2.85 -3.2598076L2.7 -3Z"/>
<!-- (3, 3, 3) -->
<path class="cell-path" d="M3.3 -3L3 -3L3.15 -2.7401924Z"/>
<!-- (4, 3, 3) -->
<path class="cell-path" d="M3.15 -2.7401924L3 -3L2.85 -2.7401924Z"/>
<!-- (5, 3, 3) -->
<path class="cell-path" d="M3.3 -3L3.15 -3.2598076L3 -3Z"/>
</svg>
