<svg viewBox="-10 -10 20 20" xmlns="http://www.w3.org/2000/svg">
<style>
.cell-path {
                stroke-linejoin: round;
                fill: rgb(244, 244, 241);
                stroke: rgb(51, 51, 51);
                stroke-width: 0.1
            }
.dual .cell-path {
                fill: none;
                stroke: rgb(255, 0, 0);
                stroke-opacity: 0.5;
                stroke-width: 0.033333335
            }
</style>
<!-- (141602, 0, 0) -->
<path class="cell-path" d="M-5.9999704 9.9999895L-5.3999696 10.79999L-4.7999687 11.599989L-3.999969 10.999989L-4.399969 10.799989L-4.7999697 10.599989L-5.19997 10.399989L-5.5999703 10.199989Z"/>
<!-- (141592, 0, 0) -->
<path class="cell-path" d="M-6.999969 11.99999L-6.1999693 11.39999L-5.399969 10.79999L-5.9999695 9.9999895L-6.1999693 10.39999L-6.3999696 10.79999L-6.5999694 11.19999L-6.799969 11.59999Z"/>
<!-- (141572, 0, 0) -->
<path class="cell-path" d="M-7.9999704 9.99999L-7.99997 10.99999L-7.9999695 11.999991L-6.9999695 11.99999L-7.1999693 11.599991L-7.3999696 11.199991L-7.59997 10.799991L-7.79997 10.39999Z"/>
<!-- (141571, 0, 0) -->
<path class="cell-path" d="M-6.9999695 11.99999L-6.99997 10.99999L-6.9999704 9.99999L-7.999971 9.99999L-7.7999706 10.39999L-7.5999703 10.799991L-7.39997 11.19999L-7.19997 11.599991Z"/>
<!-- (141570, 0, 0) -->
<path class="cell-path" d="M-6.39997 9.799989L-6.7999706 9.599989L-7.1999707 9.399989L-7.599971 9.199989L-7.9999714 8.9999895L-7.9999704 9.9999895L-6.9999704 9.999989L-5.99997 9.999989Z"/>
<!-- (141569, 0, 0) -->
<path class="cell-path" d="M-6.7999697 11.59999L-6.59997 11.19999L-6.3999696 10.79999L-6.19997 10.39999L-5.99997 9.9999895L-6.9999704 9.9999895L-6.99997 10.99999L-6.9999695 11.99999Z"/>
<!-- (141540, 0, 0) -->
<path class="cell-path" d="M-2.3199701 10.239987L-2.2399697 10.679988L-2.1599696 11.1199875L-2.0799692 11.559988L-1.999969 11.999988L-1.1999692 11.399987L-1.7999697 10.599988L-2.3999703 9.799988Z"/>
<!-- (141539, 0, 0) -->
<path class="cell-path" d="M-2.0799694 11.559989L-2.1599696 11.119988L-2.2399697 10.679989L-2.3199701 10.239988L-2.39997 9.799989L-3.19997 10.399989L-2.5999696 11.199988L-1.9999692 11.999989Z"/>
<!-- (141536, 0, 0) -->
<path class="cell-path" d="M-3.99997 10.999989L-3.1999702 10.399988L-2.3999703 9.799988L-2.999971 8.999988L-3.1999707 9.399988L-3.3999705 9.799988L-3.5999703 10.199988L-3.7999701 10.599988Z"/>
<!-- (141532, 0, 0) -->
<path class="cell-path" d="M-0.67996955 11.759988L-0.7599698 11.319987L-0.83997 10.879988L-0.91997015 10.439987L-0.9999703 9.999988L-1.7999701 10.599988L-1.1999698 11.399987L-0.5999694 12.199987Z"/>
<!-- (141531, 0, 0) -->
<path class="cell-path" d="M-0.91996986 10.439987L-0.83996975 10.879988L-0.75996965 11.319987L-0.67996955 11.759988L-0.59996945 12.199987L0.20003045 11.599987L-0.39996976 10.799988L-0.99996996 9.999988Z"/>
<!-- (141530, 0, 0) -->
<path class="cell-path" d="M-2.9999704 8.999988L-2.39997 9.799988L-1.7999697 10.599987L-0.99996996 9.999987L-1.3999699 9.799987L-1.79997 9.599987L-2.1999702 9.399987L-2.5999703 9.199987Z"/>
<!-- (141529, 0, 0) -->
<path class="cell-path" d="M-0.99996996 9.999988L-0.39996958 10.799988L0.2000308 11.599987L1.0000305 10.999987L0.60003054 10.799987L0.20003045 10.599987L-0.19996971 10.399987L-0.59996986 10.199987Z"/>
<!-- (141524, 0, 0) -->
<path class="cell-path" d="M-3.9999704 8.999987L-4.9999704 8.999987L-5.9999704 8.999987L-5.9999704 9.999988L-5.5999703 9.799987L-5.1999702 9.599987L-4.7999706 9.399987L-4.3999705 9.199986Z"/>
<!-- (141523, 0, 0) -->
<path class="cell-path" d="M-5.9999704 9.999988L-4.9999704 9.999988L-3.9999702 9.999987L-3.9999707 8.999987L-4.3999705 9.199986L-4.7999706 9.399987L-5.1999702 9.599987L-5.5999703 9.799988Z"/>
<!-- (141522, 0, 0) -->
<path class="cell-path" d="M-3.7999701 10.599987L-3.59997 10.199987L-3.3999703 9.799987L-3.1999705 9.399987L-2.9999704 8.999987L-3.9999707 8.999988L-3.9999704 9.999988L-3.99997 10.999988Z"/>
<!-- (141521, 0, 0) -->
<path class="cell-path" d="M-5.5999703 10.199987L-5.1999702 10.399987L-4.79997 10.599987L-4.39997 10.799988L-3.99997 10.999988L-3.9999702 9.999987L-4.9999704 9.999988L-5.9999704 9.999988Z"/>
<!-- (141520, 0, 0) -->
<path class="cell-path" d="M-7.5999713 9.199988L-7.199971 9.399988L-6.799971 9.599988L-6.399971 9.799989L-5.999971 9.999989L-5.9999714 8.999989L-6.9999714 8.999989L-7.9999714 8.999989Z"/>
<!-- (141516, 0, 0) -->
<path class="cell-path" d="M1.0000305 8.999986L3.0398369E-05 8.999986L-0.9999697 8.999987L-0.9999695 9.999987L-0.5999695 9.799986L-0.19996953 9.599986L0.2000305 9.399986L0.60003054 9.1999855Z"/>
<!-- (141515, 0, 0) -->
<path class="cell-path" d="M-0.9999697 9.999987L3.0398369E-05 9.999987L1.0000305 9.999986L1.00003 8.999986L0.6000302 9.1999855L0.20003021 9.399986L-0.19996977 9.599986L-0.59996974 9.799987Z"/>
<!-- (141514, 0, 0) -->
<path class="cell-path" d="M1.2000309 10.599986L1.4000307 10.199986L1.6000307 9.799986L1.8000305 9.399986L2.0000305 8.999987L1.0000303 8.999987L1.0000306 9.999987L1.000031 10.999987Z"/>
<!-- (141513, 0, 0) -->
<path class="cell-path" d="M-0.5999696 10.199986L-0.19996947 10.399986L0.20003057 10.599986L0.6000308 10.799987L1.0000308 10.999987L1.0000305 9.999987L3.0398369E-05 9.999987L-0.9999697 9.999987Z"/>
<!-- (141512, 0, 0) -->
<path class="cell-path" d="M-2.5999703 9.199987L-2.1999702 9.399987L-1.7999701 9.599987L-1.3999699 9.799988L-0.99996996 9.999988L-0.9999702 8.999987L-1.9999703 8.999988L-2.9999704 8.999988Z"/>
<!-- (141504, 0, 0) -->
<path class="cell-path" d="M1.8000305 9.399987L1.6000305 9.799987L1.4000306 10.199987L1.2000306 10.599987L1.0000305 10.999988L2.0000308 10.999987L2.0000308 9.999987L2.0000305 8.999987Z"/>
<!-- (141472, 0, 0) -->
<path class="cell-path" d="M-10.399973 10.199987L-10.799973 10.399988L-11.199973 10.599988L-11.599973 10.799988L-11.999973 10.999988L-11.199972 11.599988L-10.599973 10.799988L-9.999972 9.999988Z"/>
<!-- (141466, 0, 0) -->
<path class="cell-path" d="M-9.199971 11.599989L-9.399972 11.199988L-9.599972 10.799989L-9.799973 10.399988L-9.999972 9.999989L-10.599972 10.799989L-9.799972 11.399989L-8.999971 11.999989Z"/>
<!-- (141460, 0, 0) -->
<path class="cell-path" d="M-8.199972 10.399987L-8.399972 10.799987L-8.599972 11.199987L-8.799972 11.599988L-8.999971 11.999988L-7.999971 11.999988L-7.9999714 10.999987L-7.999972 9.999987Z"/>
<!-- (141459, 0, 0) -->
<path class="cell-path" d="M-8.799972 11.599988L-8.599972 11.199988L-8.399972 10.799988L-8.199972 10.399988L-7.999972 9.999988L-8.999972 9.999989L-8.999971 10.999989L-8.999971 11.999989Z"/>
<!-- (141457, 0, 0) -->
<path class="cell-path" d="M-8.999971 11.999989L-8.999972 10.999989L-8.999972 9.999988L-9.999973 9.999989L-9.799973 10.399988L-9.599972 10.799989L-9.399972 11.199988L-9.199972 11.599989Z"/>
<!-- (141456, 0, 0) -->
<path class="cell-path" d="M-9.999972 9.999989L-8.999972 9.999989L-7.999972 9.999988L-7.9999723 8.999988L-8.399972 9.199987L-8.799973 9.399988L-9.199972 9.599988L-9.599973 9.799989Z"/>
<!-- (141412, 0, 0) -->
<path class="cell-path" d="M-2.3999703 8.1999855L-1.7999701 7.3999853L-1.19997 6.599985L-1.9999702 5.9999847L-2.0799704 6.439985L-2.1599703 6.879985L-2.2399702 7.3199854L-2.3199704 7.7599854Z"/>
<!-- (141411, 0, 0) -->
<path class="cell-path" d="M-1.9999707 5.9999847L-2.5999706 6.799985L-3.1999705 7.599985L-2.39997 8.1999855L-2.3199701 7.759985L-2.2399704 7.3199854L-2.1599705 6.879985L-2.0799706 6.439985Z"/>
<!-- (141410, 0, 0) -->
<path class="cell-path" d="M-3.7999709 7.3999853L-3.5999706 7.7999854L-3.3999705 8.1999855L-3.1999702 8.599985L-2.9999704 8.999986L-2.3999703 8.1999855L-3.1999707 7.599985L-3.999971 6.999985Z"/>
<!-- (141409, 0, 0) -->
<path class="cell-path" d="M-2.3999708 6.199985L-2.7999709 6.399985L-3.1999712 6.599985L-3.599971 6.799985L-3.9999712 6.999985L-3.199971 7.599985L-2.5999708 6.799985L-1.9999707 5.9999847Z"/>
<!-- (141408, 0, 0) -->
<path class="cell-path" d="M-0.39997053 5.199984L-0.7999706 5.399984L-1.1999708 5.599984L-1.5999708 5.799984L-1.9999709 5.9999843L-1.1999707 6.599984L-0.5999706 5.799984L2.9563904E-05 4.999984Z"/>
<!-- (141404, 0, 0) -->
<path class="cell-path" d="M-0.5999708 5.799985L-1.1999707 6.599985L-1.7999706 7.3999853L-0.9999703 7.9999857L-0.9199704 7.559985L-0.8399705 7.1199856L-0.7599706 6.679985L-0.67997074 6.239985Z"/>
<!-- (141403, 0, 0) -->
<path class="cell-path" d="M-0.99996996 7.9999857L-0.39997017 7.1999855L0.20002961 6.399985L-0.59997076 5.799985L-0.67997056 6.2399855L-0.7599704 6.679985L-0.83997023 7.1199856L-0.9199701 7.5599856Z"/>
<!-- (141402, 0, 0) -->
<path class="cell-path" d="M0.8000299 6.5999846L0.6000297 6.1999846L0.40002954 5.799985L0.20002937 5.399985L2.9087067E-05 4.9999847L-0.5999707 5.799985L0.20002967 6.399985L1.00003 6.9999847Z"/>
<!-- (141401, 0, 0) -->
<path class="cell-path" d="M-0.5999699 7.7999854L-0.19996989 7.599985L0.20003009 7.3999853L0.6000302 7.199985L1.00003 6.9999847L0.20002985 6.3999853L-0.39997005 7.1999855L-0.99996996 7.9999857Z"/>
<!-- (141400, 0, 0) -->
<path class="cell-path" d="M-2.5999699 8.799987L-2.1999698 8.599986L-1.7999699 8.399986L-1.3999698 8.1999855L-0.99996996 7.9999857L-1.7999701 7.3999863L-2.39997 8.199986L-2.99997 8.999987Z"/>
<!-- (141396, 0, 0) -->
<path class="cell-path" d="M1.8000302 5.3999834L1.6000303 5.799984L1.4000304 6.199984L1.2000306 6.599984L1.0000308 6.9999847L2.000031 6.999984L2.0000305 5.999984L2.00003 4.9999833Z"/>
<!-- (141395, 0, 0) -->
<path class="cell-path" d="M1.2000304 6.5999846L1.4000304 6.1999846L1.6000302 5.799984L1.8000302 5.3999844L2.00003 4.999984L1.0000298 4.9999843L1.0000302 5.9999847L1.0000305 6.9999847Z"/>
<!-- (141394, 0, 0) -->
<path class="cell-path" d="M2.0000315 8.999985L2.000031 7.9999843L2.0000305 6.999984L1.00003 6.9999847L1.2000303 7.3999844L1.4000306 7.7999845L1.6000309 8.199985L1.8000312 8.599985Z"/>
<!-- (141393, 0, 0) -->
<path class="cell-path" d="M1.0000305 6.9999847L1.00003 5.9999843L1.0000296 4.999984L2.9087067E-05 4.9999847L0.20002937 5.3999844L0.40002966 5.7999845L0.60002995 6.1999846L0.80003023 6.5999846Z"/>
<!-- (141392, 0, 0) -->
<path class="cell-path" d="M2.9563904E-05 4.9999843L1.0000298 4.999984L2.00003 4.9999833L2.0000296 3.9999833L1.6000296 4.1999836L1.2000296 4.3999834L0.8000296 4.5999837L0.40002957 4.799984Z"/>
<!-- (141388, 0, 0) -->
<path class="cell-path" d="M0.6000308 8.799986L0.20003062 8.599986L-0.19996953 8.399986L-0.59996974 8.199986L-0.99996996 7.999986L-0.9999695 8.999987L3.0755997E-05 8.999986L1.000031 8.999986Z"/>
<!-- (141387, 0, 0) -->
<path class="cell-path" d="M-0.59996957 8.1999855L-0.19996941 8.399985L0.20003068 8.599985L0.6000309 8.799986L1.000031 8.999986L1.0000308 7.999985L3.0517578E-05 7.9999857L-0.9999697 7.9999857Z"/>
<!-- (141386, 0, 0) -->
<path class="cell-path" d="M-2.99997 8.999987L-1.9999697 8.999987L-0.9999695 8.999986L-0.99996996 7.9999857L-1.3999699 8.1999855L-1.7999699 8.399986L-2.19997 8.599986L-2.5999699 8.799987Z"/>
<!-- (141385, 0, 0) -->
<path class="cell-path" d="M-0.9999697 7.9999857L3.0517578E-05 7.999985L1.0000308 7.9999847L1.0000303 6.9999847L0.6000303 7.199985L0.20003033 7.3999853L-0.19996971 7.599985L-0.59996974 7.7999854Z"/>
<!-- (141384, 0, 0) -->
<path class="cell-path" d="M1.0000305 6.999985L1.0000308 7.9999857L1.0000311 8.999986L2.0000315 8.999986L1.8000312 8.599985L1.600031 8.1999855L1.4000309 7.7999854L1.2000307 7.3999853Z"/>
<!-- (141380, 0, 0) -->
<path class="cell-path" d="M-4.3999705 8.799988L-4.7999706 8.599988L-5.199971 8.399988L-5.5999713 8.199988L-5.9999714 7.999988L-5.999971 8.999989L-4.9999704 8.999988L-3.9999704 8.999988Z"/>
<!-- (141379, 0, 0) -->
<path class="cell-path" d="M-5.5999713 8.199987L-5.199971 8.399987L-4.799971 8.599987L-4.399971 8.799988L-3.9999707 8.999988L-3.999971 7.999987L-4.9999714 7.9999876L-5.9999714 7.9999876Z"/>
<!-- (141378, 0, 0) -->
<path class="cell-path" d="M-7.9999714 8.999989L-6.9999714 8.999989L-5.999971 8.999988L-5.9999714 7.9999876L-6.3999715 8.199987L-6.7999716 8.399988L-7.199971 8.599988L-7.5999713 8.799989Z"/>
<!-- (141377, 0, 0) -->
<path class="cell-path" d="M-5.9999714 7.9999876L-4.9999714 7.999987L-3.999971 7.9999866L-3.9999714 6.9999866L-4.3999715 7.199987L-4.7999716 7.399987L-5.199971 7.599987L-5.5999713 7.7999873Z"/>
<!-- (141376, 0, 0) -->
<path class="cell-path" d="M-3.999971 6.999987L-3.9999707 7.9999876L-3.9999704 8.999988L-2.99997 8.999988L-3.1999702 8.599987L-3.3999705 8.199987L-3.5999706 7.7999873L-3.7999706 7.399987Z"/>
<!-- (141348, 0, 0) -->
<path class="cell-path" d="M2.8000336 9.599986L3.6000338 10.199986L4.400034 10.799987L5.0000343 9.999987L4.560034 9.919987L4.120034 9.839986L3.6800337 9.759986L3.2400336 9.679986Z"/>
<!-- (141347, 0, 0) -->
<path class="cell-path" d="M5.0000343 9.999987L4.200034 9.399986L3.4000337 8.799987L2.8000336 9.599987L3.2400336 9.679987L3.680034 9.759987L4.120034 9.839987L4.5600343 9.919987Z"/>
<!-- (141346, 0, 0) -->
<path class="cell-path" d="M3.6000333 8.1999855L3.2000332 8.399986L2.800033 8.599986L2.400033 8.799986L2.000033 8.999987L2.800033 9.599986L3.4000332 8.799986L4.0000334 7.9999857Z"/>
<!-- (141345, 0, 0) -->
<path class="cell-path" d="M4.8000345 9.599986L4.600034 9.199986L4.400034 8.799986L4.200034 8.399986L4.0000343 7.999986L3.400034 8.799986L4.200034 9.399986L5.0000343 9.999987Z"/>
<!-- (141344, 0, 0) -->
<path class="cell-path" d="M5.8000345 11.599986L5.6000347 11.199986L5.400035 10.799986L5.2000346 10.399986L5.0000343 9.999987L4.4000344 10.799986L5.2000346 11.399986L6.000035 11.999987Z"/>
<!-- (141336, 0, 0) -->
<path class="cell-path" d="M2.2000322 9.399986L2.4000325 9.799987L2.6000326 10.199987L2.8000326 10.599987L3.0000327 10.999987L3.6000328 10.199986L2.8000326 9.599987L2.0000322 8.999987Z"/>
<!-- (141322, 0, 0) -->
<path class="cell-path" d="M2.0000322 8.999987L2.0000324 9.999987L2.000033 10.999987L3.0000331 10.999987L2.8000329 10.599987L2.6000328 10.199986L2.4000325 9.799987L2.2000325 9.399986Z"/>
<!-- (141316, 0, 0) -->
<path class="cell-path" d="M2.2000308 7.599986L2.4000309 7.199986L2.6000307 6.799986L2.8000307 6.3999853L3.0000305 5.9999857L2.0000303 5.9999857L2.0000308 6.9999857L2.000031 7.999986Z"/>
<!-- (141315, 0, 0) -->
<path class="cell-path" d="M2.800031 6.3999853L2.600031 6.7999854L2.400031 7.1999855L2.200031 7.5999856L2.000031 7.9999857L3.0000312 7.9999857L3.0000312 6.9999857L3.000031 5.999985Z"/>
<!-- (141314, 0, 0) -->
<path class="cell-path" d="M2.0000305 3.9999847L2.0000308 4.9999847L2.0000312 5.999985L3.0000315 5.9999847L2.8000312 5.599985L2.6000311 5.1999846L2.4000309 4.799985L2.2000308 4.399985Z"/>
<!-- (141313, 0, 0) -->
<path class="cell-path" d="M3.000031 5.999985L3.0000312 6.9999857L3.0000317 7.9999857L4.000032 7.9999857L3.8000317 7.599985L3.6000316 7.1999855L3.4000313 6.7999854L3.2000313 6.3999853Z"/>
<!-- (141312, 0, 0) -->
<path class="cell-path" d="M4.0000315 7.9999857L3.0000312 7.9999857L2.000031 7.999986L2.0000312 8.999987L2.400031 8.799986L2.8000312 8.599986L3.2000313 8.399986L3.6000314 8.1999855Z"/>
<!-- (140516, 0, 0) -->
<path class="cell-path" d="M9.280037 3.9599907L9.560037 4.919991L9.840036 5.8799915L10.800037 5.5999913L10.496037 5.2719913L10.192037 4.943991L9.888037 4.615991L9.584037 4.287991Z"/>
<!-- (140515, 0, 0) -->
<path class="cell-path" d="M10.800037 5.599991L10.520038 4.639991L10.240037 3.6799905L9.280037 3.9599905L9.584037 4.2879906L9.888037 4.6159906L10.192038 4.9439907L10.4960375 5.271991Z"/>
<!-- (140514, 0, 0) -->
<path class="cell-path" d="M10.760037 3.3199906L10.320038 3.2399905L9.880037 3.1599905L9.440038 3.0799904L9.000037 2.9999905L9.280038 3.9599907L10.240038 3.6799905L11.200038 3.3999906Z"/>
<!-- (140512, 0, 0) -->
<path class="cell-path" d="M10.480038 7.3599916L10.560038 6.9199915L10.6400385 6.479991L10.720038 6.0399914L10.800038 5.599991L9.840038 5.879991L10.120038 6.8399916L10.400038 7.7999916Z"/>
<!-- (140508, 0, 0) -->
<path class="cell-path" d="M10.120037 6.839991L9.840037 5.879991L9.560037 4.9199905L8.600037 5.1999907L8.9040365 5.527991L9.208036 5.855991L9.512037 6.183991L9.816037 6.511991Z"/>
<!-- (140507, 0, 0) -->
<path class="cell-path" d="M8.600037 5.199991L8.880037 6.1599913L9.160037 7.1199913L10.120037 6.839991L9.816037 6.511991L9.512037 6.183991L9.208036 5.8559914L8.9040365 5.5279913Z"/>
<!-- (140506, 0, 0) -->
<path class="cell-path" d="M8.640038 7.4799914L9.080037 7.5599914L9.520038 7.6399913L9.960037 7.719991L10.400038 7.799991L10.120037 6.839991L9.160037 7.1199913L8.200037 7.3999915Z"/>
<!-- (140505, 0, 0) -->
<path class="cell-path" d="M8.520037 5.6399913L8.440037 6.0799913L8.360037 6.5199914L8.280037 6.9599915L8.200037 7.399992L9.160037 7.1199913L8.880036 6.1599913L8.600037 5.199991Z"/>
<!-- (140504, 0, 0) -->
<path class="cell-path" d="M8.920036 3.4399905L8.840036 3.8799906L8.760036 4.3199906L8.680037 4.7599907L8.600037 5.199991L9.560037 4.9199905L9.280036 3.9599905L9.000036 2.9999905Z"/>
<!-- (140500, 0, 0) -->
<path class="cell-path" d="M9.000038 8.999992L8.800037 8.599992L8.600038 8.199992L8.400038 7.799992L8.200037 7.399992L7.600037 8.199992L8.400038 8.799993L9.200038 9.399992Z"/>
<!-- (140499, 0, 0) -->
<path class="cell-path" d="M8.400037 7.799992L8.600038 8.199992L8.800037 8.599992L9.000037 8.999992L9.200037 9.399992L9.800037 8.599992L9.000037 7.999992L8.200037 7.399992Z"/>
<!-- (140498, 0, 0) -->
<path class="cell-path" d="M6.0000367 6.9999924L6.800037 7.5999923L7.6000376 8.199992L8.200037 7.3999915L7.7600374 7.319992L7.320037 7.239992L6.880037 7.159992L6.440037 7.0799923Z"/>
<!-- (140497, 0, 0) -->
<path class="cell-path" d="M8.200037 7.399992L9.000037 7.999992L9.800037 8.599992L10.400038 7.799991L9.960037 7.7199917L9.520038 7.6399918L9.080037 7.559992L8.640038 7.479992Z"/>
<!-- (140496, 0, 0) -->
<path class="cell-path" d="M10.400038 7.7999916L9.800037 8.599992L9.200038 9.399992L10.000038 9.999992L10.080038 9.559992L10.160038 9.119992L10.240038 8.679992L10.320038 8.239992Z"/>
<!-- (140492, 0, 0) -->
<path class="cell-path" d="M7.000036 5.999991L7.400036 5.799991L7.800036 5.599991L8.200036 5.3999906L8.600036 5.1999903L7.8000355 4.599991L7.2000356 5.399991L6.6000357 6.199991Z"/>
<!-- (140491, 0, 0) -->
<path class="cell-path" d="M8.200037 5.3999915L7.8000364 5.5999913L7.4000363 5.7999916L7.0000362 5.9999914L6.600036 6.199991L7.4000363 6.7999916L8.000036 5.9999914L8.600037 5.199991Z"/>
<!-- (140490, 0, 0) -->
<path class="cell-path" d="M9.000036 2.9999905L8.400036 3.7999907L7.8000364 4.599991L8.600037 5.199991L8.680037 4.759991L8.760036 4.319991L8.840036 3.8799908L8.920036 3.4399905Z"/>
<!-- (140489, 0, 0) -->
<path class="cell-path" d="M8.600037 5.199991L8.000036 5.9999914L7.400037 6.7999916L8.200037 7.399992L8.280037 6.959992L8.360037 6.519992L8.440037 6.0799913L8.520037 5.6399913Z"/>
<!-- (140488, 0, 0) -->
<path class="cell-path" d="M8.200036 7.3999915L7.400036 6.7999916L6.6000357 6.199991L6.0000353 6.999992L6.440036 7.079992L6.8800354 7.1599917L7.320036 7.2399917L7.760036 7.3199916Z"/>
<!-- (140484, 0, 0) -->
<path class="cell-path" d="M10.000035 1.9999894L10.400036 1.7999892L10.800035 1.5999892L11.200036 1.399989L11.600036 1.1999888L10.800035 0.59998894L10.200036 1.3999892L9.600036 2.1999896Z"/>
<!-- (140483, 0, 0) -->
<path class="cell-path" d="M11.200037 1.3999891L10.800036 1.5999892L10.400036 1.7999892L10.000036 1.9999893L9.600037 2.1999893L10.400037 2.7999895L11.000036 1.9999893L11.600037 1.1999891Z"/>
<!-- (140480, 0, 0) -->
<path class="cell-path" d="M11.200036 3.3999896L10.400036 2.7999897L9.600036 2.1999896L9.000035 2.9999897L9.440036 3.07999L9.880035 3.1599898L10.320036 3.2399898L10.7600355 3.3199897Z"/>
<!-- (140452, 0, 0) -->
<path class="cell-path" d="M5.8000364 8.399993L5.6000366 8.7999935L5.400037 9.199993L5.2000365 9.599994L5.0000367 9.999994L6.000037 9.999993L6.0000367 8.999993L6.0000362 7.999993Z"/>
<!-- (140451, 0, 0) -->
<path class="cell-path" d="M5.200036 9.599994L5.4000363 9.199994L5.600036 8.7999935L5.800036 8.399994L6.0000362 7.9999933L5.000036 7.9999933L5.000036 8.999994L5.0000362 9.999994Z"/>
<!-- (140450, 0, 0) -->
<path class="cell-path" d="M6.000037 11.999994L6.0000367 10.999994L6.0000362 9.999993L5.000036 9.999994L5.200036 10.399994L5.4000363 10.7999935L5.6000366 11.199994L5.800037 11.599995Z"/>
<!-- (140449, 0, 0) -->
<path class="cell-path" d="M5.0000362 9.999994L5.000036 8.999994L5.0000353 7.9999933L4.000035 7.9999943L4.200035 8.399994L4.4000354 8.7999935L4.6000357 9.199994L4.800036 9.599995Z"/>
<!-- (140448, 0, 0) -->
<path class="cell-path" d="M4.0000353 7.9999933L5.000036 7.999993L6.0000362 7.9999924L6.000036 6.9999924L5.6000357 7.199992L5.2000356 7.3999925L4.8000355 7.5999928L4.4000354 7.799993Z"/>
<!-- (140444, 0, 0) -->
<path class="cell-path" d="M6.2000365 10.599994L6.400037 10.199994L6.6000366 9.7999935L6.8000364 9.399994L7.0000362 8.999993L6.0000362 8.999994L6.0000362 9.999994L6.0000367 10.999994Z"/>
<!-- (140443, 0, 0) -->
<path class="cell-path" d="M6.800037 9.399994L6.6000366 9.7999935L6.400037 10.199993L6.2000365 10.599994L6.0000367 10.999994L7.0000367 10.999994L7.0000367 9.999993L7.0000367 8.999993Z"/>
<!-- (140442, 0, 0) -->
<path class="cell-path" d="M6.0000362 6.999993L6.0000367 7.9999933L6.0000367 8.999993L7.000037 8.999993L6.800037 8.599993L6.6000366 8.199993L6.4000363 7.799993L6.2000365 7.399993Z"/>
<!-- (140441, 0, 0) -->
<path class="cell-path" d="M7.0000367 8.999993L7.000037 9.999993L7.000037 10.999994L8.000037 10.999993L7.8000374 10.599994L7.600037 10.199993L7.400037 9.7999935L7.200037 9.399993Z"/>
<!-- (140436, 0, 0) -->
<path class="cell-path" d="M5.200036 6.3999925L4.400036 5.7999926L3.6000352 5.199992L3.0000353 5.9999924L3.4400353 6.0799923L3.8800354 6.1599927L4.320036 6.2399926L4.760036 6.3199925Z"/>
<!-- (140435, 0, 0) -->
<path class="cell-path" d="M3.0000353 5.999993L3.8000357 6.5999928L4.600036 7.1999927L5.200036 6.3999925L4.760036 6.3199925L4.320036 6.2399926L3.8800356 6.1599927L3.4400353 6.079993Z"/>
<!-- (140434, 0, 0) -->
<path class="cell-path" d="M4.4000363 7.799993L4.8000364 7.5999928L5.2000365 7.399993L5.6000366 7.1999927L6.0000367 6.9999924L5.200036 6.3999925L4.600036 7.199993L4.0000362 7.9999933Z"/>
<!-- (140433, 0, 0) -->
<path class="cell-path" d="M3.2000353 6.399993L3.4000354 6.799993L3.6000357 7.199993L3.8000357 7.599993L4.000036 7.9999933L4.600036 7.199993L3.8000357 6.5999928L3.0000353 5.999993Z"/>
<!-- (140432, 0, 0) -->
<path class="cell-path" d="M2.2000344 4.3999925L2.4000344 4.7999926L2.6000347 5.1999927L2.8000348 5.5999928L3.0000348 5.9999933L3.6000352 5.1999927L2.8000348 4.5999928L2.0000343 3.9999924Z"/>
<!-- (140428, 0, 0) -->
<path class="cell-path" d="M9.200038 9.399993L8.400038 8.799993L7.600037 8.199993L7.000037 8.999993L7.4400373 9.079993L7.8800373 9.159993L8.320038 9.239993L8.760037 9.319993Z"/>
<!-- (140427, 0, 0) -->
<path class="cell-path" d="M7.000037 8.999993L7.8000374 9.599994L8.600039 10.199993L9.200038 9.399993L8.760038 9.319993L8.320038 9.239993L7.8800373 9.159993L7.4400373 9.079993Z"/>
<!-- (140426, 0, 0) -->
<path class="cell-path" d="M8.400038 10.799994L8.800038 10.599994L9.200039 10.399994L9.600039 10.199993L10.000038 9.999993L9.200038 9.399994L8.600039 10.199994L8.000038 10.999994Z"/>
<!-- (140425, 0, 0) -->
<path class="cell-path" d="M7.2000375 9.399994L7.4000373 9.7999935L7.6000376 10.199994L7.8000374 10.599994L8.000038 10.999994L8.600038 10.199993L7.8000374 9.599994L7.000037 8.999993Z"/>
<!-- (140424, 0, 0) -->
<path class="cell-path" d="M6.2000365 7.399993L6.4000363 7.799993L6.6000366 8.199993L6.8000364 8.599994L7.0000367 8.999993L7.600037 8.199993L6.8000364 7.5999928L6.0000362 6.999993Z"/>
<!-- (140416, 0, 0) -->
<path class="cell-path" d="M9.600038 10.199993L9.200038 10.399994L8.800037 10.599994L8.400038 10.7999935L8.000038 10.999994L8.800037 11.599994L9.400038 10.7999935L10.000038 9.999993Z"/>
<!-- (140388, 0, 0) -->
<path class="cell-path" d="M7.600035 2.7999897L7.200035 2.59999L6.8000345 2.3999898L6.4000344 2.19999L6.0000343 1.9999902L6.000035 2.9999905L7.0000353 2.99999L8.000035 2.9999895Z"/>
<!-- (140387, 0, 0) -->
<path class="cell-path" d="M6.4000344 2.1999896L6.8000345 2.3999896L7.2000346 2.5999894L7.6000347 2.7999895L8.000035 2.9999893L8.000034 1.999989L7.0000343 1.9999894L6.0000343 1.9999896Z"/>
<!-- (140386, 0, 0) -->
<path class="cell-path" d="M4.0000343 2.9999905L5.0000343 2.99999L6.000035 2.9999895L6.0000343 1.9999893L5.600034 2.1999896L5.200034 2.3999898L4.8000345 2.59999L4.4000344 2.7999902Z"/>
<!-- (140385, 0, 0) -->
<path class="cell-path" d="M6.0000343 1.9999896L7.0000343 1.9999892L8.000034 1.9999888L8.000034 0.99998844L7.600034 1.1999887L7.200034 1.3999889L6.8000345 1.5999892L6.4000344 1.7999895Z"/>
<!-- (140384, 0, 0) -->
<path class="cell-path" d="M8.000034 0.9999888L8.000034 1.999989L8.000035 2.9999893L9.000035 2.999989L8.800035 2.599989L8.600035 2.1999888L8.400035 1.7999889L8.200034 1.3999889Z"/>
<!-- (140380, 0, 0) -->
<path class="cell-path" d="M5.4000354 3.1999905L5.8000355 3.3999903L6.2000356 3.5999904L6.6000357 3.7999902L7.0000362 3.9999902L7.000036 2.99999L6.0000353 2.9999902L5.0000353 2.9999905Z"/>
<!-- (140379, 0, 0) -->
<path class="cell-path" d="M6.6000357 3.7999904L6.2000356 3.5999904L5.8000355 3.3999906L5.4000354 3.1999903L5.0000353 2.9999905L5.0000353 3.9999907L6.0000353 3.9999905L7.000036 3.9999905Z"/>
<!-- (140378, 0, 0) -->
<path class="cell-path" d="M9.000036 2.99999L8.000036 2.9999902L7.000036 2.9999905L7.0000362 3.9999907L7.400036 3.7999907L7.800036 3.5999904L8.200036 3.3999903L8.600037 3.19999Z"/>
<!-- (140377, 0, 0) -->
<path class="cell-path" d="M7.000036 3.9999905L6.0000353 3.9999907L5.0000353 3.999991L5.0000353 4.9999914L5.400036 4.799991L5.8000355 4.599991L6.2000356 4.3999906L6.6000357 4.1999907Z"/>
<!-- (140376, 0, 0) -->
<path class="cell-path" d="M5.0000353 4.999991L5.0000353 3.9999907L5.000035 2.9999905L4.000035 2.9999907L4.200035 3.3999906L4.400035 3.7999907L4.600035 4.1999907L4.800035 4.599991Z"/>
<!-- (140372, 0, 0) -->
<path class="cell-path" d="M9.600037 2.1999903L10.200037 1.39999L10.800036 0.59998965L10.000036 -1.04904175E-05L9.920036 0.43998957L9.840036 0.87998986L9.760036 1.3199899L9.680037 1.7599901Z"/>
<!-- (140371, 0, 0) -->
<path class="cell-path" d="M10.000036 -1.0609627E-05L9.400036 0.7999897L8.800036 1.59999L9.600037 2.1999898L9.680037 1.7599899L9.760036 1.3199898L9.840036 0.8799896L9.920036 0.4399895Z"/>
<!-- (140370, 0, 0) -->
<path class="cell-path" d="M8.200036 1.3999903L8.400037 1.7999904L8.600037 2.1999905L8.800036 2.5999906L9.000037 2.9999907L9.600037 2.1999903L8.800036 1.5999902L8.000036 0.9999902Z"/>
<!-- (140369, 0, 0) -->
<path class="cell-path" d="M9.600037 0.19998951L9.200036 0.39998963L8.800035 0.5999897L8.400036 0.7999899L8.000036 0.99998987L8.800036 1.59999L9.400036 0.7999897L10.000036 -1.0609627E-05Z"/>
<!-- (140364, 0, 0) -->
<path class="cell-path" d="M6.6000366 6.1999917L7.2000365 5.3999915L7.800037 4.599991L7.0000362 3.999991L6.9200363 4.439991L6.8400364 4.8799915L6.7600365 5.319991L6.6800365 5.7599916Z"/>
<!-- (140363, 0, 0) -->
<path class="cell-path" d="M7.0000362 3.999991L6.4000363 4.799991L5.8000364 5.599992L6.6000366 6.199991L6.6800365 5.7599916L6.7600365 5.319991L6.8400364 4.879991L6.9200363 4.439991Z"/>
<!-- (140362, 0, 0) -->
<path class="cell-path" d="M5.200036 5.3999915L5.400036 5.7999916L5.600036 6.1999917L5.8000364 6.599992L6.0000362 6.999992L6.6000366 6.199991L5.800036 5.5999913L5.000036 4.9999914Z"/>
<!-- (140361, 0, 0) -->
<path class="cell-path" d="M6.600036 4.199991L6.200036 4.399991L5.800036 4.5999913L5.400036 4.7999916L5.000036 4.9999914L5.800036 5.599992L6.4000363 4.799991L7.0000362 3.999991Z"/>
<!-- (140360, 0, 0) -->
<path class="cell-path" d="M8.600037 3.19999L8.200036 3.3999903L7.800036 3.5999904L7.400036 3.7999904L7.000036 3.9999905L7.800036 4.599991L8.400036 3.7999902L9.000036 2.99999Z"/>
<!-- (140356, 0, 0) -->
<path class="cell-path" d="M2.800034 4.599991L3.6000342 5.199991L4.4000344 5.799991L5.0000343 4.999991L4.5600348 4.919991L4.120034 4.839991L3.6800342 4.7599907L3.240034 4.679991Z"/>
<!-- (140355, 0, 0) -->
<path class="cell-path" d="M5.000035 4.999991L4.2000346 4.399991L3.4000342 3.799991L2.800034 4.5999913L3.240034 4.6799912L3.6800344 4.759991L4.1200347 4.839991L4.5600348 4.919991Z"/>
<!-- (140354, 0, 0) -->
<path class="cell-path" d="M3.6000342 3.1999905L3.2000341 3.3999908L2.800034 3.5999908L2.400034 3.799991L2.0000339 3.999991L2.800034 4.599991L3.4000342 3.7999907L4.0000343 2.9999905Z"/>
<!-- (140353, 0, 0) -->
<path class="cell-path" d="M4.8000345 4.599991L4.6000347 4.1999907L4.400035 3.7999907L4.2000346 3.3999906L4.0000343 2.9999905L3.4000344 3.7999907L4.2000346 4.3999906L5.000035 4.999991Z"/>
<!-- (140352, 0, 0) -->
<path class="cell-path" d="M5.8000355 6.5999913L5.600035 6.199991L5.400035 5.799991L5.200035 5.399991L5.0000353 4.999991L4.400035 5.799991L5.200035 6.399991L6.0000353 6.9999914Z"/>
<!-- (135186, 0, 0) -->
<path class="cell-path" d="M10.800044 11.599984L10.600044 11.199985L10.4000435 10.799984L10.200044 10.399984L10.000044 9.999984L9.4000435 10.799984L10.200044 11.399984L11.000044 11.999985Z"/>
<!-- (12964, 0, 0) -->
<path class="cell-path" d="M-7.320003 -9.76L-7.240003 -9.320001L-7.1600027 -8.880001L-7.0800023 -8.440001L-7.000002 -8L-6.200002 -8.600001L-6.800003 -9.400001L-7.4000034 -10.200001Z"/>
<!-- (12963, 0, 0) -->
<path class="cell-path" d="M-7.0800033 -8.440001L-7.160003 -8.88L-7.2400036 -9.32L-7.3200035 -9.76L-7.400004 -10.200001L-8.200004 -9.599999L-7.6000032 -8.8L-7.000003 -8Z"/>
<!-- (12962, 0, 0) -->
<path class="cell-path" d="M-5.000002 -7.0000005L-5.6000023 -7.8L-6.200003 -8.6L-7.000003 -7.9999995L-6.600003 -7.7999997L-6.2000027 -7.6L-5.800002 -7.4L-5.400002 -7.2000003Z"/>
<!-- (12961, 0, 0) -->
<path class="cell-path" d="M-7.000003 -8L-7.6000032 -8.8L-8.200004 -9.599999L-9.000004 -8.999999L-8.600004 -8.799999L-8.200004 -8.599999L-7.800003 -8.4L-7.400003 -8.2Z"/>
<!-- (12960, 0, 0) -->
<path class="cell-path" d="M-9.000004 -8.999999L-8.200004 -9.599999L-7.400004 -10.2L-8.000005 -11L-8.200005 -10.599999L-8.400004 -10.2L-8.600004 -9.799999L-8.800004 -9.4Z"/>
<!-- (12956, 0, 0) -->
<path class="cell-path" d="M-5.680003 -8.240002L-5.760003 -8.680001L-5.8400035 -9.120001L-5.9200034 -9.560001L-6.000004 -10.000002L-6.8000035 -9.400001L-6.200003 -8.600001L-5.600003 -7.800001Z"/>
<!-- (12955, 0, 0) -->
<path class="cell-path" d="M-5.9200034 -9.560001L-5.840003 -9.120001L-5.760003 -8.68L-5.680003 -8.240001L-5.600003 -7.800001L-4.800003 -8.400002L-5.400003 -9.200001L-6.0000033 -10.000001Z"/>
<!-- (12954, 0, 0) -->
<path class="cell-path" d="M-8.000004 -11.000001L-7.4000034 -10.200001L-6.800003 -9.400002L-6.000003 -10.000002L-6.4000034 -10.200002L-6.800003 -10.400002L-7.2000036 -10.600001L-7.6000037 -10.800001Z"/>
<!-- (12953, 0, 0) -->
<path class="cell-path" d="M-6.0000033 -10.000001L-5.400003 -9.200001L-4.8000026 -8.400002L-4.000003 -9.000002L-4.4000025 -9.200002L-4.800003 -9.400002L-5.200003 -9.600001L-5.6000032 -9.800001Z"/>
<!-- (12952, 0, 0) -->
<path class="cell-path" d="M-4.000003 -9.000002L-4.800003 -8.400002L-5.600003 -7.800001L-5.0000024 -7.0000014L-4.8000026 -7.4000015L-4.600003 -7.8000016L-4.4000025 -8.200002L-4.2000027 -8.600002Z"/>
<!-- (12946, 0, 0) -->
<path class="cell-path" d="M-8.800004 -9.400002L-8.600004 -9.800001L-8.400004 -10.200002L-8.200005 -10.600001L-8.000004 -11.000002L-9.000005 -11.000002L-9.000004 -10.000001L-9.000004 -9.000001Z"/>
<!-- (12945, 0, 0) -->
<path class="cell-path" d="M-10.600003 -9.800001L-10.200004 -9.600001L-9.800003 -9.400002L-9.400003 -9.200001L-9.000003 -9.000001L-9.000004 -10.000001L-10.000004 -10.000001L-11.000004 -10.000001Z"/>
<!-- (12938, 0, 0) -->
<path class="cell-path" d="M-3.8000026 -9.4000025L-3.6000025 -9.800002L-3.4000025 -10.200003L-3.2000027 -10.600002L-3.0000029 -11.000003L-4.000003 -11.000002L-4.000003 -10.000002L-4.0000024 -9.000002Z"/>
<!-- (12937, 0, 0) -->
<path class="cell-path" d="M-5.600003 -9.800002L-5.2000027 -9.600002L-4.8000026 -9.400002L-4.4000025 -9.200002L-4.000002 -9.000002L-4.0000024 -10.000002L-5.000003 -10.000002L-6.000003 -10.000002Z"/>
<!-- (12932, 0, 0) -->
<path class="cell-path" d="M-3.0000017 -7.000001L-3.000002 -8.000001L-3.000002 -9.000002L-4.000002 -9.000002L-3.800002 -8.600001L-3.6000018 -8.200001L-3.4000018 -7.800001L-3.2000017 -7.400001Z"/>
<!-- (12931, 0, 0) -->
<path class="cell-path" d="M-4.0000024 -9.000001L-4.000002 -8.000001L-4.000002 -7.000001L-3.0000017 -7.000001L-3.2000017 -7.400001L-3.400002 -7.800001L-3.600002 -8.200001L-3.8000023 -8.600001Z"/>
<!-- (12930, 0, 0) -->
<path class="cell-path" d="M-4.600002 -6.8000007L-4.2000017 -6.6000004L-3.8000016 -6.4000006L-3.4000013 -6.200001L-3.0000012 -6.000001L-3.0000014 -7.000001L-4.000002 -7.000001L-5.000002 -7.0000005Z"/>
<!-- (12929, 0, 0) -->
<path class="cell-path" d="M-4.200002 -8.6L-4.4000025 -8.200001L-4.6000023 -7.8000007L-4.8000026 -7.4000006L-5.0000024 -7.0000005L-4.000002 -7.0000005L-4.0000024 -8.000001L-4.0000024 -9.000001Z"/>
<!-- (12928, 0, 0) -->
<path class="cell-path" d="M-3.200003 -10.600001L-3.400003 -10.200002L-3.6000028 -9.800001L-3.8000028 -9.400002L-4.000003 -9.000002L-3.0000026 -9.000002L-3.0000029 -10.000002L-3.0000029 -11.000002Z"/>
<!-- (12324, 0, 0) -->
<path class="cell-path" d="M-8.680007 -7.240001L-8.760007 -7.6800013L-8.840008 -8.120002L-8.920008 -8.560001L-9.000008 -9.000002L-9.800008 -8.400002L-9.200007 -7.6000013L-8.600007 -6.800001Z"/>
<!-- (12323, 0, 0) -->
<path class="cell-path" d="M-8.920008 -8.560001L-8.840008 -8.120002L-8.760008 -7.6800017L-8.680008 -7.2400017L-8.600007 -6.8000016L-7.8000073 -7.4000015L-8.400007 -8.200002L-9.000008 -9.000002Z"/>
<!-- (12322, 0, 0) -->
<path class="cell-path" d="M-11.000008 -10.000002L-10.400007 -9.200002L-9.800007 -8.400002L-9.000008 -9.000002L-9.400007 -9.200002L-9.800007 -9.400002L-10.200007 -9.600002L-10.600007 -9.800002Z"/>
<!-- (12321, 0, 0) -->
<path class="cell-path" d="M-9.000008 -9.000002L-8.400007 -8.200002L-7.800007 -7.4000015L-7.000007 -8.000002L-7.4000072 -8.200002L-7.8000073 -8.400002L-8.200007 -8.600002L-8.600007 -8.800002Z"/>
<!-- (12320, 0, 0) -->
<path class="cell-path" d="M-7.0000067 -8.000002L-7.800007 -7.4000015L-8.600007 -6.8000016L-8.000007 -6.0000014L-7.800007 -6.4000015L-7.6000066 -6.8000016L-7.400007 -7.2000017L-7.2000065 -7.600002Z"/>
<!-- (12316, 0, 0) -->
<path class="cell-path" d="M-10.320007 -8.76L-10.240007 -8.320001L-10.160007 -7.8800006L-10.080007 -7.4400005L-10.000007 -7.0000005L-9.2000065 -7.6000004L-9.800007 -8.400001L-10.400007 -9.200001Z"/>
<!-- (12314, 0, 0) -->
<path class="cell-path" d="M-8.000007 -6.0000005L-8.600007 -6.8000007L-9.200007 -7.6000004L-10.000008 -7.0000005L-9.600007 -6.8L-9.2000065 -6.6000004L-8.800007 -6.4000006L-8.400007 -6.2000003Z"/>
<!-- (12308, 0, 0) -->
<path class="cell-path" d="M-7.0000067 -6L-6.0000067 -6L-5.000006 -5.9999995L-5.0000057 -7L-5.4000063 -6.8L-5.8000064 -6.6L-6.2000065 -6.4L-6.6000066 -6.2Z"/>
<!-- (12307, 0, 0) -->
<path class="cell-path" d="M-5.000006 -7L-6.000006 -7L-7.0000067 -7L-7.0000067 -6L-6.6000066 -6.2L-6.2000065 -6.3999996L-5.8000064 -6.6L-5.4000063 -6.8Z"/>
<!-- (12306, 0, 0) -->
<path class="cell-path" d="M-7.200007 -7.6L-7.400007 -7.2L-7.600007 -6.7999997L-7.800007 -6.3999996L-8.000007 -5.9999995L-7.0000067 -5.9999995L-7.0000067 -7L-7.0000067 -8Z"/>
<!-- (12305, 0, 0) -->
<path class="cell-path" d="M-5.4000063 -7.2000003L-5.8000064 -7.4L-6.2000065 -7.6000004L-6.6000066 -7.8L-7.0000067 -8L-7.0000067 -7.0000005L-6.0000067 -7L-5.000006 -7Z"/>
<!-- (12304, 0, 0) -->
<path class="cell-path" d="M-3.4000058 -6.2000003L-3.800006 -6.4L-4.200006 -6.6000004L-4.600006 -6.8L-5.0000057 -7.0000005L-5.000006 -6.0000005L-4.0000057 -6L-3.0000057 -6Z"/>
<!-- (12296, 0, 0) -->
<path class="cell-path" d="M-8.400006 -6.200001L-8.800007 -6.4000006L-9.2000065 -6.600001L-9.600007 -6.800001L-10.000007 -7.000001L-10.000008 -6.000001L-9.000007 -6.0000005L-8.000007 -6.0000005Z"/>
<!-- (5410, 0, 0) -->
<path class="cell-path" d="M9.000009 -10.000003L9.600009 -9.200003L10.20001 -8.400003L11.00001 -9.000004L10.60001 -9.200004L10.200009 -9.400003L9.800009 -9.600003L9.400009 -9.800003Z"/>
<!-- (5404, 0, 0) -->
<path class="cell-path" d="M9.68001 -8.760002L9.760011 -8.320003L9.840011 -7.8800025L9.9200115 -7.4400024L10.000011 -7.0000024L10.800011 -7.6000032L10.20001 -8.4000025L9.60001 -9.200003Z"/>
<!-- (5403, 0, 0) -->
<path class="cell-path" d="M9.920011 -7.4400024L9.84001 -7.8800025L9.76001 -8.320003L9.68001 -8.760002L9.60001 -9.200003L8.80001 -8.600002L9.40001 -7.800002L10.0000105 -7.0000024Z"/>
<!-- (5401, 0, 0) -->
<path class="cell-path" d="M10.0000105 -7.0000024L9.40001 -7.800002L8.800009 -8.600002L8.00001 -8.000002L8.400009 -7.8000016L8.80001 -7.600002L9.20001 -7.400002L9.60001 -7.200002Z"/>
<!-- (5400, 0, 0) -->
<path class="cell-path" d="M8.00001 -8.000002L8.80001 -8.600002L9.600009 -9.200003L9.000009 -10.000003L8.800009 -9.600002L8.600009 -9.200003L8.400009 -8.800002L8.200009 -8.4000025Z"/>
<!-- (5388, 0, 0) -->
<path class="cell-path" d="M8.00001 -6.0000005L9.00001 -6.000001L10.00001 -6.0000014L10.00001 -7.0000014L9.60001 -6.800001L9.200009 -6.6000013L8.80001 -6.400001L8.400009 -6.200001Z"/>
<!-- (5387, 0, 0) -->
<path class="cell-path" d="M10.0000105 -7.000002L9.0000105 -7.0000014L8.00001 -7.000001L8.0000105 -6.0000005L8.400011 -6.200001L8.800011 -6.400001L9.20001 -6.6000013L9.600011 -6.8000016Z"/>
<!-- (5386, 0, 0) -->
<path class="cell-path" d="M7.8000097 -7.600001L7.60001 -7.200001L7.40001 -6.8L7.2000103 -6.4L7.0000105 -6L8.0000105 -6.0000005L8.0000105 -7.000001L8.00001 -8.000001Z"/>
<!-- (5385, 0, 0) -->
<path class="cell-path" d="M9.60001 -7.2000017L9.20001 -7.4000015L8.80001 -7.6000013L8.40001 -7.8000016L8.00001 -8.000001L8.00001 -7.000001L9.0000105 -7.0000014L10.0000105 -7.000002Z"/>
<!-- (5380, 0, 0) -->
<path class="cell-path" d="M7.0000086 -10.000002L7.000009 -9.000002L7.0000095 -8.000001L8.00001 -8.000002L7.8000097 -8.400002L7.6000094 -8.800001L7.400009 -9.200002L7.200009 -9.600002Z"/>
<!-- (5379, 0, 0) -->
<path class="cell-path" d="M8.00001 -8.000002L8.000009 -9.000002L8.000009 -10.000002L7.000008 -10.000002L7.2000084 -9.600002L7.4000087 -9.200002L7.600009 -8.800002L7.8000093 -8.400002Z"/>
<!-- (5377, 0, 0) -->
<path class="cell-path" d="M8.200009 -8.4000025L8.400009 -8.800002L8.600009 -9.200003L8.800009 -9.600002L9.00001 -10.000003L8.000009 -10.000003L8.00001 -9.000002L8.00001 -8.000002Z"/>
<!-- (5376, 0, 0) -->
<path class="cell-path" d="M7.2000103 -6.400001L7.40001 -6.800001L7.6000104 -7.2000017L7.80001 -7.600002L8.0000105 -8.000002L7.0000095 -8.000002L7.00001 -7.0000014L7.0000105 -6.000001Z"/>
<!-- (5329, 0, 0) -->
<path class="cell-path" d="M9.400009 -9.800005L9.800009 -9.600005L10.200008 -9.400005L10.600009 -9.200005L11.00001 -9.000005L11.000009 -10.000006L10.000009 -10.000005L9.000009 -10.000005Z"/>
<!-- (5284, 0, 0) -->
<path class="cell-path" d="M2.6000068 -6.800003L3.200007 -7.6000032L3.800007 -8.400003L3.000007 -9.000004L2.9200068 -8.560003L2.8400068 -8.120004L2.760007 -7.680003L2.6800067 -7.240003Z"/>
<!-- (5283, 0, 0) -->
<path class="cell-path" d="M3.0000064 -9.000004L2.4000065 -8.200004L1.8000066 -7.4000034L2.600007 -6.800003L2.680007 -7.2400036L2.7600067 -7.680003L2.8400066 -8.120004L2.9200065 -8.560003Z"/>
<!-- (5282, 0, 0) -->
<path class="cell-path" d="M1.2000064 -7.6000037L1.4000065 -7.2000036L1.6000066 -6.8000035L1.8000067 -6.4000034L2.0000067 -6.0000033L2.6000068 -6.800004L1.8000065 -7.400004L1.0000062 -8.000004Z"/>
<!-- (5281, 0, 0) -->
<path class="cell-path" d="M2.6000063 -8.800004L2.2000062 -8.600003L1.800006 -8.400003L1.400006 -8.200004L1.000006 -8.000004L1.8000062 -7.4000034L2.4000063 -8.200004L3.0000064 -9.000004Z"/>
<!-- (5280, 0, 0) -->
<path class="cell-path" d="M4.6000066 -9.800005L4.2000065 -9.600004L3.8000064 -9.400004L3.4000063 -9.200005L3.0000062 -9.000005L3.8000064 -8.400004L4.4000063 -9.200005L5.0000067 -10.000005Z"/>
<!-- (5276, 0, 0) -->
<path class="cell-path" d="M4.4000063 -9.200004L3.8000064 -8.400003L3.2000065 -7.6000032L4.0000067 -7.000003L4.0800066 -7.4400034L4.1600065 -7.880003L4.2400064 -8.3200035L4.3200064 -8.760003Z"/>
<!-- (5275, 0, 0) -->
<path class="cell-path" d="M4.000007 -7.000003L4.600007 -7.800003L5.2000065 -8.600003L4.4000063 -9.200004L4.3200064 -8.760003L4.240007 -8.3200035L4.160007 -7.880003L4.080007 -7.440003Z"/>
<!-- (5274, 0, 0) -->
<path class="cell-path" d="M5.800007 -8.400003L5.600007 -8.800004L5.400007 -9.200004L5.2000065 -9.600004L5.000006 -10.000004L4.4000063 -9.200004L5.200007 -8.600003L6.000007 -8.000004Z"/>
<!-- (5273, 0, 0) -->
<path class="cell-path" d="M4.4000072 -7.200003L4.8000073 -7.4000034L5.2000074 -7.6000032L5.600007 -7.8000035L6.000007 -8.000004L5.200007 -8.600003L4.600007 -7.800003L4.000007 -7.000003Z"/>
<!-- (5272, 0, 0) -->
<path class="cell-path" d="M2.4000072 -6.200002L2.8000073 -6.4000025L3.2000072 -6.6000023L3.6000073 -6.8000026L4.000007 -7.000003L3.200007 -7.6000023L2.600007 -6.800002L2.0000072 -6.000002Z"/>
<!-- (5268, 0, 0) -->
<path class="cell-path" d="M6.8000073 -9.600005L6.6000075 -9.200006L6.4000072 -8.800005L6.2000074 -8.400004L6.0000076 -8.000005L7.000008 -8.000005L7.0000076 -9.000006L7.000007 -10.000006Z"/>
<!-- (5267, 0, 0) -->
<path class="cell-path" d="M6.2000074 -8.400004L6.4000072 -8.800004L6.6000075 -9.200005L6.8000073 -9.600004L7.000007 -10.000005L6.000007 -10.000004L6.000007 -9.000004L6.0000076 -8.000004Z"/>
<!-- (5266, 0, 0) -->
<path class="cell-path" d="M7.0000086 -6.000004L7.000008 -7.0000043L7.0000076 -8.000005L6.000007 -8.000004L6.2000074 -7.600004L6.4000077 -7.200004L6.600008 -6.800004L6.8000083 -6.400004Z"/>
<!-- (5265, 0, 0) -->
<path class="cell-path" d="M6.0000076 -8.000004L6.000007 -9.000004L6.0000067 -10.000005L5.000006 -10.000004L5.2000065 -9.600004L5.400007 -9.200004L5.600007 -8.800004L5.8000073 -8.400003Z"/>
<!-- (5260, 0, 0) -->
<path class="cell-path" d="M5.600008 -6.2000027L5.200008 -6.4000025L4.800008 -6.6000023L4.4000072 -6.8000026L4.000007 -7.0000024L4.0000076 -6.000002L5.0000076 -6.0000024L6.000008 -6.000003Z"/>
<!-- (5259, 0, 0) -->
<path class="cell-path" d="M4.4000077 -6.800003L4.800008 -6.600003L5.200008 -6.400003L5.600008 -6.200003L6.0000086 -6.000003L6.000008 -7.0000033L5.0000076 -7.000003L4.0000076 -7.000003Z"/>
<!-- (5258, 0, 0) -->
<path class="cell-path" d="M2.0000072 -6.000002L3.0000074 -6.0000024L4.0000076 -6.000003L4.000007 -7.000003L3.600007 -6.8000026L3.2000072 -6.6000023L2.800007 -6.4000025L2.4000072 -6.200002Z"/>
<!-- (5257, 0, 0) -->
<path class="cell-path" d="M4.0000076 -7.000003L5.0000076 -7.0000033L6.000008 -7.000004L6.0000076 -8.000004L5.6000075 -7.8000035L5.2000074 -7.6000032L4.800008 -7.4000034L4.4000077 -7.200003Z"/>
<!-- (5256, 0, 0) -->
<path class="cell-path" d="M6.0000076 -8.000004L6.000008 -7.000004L6.000008 -6.0000033L7.0000086 -6.000004L6.8000083 -6.4000034L6.600008 -6.800004L6.400008 -7.2000036L6.200008 -7.6000037Z"/>
<!-- (5252, 0, 0) -->
<path class="cell-path" d="M0.60000646 -6.200001L0.2000063 -6.4000006L-0.19999385 -6.6000004L-0.59999406 -6.8000007L-0.9999943 -7.0000005L-0.9999938 -6L6.4373016E-06 -6.0000005L1.0000067 -6.000001Z"/>
<!-- (5251, 0, 0) -->
<path class="cell-path" d="M-0.5999939 -6.800001L-0.19999373 -6.600001L0.20000637 -6.400001L0.6000066 -6.2000012L1.0000067 -6.000001L1.0000064 -7.0000014L6.198883E-06 -7.000001L-0.99999404 -7.000001Z"/>
<!-- (5250, 0, 0) -->
<path class="cell-path" d="M-2.9999943 -6L-1.999994 -6.0000005L-0.9999938 -6.000001L-0.9999943 -7.000001L-1.3999943 -6.8000007L-1.7999942 -6.6000004L-2.1999943 -6.4000006L-2.5999942 -6.2000003Z"/>
<!-- (5249, 0, 0) -->
<path class="cell-path" d="M-0.99999404 -7.000001L6.198883E-06 -7.0000014L1.0000064 -7.000002L1.000006 -8.000002L0.600006 -7.8000016L0.20000601 -7.6000013L-0.19999403 -7.4000015L-0.59999406 -7.2000012Z"/>
<!-- (5248, 0, 0) -->
<path class="cell-path" d="M1.0000062 -8.000002L1.0000064 -7.000002L1.0000068 -6.0000014L2.0000072 -6.000002L1.8000069 -6.4000015L1.6000067 -6.800002L1.4000065 -7.2000017L1.2000064 -7.600002Z"/>
<!-- (4644, 0, 0) -->
<path class="cell-path" d="M1.400003 -10.200001L0.8000026 -9.400001L0.2000022 -8.6L1.0000024 -8L1.0800024 -8.440001L1.1600026 -8.88L1.2400026 -9.320001L1.3200028 -9.76Z"/>
<!-- (4643, 0, 0) -->
<path class="cell-path" d="M1.0000026 -8L1.6000028 -8.8L2.2000031 -9.6L1.4000028 -10.200001L1.3200028 -9.76L1.2400028 -9.320001L1.1600027 -8.88L1.0800027 -8.440001Z"/>
<!-- (4642, 0, 0) -->
<path class="cell-path" d="M2.8000033 -9.400001L2.6000032 -9.8L2.4000032 -10.200001L2.2000031 -10.6L2.0000033 -11.000001L1.400003 -10.200001L2.2000031 -9.6L3.0000033 -9Z"/>
<!-- (4641, 0, 0) -->
<path class="cell-path" d="M1.4000028 -8.2L1.800003 -8.4L2.2000031 -8.6L2.6000032 -8.8L3.0000036 -9L2.2000034 -9.6L1.600003 -8.8L1.0000026 -8Z"/>
<!-- (4640, 0, 0) -->
<path class="cell-path" d="M-0.5999979 -7.1999993L-0.19999772 -7.3999996L0.20000255 -7.5999994L0.60000265 -7.799999L1.0000029 -7.9999995L0.20000267 -8.599999L-0.3999977 -7.7999997L-0.9999981 -6.9999995Z"/>
<!-- (4636, 0, 0) -->
<path class="cell-path" d="M-0.39999843 -7.7999997L0.20000178 -8.6L0.800002 -9.4L1.7881393E-06 -10L-0.079998255 -9.56L-0.1599983 -9.12L-0.23999834 -8.68L-0.31999838 -8.24Z"/>
<!-- (4635, 0, 0) -->
<path class="cell-path" d="M1.4305115E-06 -10L-0.5999986 -9.2L-1.1999986 -8.4L-0.3999983 -7.799999L-0.31999832 -8.24L-0.2399984 -8.679999L-0.15999845 -9.12L-0.07999851 -9.559999Z"/>
<!-- (4634, 0, 0) -->
<path class="cell-path" d="M-1.7999989 -8.6L-1.5999988 -8.2L-1.3999987 -7.7999997L-1.1999986 -7.3999996L-0.99999857 -6.9999995L-0.39999843 -7.7999997L-1.1999987 -8.4L-1.999999 -9Z"/>
<!-- (4633, 0, 0) -->
<path class="cell-path" d="M-0.3999987 -9.8L-0.7999988 -9.6L-1.199999 -9.4L-1.5999991 -9.2L-1.999999 -9L-1.199999 -8.4L-0.5999988 -9.2L1.4305115E-06 -10Z"/>
<!-- (4632, 0, 0) -->
<path class="cell-path" d="M1.6000018 -10.800001L1.2000017 -10.6L0.8000015 -10.400001L0.4000014 -10.200001L1.4305115E-06 -10.000001L0.8000015 -9.400001L1.4000018 -10.200001L2.000002 -11.000001Z"/>
<!-- (4628, 0, 0) -->
<path class="cell-path" d="M-2.7999995 -7.399999L-2.5999997 -7.799999L-2.3999996 -8.2L-2.1999998 -8.599999L-1.9999998 -9L-3 -9L-2.9999998 -7.999999L-2.9999995 -6.999999Z"/>
<!-- (4627, 0, 0) -->
<path class="cell-path" d="M-2.1999996 -8.599999L-2.3999996 -8.2L-2.5999994 -7.7999997L-2.7999997 -7.3999996L-2.9999995 -6.9999995L-1.9999993 -6.9999995L-1.9999994 -8L-1.9999995 -9Z"/>
<!-- (4626, 0, 0) -->
<path class="cell-path" d="M-3 -11L-2.9999998 -10L-2.9999995 -9L-1.9999993 -9L-2.1999993 -9.4L-2.3999996 -9.8L-2.5999997 -10.2L-2.8 -10.6Z"/>
<!-- (4625, 0, 0) -->
<path class="cell-path" d="M-1.9999995 -9L-1.9999993 -8L-1.999999 -6.9999995L-0.9999988 -7L-1.1999989 -7.3999996L-1.3999991 -7.7999997L-1.5999992 -8.2L-1.7999994 -8.6Z"/>
<!-- (4624, 0, 0) -->
<path class="cell-path" d="M-0.99999905 -6.999999L-1.9999993 -6.999999L-2.9999995 -6.9999986L-2.9999993 -5.9999986L-2.5999994 -6.199999L-2.1999993 -6.3999987L-1.7999992 -6.599999L-1.3999991 -6.7999988Z"/>
<!-- (4618, 0, 0) -->
<path class="cell-path" d="M2.000002 -11.000001L1.0000015 -11.000001L1.1920929E-06 -11.000001L1.4305115E-06 -10L0.4000014 -10.200001L0.8000015 -10.400001L1.2000017 -10.6L1.6000018 -10.800001Z"/>
<!-- (4617, 0, 0) -->
<path class="cell-path" d="M1.1920929E-06 -10.000001L-0.99999917 -10.000001L-1.9999995 -10.000001L-1.9999993 -9L-1.5999993 -9.200001L-1.1999992 -9.400001L-0.79999906 -9.6L-0.39999893 -9.800001Z"/>
<!-- (4616, 0, 0) -->
<path class="cell-path" d="M-1.9999995 -9L-1.9999995 -10L-1.9999995 -11.000001L-3 -11.000001L-2.7999997 -10.6L-2.6 -10.200001L-2.3999996 -9.8L-2.1999996 -9.400001Z"/>
<!-- (4609, 0, 0) -->
<path class="cell-path" d="M5.000003 -10.000002L4.0000024 -10.000002L3.0000021 -10.000002L3.0000024 -9.000001L3.4000025 -9.200002L3.8000026 -9.400002L4.2000027 -9.600001L4.600003 -9.800002Z"/>
<!-- (4608, 0, 0) -->
<path class="cell-path" d="M3.0000024 -9.000002L3.0000024 -10.000002L3.0000024 -11.000003L2.000002 -11.000003L2.2000022 -10.600002L2.400002 -10.200003L2.6000023 -9.800002L2.8000023 -9.4000025Z"/>
<!-- (2340, 0, 0) -->
<path class="cell-path" d="M-8.720002 2.9600058L-8.440002 3.920006L-8.160003 4.8800063L-7.2000027 4.600007L-7.5040026 4.272007L-7.8080025 3.9440064L-8.112002 3.6160064L-8.416002 3.288006Z"/>
<!-- (2339, 0, 0) -->
<path class="cell-path" d="M-7.200002 4.6000066L-7.480002 3.6400063L-7.7600017 2.680006L-8.720001 2.9600058L-8.416002 3.2880058L-8.112002 3.6160061L-7.808002 3.9440062L-7.504002 4.2720065Z"/>
<!-- (2338, 0, 0) -->
<path class="cell-path" d="M-7.240001 2.3200061L-7.6800013 2.240006L-8.120001 2.1600056L-8.560001 2.0800054L-9.000002 2.0000052L-8.720001 2.9600055L-7.760001 2.680006L-6.800001 2.4000063Z"/>
<!-- (2337, 0, 0) -->
<path class="cell-path" d="M-7.120002 4.1600065L-7.040002 3.7200065L-6.9600015 3.2800064L-6.880001 2.8400064L-6.800001 2.4000063L-7.760001 2.680006L-7.480002 3.6400063L-7.200002 4.6000066Z"/>
<!-- (2336, 0, 0) -->
<path class="cell-path" d="M-7.520003 6.360007L-7.440003 5.9200068L-7.3600025 5.4800067L-7.280002 5.0400066L-7.2000017 4.6000066L-8.160003 4.8800063L-7.880003 5.8400064L-7.6000032 6.800007Z"/>
<!-- (2332, 0, 0) -->
<path class="cell-path" d="M-7.8800025 5.8400064L-8.160002 4.8800063L-8.4400015 3.920006L-9.400002 4.2000055L-9.096003 4.5280056L-8.792002 4.856006L-8.488003 5.184006L-8.184002 5.5120063Z"/>
<!-- (2331, 0, 0) -->
<path class="cell-path" d="M-9.4000025 4.2000055L-9.120003 5.1600056L-8.840003 6.1200056L-7.880003 5.840006L-8.184003 5.512006L-8.488003 5.1840057L-8.792003 4.8560057L-9.096003 4.5280056Z"/>
<!-- (2330, 0, 0) -->
<path class="cell-path" d="M-9.360003 6.4800057L-8.920003 6.560006L-8.480003 6.640006L-8.040003 6.7200065L-7.6000032 6.8000064L-7.880003 5.8400064L-8.840003 6.120006L-9.800003 6.400006Z"/>
<!-- (2329, 0, 0) -->
<path class="cell-path" d="M-9.480002 4.6400056L-9.560003 5.0800056L-9.640003 5.520005L-9.720003 5.9600058L-9.800003 6.4000053L-8.840003 6.1200056L-9.120003 5.1600056L-9.4000025 4.2000055Z"/>
<!-- (2328, 0, 0) -->
<path class="cell-path" d="M-9.080002 2.4400058L-9.160002 2.8800058L-9.240003 3.3200057L-9.320003 3.7600057L-9.4000025 4.2000055L-8.440002 3.920006L-8.720002 2.9600058L-9.000002 2.0000057Z"/>
<!-- (2324, 0, 0) -->
<path class="cell-path" d="M-9.000004 8.000008L-9.200004 7.600007L-9.400004 7.200007L-9.600004 6.800007L-9.800004 6.400007L-10.400004 7.200007L-9.600004 7.800007L-8.800004 8.400007Z"/>
<!-- (2323, 0, 0) -->
<path class="cell-path" d="M-9.600003 6.8000064L-9.400003 7.2000065L-9.200004 7.6000066L-9.000004 8.000007L-8.800003 8.400007L-8.200003 7.600007L-9.000003 7.0000067L-9.800003 6.4000063Z"/>
<!-- (2322, 0, 0) -->
<path class="cell-path" d="M-12.000004 6.0000057L-11.200004 6.600006L-10.400003 7.200006L-9.800003 6.400006L-10.240004 6.320006L-10.680004 6.240006L-11.120004 6.1600056L-11.560003 6.0800056Z"/>
<!-- (2321, 0, 0) -->
<path class="cell-path" d="M-9.800003 6.4000063L-9.000003 7.0000067L-8.200003 7.6000066L-7.600003 6.8000064L-8.040003 6.7200065L-8.480003 6.6400065L-8.920003 6.560006L-9.3600025 6.480006Z"/>
<!-- (2320, 0, 0) -->
<path class="cell-path" d="M-7.6000032 6.800007L-8.200004 7.600007L-8.800004 8.400007L-8.000004 9.000008L-7.920004 8.560007L-7.8400035 8.120007L-7.7600036 7.680007L-7.680003 7.240007Z"/>
<!-- (2316, 0, 0) -->
<path class="cell-path" d="M-11.000003 5.0000057L-10.600003 4.8000054L-10.200003 4.6000056L-9.800003 4.400006L-9.400003 4.2000055L-10.200003 3.6000056L-10.800003 4.4000053L-11.400003 5.2000055Z"/>
<!-- (2315, 0, 0) -->
<path class="cell-path" d="M-9.800003 4.400006L-10.200003 4.6000056L-10.600003 4.800006L-11.000003 5.0000057L-11.400003 5.2000055L-10.600003 5.800006L-10.000003 5.0000057L-9.4000025 4.200006Z"/>
<!-- (2314, 0, 0) -->
<path class="cell-path" d="M-9.000002 2.0000057L-9.600002 2.8000057L-10.200003 3.6000056L-9.4000025 4.200006L-9.320003 3.760006L-9.240003 3.320006L-9.160002 2.8800058L-9.080002 2.4400058Z"/>
<!-- (2313, 0, 0) -->
<path class="cell-path" d="M-9.4000025 4.200006L-10.000003 5.000006L-10.600003 5.800006L-9.800003 6.4000063L-9.720003 5.960006L-9.640003 5.520006L-9.560002 5.080006L-9.480002 4.640006Z"/>
<!-- (2312, 0, 0) -->
<path class="cell-path" d="M-9.800004 6.4000063L-10.600004 5.800006L-11.400003 5.2000055L-12.000004 6.0000057L-11.560004 6.0800056L-11.120005 6.1600056L-10.680004 6.240006L-10.240004 6.3200064Z"/>
<!-- (2308, 0, 0) -->
<path class="cell-path" d="M-8.000002 1.0000056L-7.6000023 0.8000056L-7.200002 0.6000056L-6.800002 0.4000057L-6.400002 0.20000577L-7.2000017 -0.3999945L-7.800002 0.40000552L-8.4000025 1.2000055Z"/>
<!-- (2307, 0, 0) -->
<path class="cell-path" d="M-6.800002 0.40000588L-7.200002 0.60000575L-7.6000023 0.8000057L-8.000003 1.0000055L-8.4000025 1.2000054L-7.600003 1.8000058L-7.0000024 1.000006L-6.400002 0.20000601Z"/>
<!-- (2306, 0, 0) -->
<path class="cell-path" d="M-6.000001 -1.9999943L-6.6000013 -1.1999943L-7.2000017 -0.39999425L-6.4000015 0.20000601L-6.3200016 -0.23999393L-6.240001 -0.6799941L-6.1600013 -1.1199942L-6.080001 -1.5599942Z"/>
<!-- (2305, 0, 0) -->
<path class="cell-path" d="M-6.400002 0.20000601L-7.0000024 1.000006L-7.6000023 1.800006L-6.8000026 2.4000063L-6.720002 1.9600064L-6.6400023 1.5200062L-6.5600023 1.0800061L-6.480002 0.64000607Z"/>
<!-- (2304, 0, 0) -->
<path class="cell-path" d="M-6.800003 2.4000063L-7.6000032 1.8000059L-8.400003 1.2000055L-9.000004 2.0000055L-8.560003 2.0800056L-8.120003 2.1600058L-7.680003 2.240006L-7.240003 2.3200061Z"/>
<!-- (2276, 0, 0) -->
<path class="cell-path" d="M-5.280002 4.0400085L-5.560002 3.0800083L-5.8400016 2.120008L-6.800002 2.4000077L-6.4960017 2.7280078L-6.192002 3.056008L-5.888002 3.3840082L-5.584002 3.7120085Z"/>
<!-- (2275, 0, 0) -->
<path class="cell-path" d="M-6.800002 2.4000077L-6.5200024 3.3600078L-6.2400026 4.3200083L-5.280002 4.040008L-5.5840025 3.712008L-5.8880024 3.384008L-6.1920023 3.0560079L-6.496002 2.7280078Z"/>
<!-- (2274, 0, 0) -->
<path class="cell-path" d="M-6.7600026 4.680008L-6.3200026 4.7600083L-5.8800025 4.8400083L-5.4400024 4.9200087L-5.0000024 5.0000086L-5.280002 4.0400085L-6.2400026 4.3200083L-7.2000027 4.600008Z"/>
<!-- (2273, 0, 0) -->
<path class="cell-path" d="M-6.880002 2.8400078L-6.9600024 3.2800078L-7.0400023 3.720008L-7.1200027 4.160008L-7.2000027 4.600008L-6.2400026 4.3200083L-6.5200024 3.360008L-6.800002 2.4000077Z"/>
<!-- (2272, 0, 0) -->
<path class="cell-path" d="M-6.4800014 0.6400075L-6.560002 1.0800076L-6.640002 1.5200076L-6.720002 1.9600075L-6.800002 2.4000077L-5.840002 2.120008L-6.120002 1.1600077L-6.4000015 0.20000744Z"/>
<!-- (2268, 0, 0) -->
<path class="cell-path" d="M-6.120002 1.1600075L-5.840002 2.1200075L-5.5600023 3.0800078L-4.600002 2.8000078L-4.904002 2.4720078L-5.208002 2.1440077L-5.512002 1.8160076L-5.816002 1.4880075Z"/>
<!-- (2267, 0, 0) -->
<path class="cell-path" d="M-4.6000013 2.8000078L-4.8800015 1.8400078L-5.1600013 0.88000774L-6.1200013 1.1600077L-5.8160014 1.4880077L-5.5120015 1.8160077L-5.208001 2.1440077L-4.904001 2.4720078Z"/>
<!-- (2266, 0, 0) -->
<path class="cell-path" d="M-4.6400013 0.5200075L-5.0800014 0.44000748L-5.5200014 0.3600074L-5.9600015 0.28000742L-6.4000015 0.20000738L-6.1200013 1.1600075L-5.1600013 0.8800075L-4.2000012 0.60000753Z"/>
<!-- (2265, 0, 0) -->
<path class="cell-path" d="M-4.5200014 2.3600078L-4.440001 1.9200077L-4.360001 1.4800076L-4.280001 1.0400077L-4.200001 0.60000753L-5.160001 0.8800075L-4.880001 1.8400077L-4.6000013 2.8000078Z"/>
<!-- (2264, 0, 0) -->
<path class="cell-path" d="M-4.9200015 4.560008L-4.840001 4.120008L-4.760001 3.680008L-4.6800013 3.2400079L-4.600001 2.8000078L-5.5600014 3.0800078L-5.280001 4.040008L-5.0000014 5.000008Z"/>
<!-- (2260, 0, 0) -->
<path class="cell-path" d="M-5.000001 -0.9999929L-4.800001 -0.5999929L-4.600001 -0.1999929L-4.400001 0.2000072L-4.200001 0.60000706L-3.6000009 -0.19999301L-4.400001 -0.799993L-5.2000012 -1.399993Z"/>
<!-- (2259, 0, 0) -->
<path class="cell-path" d="M-4.400001 0.20000744L-4.6000013 -0.1999926L-4.800001 -0.5999927L-5.0000014 -0.99999267L-5.2000012 -1.3999927L-5.800001 -0.5999927L-5.0000014 7.390976E-06L-4.2000012 0.6000075Z"/>
<!-- (2258, 0, 0) -->
<path class="cell-path" d="M-2.000001 1.0000076L-2.8000011 0.40000767L-3.6000013 -0.1999923L-4.2000012 0.6000079L-3.7600012 0.6800078L-3.3200011 0.7600078L-2.880001 0.8400077L-2.440001 0.9200077Z"/>
<!-- (2257, 0, 0) -->
<path class="cell-path" d="M-4.2000012 0.6000075L-5.0000014 7.5101852E-06L-5.8000016 -0.59999245L-6.4000015 0.20000774L-5.9600015 0.28000766L-5.5200014 0.36000764L-5.0800014 0.44000757L-4.6400013 0.5200075Z"/>
<!-- (2256, 0, 0) -->
<path class="cell-path" d="M-6.4000015 0.20000732L-5.8000016 -0.59999275L-5.2000012 -1.3999928L-6.0000014 -1.999993L-6.0800014 -1.5599929L-6.1600013 -1.1199929L-6.2400017 -0.6799928L-6.3200016 -0.23999274Z"/>
<!-- (2252, 0, 0) -->
<path class="cell-path" d="M-3.0000005 2.000008L-3.4000006 2.2000082L-3.8000007 2.4000082L-4.200001 2.6000082L-4.6000004 2.8000083L-3.8000007 3.4000082L-3.2000005 2.6000082L-2.6000004 1.800008Z"/>
<!-- (2251, 0, 0) -->
<path class="cell-path" d="M-4.200001 2.6000078L-3.8000007 2.400008L-3.4000006 2.200008L-3.0000005 2.000008L-2.6000004 1.800008L-3.4000006 1.2000079L-4.0000005 2.0000079L-4.600001 2.8000078Z"/>
<!-- (2250, 0, 0) -->
<path class="cell-path" d="M-5.0000014 5.000008L-4.4000015 4.200008L-3.8000011 3.4000077L-4.6000013 2.8000078L-4.6800013 3.2400079L-4.760001 3.680008L-4.8400016 4.120008L-4.9200015 4.560008Z"/>
<!-- (2249, 0, 0) -->
<path class="cell-path" d="M-4.600001 2.8000078L-4.000001 2.0000076L-3.4000006 1.2000076L-4.200001 0.60000753L-4.2800007 1.0400076L-4.3600006 1.4800075L-4.440001 1.9200077L-4.520001 2.3600078Z"/>
<!-- (2248, 0, 0) -->
<path class="cell-path" d="M-4.200001 0.60000753L-3.4000008 1.2000077L-2.6000009 1.8000079L-2.0000005 1.0000079L-2.4400005 0.9200078L-2.8800006 0.8400078L-3.3200006 0.7600077L-3.7600007 0.6800076Z"/>
<!-- (2244, 0, 0) -->
<path class="cell-path" d="M-6.000001 6.0000086L-6.400001 6.200009L-6.800001 6.400009L-7.2000012 6.600009L-7.6000013 6.800009L-6.800001 7.400009L-6.200001 6.600009L-5.600001 5.800009Z"/>
<!-- (2243, 0, 0) -->
<path class="cell-path" d="M-7.2000012 6.6000085L-6.800001 6.400008L-6.400001 6.2000084L-6.000001 6.0000086L-5.600001 5.800009L-6.400001 5.2000084L-7.000001 6.0000086L-7.6000013 6.8000083Z"/>
<!-- (2242, 0, 0) -->
<path class="cell-path" d="M-8.000002 9.000009L-7.400002 8.200008L-6.8000016 7.400008L-7.600002 6.8000083L-7.6800017 7.2400084L-7.7600017 7.6800084L-7.840002 8.120008L-7.920002 8.560009Z"/>
<!-- (2241, 0, 0) -->
<path class="cell-path" d="M-7.6000013 6.8000083L-7.0000014 6.000008L-6.400001 5.200008L-7.2000012 4.600008L-7.280001 5.040008L-7.360001 5.480008L-7.4400015 5.920008L-7.5200014 6.3600082Z"/>
<!-- (2240, 0, 0) -->
<path class="cell-path" d="M-7.200001 4.600008L-6.4000006 5.2000084L-5.600001 5.8000083L-5.0000005 5.0000086L-5.4400005 4.920008L-5.8800006 4.8400083L-6.3200006 4.7600083L-6.7600007 4.680008Z"/>
<!-- (2212, 0, 0) -->
<path class="cell-path" d="M-1.7999997 -0.39999348L-1.5999998 -0.79999363L-1.3999999 -1.1999937L-1.1999998 -1.599994L-0.99999994 -1.999994L-2.0000002 -1.9999938L-1.9999999 -0.99999356L-1.9999996 6.67572E-06Z"/>
<!-- (2211, 0, 0) -->
<path class="cell-path" d="M-1.1999996 -1.5999937L-1.3999996 -1.1999936L-1.5999995 -0.7999935L-1.7999996 -0.3999933L-1.9999995 6.67572E-06L-0.99999934 6.67572E-06L-0.9999994 -0.99999356L-0.9999995 -1.9999938Z"/>
<!-- (2210, 0, 0) -->
<path class="cell-path" d="M-2 -3.9999943L-1.9999998 -2.999994L-1.9999995 -1.9999938L-0.9999993 -1.999994L-1.1999993 -2.3999941L-1.3999996 -2.799994L-1.5999997 -3.199994L-1.7999998 -3.5999942Z"/>
<!-- (2209, 0, 0) -->
<path class="cell-path" d="M-0.9999995 -1.9999938L-0.9999993 -0.99999356L-0.999999 6.67572E-06L1.1920929E-06 6.4373016E-06L-0.19999892 -0.39999366L-0.39999908 -0.79999363L-0.5999992 -1.1999937L-0.79999936 -1.5999937Z"/>
<!-- (2208, 0, 0) -->
<path class="cell-path" d="M9.536743E-07 6.67572E-06L-0.9999993 6.824732E-06L-1.9999995 6.9737434E-06L-1.9999993 1.0000072L-1.5999993 0.8000071L-1.1999992 0.600007L-0.7999992 0.4000069L-0.3999991 0.20000678Z"/>
<!-- (2204, 0, 0) -->
<path class="cell-path" d="M-2.2 -2.5999942L-2.4 -2.199994L-2.6 -1.799994L-2.8000002 -1.3999938L-3 -0.9999938L-1.9999998 -0.9999938L-1.9999999 -1.999994L-2 -2.9999943Z"/>
<!-- (2203, 0, 0) -->
<path class="cell-path" d="M-2.8000004 -1.3999939L-2.6000004 -1.7999939L-2.4000003 -2.199994L-2.2000003 -2.599994L-2.0000002 -2.999994L-3.0000002 -2.999994L-3.0000005 -1.9999939L-3.0000005 -0.9999938Z"/>
<!-- (2202, 0, 0) -->
<path class="cell-path" d="M-2.0000005 1.0000067L-2.0000005 6.4373016E-06L-2.0000007 -0.9999938L-3.000001 -0.9999938L-2.8000007 -0.5999936L-2.6000009 -0.19999361L-2.4000006 0.20000654L-2.2000005 0.6000066Z"/>
<!-- (2201, 0, 0) -->
<path class="cell-path" d="M-3.0000005 -0.9999938L-3.0000005 -1.999994L-3.0000007 -2.9999943L-4.000001 -2.9999943L-3.8000007 -2.5999942L-3.6000009 -2.199994L-3.4000006 -1.799994L-3.2000005 -1.3999939Z"/>
<!-- (2200, 0, 0) -->
<path class="cell-path" d="M-4.0000005 -2.9999943L-3.0000005 -2.9999943L-2.0000002 -2.9999943L-2.0000002 -3.9999943L-2.4 -3.7999945L-2.8000002 -3.5999942L-3.2000003 -3.3999944L-3.6000004 -3.1999943Z"/>
<!-- (2196, 0, 0) -->
<path class="cell-path" d="M-1.2000012 1.6000073L-0.40000105 2.2000074L0.39999914 2.8000078L0.9999995 2.0000076L0.55999935 1.9200076L0.11999917 1.8400075L-0.32000095 1.7600074L-0.76000106 1.6800073Z"/>
<!-- (2195, 0, 0) -->
<path class="cell-path" d="M0.9999995 2.0000072L0.19999933 1.4000071L-0.60000086 0.8000071L-1.2000008 1.6000073L-0.7600008 1.6800072L-0.32000077 1.7600073L0.11999935 1.8400072L0.55999947 1.9200072Z"/>
<!-- (2194, 0, 0) -->
<path class="cell-path" d="M-0.40000105 0.20000672L-0.80000114 0.40000677L-1.2000012 0.6000068L-1.6000013 0.80000687L-2.0000014 1.0000069L-1.2000012 1.600007L-0.6000011 0.80000687L-9.536743E-07 6.67572E-06Z"/>
<!-- (2193, 0, 0) -->
<path class="cell-path" d="M0.7999995 1.600007L0.5999995 1.2000068L0.39999938 0.8000066L0.19999945 0.40000653L-5.9604645E-07 6.4373016E-06L-0.60000086 0.8000066L0.19999933 1.4000069L0.9999995 2.0000072Z"/>
<!-- (2192, 0, 0) -->
<path class="cell-path" d="M1.8 3.6000075L1.5999999 3.2000074L1.3999999 2.800007L1.1999999 2.400007L0.9999999 2.000007L0.39999962 2.800007L1.1999998 3.4000072L2 4.0000076Z"/>
<!-- (2188, 0, 0) -->
<path class="cell-path" d="M-5.2000017 -1.3999937L-4.4000015 -0.7999934L-3.6000013 -0.19999313L-3.000001 -0.9999933L-3.440001 -1.0799934L-3.8800013 -1.1599934L-4.3200016 -1.2399936L-4.7600017 -1.3199936Z"/>
<!-- (2187, 0, 0) -->
<path class="cell-path" d="M-3.000001 -0.9999938L-3.8000011 -1.5999938L-4.6000013 -2.1999938L-5.2000012 -1.3999937L-4.760001 -1.3199937L-4.320001 -1.2399937L-3.880001 -1.1599938L-3.440001 -1.0799937Z"/>
<!-- (2186, 0, 0) -->
<path class="cell-path" d="M-4.4000015 -2.7999942L-4.8000016 -2.5999942L-5.2000017 -2.3999941L-5.600002 -2.199994L-6.000002 -1.999994L-5.2000017 -1.3999939L-4.6000013 -2.199994L-4.0000014 -2.9999943Z"/>
<!-- (2185, 0, 0) -->
<path class="cell-path" d="M-3.200001 -1.3999939L-3.400001 -1.7999941L-3.600001 -2.1999943L-3.8000011 -2.5999944L-4.000001 -2.9999945L-4.6000013 -2.1999943L-3.8000011 -1.5999941L-3.000001 -0.9999938Z"/>
<!-- (2184, 0, 0) -->
<path class="cell-path" d="M-2.2000005 0.6000065L-2.4000006 0.20000637L-2.6000006 -0.19999385L-2.8000007 -0.59999394L-3.0000005 -0.99999404L-3.6000009 -0.19999385L-2.8000007 0.4000064L-2.0000005 1.0000067Z"/>
<!-- (2180, 0, 0) -->
<path class="cell-path" d="M-3.6000004 -5.199995L-4.200001 -4.399995L-4.800001 -3.599995L-4.000001 -2.9999948L-3.9200008 -3.4399948L-3.8400006 -3.8799949L-3.7600007 -4.319995L-3.6800005 -4.759995Z"/>
<!-- (2179, 0, 0) -->
<path class="cell-path" d="M-4.0000005 -2.9999945L-3.4000003 -3.7999947L-2.8000002 -4.5999947L-3.6000004 -5.199995L-3.6800003 -4.7599945L-3.7600005 -4.319995L-3.8400004 -3.8799946L-3.9200006 -3.4399946Z"/>
<!-- (2178, 0, 0) -->
<path class="cell-path" d="M-2.2 -4.399995L-2.4 -4.799995L-2.6000001 -5.199995L-2.8000002 -5.599995L-3 -5.999995L-3.6000004 -5.199995L-2.8000002 -4.5999947L-2 -3.9999948Z"/>
<!-- (2177, 0, 0) -->
<path class="cell-path" d="M-3.6000004 -3.1999946L-3.2000003 -3.3999944L-2.8000002 -3.5999944L-2.4 -3.7999945L-2 -3.9999943L-2.8 -4.5999947L-3.4 -3.7999945L-4.0000005 -2.9999945Z"/>
<!-- (2176, 0, 0) -->
<path class="cell-path" d="M-5.600001 -2.1999943L-5.200001 -2.3999941L-4.8000007 -2.5999942L-4.4000006 -2.799994L-4.0000005 -2.9999943L-4.8 -3.5999944L-5.4000006 -2.7999945L-6.000001 -1.9999943Z"/>
<!-- (2148, 0, 0) -->
<path class="cell-path" d="M-3.6000009 5.2000093L-3.2000008 5.4000096L-2.8000007 5.6000094L-2.4000006 5.8000097L-2.0000002 6.0000095L-2.0000005 5.000009L-3.0000007 5.0000095L-4.000001 5.0000095Z"/>
<!-- (2147, 0, 0) -->
<path class="cell-path" d="M-2.4000006 5.8000097L-2.8000007 5.6000094L-3.2000008 5.400009L-3.6000009 5.2000093L-4.000001 5.0000095L-4.000001 6.0000095L-3.0000005 6.0000095L-2.0000005 6.0000095Z"/>
<!-- (2146, 0, 0) -->
<path class="cell-path" d="M0 5.0000095L-1.0000002 5.0000095L-2.0000005 5.00001L-2.0000002 6.00001L-1.6000003 5.8000097L-1.2000002 5.60001L-0.80000013 5.4000096L-0.40000007 5.20001Z"/>
<!-- (2145, 0, 0) -->
<path class="cell-path" d="M-2.0000005 6.0000095L-3.0000007 6.0000095L-4.000001 6.00001L-4.000001 7.00001L-3.6000009 6.8000097L-3.2000008 6.60001L-2.8000007 6.4000096L-2.4000006 6.20001Z"/>
<!-- (2144, 0, 0) -->
<path class="cell-path" d="M-4.000001 7.0000095L-4.000001 6.0000095L-4.000001 5.000009L-5.000001 5.000009L-4.800001 5.400009L-4.6000013 5.8000093L-4.400001 6.2000093L-4.2000012 6.6000094Z"/>
<!-- (2140, 0, 0) -->
<path class="cell-path" d="M-1.4000006 4.8000097L-1.8000007 4.6000094L-2.2000008 4.400009L-2.6000009 4.2000093L-3.0000007 4.0000095L-3.0000007 5.0000095L-2.0000005 5.0000095L-1.0000005 5.0000095Z"/>
<!-- (2139, 0, 0) -->
<path class="cell-path" d="M-2.6000004 4.2000093L-2.2000005 4.400009L-1.8000005 4.6000094L-1.4000006 4.8000093L-1.0000007 5.0000095L-1.0000005 4.0000095L-2.0000005 4.000009L-3.0000005 4.000009Z"/>
<!-- (2138, 0, 0) -->
<path class="cell-path" d="M-5.000001 5.0000086L-4.000001 5.0000086L-3.0000007 5.0000086L-3.0000007 4.0000086L-3.4000006 4.2000084L-3.8000007 4.4000087L-4.200001 4.6000085L-4.600001 4.800009Z"/>
<!-- (2137, 0, 0) -->
<path class="cell-path" d="M-3.0000005 4.000009L-2.0000005 4.000009L-1.0000002 4.000009L-1.0000002 3.000009L-1.4000002 3.2000089L-1.8000003 3.4000092L-2.2000003 3.600009L-2.6000004 3.800009Z"/>
<!-- (2136, 0, 0) -->
<path class="cell-path" d="M-1 3.000009L-1.0000001 4.000009L-1.0000002 5.0000095L-1.7881393E-07 5.0000095L-0.2000001 4.6000094L-0.4000001 4.2000093L-0.6 3.8000093L-0.8 3.4000092Z"/>
<!-- (2132, 0, 0) -->
<path class="cell-path" d="M-5.6000013 5.800008L-6.2000017 6.600008L-6.800002 7.400008L-6.000002 8.000008L-5.920002 7.560008L-5.8400016 7.120008L-5.7600017 6.680008L-5.6800013 6.240008Z"/>
<!-- (2131, 0, 0) -->
<path class="cell-path" d="M-6.0000014 8.000009L-5.4000015 7.2000084L-4.800001 6.400008L-5.6000013 5.8000083L-5.6800013 6.2400084L-5.760001 6.6800084L-5.840001 7.1200085L-5.9200015 7.5600085Z"/>
<!-- (2130, 0, 0) -->
<path class="cell-path" d="M-4.200001 6.6000085L-4.400001 6.2000084L-4.600001 5.8000083L-4.800001 5.400008L-5.000001 5.000008L-5.6000013 5.8000083L-4.800001 6.400008L-4.000001 7.0000086Z"/>
<!-- (2129, 0, 0) -->
<path class="cell-path" d="M-5.6000013 7.800009L-5.2000012 7.6000085L-4.800001 7.4000087L-4.400001 7.200009L-4.000001 7.0000086L-4.800001 6.400008L-5.400001 7.2000084L-6.0000014 8.000009Z"/>
<!-- (2128, 0, 0) -->
<path class="cell-path" d="M-7.600002 8.800009L-7.2000017 8.600009L-6.8000016 8.400009L-6.4000015 8.200008L-6.0000014 8.000009L-6.800001 7.400008L-7.4000015 8.200008L-8.000002 9.000009Z"/>
<!-- (2124, 0, 0) -->
<path class="cell-path" d="M-2.6000004 1.8000078L-3.2000008 2.600008L-3.800001 3.400008L-3.000001 4.000008L-2.9200008 3.560008L-2.8400006 3.120008L-2.7600007 2.680008L-2.6800005 2.2400079Z"/>
<!-- (2123, 0, 0) -->
<path class="cell-path" d="M-3.0000005 4.0000086L-2.4000003 3.2000084L-1.8000002 2.4000084L-2.6000004 1.8000083L-2.6800003 2.2400084L-2.7600002 2.6800084L-2.8400004 3.1200085L-2.9200006 3.5600085Z"/>
<!-- (2122, 0, 0) -->
<path class="cell-path" d="M-1.2 2.6000082L-1.4 2.2000082L-1.5999999 1.800008L-1.8 1.400008L-2 1.0000079L-2.6000001 1.8000079L-1.8000001 2.4000082L-1 3.0000083Z"/>
<!-- (2121, 0, 0) -->
<path class="cell-path" d="M-2.6000004 3.8000085L-2.2000003 3.6000087L-1.8000001 3.4000087L-1.4 3.2000089L-1 3.0000086L-1.8 2.4000084L-2.4 3.2000084L-3.0000005 4.0000086Z"/>
<!-- (2120, 0, 0) -->
<path class="cell-path" d="M-4.600001 4.800009L-4.200001 4.6000085L-3.8000007 4.4000087L-3.4000006 4.200009L-3.0000005 4.0000086L-3.8000004 3.4000084L-4.4000006 4.2000084L-5.000001 5.0000086Z"/>
<!-- (2116, 0, 0) -->
<path class="cell-path" d="M1.2000008 3.4000094L0.4000008 2.800009L-0.39999914 2.2000086L-0.9999995 3.0000086L-0.55999947 3.0800087L-0.11999941 3.160009L0.32000065 3.240009L0.7600007 3.3200092Z"/>
<!-- (2115, 0, 0) -->
<path class="cell-path" d="M-0.99999964 3.000009L-0.19999969 3.6000092L0.60000026 4.2000093L1.2000004 3.4000094L0.76000047 3.3200092L0.3200004 3.2400093L-0.11999959 3.1600091L-0.5599996 3.0800092Z"/>
<!-- (2114, 0, 0) -->
<path class="cell-path" d="M0.40000033 4.8000097L0.8000004 4.60001L1.2000005 4.4000096L1.6000006 4.20001L2.0000007 4.00001L1.2000008 3.4000096L0.6000005 4.2000093L2.3841858E-07 5.0000095Z"/>
<!-- (2113, 0, 0) -->
<path class="cell-path" d="M-0.7999997 3.4000092L-0.5999998 3.8000093L-0.39999992 4.2000093L-0.19999999 4.60001L-1.1920929E-07 5.0000095L0.60000026 4.20001L-0.19999969 3.6000094L-0.99999964 3.000009Z"/>
<!-- (2112, 0, 0) -->
<path class="cell-path" d="M-1.7999996 1.4000087L-1.5999997 1.8000089L-1.3999999 2.200009L-1.1999998 2.6000092L-1 3.0000093L-0.39999962 2.2000093L-1.1999996 1.600009L-1.9999995 1.0000086Z"/>
<!-- (2052, 0, 0) -->
<path class="cell-path" d="M-8.800001 8.40001L-9.600001 7.8000097L-10.400002 7.2000093L-11.000002 8.00001L-10.560001 8.080009L-10.120001 8.160009L-9.680001 8.240009L-9.240002 8.32001Z"/>
<!-- (2051, 0, 0) -->
<path class="cell-path" d="M-11.000002 8.00001L-10.200002 8.60001L-9.400002 9.20001L-8.800002 8.40001L-9.240002 8.32001L-9.680002 8.240009L-10.120002 8.160009L-10.560002 8.080009Z"/>
<!-- (2050, 0, 0) -->
<path class="cell-path" d="M-9.600002 9.800011L-9.200002 9.600011L-8.800001 9.400011L-8.400002 9.20001L-8.000002 9.0000105L-8.800001 8.400011L-9.400002 9.20001L-10.000002 10.0000105Z"/>
<!-- (2049, 0, 0) -->
<path class="cell-path" d="M-10.800002 8.40001L-10.600002 8.80001L-10.4000025 9.20001L-10.200003 9.60001L-10.000002 10.0000105L-9.400002 9.20001L-10.200002 8.60001L-11.000002 8.00001Z"/>
<!-- (1810, 0, 0) -->
<path class="cell-path" d="M-9 2.0000038L-9.8 1.4000037L-10.6 0.80000365L-11.200001 1.600004L-10.76 1.6800039L-10.320001 1.7600038L-9.88 1.8400038L-9.440001 1.9200039Z"/>
<!-- (1804, 0, 0) -->
<path class="cell-path" d="M-10 3.0000043L-10.4 3.2000043L-10.8 3.4000044L-11.2 3.6000044L-11.6 3.8000045L-10.8 4.4000044L-10.2 3.6000044L-9.599999 2.8000042Z"/>
<!-- (1803, 0, 0) -->
<path class="cell-path" d="M-11.2 3.6000042L-10.8 3.4000044L-10.4 3.2000043L-10 3.0000043L-9.599999 2.8000045L-10.4 2.200004L-11 3.0000043L-11.6 3.8000042Z"/>
<!-- (1800, 0, 0) -->
<path class="cell-path" d="M-11.2 1.6000037L-10.4 2.200004L-9.599999 2.8000045L-8.999999 2.0000043L-9.44 1.9200041L-9.879999 1.840004L-10.32 1.7600039L-10.759999 1.6800039Z"/>
<!-- (1572, 0, 0) -->
<path class="cell-path" d="M-7.400003 -2.199997L-7.800003 -2.399997L-8.200004 -2.5999968L-8.600003 -2.7999969L-9.000004 -2.9999967L-9.000004 -1.9999964L-8.000003 -1.9999968L-7.000003 -1.999997Z"/>
<!-- (1571, 0, 0) -->
<path class="cell-path" d="M-8.600003 -2.799997L-8.200004 -2.599997L-7.8000035 -2.3999972L-7.4000034 -2.199997L-7.0000033 -1.9999971L-7.0000033 -2.9999974L-8.000004 -2.9999971L-9.000004 -2.9999971Z"/>
<!-- (1570, 0, 0) -->
<path class="cell-path" d="M-11.000004 -1.9999967L-10.000004 -1.9999969L-9.000004 -1.9999971L-9.000004 -2.9999974L-9.400003 -2.7999973L-9.800004 -2.599997L-10.200004 -2.399997L-10.600004 -2.1999967Z"/>
<!-- (1569, 0, 0) -->
<path class="cell-path" d="M-9.000004 -2.9999971L-8.000004 -2.9999974L-7.0000033 -2.9999976L-7.000004 -3.9999979L-7.4000034 -3.7999978L-7.8000035 -3.5999975L-8.200004 -3.3999975L-8.600004 -3.1999972Z"/>
<!-- (1568, 0, 0) -->
<path class="cell-path" d="M-7.000003 -3.9999976L-7.000003 -2.9999974L-7.0000024 -1.9999971L-6.0000024 -1.9999974L-6.2000027 -2.3999972L-6.4000025 -2.7999973L-6.600003 -3.1999974L-6.8000026 -3.5999975Z"/>
<!-- (1564, 0, 0) -->
<path class="cell-path" d="M-9.600003 -1.7999969L-9.200004 -1.5999968L-8.800003 -1.3999968L-8.400003 -1.1999968L-8.000003 -0.99999684L-8.000004 -1.9999971L-9.000004 -1.9999969L-10.000004 -1.9999968Z"/>
<!-- (1563, 0, 0) -->
<path class="cell-path" d="M-8.400003 -1.1999966L-8.800004 -1.3999966L-9.200004 -1.5999967L-9.600004 -1.7999967L-10.000004 -1.9999968L-10.000004 -0.9999966L-9.000004 -0.99999654L-8.000004 -0.99999654Z"/>
<!-- (1562, 0, 0) -->
<path class="cell-path" d="M-6.000003 -1.9999967L-7.000003 -1.9999965L-8.000004 -1.9999964L-8.000003 -0.9999962L-7.6000032 -1.1999962L-7.200003 -1.3999963L-6.800003 -1.5999964L-6.400003 -1.7999966Z"/>
<!-- (1561, 0, 0) -->
<path class="cell-path" d="M-8.000004 -0.99999654L-9.000004 -0.9999964L-10.000004 -0.99999624L-10.000004 3.9339066E-06L-9.600004 -0.19999611L-9.200004 -0.39999622L-8.800004 -0.5999963L-8.400003 -0.79999644Z"/>
<!-- (1556, 0, 0) -->
<path class="cell-path" d="M-5.4000025 -2.7999964L-4.800002 -3.5999966L-4.2000017 -4.3999968L-5.000002 -4.999997L-5.0800023 -4.559997L-5.160002 -4.119997L-5.240002 -3.6799967L-5.3200026 -3.2399964Z"/>
<!-- (1555, 0, 0) -->
<path class="cell-path" d="M-5.0000024 -4.999997L-5.6000023 -4.199997L-6.2000027 -3.3999968L-5.4000025 -2.7999969L-5.320002 -3.239997L-5.240002 -3.679997L-5.160002 -4.119997L-5.0800023 -4.559997Z"/>
<!-- (1554, 0, 0) -->
<path class="cell-path" d="M-6.800003 -3.5999966L-6.600003 -3.1999965L-6.4000025 -2.7999964L-6.2000027 -2.3999963L-6.000003 -1.9999962L-5.4000025 -2.7999964L-6.2000027 -3.3999965L-7.000003 -3.9999967Z"/>
<!-- (1553, 0, 0) -->
<path class="cell-path" d="M-5.4000025 -4.7999973L-5.8000026 -4.599997L-6.2000027 -4.3999968L-6.6000032 -4.199997L-7.000003 -3.9999971L-6.2000027 -3.3999968L-5.600003 -4.199997L-5.0000024 -4.999997Z"/>
<!-- (1552, 0, 0) -->
<path class="cell-path" d="M-3.400002 -5.799998L-3.800002 -5.5999975L-4.2000027 -5.3999977L-4.6000023 -5.1999974L-5.000003 -4.9999976L-4.2000027 -4.399997L-3.6000023 -5.1999974L-3.000002 -5.9999976Z"/>
<!-- (1548, 0, 0) -->
<path class="cell-path" d="M-8.400003 1.2000046L-7.800003 0.4000044L-7.2000027 -0.3999958L-8.000003 -0.9999962L-8.080003 -0.559996L-8.160004 -0.11999583L-8.240004 0.32000428L-8.3200035 0.7600044Z"/>
<!-- (1547, 0, 0) -->
<path class="cell-path" d="M-8.000004 -0.9999962L-8.600004 -0.199996L-9.200004 0.6000042L-8.400003 1.2000041L-8.3200035 0.76000416L-8.240004 0.3200041L-8.160004 -0.11999601L-8.080004 -0.5599961Z"/>
<!-- (1546, 0, 0) -->
<path class="cell-path" d="M-9.800004 0.4000044L-9.600004 0.8000045L-9.400003 1.2000046L-9.200004 1.6000047L-9.000004 2.0000048L-8.400003 1.2000046L-9.200004 0.60000443L-10.000004 4.2915344E-06Z"/>
<!-- (1545, 0, 0) -->
<path class="cell-path" d="M-8.400004 -0.79999614L-8.800004 -0.59999615L-9.200005 -0.39999604L-9.600004 -0.19999611L-10.000005 3.9339066E-06L-9.200005 0.6000042L-8.600004 -0.199996L-8.000004 -0.9999962Z"/>
<!-- (1544, 0, 0) -->
<path class="cell-path" d="M-6.400003 -1.7999966L-6.800003 -1.5999966L-7.2000036 -1.3999965L-7.6000032 -1.1999966L-8.000004 -0.99999654L-7.2000036 -0.39999628L-6.6000032 -1.1999965L-6.000003 -1.9999967Z"/>
<!-- (1536, 0, 0) -->
<path class="cell-path" d="M-9.200004 1.6000042L-9.400003 1.2000041L-9.600004 0.8000039L-9.800004 0.4000038L-10.000004 3.8146973E-06L-10.600004 0.80000377L-9.800004 1.400004L-9.000004 2.0000043Z"/>
<!-- (676, 0, 0) -->
<path class="cell-path" d="M-8.600002 -5.199996L-9.200003 -4.399996L-9.800003 -3.599996L-9.000003 -2.9999957L-8.920003 -3.4399958L-8.840003 -3.8799958L-8.760002 -4.319996L-8.680002 -4.759996Z"/>
<!-- (675, 0, 0) -->
<path class="cell-path" d="M-9.000003 -2.9999952L-8.4000025 -3.7999954L-7.800003 -4.5999956L-8.600003 -5.1999955L-8.680003 -4.7599955L-8.760003 -4.3199954L-8.840003 -3.8799953L-8.920003 -3.4399953Z"/>
<!-- (674, 0, 0) -->
<path class="cell-path" d="M-7.200002 -4.3999953L-7.4000025 -4.7999954L-7.6000023 -5.199996L-7.800002 -5.5999956L-8.000002 -5.999996L-8.600002 -5.199996L-7.8000026 -4.5999956L-7.0000024 -3.9999955Z"/>
<!-- (673, 0, 0) -->
<path class="cell-path" d="M-8.600002 -3.1999953L-8.200003 -3.399995L-7.8000026 -3.5999951L-7.4000025 -3.799995L-7.0000024 -3.999995L-7.800002 -4.599995L-8.4000025 -3.7999952L-9.000003 -2.9999952Z"/>
<!-- (672, 0, 0) -->
<path class="cell-path" d="M-10.600002 -2.1999953L-10.200003 -2.399995L-9.800003 -2.5999951L-9.4000025 -2.799995L-9.000002 -2.999995L-9.800002 -3.5999951L-10.4000025 -2.7999952L-11.000003 -1.9999952Z"/>
<!-- (668, 0, 0) -->
<path class="cell-path" d="M-10.4000025 -2.799996L-9.800002 -3.599996L-9.200003 -4.399996L-10.000003 -4.999996L-10.080003 -4.559996L-10.160003 -4.119996L-10.240003 -3.679996L-10.320003 -3.239996Z"/>
<!-- (664, 0, 0) -->
<path class="cell-path" d="M-8.4000025 -5.799997L-8.800003 -5.5999966L-9.200003 -5.3999968L-9.600003 -5.1999965L-10.000003 -4.9999967L-9.200003 -4.3999968L-8.600003 -5.1999965L-8.000003 -5.9999967Z"/>
<!-- (650, 0, 0) -->
<path class="cell-path" d="M-8.000003 -5.9999967L-9.000003 -5.9999967L-10.000003 -5.999996L-10.000003 -4.999996L-9.600003 -5.199996L-9.200003 -5.3999963L-8.800003 -5.5999966L-8.4000025 -5.7999964Z"/>
<!-- (644, 0, 0) -->
<path class="cell-path" d="M-6.6000023 -5.799998L-6.200002 -5.5999975L-5.800002 -5.3999977L-5.400002 -5.199998L-5.000002 -4.999998L-5.000002 -5.999998L-6.0000024 -5.9999976L-7.0000024 -5.9999976Z"/>
<!-- (643, 0, 0) -->
<path class="cell-path" d="M-5.400002 -5.1999974L-5.800002 -5.3999977L-6.200002 -5.5999975L-6.6000023 -5.799998L-7.000002 -5.9999976L-7.000002 -4.9999976L-6.000002 -4.9999976L-5.000002 -4.9999976Z"/>
<!-- (642, 0, 0) -->
<path class="cell-path" d="M-3.000002 -5.9999976L-4.000002 -5.9999976L-5.000002 -5.999997L-5.000002 -4.999997L-4.6000023 -5.199997L-4.2000017 -5.399997L-3.800002 -5.5999975L-3.400002 -5.7999973Z"/>
<!-- (641, 0, 0) -->
<path class="cell-path" d="M-5.000002 -4.9999976L-6.000002 -4.9999976L-7.000002 -4.999997L-7.000002 -3.9999971L-6.6000023 -4.199997L-6.2000017 -4.399997L-5.800002 -4.5999975L-5.400002 -4.7999973Z"/>
<!-- (640, 0, 0) -->
<path class="cell-path" d="M-7.0000024 -3.9999974L-7.0000024 -4.9999976L-7.0000024 -5.9999976L-8.000003 -5.9999976L-7.8000026 -5.5999975L-7.6000023 -5.1999974L-7.4000025 -4.7999973L-7.2000027 -4.399997Z"/>
<!-- (292, 0, 0) -->
<path class="cell-path" d="M7.6800017 -4.7600017L7.7600017 -4.3200016L7.840002 -3.8800015L7.9200025 -3.4400015L8.000003 -3.0000014L8.800002 -3.600002L8.200002 -4.400002L7.6000013 -5.2000017Z"/>
<!-- (291, 0, 0) -->
<path class="cell-path" d="M7.9200015 -3.4400015L7.8400016 -3.8800015L7.760001 -4.3200016L7.6800013 -4.7600017L7.600001 -5.2000017L6.800001 -4.6000013L7.4000015 -3.8000014L8.000002 -3.0000014Z"/>
<!-- (290, 0, 0) -->
<path class="cell-path" d="M10.000003 -2.000002L9.4000025 -2.8000016L8.800002 -3.6000016L8.000002 -3.000001L8.400002 -2.8000011L8.800002 -2.6000013L9.200003 -2.4000015L9.600002 -2.2000017Z"/>
<!-- (289, 0, 0) -->
<path class="cell-path" d="M8.000002 -3.0000014L7.4000015 -3.8000011L6.8000007 -4.6000013L6.000001 -4.0000005L6.400001 -3.8000007L6.800001 -3.6000009L7.2000017 -3.400001L7.600002 -3.2000012Z"/>
<!-- (288, 0, 0) -->
<path class="cell-path" d="M6.0000014 -4.000001L6.800001 -4.6000013L7.6000013 -5.2000017L7.000001 -6.000002L6.800001 -5.6000013L6.6000013 -5.2000017L6.400001 -4.800001L6.2000012 -4.400001Z"/>
<!-- (284, 0, 0) -->
<path class="cell-path" d="M9.320002 -3.2400024L9.240001 -3.6800025L9.160001 -4.1200027L9.080001 -4.5600023L9.000001 -5.000003L8.200001 -4.400002L8.800001 -3.6000023L9.400002 -2.8000023Z"/>
<!-- (283, 0, 0) -->
<path class="cell-path" d="M9.080002 -4.560003L9.160002 -4.1200027L9.240003 -3.6800027L9.320003 -3.2400026L9.4000025 -2.8000028L10.200003 -3.400003L9.600002 -4.2000027L9.000002 -5.000003Z"/>
<!-- (282, 0, 0) -->
<path class="cell-path" d="M7.000001 -6.0000024L7.6000013 -5.2000027L8.200002 -4.4000025L9.000002 -5.000003L8.600001 -5.2000027L8.200002 -5.4000025L7.800001 -5.600003L7.400001 -5.8000026Z"/>
<!-- (281, 0, 0) -->
<path class="cell-path" d="M9.000002 -5.000003L9.600002 -4.200003L10.200003 -3.400003L11.000003 -4.0000033L10.600002 -4.200003L10.200003 -4.4000034L9.800002 -4.6000032L9.4000025 -4.800003Z"/>
<!-- (280, 0, 0) -->
<path class="cell-path" d="M11.000002 -4.000003L10.200002 -3.4000025L9.400002 -2.8000023L10.000002 -2.0000024L10.200003 -2.4000025L10.4000025 -2.8000026L10.600002 -3.2000027L10.800002 -3.6000028Z"/>
<!-- (276, 0, 0) -->
<path class="cell-path" d="M6.000001 -6.000003L5.000001 -6.000003L4.0000005 -6.0000024L4.000001 -5.0000024L4.4000006 -5.200002L4.8000007 -5.4000025L5.200001 -5.600003L5.600001 -5.8000026Z"/>
<!-- (275, 0, 0) -->
<path class="cell-path" d="M4.000001 -5.000002L5.000001 -5.0000024L6.000001 -5.000003L6.000001 -6.000003L5.600001 -5.8000026L5.200001 -5.6000023L4.800001 -5.4000025L4.400001 -5.200002Z"/>
<!-- (274, 0, 0) -->
<path class="cell-path" d="M6.2000012 -4.4000025L6.4000015 -4.8000026L6.6000013 -5.2000027L6.800001 -5.6000032L7.000001 -6.000003L6.000001 -6.000003L6.000001 -5.000003L6.0000014 -4.0000024Z"/>
<!-- (273, 0, 0) -->
<path class="cell-path" d="M4.400001 -4.800002L4.800001 -4.600002L5.2000012 -4.400002L5.6000013 -4.200002L6.000002 -4.000002L6.0000014 -5.0000024L5.000001 -5.000002L4.000001 -5.000002Z"/>
<!-- (272, 0, 0) -->
<path class="cell-path" d="M2.4 -5.8000016L2.8000002 -5.6000013L3.2000003 -5.4000015L3.6000004 -5.2000017L4.000001 -5.0000014L4.0000005 -6.000002L3.0000002 -6.0000014L2 -6.0000014Z"/>
<!-- (268, 0, 0) -->
<path class="cell-path" d="M11.000002 -6.000004L10.000002 -6.000004L9.000002 -6.0000033L9.000002 -5.0000033L9.400002 -5.200003L9.800002 -5.4000034L10.200002 -5.6000037L10.600002 -5.8000035Z"/>
<!-- (267, 0, 0) -->
<path class="cell-path" d="M9.000002 -5.000003L10.000002 -5.0000033L11.000002 -5.000004L11.000002 -6.000004L10.600002 -5.8000035L10.200002 -5.6000032L9.800002 -5.4000034L9.400002 -5.200003Z"/>
<!-- (265, 0, 0) -->
<path class="cell-path" d="M9.4000025 -4.800003L9.800002 -4.600003L10.200003 -4.400003L10.600002 -4.200003L11.000003 -4.000003L11.000002 -5.0000033L10.000002 -5.000003L9.000002 -5.000003Z"/>
<!-- (264, 0, 0) -->
<path class="cell-path" d="M7.400001 -5.8000026L7.800001 -5.6000023L8.200002 -5.4000025L8.600001 -5.2000027L9.000002 -5.0000024L9.000002 -6.000003L8.000001 -6.0000024L7.000001 -6.0000024Z"/>
<!-- (228, 0, 0) -->
<path class="cell-path" d="M6.3200016 -2.240001L6.2400017 -2.680001L6.1600013 -3.120001L6.0800014 -3.5600011L6.000001 -4.000001L5.2000012 -3.4000006L5.8000016 -2.6000009L6.400002 -1.8000009Z"/>
<!-- (227, 0, 0) -->
<path class="cell-path" d="M6.0800014 -3.560001L6.1600018 -3.1200008L6.2400017 -2.6800008L6.3200016 -2.2400007L6.400002 -1.8000009L7.2000017 -2.400001L6.600002 -3.200001L6.0000014 -4.000001Z"/>
<!-- (226, 0, 0) -->
<path class="cell-path" d="M4.000001 -5.000001L4.6000013 -4.2000012L5.2000017 -3.400001L6.000002 -4.0000014L5.6000013 -4.2000012L5.2000017 -4.4000015L4.800001 -4.6000013L4.400001 -4.800001Z"/>
<!-- (225, 0, 0) -->
<path class="cell-path" d="M6.0000014 -4.000001L6.600002 -3.200001L7.200002 -2.400001L8.000002 -3.0000014L7.6000023 -3.2000015L7.2000017 -3.4000013L6.8000016 -3.600001L6.4000015 -3.8000011Z"/>
<!-- (224, 0, 0) -->
<path class="cell-path" d="M8.000002 -3.0000014L7.2000017 -2.400001L6.400002 -1.8000009L7.0000024 -1.000001L7.200002 -1.400001L7.400002 -1.8000011L7.6000023 -2.2000012L7.800002 -2.6000013Z"/>
<!-- (220, 0, 0) -->
<path class="cell-path" d="M4.6800013 -3.7600007L4.7600017 -3.3200006L4.8400016 -2.8800006L4.9200015 -2.4400008L5.000002 -2.000001L5.8000016 -2.6000009L5.2000017 -3.4000008L4.6000013 -4.200001Z"/>
<!-- (219, 0, 0) -->
<path class="cell-path" d="M4.9200015 -2.4400005L4.8400016 -2.8800006L4.7600017 -3.3200004L4.6800013 -3.7600005L4.6000013 -4.2000003L3.8000016 -3.6000004L4.4000015 -2.8000004L5.0000014 -2.0000005Z"/>
<!-- (218, 0, 0) -->
<path class="cell-path" d="M7.0000014 -1.0000005L6.4000015 -1.8000004L5.800001 -2.6000004L5.000001 -2L5.4000015 -1.8000002L5.800001 -1.6000003L6.2000012 -1.4000003L6.6000013 -1.2000004Z"/>
<!-- (217, 0, 0) -->
<path class="cell-path" d="M5.0000014 -2.0000005L4.4000015 -2.8000004L3.8000011 -3.6000004L3.0000012 -3L3.4000013 -2.8000002L3.8000011 -2.6000004L4.2000012 -2.4000003L4.6000013 -2.2000003Z"/>
<!-- (216, 0, 0) -->
<path class="cell-path" d="M3.0000014 -3.0000005L3.8000014 -3.6000004L4.6000013 -4.200001L4.0000014 -5.0000005L3.8000014 -4.6000004L3.6000013 -4.200001L3.4000015 -3.8000004L3.2000015 -3.4000006Z"/>
<!-- (212, 0, 0) -->
<path class="cell-path" d="M8.000002 -0.99999976L9.000002 -0.99999976L10.000002 -0.99999976L10.000002 -1.9999999L9.600002 -1.8L9.200002 -1.5999999L8.800002 -1.3999999L8.400002 -1.1999998Z"/>
<!-- (211, 0, 0) -->
<path class="cell-path" d="M10.000002 -2.0000002L9.000002 -2L8.000002 -1.9999999L8.000002 -0.99999976L8.400002 -1.1999998L8.800002 -1.3999999L9.200002 -1.6L9.600002 -1.8000002Z"/>
<!-- (210, 0, 0) -->
<path class="cell-path" d="M7.800001 -2.6L7.600001 -2.1999998L7.400001 -1.7999997L7.200001 -1.3999996L7.000001 -0.9999995L8.000001 -0.99999976L8.000001 -1.9999999L8.000001 -3Z"/>
<!-- (209, 0, 0) -->
<path class="cell-path" d="M9.600002 -2.2000003L9.200002 -2.4000003L8.800002 -2.6000004L8.400002 -2.8000004L8.000002 -3.0000005L8.000002 -2.0000002L9.000002 -2.0000002L10.000002 -2.0000002Z"/>
<!-- (204, 0, 0) -->
<path class="cell-path" d="M3.000001 -0.99999976L4.000001 -0.99999976L5.000001 -0.99999976L5.000001 -1.9999999L4.6000013 -1.8L4.2000012 -1.5999999L3.8000011 -1.3999999L3.400001 -1.1999998Z"/>
<!-- (203, 0, 0) -->
<path class="cell-path" d="M5.000001 -2.0000002L4.000001 -2L3.0000007 -1.9999999L3.000001 -0.99999976L3.4000008 -1.1999998L3.800001 -1.3999999L4.200001 -1.6L4.600001 -1.8000002Z"/>
<!-- (202, 0, 0) -->
<path class="cell-path" d="M2.8000004 -2.6L2.6000004 -2.1999998L2.4000006 -1.7999997L2.2000005 -1.3999996L2.0000005 -0.9999995L3.0000007 -0.99999976L3.0000005 -1.9999999L3.0000005 -3Z"/>
<!-- (201, 0, 0) -->
<path class="cell-path" d="M4.600001 -2.2000003L4.200001 -2.4000003L3.8000007 -2.6000004L3.4000006 -2.8000004L3.0000007 -3.0000005L3.0000007 -2.0000002L4.000001 -2.0000002L5.000001 -2.0000002Z"/>
<!-- (200, 0, 0) -->
<path class="cell-path" d="M6.6000013 -1.2000005L6.2000012 -1.4000006L5.800001 -1.6000006L5.400001 -1.8000007L5.000001 -2.0000005L5.000001 -1.0000005L6.0000014 -1.0000005L7.0000014 -1.0000005Z"/>
<!-- (196, 0, 0) -->
<path class="cell-path" d="M2.0000005 -5.000001L2.0000005 -4.000001L2.0000002 -3.0000007L3.0000005 -3.0000007L2.8000004 -3.4000006L2.6000004 -3.8000007L2.4000006 -4.200001L2.2000005 -4.600001Z"/>
<!-- (195, 0, 0) -->
<path class="cell-path" d="M3.000001 -3.0000007L3.000001 -4.000001L3.0000007 -5.000001L2.0000007 -5.0000005L2.2000008 -4.6000004L2.4000008 -4.200001L2.6000009 -3.8000007L2.800001 -3.4000006Z"/>
<!-- (194, 0, 0) -->
<path class="cell-path" d="M3.6000009 -5.200001L3.2000008 -5.400001L2.8000007 -5.600001L2.4000006 -5.800001L2.0000007 -6.000001L2.0000007 -5.000001L3.000001 -5.000001L4.000001 -5.000001Z"/>
<!-- (193, 0, 0) -->
<path class="cell-path" d="M3.200001 -3.4000008L3.400001 -3.8000007L3.600001 -4.200001L3.8000011 -4.600001L4.000001 -5.000001L3.0000012 -5.000001L3.000001 -4.000001L3.000001 -3.0000007Z"/>
<!-- (192, 0, 0) -->
<path class="cell-path" d="M2.200001 -1.4000006L2.400001 -1.8000005L2.600001 -2.2000008L2.8000011 -2.6000006L3.0000012 -3.0000007L2.0000012 -3.0000007L2.000001 -2.0000005L2.000001 -1.0000005Z"/>
<!-- (100, 0, 0) -->
<path class="cell-path" d="M6.4000015 -0.19999862L5.800001 0.6000014L5.200001 1.4000014L6.000001 2.0000017L6.080001 1.5600017L6.1600013 1.1200016L6.240001 0.68000156L6.3200016 0.24000147Z"/>
<!-- (99, 0, 0) -->
<path class="cell-path" d="M6.000001 2.000002L6.600001 1.2000018L7.200001 0.40000176L6.400001 -0.19999838L6.320001 0.2400018L6.2400007 0.68000174L6.160001 1.1200018L6.080001 1.5600019Z"/>
<!-- (98, 0, 0) -->
<path class="cell-path" d="M7.800002 0.6000016L7.600002 0.20000154L7.400002 -0.19999862L7.2000017 -0.5999986L7.000002 -0.9999988L6.4000015 -0.19999862L7.2000017 0.40000153L8.000002 1.0000017Z"/>
<!-- (97, 0, 0) -->
<path class="cell-path" d="M6.400001 1.800002L6.800001 1.600002L7.2000012 1.400002L7.6000013 1.2000021L8.000002 1.0000021L7.2000017 0.40000188L6.6000013 1.200002L6.000001 2.000002Z"/>
<!-- (96, 0, 0) -->
<path class="cell-path" d="M4.400001 2.8000019L4.800001 2.600002L5.2000012 2.400002L5.6000013 2.2000022L6.0000014 2.0000021L5.2000017 1.4000019L4.6000013 2.200002L4.000001 3.000002Z"/>
<!-- (92, 0, 0) -->
<path class="cell-path" d="M4.6000013 2.2000012L5.2000012 1.4000012L5.800001 0.6000011L5.0000014 9.536743E-07L4.9200015 0.44000113L4.840001 0.88000107L4.760001 1.3200011L4.6800013 1.7600012Z"/>
<!-- (91, 0, 0) -->
<path class="cell-path" d="M5.000001 8.34465E-07L4.400001 0.80000097L3.8000011 1.6000011L4.6000013 2.2000012L4.6800013 1.760001L4.760001 1.320001L4.840001 0.8800009L4.920001 0.44000086Z"/>
<!-- (90, 0, 0) -->
<path class="cell-path" d="M3.200001 1.4000013L3.400001 1.8000014L3.6000013 2.2000012L3.8000011 2.6000013L4.000001 3.0000014L4.6000013 2.2000012L3.8000011 1.6000013L3.000001 1.0000013Z"/>
<!-- (89, 0, 0) -->
<path class="cell-path" d="M4.600001 0.20000085L4.200001 0.40000087L3.800001 0.6000009L3.4000008 0.8000009L3.000001 1.000001L3.800001 1.600001L4.400001 0.8000009L5.000001 8.34465E-07Z"/>
<!-- (88, 0, 0) -->
<path class="cell-path" d="M6.600001 -0.7999996L6.200001 -0.5999996L5.800001 -0.39999956L5.4000006 -0.19999957L5.000001 4.7683716E-07L5.800001 0.6000005L6.400001 -0.19999957L7.000001 -0.99999964Z"/>
<!-- (84, 0, 0) -->
<path class="cell-path" d="M2.2000005 2.600002L2.4000003 2.2000017L2.6000004 1.8000017L2.8000002 1.4000015L3.0000002 1.0000014L2 1.0000017L2.0000002 2.000002L2.0000005 3.0000021Z"/>
<!-- (83, 0, 0) -->
<path class="cell-path" d="M2.8000004 1.4000015L2.6000004 1.8000016L2.4000006 2.2000017L2.2000005 2.6000018L2.0000005 3.0000017L3.0000007 3.0000017L3.0000005 2.0000014L3.0000005 1.0000014Z"/>
<!-- (82, 0, 0) -->
<path class="cell-path" d="M2 -0.9999988L2.0000002 1.4305115E-06L2.0000005 1.0000017L3.0000007 1.0000014L2.8000007 0.60000134L2.6000004 0.20000136L2.4000003 -0.19999874L2.2 -0.5999988Z"/>
<!-- (81, 0, 0) -->
<path class="cell-path" d="M3.0000005 1.0000014L3.0000007 2.0000017L3.000001 3.000002L4.000001 3.0000017L3.8000011 2.6000016L3.6000009 2.2000017L3.4000008 1.8000015L3.2000005 1.4000015Z"/>
<!-- (80, 0, 0) -->
<path class="cell-path" d="M4.000001 3.0000017L3.0000007 3.000002L2.0000005 3.000002L2.0000007 4.000002L2.4000006 3.800002L2.8000007 3.600002L3.2000008 3.400002L3.6000009 3.2000017Z"/>
<!-- (76, 0, 0) -->
<path class="cell-path" d="M3.4000006 -0.7999997L3.8000007 -0.5999997L4.200001 -0.3999998L4.600001 -0.19999981L5.000001 1.1920929E-07L5.000001 -1L4.0000005 -0.9999998L3.0000005 -0.99999964Z"/>
<!-- (75, 0, 0) -->
<path class="cell-path" d="M4.600001 -0.19999956L4.200001 -0.3999996L3.8000007 -0.5999996L3.4000006 -0.79999965L3.0000007 -0.99999964L3.0000007 4.7683716E-07L4.000001 4.7683716E-07L5.000001 4.7683716E-07Z"/>
<!-- (74, 0, 0) -->
<path class="cell-path" d="M7.000001 -0.99999964L6.000001 -0.99999946L5.000001 -0.9999993L5.000001 8.34465E-07L5.4000006 -0.19999921L5.800001 -0.39999932L6.200001 -0.5999994L6.600001 -0.79999954Z"/>
<!-- (73, 0, 0) -->
<path class="cell-path" d="M5.000001 4.7683716E-07L4.000001 6.556511E-07L3.0000007 8.34465E-07L3.000001 1.000001L3.4000008 0.8000009L3.800001 0.6000008L4.200001 0.4000007L4.600001 0.20000058Z"/>
<!-- (72, 0, 0) -->
<path class="cell-path" d="M3.0000005 1.0000006L3.0000005 4.7683716E-07L3.0000005 -0.99999964L2.0000002 -0.99999964L2.2000003 -0.59999967L2.4000003 -0.19999957L2.6000004 0.20000046L2.8000004 0.6000005Z"/>
<!-- (68, 0, 0) -->
<path class="cell-path" d="M8.400002 -0.80000055L8.800002 -0.60000056L9.200003 -0.40000063L9.600002 -0.20000064L10.000002 -7.1525574E-07L10.000002 -1.0000008L9.000002 -1.0000007L8.000002 -1.0000005Z"/>
<!-- (67, 0, 0) -->
<path class="cell-path" d="M9.600002 -0.20000039L9.200002 -0.40000042L8.800002 -0.60000044L8.400002 -0.8000005L8.000002 -1.0000005L8.000002 -3.5762787E-07L9.000002 -3.5762787E-07L10.000002 -3.5762787E-07Z"/>
<!-- (65, 0, 0) -->
<path class="cell-path" d="M10.000002 -3.5762787E-07L9.000002 -1.7881393E-07L8.000002 0L8.000002 1.0000001L8.400002 0.8000001L8.800002 0.59999996L9.200002 0.39999986L9.600002 0.19999975Z"/>
<!-- (64, 0, 0) -->
<path class="cell-path" d="M8.000002 0.99999976L8.000002 -3.5762787E-07L8.000002 -1.0000005L7.000002 -1.0000005L7.2000017 -0.6000005L7.4000015 -0.2000004L7.600002 0.19999963L7.8000016 0.59999967Z"/>
<!-- (36, 0, 0) -->
<path class="cell-path" d="M1.1999993 -1.5999997L0.39999938 -2.2L-0.40000057 -2.8000004L-1.000001 -2.0000005L-0.5600009 -1.9200003L-0.12000084 -1.8400002L0.31999922 -1.76L0.7599993 -1.6799998Z"/>
<!-- (35, 0, 0) -->
<path class="cell-path" d="M-1.0000011 -2L-0.20000112 -1.3999999L0.59999883 -0.7999997L1.199999 -1.5999997L0.75999904 -1.6799998L0.31999898 -1.7599998L-0.12000102 -1.8399999L-0.560001 -1.92Z"/>
<!-- (34, 0, 0) -->
<path class="cell-path" d="M0.3999989 -0.19999945L0.799999 -0.39999938L1.1999991 -0.5999993L1.5999992 -0.79999924L1.9999993 -0.99999917L1.1999993 -1.5999994L0.59999907 -0.7999995L-1.1920929E-06 4.7683716E-07Z"/>
<!-- (33, 0, 0) -->
<path class="cell-path" d="M-0.80000114 -1.5999999L-0.6000012 -1.1999997L-0.40000135 -0.7999995L-0.20000142 -0.39999938L-1.5497208E-06 7.1525574E-07L0.59999883 -0.79999924L-0.20000112 -1.3999996L-1.0000011 -2Z"/>
<!-- (32, 0, 0) -->
<path class="cell-path" d="M-1.800001 -3.6000004L-1.6000011 -3.2000003L-1.4000013 -2.8L-1.2000012 -2.3999999L-1.0000014 -1.9999998L-0.40000105 -2.7999997L-1.200001 -3.4L-2.000001 -4.0000005Z"/>
<!-- (28, 0, 0) -->
<path class="cell-path" d="M-1.2000008 -3.3999996L-0.4000008 -2.7999997L0.39999914 -2.1999996L0.99999905 -2.9999995L0.5599992 -3.0799994L0.11999917 -3.1599996L-0.32000077 -3.2399995L-0.76000077 -3.3199997Z"/>
<!-- (27, 0, 0) -->
<path class="cell-path" d="M0.9999994 -3L0.19999945 -3.6L-0.6000005 -4.2L-1.2000004 -3.3999999L-0.76000047 -3.32L-0.32000053 -3.24L0.11999947 -3.1599998L0.55999947 -3.08Z"/>
<!-- (26, 0, 0) -->
<path class="cell-path" d="M-0.4000007 -4.8L-0.80000067 -4.6L-1.2000006 -4.4L-1.6000006 -4.2L-2.0000005 -4L-1.2000006 -3.4L-0.6000007 -4.2L-7.1525574E-07 -5Z"/>
<!-- (25, 0, 0) -->
<path class="cell-path" d="M0.7999994 -3.4L0.5999994 -3.8L0.39999944 -4.2L0.19999945 -4.6L-4.7683716E-07 -5L-0.6000005 -4.2L0.19999945 -3.6L0.9999994 -3Z"/>
<!-- (24, 0, 0) -->
<path class="cell-path" d="M1.7999995 -1.4L1.5999995 -1.8L1.3999996 -2.2L1.1999996 -2.6L0.99999964 -3L0.39999962 -2.2L1.1999996 -1.6L1.9999995 -1Z"/>
<!-- (20, 0, 0) -->
<path class="cell-path" d="M-1.6000013 -5.8000007L-1.2000012 -5.6000004L-0.80000114 -5.4000006L-0.40000105 -5.200001L-9.536743E-07 -5.000001L-1.1920929E-06 -6.000001L-1.0000013 -6.0000005L-2.0000014 -6.0000005Z"/>
<!-- (19, 0, 0) -->
<path class="cell-path" d="M-0.40000114 -5.2000003L-0.8000012 -5.4000006L-1.2000012 -5.6000004L-1.6000013 -5.8000007L-2.0000014 -6.0000005L-2.0000014 -5.0000005L-1.0000012 -5.0000005L-1.0728836E-06 -5.0000005Z"/>
<!-- (18, 0, 0) -->
<path class="cell-path" d="M1.9999992 -6.0000005L0.99999905 -6.0000005L-1.0728836E-06 -6L-8.34465E-07 -5L0.39999902 -5.2L0.7999991 -5.4L1.1999991 -5.6000004L1.5999992 -5.8Z"/>
<!-- (17, 0, 0) -->
<path class="cell-path" d="M-1.0728836E-06 -5.0000005L-1.0000012 -5.0000005L-2.0000014 -5L-2.000001 -4L-1.6000012 -4.2L-1.2000011 -4.4L-0.80000114 -4.6000004L-0.4000011 -4.8Z"/>
<!-- (16, 0, 0) -->
<path class="cell-path" d="M-2.0000014 -4L-2.0000014 -5L-2.0000014 -6L-3.0000017 -6L-2.8000016 -5.6000004L-2.6000016 -5.2000003L-2.4000015 -4.8L-2.2000015 -4.4Z"/>
<!-- (12, 0, 0) -->
<path class="cell-path" d="M1.8 -4.6000004L1.5999999 -4.2000003L1.4 -3.8000002L1.1999999 -3.4L1 -3.0000002L2 -3.0000002L2 -4.0000005L2 -5.0000005Z"/>
<!-- (11, 0, 0) -->
<path class="cell-path" d="M1.1999997 -3.4000006L1.3999999 -3.8000007L1.5999999 -4.200001L1.8 -4.6000004L2 -5.0000005L0.99999994 -5.000001L0.99999976 -4.0000005L0.99999964 -3.0000005Z"/>
<!-- (10, 0, 0) -->
<path class="cell-path" d="M1.9999995 -1L1.9999995 -2L1.9999995 -3.0000002L0.9999993 -3.0000002L1.1999993 -2.6000004L1.3999994 -2.2000003L1.5999994 -1.8000002L1.7999995 -1.4000001Z"/>
<!-- (9, 0, 0) -->
<path class="cell-path" d="M0.99999964 -3.0000005L0.99999964 -4.0000005L0.9999996 -5.000001L-5.9604645E-07 -5.000001L0.19999945 -4.600001L0.3999995 -4.200001L0.59999955 -3.8000007L0.7999996 -3.4000006Z"/>
<!-- (8, 0, 0) -->
<path class="cell-path" d="M-2.3841858E-07 -5.000001L0.9999999 -5.000001L2 -5.000001L2 -6.000001L1.6000001 -5.800001L1.1999999 -5.600001L0.79999995 -5.400001L0.39999986 -5.200001Z"/>
<!-- (4, 0, 0) -->
<path class="cell-path" d="M1.8000002 0.4000001L1.6000003 0.8000002L1.4000003 1.2000002L1.2000003 1.6000004L1.0000002 2.0000002L2.0000005 2.0000002L2.0000002 1.0000001L2.0000002 0Z"/>
<!-- (3, 0, 0) -->
<path class="cell-path" d="M1.1999999 1.6000003L1.4 1.2000003L1.6000001 0.8000002L1.8000001 0.40000033L2.0000002 3.5762787E-07L1.0000001 2.3841858E-07L1 1.0000002L0.99999994 2.0000002Z"/>
<!-- (2, 0, 0) -->
<path class="cell-path" d="M1.9999999 4.0000005L1.9999998 3.0000005L1.9999998 2.0000002L0.99999964 2.0000002L1.1999996 2.4000003L1.3999996 2.8000002L1.5999998 3.2000003L1.7999998 3.6000004Z"/>
<!-- (1, 0, 0) -->
<path class="cell-path" d="M0.99999994 2.0000002L0.9999999 1.0000001L0.99999976 0L-2.9802322E-07 0L0.19999969 0.4000001L0.39999974 0.8000001L0.5999998 1.2000002L0.7999999 1.6000001Z"/>
<!-- (0, 0, 0) -->
<path class="cell-path" d="M0 0L1 0L2 0L2 -1L1.6 -0.8L1.2 -0.6L0.8 -0.4L0.4 -0.2Z"/>
</svg>
