<svg viewBox="-2 -2 4 4" xmlns="http://www.w3.org/2000/svg">
<style>path{stroke-linejoin: round}</style>
<!-- (0, 0, 0) -->
<path style="fill: rgb(244, 244, 241); stroke: rgb(51, 51, 51); stroke-width: 0.1" d="M-1.5648956 1.7389183L-1.5648956 1.5648956L-1.7389183 1.5648956L-1.7389183 1.7389183Z"/>
<!-- (1, 0, 0) -->
<path style="fill: rgb(244, 244, 241); stroke: rgb(51, 51, 51); stroke-width: 0.1" d="M-1.5648956 1.5648956L-1.5648956 1.0801182L-1.7389183 1.0801182L-1.7389183 1.5648956Z"/>
<!-- (2, 0, 0) -->
<path style="fill: rgb(244, 244, 241); stroke: rgb(51, 51, 51); stroke-width: 0.1" d="M-1.5648956 1.0801182L-1.5648956 0.3846817L-1.7389183 0.3846817L-1.7389183 1.0801182Z"/>
<!-- (3, 0, 0) -->
<path style="fill: rgb(244, 244, 241); stroke: rgb(51, 51, 51); stroke-width: 0.1" d="M-1.5648956 0.3846817L-1.5648955 -0.38468167L-1.7389183 -0.3846817L-1.7389183 0.3846817Z"/>
<!-- (4, 0, 0) -->
<path style="fill: rgb(244, 244, 241); stroke: rgb(51, 51, 51); stroke-width: 0.1" d="M-1.5648955 -0.38468167L-1.5648957 -1.0801182L-1.7389183 -1.0801182L-1.7389183 -0.3846817Z"/>
<!-- (5, 0, 0) -->
<path style="fill: rgb(244, 244, 241); stroke: rgb(51, 51, 51); stroke-width: 0.1" d="M-1.5648957 -1.0801182L-1.5648956 -1.5648956L-1.7389183 -1.5648956L-1.7389183 -1.0801182Z"/>
<!-- (6, 0, 0) -->
<path style="fill: rgb(244, 244, 241); stroke: rgb(51, 51, 51); stroke-width: 0.1" d="M-1.5648956 -1.5648956L-1.5648956 -1.7389183L-1.7389183 -1.7389183L-1.7389183 -1.5648956Z"/>
<!-- (7, 0, 0) -->
<path style="fill: rgb(244, 244, 241); stroke: rgb(51, 51, 51); stroke-width: 0.1" d="M-1.0801181 1.7389183L-1.0801182 1.5648956L-1.5648956 1.5648956L-1.5648956 1.7389183Z"/>
<!-- (8, 0, 0) -->
<path style="fill: rgb(244, 244, 241); stroke: rgb(51, 51, 51); stroke-width: 0.1" d="M-1.0801182 1.5648956L-1.0801182 1.0801182L-1.5648956 1.0801182L-1.5648956 1.5648956Z"/>
<!-- (9, 0, 0) -->
<path style="fill: rgb(244, 244, 241); stroke: rgb(51, 51, 51); stroke-width: 0.1" d="M-1.0801182 1.0801182L-1.0801182 0.3846817L-1.5648956 0.3846817L-1.5648956 1.0801182Z"/>
<!-- (10, 0, 0) -->
<path style="fill: rgb(244, 244, 241); stroke: rgb(51, 51, 51); stroke-width: 0.1" d="M-1.0801182 0.3846817L-1.0801182 -0.3846817L-1.5648955 -0.38468167L-1.5648956 0.3846817Z"/>
<!-- (11, 0, 0) -->
<path style="fill: rgb(244, 244, 241); stroke: rgb(51, 51, 51); stroke-width: 0.1" d="M-1.0801182 -0.3846817L-1.0801183 -1.0801183L-1.5648957 -1.0801182L-1.5648955 -0.38468167Z"/>
<!-- (12, 0, 0) -->
<path style="fill: rgb(244, 244, 241); stroke: rgb(51, 51, 51); stroke-width: 0.1" d="M-1.0801183 -1.0801183L-1.0801182 -1.5648956L-1.5648956 -1.5648956L-1.5648957 -1.0801182Z"/>
<!-- (13, 0, 0) -->
<path style="fill: rgb(244, 244, 241); stroke: rgb(51, 51, 51); stroke-width: 0.1" d="M-1.0801182 -1.5648956L-1.0801181 -1.7389183L-1.5648956 -1.7389183L-1.5648956 -1.5648956Z"/>
<!-- (14, 0, 0) -->
<path style="fill: rgb(244, 244, 241); stroke: rgb(51, 51, 51); stroke-width: 0.1" d="M-0.3846817 1.7389183L-0.38468167 1.5648956L-1.0801182 1.5648956L-1.0801181 1.7389183Z"/>
<!-- (15, 0, 0) -->
<path style="fill: rgb(244, 244, 241); stroke: rgb(51, 51, 51); stroke-width: 0.1" d="M-0.38468167 1.5648956L-0.38468173 1.0801183L-1.0801182 1.0801182L-1.0801182 1.5648956Z"/>
<!-- (16, 0, 0) -->
<path style="fill: rgb(244, 244, 241); stroke: rgb(51, 51, 51); stroke-width: 0.1" d="M-0.38468173 1.0801183L-0.3846817 0.3846817L-1.0801182 0.3846817L-1.0801182 1.0801182Z"/>
<!-- (17, 0, 0) -->
<path style="fill: rgb(244, 244, 241); stroke: rgb(51, 51, 51); stroke-width: 0.1" d="M-0.3846817 0.3846817L-0.38468167 -0.38468167L-1.0801182 -0.3846817L-1.0801182 0.3846817Z"/>
<!-- (18, 0, 0) -->
<path style="fill: rgb(244, 244, 241); stroke: rgb(51, 51, 51); stroke-width: 0.1" d="M-0.38468167 -0.38468167L-0.38468173 -1.0801182L-1.0801183 -1.0801183L-1.0801182 -0.3846817Z"/>
<!-- (19, 0, 0) -->
<path style="fill: rgb(244, 244, 241); stroke: rgb(51, 51, 51); stroke-width: 0.1" d="M-0.38468173 -1.0801182L-0.38468167 -1.5648956L-1.0801182 -1.5648956L-1.0801183 -1.0801183Z"/>
<!-- (20, 0, 0) -->
<path style="fill: rgb(244, 244, 241); stroke: rgb(51, 51, 51); stroke-width: 0.1" d="M-0.38468167 -1.5648956L-0.3846817 -1.7389183L-1.0801181 -1.7389183L-1.0801182 -1.5648956Z"/>
<!-- (21, 0, 0) -->
<path style="fill: rgb(244, 244, 241); stroke: rgb(51, 51, 51); stroke-width: 0.1" d="M0.3846817 1.7389183L0.3846817 1.5648956L-0.38468167 1.5648956L-0.3846817 1.7389183Z"/>
<!-- (22, 0, 0) -->
<path style="fill: rgb(244, 244, 241); stroke: rgb(51, 51, 51); stroke-width: 0.1" d="M0.3846817 1.5648956L0.38468173 1.0801183L-0.38468173 1.0801183L-0.38468167 1.5648956Z"/>
<!-- (23, 0, 0) -->
<path style="fill: rgb(244, 244, 241); stroke: rgb(51, 51, 51); stroke-width: 0.1" d="M0.38468173 1.0801183L0.3846817 0.3846817L-0.3846817 0.3846817L-0.38468173 1.0801183Z"/>
<!-- (24, 0, 0) -->
<path style="fill: rgb(244, 244, 241); stroke: rgb(51, 51, 51); stroke-width: 0.1" d="M0.3846817 0.3846817L0.3846817 -0.3846817L-0.38468167 -0.38468167L-0.3846817 0.3846817Z"/>
<!-- (25, 0, 0) -->
<path style="fill: rgb(244, 244, 241); stroke: rgb(51, 51, 51); stroke-width: 0.1" d="M0.3846817 -0.3846817L0.3846817 -1.0801182L-0.38468173 -1.0801182L-0.38468167 -0.38468167Z"/>
<!-- (26, 0, 0) -->
<path style="fill: rgb(244, 244, 241); stroke: rgb(51, 51, 51); stroke-width: 0.1" d="M0.3846817 -1.0801182L0.38468167 -1.5648956L-0.38468167 -1.5648956L-0.38468173 -1.0801182Z"/>
<!-- (27, 0, 0) -->
<path style="fill: rgb(244, 244, 241); stroke: rgb(51, 51, 51); stroke-width: 0.1" d="M0.38468167 -1.5648956L0.3846817 -1.7389183L-0.3846817 -1.7389183L-0.38468167 -1.5648956Z"/>
<!-- (28, 0, 0) -->
<path style="fill: rgb(244, 244, 241); stroke: rgb(51, 51, 51); stroke-width: 0.1" d="M1.0801181 1.7389183L1.0801183 1.5648956L0.3846817 1.5648956L0.3846817 1.7389183Z"/>
<!-- (29, 0, 0) -->
<path style="fill: rgb(244, 244, 241); stroke: rgb(51, 51, 51); stroke-width: 0.1" d="M1.0801183 1.5648956L1.0801182 1.0801182L0.38468173 1.0801183L0.3846817 1.5648956Z"/>
<!-- (30, 0, 0) -->
<path style="fill: rgb(244, 244, 241); stroke: rgb(51, 51, 51); stroke-width: 0.1" d="M1.0801182 1.0801182L1.0801182 0.38468167L0.3846817 0.3846817L0.38468173 1.0801183Z"/>
<!-- (31, 0, 0) -->
<path style="fill: rgb(244, 244, 241); stroke: rgb(51, 51, 51); stroke-width: 0.1" d="M1.0801182 0.38468167L1.0801182 -0.3846817L0.3846817 -0.3846817L0.3846817 0.3846817Z"/>
<!-- (32, 0, 0) -->
<path style="fill: rgb(244, 244, 241); stroke: rgb(51, 51, 51); stroke-width: 0.1" d="M1.0801182 -0.3846817L1.0801182 -1.0801182L0.3846817 -1.0801182L0.3846817 -0.3846817Z"/>
<!-- (33, 0, 0) -->
<path style="fill: rgb(244, 244, 241); stroke: rgb(51, 51, 51); stroke-width: 0.1" d="M1.0801182 -1.0801182L1.0801182 -1.5648956L0.38468167 -1.5648956L0.3846817 -1.0801182Z"/>
<!-- (34, 0, 0) -->
<path style="fill: rgb(244, 244, 241); stroke: rgb(51, 51, 51); stroke-width: 0.1" d="M1.0801182 -1.5648956L1.0801182 -1.7389183L0.3846817 -1.7389183L0.38468167 -1.5648956Z"/>
<!-- (35, 0, 0) -->
<path style="fill: rgb(244, 244, 241); stroke: rgb(51, 51, 51); stroke-width: 0.1" d="M1.5648956 1.7389183L1.5648955 1.5648955L1.0801183 1.5648956L1.0801181 1.7389183Z"/>
<!-- (36, 0, 0) -->
<path style="fill: rgb(244, 244, 241); stroke: rgb(51, 51, 51); stroke-width: 0.1" d="M1.5648955 1.5648955L1.5648956 1.0801182L1.0801182 1.0801182L1.0801183 1.5648956Z"/>
<!-- (37, 0, 0) -->
<path style="fill: rgb(244, 244, 241); stroke: rgb(51, 51, 51); stroke-width: 0.1" d="M1.5648956 1.0801182L1.5648955 0.3846817L1.0801182 0.38468167L1.0801182 1.0801182Z"/>
<!-- (38, 0, 0) -->
<path style="fill: rgb(244, 244, 241); stroke: rgb(51, 51, 51); stroke-width: 0.1" d="M1.5648955 0.3846817L1.5648955 -0.3846817L1.0801182 -0.3846817L1.0801182 0.38468167Z"/>
<!-- (39, 0, 0) -->
<path style="fill: rgb(244, 244, 241); stroke: rgb(51, 51, 51); stroke-width: 0.1" d="M1.5648955 -0.3846817L1.5648957 -1.0801182L1.0801182 -1.0801182L1.0801182 -0.3846817Z"/>
<!-- (40, 0, 0) -->
<path style="fill: rgb(244, 244, 241); stroke: rgb(51, 51, 51); stroke-width: 0.1" d="M1.5648957 -1.0801182L1.5648956 -1.5648956L1.0801182 -1.5648956L1.0801182 -1.0801182Z"/>
<!-- (41, 0, 0) -->
<path style="fill: rgb(244, 244, 241); stroke: rgb(51, 51, 51); stroke-width: 0.1" d="M1.5648956 -1.5648956L1.5648956 -1.7389183L1.0801182 -1.7389183L1.0801182 -1.5648956Z"/>
<!-- (42, 0, 0) -->
<path style="fill: rgb(244, 244, 241); stroke: rgb(51, 51, 51); stroke-width: 0.1" d="M1.7389183 1.7389183L1.7389183 1.5648956L1.5648955 1.5648955L1.5648956 1.7389183Z"/>
<!-- (43, 0, 0) -->
<path style="fill: rgb(244, 244, 241); stroke: rgb(51, 51, 51); stroke-width: 0.1" d="M1.7389183 1.5648956L1.7389183 1.0801182L1.5648956 1.0801182L1.5648955 1.5648955Z"/>
<!-- (44, 0, 0) -->
<path style="fill: rgb(244, 244, 241); stroke: rgb(51, 51, 51); stroke-width: 0.1" d="M1.7389183 1.0801182L1.7389183 0.3846817L1.5648955 0.3846817L1.5648956 1.0801182Z"/>
<!-- (45, 0, 0) -->
<path style="fill: rgb(244, 244, 241); stroke: rgb(51, 51, 51); stroke-width: 0.1" d="M1.7389183 0.3846817L1.7389182 -0.3846817L1.5648955 -0.3846817L1.5648955 0.3846817Z"/>
<!-- (46, 0, 0) -->
<path style="fill: rgb(244, 244, 241); stroke: rgb(51, 51, 51); stroke-width: 0.1" d="M1.7389182 -0.3846817L1.7389183 -1.0801182L1.5648957 -1.0801182L1.5648955 -0.3846817Z"/>
<!-- (47, 0, 0) -->
<path style="fill: rgb(244, 244, 241); stroke: rgb(51, 51, 51); stroke-width: 0.1" d="M1.7389183 -1.0801182L1.7389183 -1.5648956L1.5648956 -1.5648956L1.5648957 -1.0801182Z"/>
<!-- (48, 0, 0) -->
<path style="fill: rgb(244, 244, 241); stroke: rgb(51, 51, 51); stroke-width: 0.1" d="M1.7389183 -1.5648956L1.7389183 -1.7389183L1.5648956 -1.7389183L1.5648956 -1.5648956Z"/>
</svg>
