<svg viewBox="-2 -2 4 4" xmlns="http://www.w3.org/2000/svg">
<style>
.cell-path {
                stroke-linejoin: round;
                fill: rgb(244, 244, 241);
                stroke: rgb(51, 51, 51);
                stroke-width: 0.1
            }
.dual .cell-path {
                fill: none;
                stroke: rgb(255, 0, 0);
                stroke-opacity: 0.5;
                stroke-width: 0.033333335
            }
</style>
<!-- (-3, 0, 3) -->
<path class="cell-path" d="M-2.1650634 0.25L-2.1650634 -0.25L-2.598076 -0.5L-3.0310888 -0.25L-3.0310888 0.25L-2.598076 0.5Z"/>
<!-- (-3, 1, 2) -->
<path class="cell-path" d="M-1.7320507 -0.5L-1.7320507 -1L-2.1650634 -1.25L-2.598076 -1L-2.598076 -0.5L-2.1650634 -0.25Z"/>
<!-- (-3, 2, 1) -->
<path class="cell-path" d="M-1.299038 -1.25L-1.299038 -1.75L-1.7320508 -2L-2.1650634 -1.75L-2.1650634 -1.25L-1.7320508 -1Z"/>
<!-- (-3, 3, 0) -->
<path class="cell-path" d="M-0.8660253 -2L-0.8660253 -2.5L-1.299038 -2.75L-1.7320508 -2.5L-1.7320508 -2L-1.299038 -1.75Z"/>
<!-- (-2, -1, 3) -->
<path class="cell-path" d="M-1.7320507 1L-1.7320507 0.5L-2.1650634 0.25L-2.598076 0.5L-2.598076 1L-2.1650634 1.25Z"/>
<!-- (-2, 0, 2) -->
<path class="cell-path" d="M-1.299038 0.25L-1.299038 -0.25L-1.7320508 -0.5L-2.1650634 -0.25L-2.1650634 0.25L-1.7320508 0.5Z"/>
<!-- (-2, 1, 1) -->
<path class="cell-path" d="M-0.8660253 -0.5L-0.8660253 -1L-1.299038 -1.25L-1.7320508 -1L-1.7320508 -0.5L-1.299038 -0.25Z"/>
<!-- (-2, 2, 0) -->
<path class="cell-path" d="M-0.4330127 -1.25L-0.4330127 -1.75L-0.8660254 -2L-1.299038 -1.75L-1.299038 -1.25L-0.8660254 -1Z"/>
<!-- (-2, 3, -1) -->
<path class="cell-path" d="M0 -2L0 -2.5L-0.4330127 -2.75L-0.8660254 -2.5L-0.8660254 -2L-0.4330127 -1.75Z"/>
<!-- (-1, -2, 3) -->
<path class="cell-path" d="M-1.299038 1.75L-1.299038 1.25L-1.7320508 1L-2.1650634 1.25L-2.1650634 1.75L-1.7320508 2Z"/>
<!-- (-1, -1, 2) -->
<path class="cell-path" d="M-0.8660253 1L-0.8660253 0.5L-1.299038 0.25L-1.7320508 0.5L-1.7320508 1L-1.299038 1.25Z"/>
<!-- (-1, 0, 1) -->
<path class="cell-path" d="M-0.4330127 0.25L-0.4330127 -0.25L-0.8660254 -0.5L-1.299038 -0.25L-1.299038 0.25L-0.8660254 0.5Z"/>
<!-- (-1, 1, 0) -->
<path class="cell-path" d="M0 -0.5L0 -1L-0.4330127 -1.25L-0.8660254 -1L-0.8660254 -0.5L-0.4330127 -0.25Z"/>
<!-- (-1, 2, -1) -->
<path class="cell-path" d="M0.4330127 -1.25L0.4330127 -1.75L0 -2L-0.4330127 -1.75L-0.4330127 -1.25L0 -1Z"/>
<!-- (-1, 3, -2) -->
<path class="cell-path" d="M0.8660254 -2L0.8660254 -2.5L0.4330127 -2.75L0 -2.5L0 -2L0.4330127 -1.75Z"/>
<!-- (0, -3, 3) -->
<path class="cell-path" d="M-0.8660253 2.5L-0.8660253 2L-1.299038 1.75L-1.7320508 2L-1.7320508 2.5L-1.299038 2.75Z"/>
<!-- (0, -2, 2) -->
<path class="cell-path" d="M-0.4330127 1.75L-0.4330127 1.25L-0.8660254 1L-1.299038 1.25L-1.299038 1.75L-0.8660254 2Z"/>
<!-- (0, -1, 1) -->
<path class="cell-path" d="M0 1L0 0.5L-0.4330127 0.25L-0.8660254 0.5L-0.8660254 1L-0.4330127 1.25Z"/>
<!-- (0, 0, 0) -->
<path class="cell-path" d="M0.4330127 0.25L0.4330127 -0.25L0 -0.5L-0.4330127 -0.25L-0.4330127 0.25L0 0.5Z"/>
<!-- (0, 1, -1) -->
<path class="cell-path" d="M0.8660254 -0.5L0.8660254 -1L0.4330127 -1.25L0 -1L0 -0.5L0.4330127 -0.25Z"/>
<!-- (0, 2, -2) -->
<path class="cell-path" d="M1.299038 -1.25L1.299038 -1.75L0.8660254 -2L0.4330127 -1.75L0.4330127 -1.25L0.8660254 -1Z"/>
<!-- (0, 3, -3) -->
<path class="cell-path" d="M1.7320508 -2L1.7320508 -2.5L1.299038 -2.75L0.8660253 -2.5L0.8660253 -2L1.299038 -1.75Z"/>
<!-- (1, -3, 2) -->
<path class="cell-path" d="M0 2.5L0 2L-0.4330127 1.75L-0.8660254 2L-0.8660254 2.5L-0.4330127 2.75Z"/>
<!-- (1, -2, 1) -->
<path class="cell-path" d="M0.4330127 1.75L0.4330127 1.25L0 1L-0.4330127 1.25L-0.4330127 1.75L0 2Z"/>
<!-- (1, -1, 0) -->
<path class="cell-path" d="M0.8660254 1L0.8660254 0.5L0.4330127 0.25L0 0.5L0 1L0.4330127 1.25Z"/>
<!-- (1, 0, -1) -->
<path class="cell-path" d="M1.299038 0.25L1.299038 -0.25L0.8660254 -0.5L0.4330127 -0.25L0.4330127 0.25L0.8660254 0.5Z"/>
<!-- (1, 1, -2) -->
<path class="cell-path" d="M1.7320508 -0.5L1.7320508 -1L1.299038 -1.25L0.8660253 -1L0.8660253 -0.5L1.299038 -0.25Z"/>
<!-- (1, 2, -3) -->
<path class="cell-path" d="M2.1650634 -1.25L2.1650634 -1.75L1.7320508 -2L1.299038 -1.75L1.299038 -1.25L1.7320508 -1Z"/>
<!-- (2, -3, 1) -->
<path class="cell-path" d="M0.8660254 2.5L0.8660254 2L0.4330127 1.75L0 2L0 2.5L0.4330127 2.75Z"/>
<!-- (2, -2, 0) -->
<path class="cell-path" d="M1.299038 1.75L1.299038 1.25L0.8660254 1L0.4330127 1.25L0.4330127 1.75L0.8660254 2Z"/>
<!-- (2, -1, -1) -->
<path class="cell-path" d="M1.7320508 1L1.7320508 0.5L1.299038 0.25L0.8660253 0.5L0.8660253 1L1.299038 1.25Z"/>
<!-- (2, 0, -2) -->
<path class="cell-path" d="M2.1650634 0.25L2.1650634 -0.25L1.7320508 -0.5L1.299038 -0.25L1.299038 0.25L1.7320508 0.5Z"/>
<!-- (2, 1, -3) -->
<path class="cell-path" d="M2.598076 -0.5L2.598076 -1L2.1650634 -1.25L1.7320507 -1L1.7320507 -0.5L2.1650634 -0.25Z"/>
<!-- (3, -3, 0) -->
<path class="cell-path" d="M1.7320508 2.5L1.7320508 2L1.299038 1.75L0.8660253 2L0.8660253 2.5L1.299038 2.75Z"/>
<!-- (3, -2, -1) -->
<path class="cell-path" d="M2.1650634 1.75L2.1650634 1.25L1.7320508 1L1.299038 1.25L1.299038 1.75L1.7320508 2Z"/>
<!-- (3, -1, -2) -->
<path class="cell-path" d="M2.598076 1L2.598076 0.5L2.1650634 0.25L1.7320507 0.5L1.7320507 1L2.1650634 1.25Z"/>
<!-- (3, 0, -3) -->
<path class="cell-path" d="M3.0310888 0.25L3.0310888 -0.25L2.598076 -0.5L2.1650634 -0.25L2.1650634 0.25L2.598076 0.5Z"/>
<g class="dual">
<!-- (-3, 0, 4) -->
<path class="cell-path" d="M-2.598076 2.9802322E-08L-3.4641016 2.9802322E-08L-3.0310888 0.75Z"/>
<!-- (-3, 1, 3) -->
<path class="cell-path" d="M-2.1650634 -0.75000006L-3.0310888 -0.75000006L-2.598076 -5.9604645E-08Z"/>
<!-- (-3, 1, 4) -->
<path class="cell-path" d="M-2.598076 -2.9802322E-08L-3.0310888 -0.75L-3.4641016 -2.9802322E-08Z"/>
<!-- (-3, 2, 2) -->
<path class="cell-path" d="M-1.7320507 -1.5L-2.598076 -1.5L-2.1650634 -0.75Z"/>
<!-- (-3, 2, 3) -->
<path class="cell-path" d="M-2.1650634 -0.7500001L-2.598076 -1.5000001L-3.0310888 -0.7500001Z"/>
<!-- (-3, 3, 1) -->
<path class="cell-path" d="M-1.299038 -2.25L-2.1650634 -2.25L-1.7320508 -1.5Z"/>
<!-- (-3, 3, 2) -->
<path class="cell-path" d="M-1.7320507 -1.5L-2.1650634 -2.25L-2.598076 -1.5Z"/>
<!-- (-3, 4, 0) -->
<path class="cell-path" d="M-0.8660253 -3L-1.7320508 -3L-1.299038 -2.25Z"/>
<!-- (-3, 4, 1) -->
<path class="cell-path" d="M-1.299038 -2.25L-1.7320508 -3L-2.1650634 -2.25Z"/>
<!-- (-2, -1, 4) -->
<path class="cell-path" d="M-2.1650634 0.75L-3.0310888 0.75L-2.598076 1.5Z"/>
<!-- (-2, 0, 3) -->
<path class="cell-path" d="M-1.7320507 -1.4901161E-08L-2.598076 -1.4901161E-08L-2.1650634 0.75Z"/>
<!-- (-2, 0, 4) -->
<path class="cell-path" d="M-2.1650634 0.75L-2.598076 0L-3.0310888 0.75Z"/>
<!-- (-2, 1, 2) -->
<path class="cell-path" d="M-1.299038 -0.75L-2.1650634 -0.75L-1.7320508 0Z"/>
<!-- (-2, 1, 3) -->
<path class="cell-path" d="M-1.7320507 -2.9802322E-08L-2.1650634 -0.75L-2.598076 -2.9802322E-08Z"/>
<!-- (-2, 2, 1) -->
<path class="cell-path" d="M-0.8660253 -1.5L-1.7320508 -1.5L-1.299038 -0.75Z"/>
<!-- (-2, 2, 2) -->
<path class="cell-path" d="M-1.299038 -0.74999994L-1.7320508 -1.5L-2.1650634 -0.74999994Z"/>
<!-- (-2, 3, 0) -->
<path class="cell-path" d="M-0.4330127 -2.25L-1.299038 -2.25L-0.8660254 -1.5Z"/>
<!-- (-2, 3, 1) -->
<path class="cell-path" d="M-0.8660253 -1.5000001L-1.299038 -2.25L-1.7320508 -1.5000001Z"/>
<!-- (-2, 4, -1) -->
<path class="cell-path" d="M0 -3L-0.8660254 -3L-0.4330127 -2.25Z"/>
<!-- (-2, 4, 0) -->
<path class="cell-path" d="M-0.4330127 -2.25L-0.8660254 -3L-1.299038 -2.25Z"/>
<!-- (-1, -2, 4) -->
<path class="cell-path" d="M-1.7320507 1.5000001L-2.598076 1.5000001L-2.1650634 2.25Z"/>
<!-- (-1, -1, 3) -->
<path class="cell-path" d="M-1.299038 0.75L-2.1650634 0.75L-1.7320508 1.5Z"/>
<!-- (-1, -1, 4) -->
<path class="cell-path" d="M-1.7320507 1.5L-2.1650634 0.75L-2.598076 1.5Z"/>
<!-- (-1, 0, 2) -->
<path class="cell-path" d="M-0.8660253 0L-1.7320508 0L-1.299038 0.75Z"/>
<!-- (-1, 0, 3) -->
<path class="cell-path" d="M-1.299038 0.75L-1.7320508 -2.9802322E-08L-2.1650634 0.75Z"/>
<!-- (-1, 1, 1) -->
<path class="cell-path" d="M-0.4330127 -0.75L-1.299038 -0.75L-0.8660254 2.9802322E-08Z"/>
<!-- (-1, 1, 2) -->
<path class="cell-path" d="M-0.8660253 1.4901161E-08L-1.299038 -0.75L-1.7320508 1.4901161E-08Z"/>
<!-- (-1, 2, 0) -->
<path class="cell-path" d="M0 -1.5L-0.8660254 -1.5L-0.4330127 -0.75Z"/>
<!-- (-1, 2, 1) -->
<path class="cell-path" d="M-0.4330127 -0.75L-0.8660254 -1.5L-1.299038 -0.75Z"/>
<!-- (-1, 3, -1) -->
<path class="cell-path" d="M0.4330127 -2.25L-0.4330127 -2.25L0 -1.4999999Z"/>
<!-- (-1, 3, 0) -->
<path class="cell-path" d="M0 -1.5L-0.4330127 -2.25L-0.8660254 -1.5Z"/>
<!-- (-1, 4, -2) -->
<path class="cell-path" d="M0.8660254 -3L0 -3L0.4330127 -2.25Z"/>
<!-- (-1, 4, -1) -->
<path class="cell-path" d="M0.4330127 -2.25L0 -3L-0.4330127 -2.25Z"/>
<!-- (0, -3, 4) -->
<path class="cell-path" d="M-1.299038 2.25L-2.1650634 2.25L-1.7320508 3Z"/>
<!-- (0, -2, 3) -->
<path class="cell-path" d="M-0.8660253 1.5000001L-1.7320508 1.5000001L-1.299038 2.25Z"/>
<!-- (0, -2, 4) -->
<path class="cell-path" d="M-1.299038 2.25L-1.7320508 1.5L-2.1650634 2.25Z"/>
<!-- (0, -1, 2) -->
<path class="cell-path" d="M-0.4330127 0.75L-1.299038 0.75L-0.8660254 1.5Z"/>
<!-- (0, -1, 3) -->
<path class="cell-path" d="M-0.8660253 1.5L-1.299038 0.75L-1.7320508 1.5Z"/>
<!-- (0, 0, 1) -->
<path class="cell-path" d="M0 0L-0.8660254 0L-0.4330127 0.75Z"/>
<!-- (0, 0, 2) -->
<path class="cell-path" d="M-0.4330127 0.75L-0.8660254 0L-1.299038 0.75Z"/>
<!-- (0, 1, 0) -->
<path class="cell-path" d="M0.4330127 -0.75L-0.4330127 -0.75L0 0Z"/>
<!-- (0, 1, 1) -->
<path class="cell-path" d="M0 0L-0.4330127 -0.75L-0.8660254 0Z"/>
<!-- (0, 2, -1) -->
<path class="cell-path" d="M0.8660254 -1.5L0 -1.5L0.4330127 -0.75Z"/>
<!-- (0, 2, 0) -->
<path class="cell-path" d="M0.4330127 -0.75L0 -1.5L-0.4330127 -0.75Z"/>
<!-- (0, 3, -2) -->
<path class="cell-path" d="M1.299038 -2.25L0.4330127 -2.25L0.8660254 -1.5Z"/>
<!-- (0, 3, -1) -->
<path class="cell-path" d="M0.8660254 -1.5L0.4330127 -2.25L0 -1.5Z"/>
<!-- (0, 4, -3) -->
<path class="cell-path" d="M1.7320508 -3L0.8660253 -3L1.299038 -2.25Z"/>
<!-- (0, 4, -2) -->
<path class="cell-path" d="M1.299038 -2.25L0.8660254 -3L0.4330127 -2.25Z"/>
<!-- (1, -3, 3) -->
<path class="cell-path" d="M-0.4330127 2.25L-1.299038 2.25L-0.8660254 3Z"/>
<!-- (1, -3, 4) -->
<path class="cell-path" d="M-0.8660253 3L-1.299038 2.25L-1.7320508 3Z"/>
<!-- (1, -2, 2) -->
<path class="cell-path" d="M0 1.5000001L-0.8660254 1.5000001L-0.4330127 2.25Z"/>
<!-- (1, -2, 3) -->
<path class="cell-path" d="M-0.4330127 2.25L-0.8660254 1.5L-1.299038 2.25Z"/>
<!-- (1, -1, 1) -->
<path class="cell-path" d="M0.4330127 0.75L-0.4330127 0.75L0 1.5Z"/>
<!-- (1, -1, 2) -->
<path class="cell-path" d="M0 1.5L-0.4330127 0.75L-0.8660254 1.5Z"/>
<!-- (1, 0, 0) -->
<path class="cell-path" d="M0.8660254 0L0 0L0.4330127 0.75Z"/>
<!-- (1, 0, 1) -->
<path class="cell-path" d="M0.4330127 0.75L0 0L-0.4330127 0.75Z"/>
<!-- (1, 1, -1) -->
<path class="cell-path" d="M1.299038 -0.75L0.4330127 -0.75L0.8660254 0Z"/>
<!-- (1, 1, 0) -->
<path class="cell-path" d="M0.8660254 0L0.4330127 -0.75L0 0Z"/>
<!-- (1, 2, -2) -->
<path class="cell-path" d="M1.7320508 -1.5L0.8660253 -1.5L1.299038 -0.75Z"/>
<!-- (1, 2, -1) -->
<path class="cell-path" d="M1.299038 -0.75L0.8660254 -1.5L0.4330127 -0.75Z"/>
<!-- (1, 3, -3) -->
<path class="cell-path" d="M2.1650634 -2.25L1.299038 -2.25L1.7320508 -1.4999999Z"/>
<!-- (1, 3, -2) -->
<path class="cell-path" d="M1.7320508 -1.5L1.299038 -2.25L0.8660253 -1.5Z"/>
<!-- (1, 4, -3) -->
<path class="cell-path" d="M2.1650634 -2.25L1.7320508 -3L1.299038 -2.25Z"/>
<!-- (2, -3, 2) -->
<path class="cell-path" d="M0.4330127 2.25L-0.4330127 2.25L0 3Z"/>
<!-- (2, -3, 3) -->
<path class="cell-path" d="M0 3L-0.4330127 2.25L-0.8660254 3Z"/>
<!-- (2, -2, 1) -->
<path class="cell-path" d="M0.8660254 1.5L0 1.5L0.4330127 2.25Z"/>
<!-- (2, -2, 2) -->
<path class="cell-path" d="M0.4330127 2.25L0 1.5L-0.4330127 2.25Z"/>
<!-- (2, -1, 0) -->
<path class="cell-path" d="M1.299038 0.75L0.4330127 0.75L0.8660254 1.5Z"/>
<!-- (2, -1, 1) -->
<path class="cell-path" d="M0.8660254 1.5L0.4330127 0.75L0 1.5Z"/>
<!-- (2, 0, -1) -->
<path class="cell-path" d="M1.7320508 0L0.8660253 0L1.299038 0.75Z"/>
<!-- (2, 0, 0) -->
<path class="cell-path" d="M1.299038 0.75L0.8660254 0L0.4330127 0.75Z"/>
<!-- (2, 1, -2) -->
<path class="cell-path" d="M2.1650634 -0.75L1.299038 -0.75L1.7320508 0Z"/>
<!-- (2, 1, -1) -->
<path class="cell-path" d="M1.7320508 0L1.299038 -0.75L0.8660253 0Z"/>
<!-- (2, 2, -3) -->
<path class="cell-path" d="M2.598076 -1.5L1.7320507 -1.5L2.1650634 -0.75Z"/>
<!-- (2, 2, -2) -->
<path class="cell-path" d="M2.1650634 -0.75L1.7320508 -1.5L1.299038 -0.75Z"/>
<!-- (2, 3, -3) -->
<path class="cell-path" d="M2.598076 -1.5L2.1650634 -2.25L1.7320507 -1.5Z"/>
<!-- (3, -3, 1) -->
<path class="cell-path" d="M1.299038 2.25L0.4330127 2.25L0.8660254 3Z"/>
<!-- (3, -3, 2) -->
<path class="cell-path" d="M0.8660254 3L0.4330127 2.25L0 3Z"/>
<!-- (3, -2, 0) -->
<path class="cell-path" d="M1.7320508 1.5000001L0.8660253 1.5000001L1.299038 2.25Z"/>
<!-- (3, -2, 1) -->
<path class="cell-path" d="M1.299038 2.25L0.8660254 1.5L0.4330127 2.25Z"/>
<!-- (3, -1, -1) -->
<path class="cell-path" d="M2.1650634 0.75L1.299038 0.75L1.7320508 1.5Z"/>
<!-- (3, -1, 0) -->
<path class="cell-path" d="M1.7320508 1.5L1.299038 0.75L0.8660253 1.5Z"/>
<!-- (3, 0, -2) -->
<path class="cell-path" d="M2.598076 -1.4901161E-08L1.7320507 -1.4901161E-08L2.1650634 0.75Z"/>
<!-- (3, 0, -1) -->
<path class="cell-path" d="M2.1650634 0.75L1.7320508 -2.9802322E-08L1.299038 0.75Z"/>
<!-- (3, 1, -3) -->
<path class="cell-path" d="M3.0310888 -0.75L2.1650634 -0.75L2.598076 0Z"/>
<!-- (3, 1, -2) -->
<path class="cell-path" d="M2.598076 -2.9802322E-08L2.1650634 -0.75L1.7320507 -2.9802322E-08Z"/>
<!-- (3, 2, -3) -->
<path class="cell-path" d="M3.0310888 -0.75L2.598076 -1.5L2.1650634 -0.75Z"/>
<!-- (4, -3, 0) -->
<path class="cell-path" d="M2.1650634 2.25L1.299038 2.25L1.7320508 3Z"/>
<!-- (4, -3, 1) -->
<path class="cell-path" d="M1.7320508 3L1.299038 2.25L0.8660253 3Z"/>
<!-- (4, -2, -1) -->
<path class="cell-path" d="M2.598076 1.5000001L1.7320507 1.5000001L2.1650634 2.25Z"/>
<!-- (4, -2, 0) -->
<path class="cell-path" d="M2.1650634 2.25L1.7320508 1.5L1.299038 2.25Z"/>
<!-- (4, -1, -2) -->
<path class="cell-path" d="M3.0310888 0.74999994L2.1650634 0.74999994L2.598076 1.5Z"/>
<!-- (4, -1, -1) -->
<path class="cell-path" d="M2.598076 1.5L2.1650634 0.75L1.7320507 1.5Z"/>
<!-- (4, 0, -3) -->
<path class="cell-path" d="M3.4641016 2.9802322E-08L2.598076 2.9802322E-08L3.0310888 0.75Z"/>
<!-- (4, 0, -2) -->
<path class="cell-path" d="M3.0310888 0.75L2.598076 0L2.1650634 0.75Z"/>
<!-- (4, 1, -3) -->
<path class="cell-path" d="M3.4641016 1.4901161E-08L3.0310888 -0.75L2.598076 1.4901161E-08Z"/>
</g>
</svg>
