<?xml version="1.0" encoding="UTF-8" standalone="no"?>
<svg
   xmlns:dc="http://purl.org/dc/elements/1.1/"
   xmlns:cc="http://creativecommons.org/ns#"
   xmlns:rdf="http://www.w3.org/1999/02/22-rdf-syntax-ns#"
   xmlns:svg="http://www.w3.org/2000/svg"
   xmlns="http://www.w3.org/2000/svg"
   xmlns:sodipodi="http://sodipodi.sourceforge.net/DTD/sodipodi-0.dtd"
   xmlns:inkscape="http://www.inkscape.org/namespaces/inkscape"
   viewBox="-2 -2 4 4"
   version="1.1"
   id="svg272"
   sodipodi:docname="hex_dual.svg"
   inkscape:export-filename="C:\Users\Adam\Documents\Programming\Programming 2022\Sylves\docs\images\duals\hex_dual.png"
   inkscape:export-xdpi="4800"
   inkscape:export-ydpi="4800"
   inkscape:version="1.0.1 (3bc2e813f5, 2020-09-07)">
  <metadata
     id="metadata278">
    <rdf:RDF>
      <cc:Work
         rdf:about="">
        <dc:format>image/svg+xml</dc:format>
        <dc:type
           rdf:resource="http://purl.org/dc/dcmitype/StillImage" />
      </cc:Work>
    </rdf:RDF>
  </metadata>
  <defs
     id="defs276" />
  <sodipodi:namedview
     pagecolor="#ffffff"
     bordercolor="#666666"
     borderopacity="1"
     objecttolerance="10"
     gridtolerance="10"
     guidetolerance="10"
     inkscape:pageopacity="0"
     inkscape:pageshadow="2"
     inkscape:window-width="2880"
     inkscape:window-height="1526"
     id="namedview274"
     showgrid="false"
     inkscape:zoom="256"
     inkscape:cx="2"
     inkscape:cy="2"
     inkscape:window-x="-11"
     inkscape:window-y="-11"
     inkscape:window-maximized="1"
     inkscape:current-layer="svg272" />
  <style
     id="style2">
.cell-path {
                stroke-linejoin: round;
                fill: rgb(244, 244, 241);
                stroke: rgb(51, 51, 51);
                stroke-width: 0.1
            }
.dual .cell-path {
                fill: none;
                stroke: rgb(255, 0, 0);
                stroke-opacity: 0.5;
                stroke-width: 0.033333335
            }
</style>
  <!-- (-3, 0, 3) -->
  <path
     class="cell-path"
     d="M-2.1650634 0.25L-2.1650634 -0.25L-2.598076 -0.5L-3.0310888 -0.25L-3.0310888 0.25L-2.598076 0.5Z"
     id="path4" />
  <!-- (-3, 1, 2) -->
  <path
     class="cell-path"
     d="M-1.7320507 -0.5L-1.7320507 -1L-2.1650634 -1.25L-2.598076 -1L-2.598076 -0.5L-2.1650634 -0.25Z"
     id="path6" />
  <!-- (-3, 2, 1) -->
  <path
     class="cell-path"
     d="M-1.299038 -1.25L-1.299038 -1.75L-1.7320508 -2L-2.1650634 -1.75L-2.1650634 -1.25L-1.7320508 -1Z"
     id="path8" />
  <!-- (-3, 3, 0) -->
  <path
     class="cell-path"
     d="M-0.8660253 -2L-0.8660253 -2.5L-1.299038 -2.75L-1.7320508 -2.5L-1.7320508 -2L-1.299038 -1.75Z"
     id="path10" />
  <!-- (-2, -1, 3) -->
  <path
     class="cell-path"
     d="M-1.7320507 1L-1.7320507 0.5L-2.1650634 0.25L-2.598076 0.5L-2.598076 1L-2.1650634 1.25Z"
     id="path12" />
  <!-- (-2, 0, 2) -->
  <path
     class="cell-path"
     d="M-1.299038 0.25L-1.299038 -0.25L-1.7320508 -0.5L-2.1650634 -0.25L-2.1650634 0.25L-1.7320508 0.5Z"
     id="path14" />
  <!-- (-2, 1, 1) -->
  <path
     class="cell-path"
     d="M-0.8660253 -0.5L-0.8660253 -1L-1.299038 -1.25L-1.7320508 -1L-1.7320508 -0.5L-1.299038 -0.25Z"
     id="path16" />
  <!-- (-2, 2, 0) -->
  <path
     class="cell-path"
     d="M-0.4330127 -1.25L-0.4330127 -1.75L-0.8660254 -2L-1.299038 -1.75L-1.299038 -1.25L-0.8660254 -1Z"
     id="path18" />
  <!-- (-2, 3, -1) -->
  <path
     class="cell-path"
     d="M0 -2L0 -2.5L-0.4330127 -2.75L-0.8660254 -2.5L-0.8660254 -2L-0.4330127 -1.75Z"
     id="path20" />
  <!-- (-1, -2, 3) -->
  <path
     class="cell-path"
     d="M-1.299038 1.75L-1.299038 1.25L-1.7320508 1L-2.1650634 1.25L-2.1650634 1.75L-1.7320508 2Z"
     id="path22" />
  <!-- (-1, -1, 2) -->
  <path
     class="cell-path"
     d="M-0.8660253 1L-0.8660253 0.5L-1.299038 0.25L-1.7320508 0.5L-1.7320508 1L-1.299038 1.25Z"
     id="path24" />
  <!-- (-1, 0, 1) -->
  <path
     class="cell-path"
     d="M-0.4330127 0.25L-0.4330127 -0.25L-0.8660254 -0.5L-1.299038 -0.25L-1.299038 0.25L-0.8660254 0.5Z"
     id="path26" />
  <!-- (-1, 1, 0) -->
  <path
     class="cell-path"
     d="M0 -0.5L0 -1L-0.4330127 -1.25L-0.8660254 -1L-0.8660254 -0.5L-0.4330127 -0.25Z"
     id="path28" />
  <!-- (-1, 2, -1) -->
  <path
     class="cell-path"
     d="M0.4330127 -1.25L0.4330127 -1.75L0 -2L-0.4330127 -1.75L-0.4330127 -1.25L0 -1Z"
     id="path30" />
  <!-- (-1, 3, -2) -->
  <path
     class="cell-path"
     d="M0.8660254 -2L0.8660254 -2.5L0.4330127 -2.75L0 -2.5L0 -2L0.4330127 -1.75Z"
     id="path32" />
  <!-- (0, -3, 3) -->
  <path
     class="cell-path"
     d="M-0.8660253 2.5L-0.8660253 2L-1.299038 1.75L-1.7320508 2L-1.7320508 2.5L-1.299038 2.75Z"
     id="path34" />
  <!-- (0, -2, 2) -->
  <path
     class="cell-path"
     d="M-0.4330127 1.75L-0.4330127 1.25L-0.8660254 1L-1.299038 1.25L-1.299038 1.75L-0.8660254 2Z"
     id="path36" />
  <!-- (0, -1, 1) -->
  <path
     class="cell-path"
     d="M0 1L0 0.5L-0.4330127 0.25L-0.8660254 0.5L-0.8660254 1L-0.4330127 1.25Z"
     id="path38" />
  <!-- (0, 0, 0) -->
  <path
     class="cell-path"
     d="M0.4330127 0.25L0.4330127 -0.25L0 -0.5L-0.4330127 -0.25L-0.4330127 0.25L0 0.5Z"
     id="path40" />
  <!-- (0, 1, -1) -->
  <path
     class="cell-path"
     d="M0.8660254 -0.5L0.8660254 -1L0.4330127 -1.25L0 -1L0 -0.5L0.4330127 -0.25Z"
     id="path42" />
  <!-- (0, 2, -2) -->
  <path
     class="cell-path"
     d="M1.299038 -1.25L1.299038 -1.75L0.8660254 -2L0.4330127 -1.75L0.4330127 -1.25L0.8660254 -1Z"
     id="path44" />
  <!-- (0, 3, -3) -->
  <path
     class="cell-path"
     d="M1.7320508 -2L1.7320508 -2.5L1.299038 -2.75L0.8660253 -2.5L0.8660253 -2L1.299038 -1.75Z"
     id="path46" />
  <!-- (1, -3, 2) -->
  <path
     class="cell-path"
     d="M0 2.5L0 2L-0.4330127 1.75L-0.8660254 2L-0.8660254 2.5L-0.4330127 2.75Z"
     id="path48" />
  <!-- (1, -2, 1) -->
  <path
     class="cell-path"
     d="M0.4330127 1.75L0.4330127 1.25L0 1L-0.4330127 1.25L-0.4330127 1.75L0 2Z"
     id="path50" />
  <!-- (1, -1, 0) -->
  <path
     class="cell-path"
     d="M0.8660254 1L0.8660254 0.5L0.4330127 0.25L0 0.5L0 1L0.4330127 1.25Z"
     id="path52" />
  <!-- (1, 0, -1) -->
  <path
     class="cell-path"
     d="M1.299038 0.25L1.299038 -0.25L0.8660254 -0.5L0.4330127 -0.25L0.4330127 0.25L0.8660254 0.5Z"
     id="path54" />
  <!-- (1, 1, -2) -->
  <path
     class="cell-path"
     d="M1.7320508 -0.5L1.7320508 -1L1.299038 -1.25L0.8660253 -1L0.8660253 -0.5L1.299038 -0.25Z"
     id="path56" />
  <!-- (1, 2, -3) -->
  <path
     class="cell-path"
     d="M2.1650634 -1.25L2.1650634 -1.75L1.7320508 -2L1.299038 -1.75L1.299038 -1.25L1.7320508 -1Z"
     id="path58" />
  <!-- (2, -3, 1) -->
  <path
     class="cell-path"
     d="M0.8660254 2.5L0.8660254 2L0.4330127 1.75L0 2L0 2.5L0.4330127 2.75Z"
     id="path60" />
  <!-- (2, -2, 0) -->
  <path
     class="cell-path"
     d="M1.299038 1.75L1.299038 1.25L0.8660254 1L0.4330127 1.25L0.4330127 1.75L0.8660254 2Z"
     id="path62" />
  <!-- (2, -1, -1) -->
  <path
     class="cell-path"
     d="M1.7320508 1L1.7320508 0.5L1.299038 0.25L0.8660253 0.5L0.8660253 1L1.299038 1.25Z"
     id="path64" />
  <!-- (2, 0, -2) -->
  <path
     class="cell-path"
     d="M2.1650634 0.25L2.1650634 -0.25L1.7320508 -0.5L1.299038 -0.25L1.299038 0.25L1.7320508 0.5Z"
     id="path66" />
  <!-- (2, 1, -3) -->
  <path
     class="cell-path"
     d="M2.598076 -0.5L2.598076 -1L2.1650634 -1.25L1.7320507 -1L1.7320507 -0.5L2.1650634 -0.25Z"
     id="path68" />
  <!-- (3, -3, 0) -->
  <path
     class="cell-path"
     d="M1.7320508 2.5L1.7320508 2L1.299038 1.75L0.8660253 2L0.8660253 2.5L1.299038 2.75Z"
     id="path70" />
  <!-- (3, -2, -1) -->
  <path
     class="cell-path"
     d="M2.1650634 1.75L2.1650634 1.25L1.7320508 1L1.299038 1.25L1.299038 1.75L1.7320508 2Z"
     id="path72" />
  <!-- (3, -1, -2) -->
  <path
     class="cell-path"
     d="M2.598076 1L2.598076 0.5L2.1650634 0.25L1.7320507 0.5L1.7320507 1L2.1650634 1.25Z"
     id="path74" />
  <!-- (3, 0, -3) -->
  <path
     class="cell-path"
     d="M3.0310888 0.25L3.0310888 -0.25L2.598076 -0.5L2.1650634 -0.25L2.1650634 0.25L2.598076 0.5Z"
     id="path76" />
  <g
     class="dual"
     id="g270">
    <!-- (-3, 0, 4) -->
    <path
       class="cell-path"
       d="M-2.598076 2.9802322E-08L-3.4641016 2.9802322E-08L-3.0310888 0.75Z"
       id="path78" />
    <!-- (-3, 1, 3) -->
    <path
       class="cell-path"
       d="M-2.1650634 -0.75000006L-3.0310888 -0.75000006L-2.598076 -5.9604645E-08Z"
       id="path80" />
    <!-- (-3, 1, 4) -->
    <path
       class="cell-path"
       d="M-2.598076 -2.9802322E-08L-3.0310888 -0.75L-3.4641016 -2.9802322E-08Z"
       id="path82" />
    <!-- (-3, 2, 2) -->
    <path
       class="cell-path"
       d="M-1.7320507 -1.5L-2.598076 -1.5L-2.1650634 -0.75Z"
       id="path84" />
    <!-- (-3, 2, 3) -->
    <path
       class="cell-path"
       d="M-2.1650634 -0.7500001L-2.598076 -1.5000001L-3.0310888 -0.7500001Z"
       id="path86" />
    <!-- (-3, 3, 1) -->
    <path
       class="cell-path"
       d="M-1.299038 -2.25L-2.1650634 -2.25L-1.7320508 -1.5Z"
       id="path88" />
    <!-- (-3, 3, 2) -->
    <path
       class="cell-path"
       d="M-1.7320507 -1.5L-2.1650634 -2.25L-2.598076 -1.5Z"
       id="path90" />
    <!-- (-3, 4, 0) -->
    <path
       class="cell-path"
       d="M-0.8660253 -3L-1.7320508 -3L-1.299038 -2.25Z"
       id="path92" />
    <!-- (-3, 4, 1) -->
    <path
       class="cell-path"
       d="M-1.299038 -2.25L-1.7320508 -3L-2.1650634 -2.25Z"
       id="path94" />
    <!-- (-2, -1, 4) -->
    <path
       class="cell-path"
       d="M-2.1650634 0.75L-3.0310888 0.75L-2.598076 1.5Z"
       id="path96" />
    <!-- (-2, 0, 3) -->
    <path
       class="cell-path"
       d="M-1.7320507 -1.4901161E-08L-2.598076 -1.4901161E-08L-2.1650634 0.75Z"
       id="path98" />
    <!-- (-2, 0, 4) -->
    <path
       class="cell-path"
       d="M-2.1650634 0.75L-2.598076 0L-3.0310888 0.75Z"
       id="path100" />
    <!-- (-2, 1, 2) -->
    <path
       class="cell-path"
       d="M-1.299038 -0.75L-2.1650634 -0.75L-1.7320508 0Z"
       id="path102" />
    <!-- (-2, 1, 3) -->
    <path
       class="cell-path"
       d="M-1.7320507 -2.9802322E-08L-2.1650634 -0.75L-2.598076 -2.9802322E-08Z"
       id="path104" />
    <!-- (-2, 2, 1) -->
    <path
       class="cell-path"
       d="M-0.8660253 -1.5L-1.7320508 -1.5L-1.299038 -0.75Z"
       id="path106" />
    <!-- (-2, 2, 2) -->
    <path
       class="cell-path"
       d="M-1.299038 -0.74999994L-1.7320508 -1.5L-2.1650634 -0.74999994Z"
       id="path108" />
    <!-- (-2, 3, 0) -->
    <path
       class="cell-path"
       d="M-0.4330127 -2.25L-1.299038 -2.25L-0.8660254 -1.5Z"
       id="path110" />
    <!-- (-2, 3, 1) -->
    <path
       class="cell-path"
       d="M-0.8660253 -1.5000001L-1.299038 -2.25L-1.7320508 -1.5000001Z"
       id="path112" />
    <!-- (-2, 4, -1) -->
    <path
       class="cell-path"
       d="M0 -3L-0.8660254 -3L-0.4330127 -2.25Z"
       id="path114" />
    <!-- (-2, 4, 0) -->
    <path
       class="cell-path"
       d="M-0.4330127 -2.25L-0.8660254 -3L-1.299038 -2.25Z"
       id="path116" />
    <!-- (-1, -2, 4) -->
    <path
       class="cell-path"
       d="M-1.7320507 1.5000001L-2.598076 1.5000001L-2.1650634 2.25Z"
       id="path118" />
    <!-- (-1, -1, 3) -->
    <path
       class="cell-path"
       d="M-1.299038 0.75L-2.1650634 0.75L-1.7320508 1.5Z"
       id="path120" />
    <!-- (-1, -1, 4) -->
    <path
       class="cell-path"
       d="M-1.7320507 1.5L-2.1650634 0.75L-2.598076 1.5Z"
       id="path122" />
    <!-- (-1, 0, 2) -->
    <path
       class="cell-path"
       d="M-0.8660253 0L-1.7320508 0L-1.299038 0.75Z"
       id="path124" />
    <!-- (-1, 0, 3) -->
    <path
       class="cell-path"
       d="M-1.299038 0.75L-1.7320508 -2.9802322E-08L-2.1650634 0.75Z"
       id="path126" />
    <!-- (-1, 1, 1) -->
    <path
       class="cell-path"
       d="M-0.4330127 -0.75L-1.299038 -0.75L-0.8660254 2.9802322E-08Z"
       id="path128" />
    <!-- (-1, 1, 2) -->
    <path
       class="cell-path"
       d="M-0.8660253 1.4901161E-08L-1.299038 -0.75L-1.7320508 1.4901161E-08Z"
       id="path130" />
    <!-- (-1, 2, 0) -->
    <path
       class="cell-path"
       d="M0 -1.5L-0.8660254 -1.5L-0.4330127 -0.75Z"
       id="path132" />
    <!-- (-1, 2, 1) -->
    <path
       class="cell-path"
       d="M-0.4330127 -0.75L-0.8660254 -1.5L-1.299038 -0.75Z"
       id="path134" />
    <!-- (-1, 3, -1) -->
    <path
       class="cell-path"
       d="M0.4330127 -2.25L-0.4330127 -2.25L0 -1.4999999Z"
       id="path136" />
    <!-- (-1, 3, 0) -->
    <path
       class="cell-path"
       d="M0 -1.5L-0.4330127 -2.25L-0.8660254 -1.5Z"
       id="path138" />
    <!-- (-1, 4, -2) -->
    <path
       class="cell-path"
       d="M0.8660254 -3L0 -3L0.4330127 -2.25Z"
       id="path140" />
    <!-- (-1, 4, -1) -->
    <path
       class="cell-path"
       d="M0.4330127 -2.25L0 -3L-0.4330127 -2.25Z"
       id="path142" />
    <!-- (0, -3, 4) -->
    <path
       class="cell-path"
       d="M-1.299038 2.25L-2.1650634 2.25L-1.7320508 3Z"
       id="path144" />
    <!-- (0, -2, 3) -->
    <path
       class="cell-path"
       d="M-0.8660253 1.5000001L-1.7320508 1.5000001L-1.299038 2.25Z"
       id="path146" />
    <!-- (0, -2, 4) -->
    <path
       class="cell-path"
       d="M-1.299038 2.25L-1.7320508 1.5L-2.1650634 2.25Z"
       id="path148" />
    <!-- (0, -1, 2) -->
    <path
       class="cell-path"
       d="M-0.4330127 0.75L-1.299038 0.75L-0.8660254 1.5Z"
       id="path150" />
    <!-- (0, -1, 3) -->
    <path
       class="cell-path"
       d="M-0.8660253 1.5L-1.299038 0.75L-1.7320508 1.5Z"
       id="path152" />
    <!-- (0, 0, 1) -->
    <path
       class="cell-path"
       d="M0 0L-0.8660254 0L-0.4330127 0.75Z"
       id="path154" />
    <!-- (0, 0, 2) -->
    <path
       class="cell-path"
       d="M-0.4330127 0.75L-0.8660254 0L-1.299038 0.75Z"
       id="path156" />
    <!-- (0, 1, 0) -->
    <path
       class="cell-path"
       d="M0.4330127 -0.75L-0.4330127 -0.75L0 0Z"
       id="path158" />
    <!-- (0, 1, 1) -->
    <path
       class="cell-path"
       d="M0 0L-0.4330127 -0.75L-0.8660254 0Z"
       id="path160" />
    <!-- (0, 2, -1) -->
    <path
       class="cell-path"
       d="M0.8660254 -1.5L0 -1.5L0.4330127 -0.75Z"
       id="path162" />
    <!-- (0, 2, 0) -->
    <path
       class="cell-path"
       d="M0.4330127 -0.75L0 -1.5L-0.4330127 -0.75Z"
       id="path164" />
    <!-- (0, 3, -2) -->
    <path
       class="cell-path"
       d="M1.299038 -2.25L0.4330127 -2.25L0.8660254 -1.5Z"
       id="path166" />
    <!-- (0, 3, -1) -->
    <path
       class="cell-path"
       d="M0.8660254 -1.5L0.4330127 -2.25L0 -1.5Z"
       id="path168" />
    <!-- (0, 4, -3) -->
    <path
       class="cell-path"
       d="M1.7320508 -3L0.8660253 -3L1.299038 -2.25Z"
       id="path170" />
    <!-- (0, 4, -2) -->
    <path
       class="cell-path"
       d="M1.299038 -2.25L0.8660254 -3L0.4330127 -2.25Z"
       id="path172" />
    <!-- (1, -3, 3) -->
    <path
       class="cell-path"
       d="M-0.4330127 2.25L-1.299038 2.25L-0.8660254 3Z"
       id="path174" />
    <!-- (1, -3, 4) -->
    <path
       class="cell-path"
       d="M-0.8660253 3L-1.299038 2.25L-1.7320508 3Z"
       id="path176" />
    <!-- (1, -2, 2) -->
    <path
       class="cell-path"
       d="M0 1.5000001L-0.8660254 1.5000001L-0.4330127 2.25Z"
       id="path178" />
    <!-- (1, -2, 3) -->
    <path
       class="cell-path"
       d="M-0.4330127 2.25L-0.8660254 1.5L-1.299038 2.25Z"
       id="path180" />
    <!-- (1, -1, 1) -->
    <path
       class="cell-path"
       d="M0.4330127 0.75L-0.4330127 0.75L0 1.5Z"
       id="path182" />
    <!-- (1, -1, 2) -->
    <path
       class="cell-path"
       d="M0 1.5L-0.4330127 0.75L-0.8660254 1.5Z"
       id="path184" />
    <!-- (1, 0, 0) -->
    <path
       class="cell-path"
       d="M0.8660254 0L0 0L0.4330127 0.75Z"
       id="path186" />
    <!-- (1, 0, 1) -->
    <path
       class="cell-path"
       d="M0.4330127 0.75L0 0L-0.4330127 0.75Z"
       id="path188" />
    <!-- (1, 1, -1) -->
    <path
       class="cell-path"
       d="M1.299038 -0.75L0.4330127 -0.75L0.8660254 0Z"
       id="path190" />
    <!-- (1, 1, 0) -->
    <path
       class="cell-path"
       d="M0.8660254 0L0.4330127 -0.75L0 0Z"
       id="path192" />
    <!-- (1, 2, -2) -->
    <path
       class="cell-path"
       d="M1.7320508 -1.5L0.8660253 -1.5L1.299038 -0.75Z"
       id="path194" />
    <!-- (1, 2, -1) -->
    <path
       class="cell-path"
       d="M1.299038 -0.75L0.8660254 -1.5L0.4330127 -0.75Z"
       id="path196" />
    <!-- (1, 3, -3) -->
    <path
       class="cell-path"
       d="M2.1650634 -2.25L1.299038 -2.25L1.7320508 -1.4999999Z"
       id="path198" />
    <!-- (1, 3, -2) -->
    <path
       class="cell-path"
       d="M1.7320508 -1.5L1.299038 -2.25L0.8660253 -1.5Z"
       id="path200" />
    <!-- (1, 4, -3) -->
    <path
       class="cell-path"
       d="M2.1650634 -2.25L1.7320508 -3L1.299038 -2.25Z"
       id="path202" />
    <!-- (2, -3, 2) -->
    <path
       class="cell-path"
       d="M0.4330127 2.25L-0.4330127 2.25L0 3Z"
       id="path204" />
    <!-- (2, -3, 3) -->
    <path
       class="cell-path"
       d="M0 3L-0.4330127 2.25L-0.8660254 3Z"
       id="path206" />
    <!-- (2, -2, 1) -->
    <path
       class="cell-path"
       d="M0.8660254 1.5L0 1.5L0.4330127 2.25Z"
       id="path208" />
    <!-- (2, -2, 2) -->
    <path
       class="cell-path"
       d="M0.4330127 2.25L0 1.5L-0.4330127 2.25Z"
       id="path210" />
    <!-- (2, -1, 0) -->
    <path
       class="cell-path"
       d="M1.299038 0.75L0.4330127 0.75L0.8660254 1.5Z"
       id="path212" />
    <!-- (2, -1, 1) -->
    <path
       class="cell-path"
       d="M0.8660254 1.5L0.4330127 0.75L0 1.5Z"
       id="path214" />
    <!-- (2, 0, -1) -->
    <path
       class="cell-path"
       d="M1.7320508 0L0.8660253 0L1.299038 0.75Z"
       id="path216" />
    <!-- (2, 0, 0) -->
    <path
       class="cell-path"
       d="M1.299038 0.75L0.8660254 0L0.4330127 0.75Z"
       id="path218" />
    <!-- (2, 1, -2) -->
    <path
       class="cell-path"
       d="M2.1650634 -0.75L1.299038 -0.75L1.7320508 0Z"
       id="path220" />
    <!-- (2, 1, -1) -->
    <path
       class="cell-path"
       d="M1.7320508 0L1.299038 -0.75L0.8660253 0Z"
       id="path222" />
    <!-- (2, 2, -3) -->
    <path
       class="cell-path"
       d="M2.598076 -1.5L1.7320507 -1.5L2.1650634 -0.75Z"
       id="path224" />
    <!-- (2, 2, -2) -->
    <path
       class="cell-path"
       d="M2.1650634 -0.75L1.7320508 -1.5L1.299038 -0.75Z"
       id="path226" />
    <!-- (2, 3, -3) -->
    <path
       class="cell-path"
       d="M2.598076 -1.5L2.1650634 -2.25L1.7320507 -1.5Z"
       id="path228" />
    <!-- (3, -3, 1) -->
    <path
       class="cell-path"
       d="M1.299038 2.25L0.4330127 2.25L0.8660254 3Z"
       id="path230" />
    <!-- (3, -3, 2) -->
    <path
       class="cell-path"
       d="M0.8660254 3L0.4330127 2.25L0 3Z"
       id="path232" />
    <!-- (3, -2, 0) -->
    <path
       class="cell-path"
       d="M1.7320508 1.5000001L0.8660253 1.5000001L1.299038 2.25Z"
       id="path234" />
    <!-- (3, -2, 1) -->
    <path
       class="cell-path"
       d="M1.299038 2.25L0.8660254 1.5L0.4330127 2.25Z"
       id="path236" />
    <!-- (3, -1, -1) -->
    <path
       class="cell-path"
       d="M2.1650634 0.75L1.299038 0.75L1.7320508 1.5Z"
       id="path238" />
    <!-- (3, -1, 0) -->
    <path
       class="cell-path"
       d="M1.7320508 1.5L1.299038 0.75L0.8660253 1.5Z"
       id="path240" />
    <!-- (3, 0, -2) -->
    <path
       class="cell-path"
       d="M2.598076 -1.4901161E-08L1.7320507 -1.4901161E-08L2.1650634 0.75Z"
       id="path242" />
    <!-- (3, 0, -1) -->
    <path
       class="cell-path"
       d="M2.1650634 0.75L1.7320508 -2.9802322E-08L1.299038 0.75Z"
       id="path244" />
    <!-- (3, 1, -3) -->
    <path
       class="cell-path"
       d="M3.0310888 -0.75L2.1650634 -0.75L2.598076 0Z"
       id="path246" />
    <!-- (3, 1, -2) -->
    <path
       class="cell-path"
       d="M2.598076 -2.9802322E-08L2.1650634 -0.75L1.7320507 -2.9802322E-08Z"
       id="path248" />
    <!-- (3, 2, -3) -->
    <path
       class="cell-path"
       d="M3.0310888 -0.75L2.598076 -1.5L2.1650634 -0.75Z"
       id="path250" />
    <!-- (4, -3, 0) -->
    <path
       class="cell-path"
       d="M2.1650634 2.25L1.299038 2.25L1.7320508 3Z"
       id="path252" />
    <!-- (4, -3, 1) -->
    <path
       class="cell-path"
       d="M1.7320508 3L1.299038 2.25L0.8660253 3Z"
       id="path254" />
    <!-- (4, -2, -1) -->
    <path
       class="cell-path"
       d="M2.598076 1.5000001L1.7320507 1.5000001L2.1650634 2.25Z"
       id="path256" />
    <!-- (4, -2, 0) -->
    <path
       class="cell-path"
       d="M2.1650634 2.25L1.7320508 1.5L1.299038 2.25Z"
       id="path258" />
    <!-- (4, -1, -2) -->
    <path
       class="cell-path"
       d="M3.0310888 0.74999994L2.1650634 0.74999994L2.598076 1.5Z"
       id="path260" />
    <!-- (4, -1, -1) -->
    <path
       class="cell-path"
       d="M2.598076 1.5L2.1650634 0.75L1.7320507 1.5Z"
       id="path262" />
    <!-- (4, 0, -3) -->
    <path
       class="cell-path"
       d="M3.4641016 2.9802322E-08L2.598076 2.9802322E-08L3.0310888 0.75Z"
       id="path264" />
    <!-- (4, 0, -2) -->
    <path
       class="cell-path"
       d="M3.0310888 0.75L2.598076 0L2.1650634 0.75Z"
       id="path266" />
    <!-- (4, 1, -3) -->
    <path
       class="cell-path"
       d="M3.4641016 1.4901161E-08L3.0310888 -0.75L2.598076 1.4901161E-08Z"
       id="path268" />
  </g>
</svg>
