<svg viewBox="-2 -2 4 4" xmlns="http://www.w3.org/2000/svg">
<style>
.cell-path {
                stroke-linejoin: round;
                fill: rgb(244, 244, 241);
                stroke: rgb(51, 51, 51);
                stroke-width: 0.1
            }
.dual .cell-path {
                fill: none;
                stroke: rgb(255, 0, 0);
                stroke-opacity: 0.5;
                stroke-width: 0.033333335
            }
</style>
<!-- (-3, -3, 0) -->
<path class="cell-path" d="M-2 3L-2 2L-3 2L-3 3Z"/>
<!-- (-3, -2, 0) -->
<path class="cell-path" d="M-2 2L-2 1L-3 1L-3 2Z"/>
<!-- (-3, -1, 0) -->
<path class="cell-path" d="M-2 1L-2 0L-3 0L-3 1Z"/>
<!-- (-3, 0, 0) -->
<path class="cell-path" d="M-2 0L-2 -1L-3 -1L-3 0Z"/>
<!-- (-3, 1, 0) -->
<path class="cell-path" d="M-2 -1L-2 -2L-3 -2L-3 -1Z"/>
<!-- (-3, 2, 0) -->
<path class="cell-path" d="M-2 -2L-2 -3L-3 -3L-3 -2Z"/>
<!-- (-2, -3, 0) -->
<path class="cell-path" d="M-1 3L-1 2L-2 2L-2 3Z"/>
<!-- (-2, -2, 0) -->
<path class="cell-path" d="M-1 2L-1 1L-2 1L-2 2Z"/>
<!-- (-2, -1, 0) -->
<path class="cell-path" d="M-1 1L-1 0L-2 0L-2 1Z"/>
<!-- (-2, 0, 0) -->
<path class="cell-path" d="M-1 0L-1 -1L-2 -1L-2 0Z"/>
<!-- (-2, 1, 0) -->
<path class="cell-path" d="M-1 -1L-1 -2L-2 -2L-2 -1Z"/>
<!-- (-2, 2, 0) -->
<path class="cell-path" d="M-1 -2L-1 -3L-2 -3L-2 -2Z"/>
<!-- (-1, -3, 0) -->
<path class="cell-path" d="M0 3L0 2L-1 2L-1 3Z"/>
<!-- (-1, -2, 0) -->
<path class="cell-path" d="M0 2L0 1L-1 1L-1 2Z"/>
<!-- (-1, -1, 0) -->
<path class="cell-path" d="M0 1L0 0L-1 0L-1 1Z"/>
<!-- (-1, 0, 0) -->
<path class="cell-path" d="M0 0L0 -1L-1 -1L-1 0Z"/>
<!-- (-1, 1, 0) -->
<path class="cell-path" d="M0 -1L0 -2L-1 -2L-1 -1Z"/>
<!-- (-1, 2, 0) -->
<path class="cell-path" d="M0 -2L0 -3L-1 -3L-1 -2Z"/>
<!-- (0, -3, 0) -->
<path class="cell-path" d="M1 3L1 2L0 2L0 3Z"/>
<!-- (0, -2, 0) -->
<path class="cell-path" d="M1 2L1 1L0 1L0 2Z"/>
<!-- (0, -1, 0) -->
<path class="cell-path" d="M1 1L1 0L0 0L0 1Z"/>
<!-- (0, 0, 0) -->
<path class="cell-path" d="M1 0L1 -1L0 -1L0 0Z"/>
<!-- (0, 1, 0) -->
<path class="cell-path" d="M1 -1L1 -2L0 -2L0 -1Z"/>
<!-- (0, 2, 0) -->
<path class="cell-path" d="M1 -2L1 -3L0 -3L0 -2Z"/>
<!-- (1, -3, 0) -->
<path class="cell-path" d="M2 3L2 2L1 2L1 3Z"/>
<!-- (1, -2, 0) -->
<path class="cell-path" d="M2 2L2 1L1 1L1 2Z"/>
<!-- (1, -1, 0) -->
<path class="cell-path" d="M2 1L2 0L1 0L1 1Z"/>
<!-- (1, 0, 0) -->
<path class="cell-path" d="M2 0L2 -1L1 -1L1 0Z"/>
<!-- (1, 1, 0) -->
<path class="cell-path" d="M2 -1L2 -2L1 -2L1 -1Z"/>
<!-- (1, 2, 0) -->
<path class="cell-path" d="M2 -2L2 -3L1 -3L1 -2Z"/>
<!-- (2, -3, 0) -->
<path class="cell-path" d="M3 3L3 2L2 2L2 3Z"/>
<!-- (2, -2, 0) -->
<path class="cell-path" d="M3 2L3 1L2 1L2 2Z"/>
<!-- (2, -1, 0) -->
<path class="cell-path" d="M3 1L3 0L2 0L2 1Z"/>
<!-- (2, 0, 0) -->
<path class="cell-path" d="M3 0L3 -1L2 -1L2 0Z"/>
<!-- (2, 1, 0) -->
<path class="cell-path" d="M3 -1L3 -2L2 -2L2 -1Z"/>
<!-- (2, 2, 0) -->
<path class="cell-path" d="M3 -2L3 -3L2 -3L2 -2Z"/>
<g class="dual">
<!-- (-3, -3, 0) -->
<path class="cell-path" d="M-2.5 3.5L-2.5 2.5L-3.5 2.5L-3.5 3.5Z"/>
<!-- (-3, -2, 0) -->
<path class="cell-path" d="M-2.5 2.5L-2.5 1.5L-3.5 1.5L-3.5 2.5Z"/>
<!-- (-3, -1, 0) -->
<path class="cell-path" d="M-2.5 1.5L-2.5 0.5L-3.5 0.5L-3.5 1.5Z"/>
<!-- (-3, 0, 0) -->
<path class="cell-path" d="M-2.5 0.5L-2.5 -0.5L-3.5 -0.5L-3.5 0.5Z"/>
<!-- (-3, 1, 0) -->
<path class="cell-path" d="M-2.5 -0.5L-2.5 -1.5L-3.5 -1.5L-3.5 -0.5Z"/>
<!-- (-3, 2, 0) -->
<path class="cell-path" d="M-2.5 -1.5L-2.5 -2.5L-3.5 -2.5L-3.5 -1.5Z"/>
<!-- (-3, 3, 0) -->
<path class="cell-path" d="M-2.5 -2.5L-2.5 -3.5L-3.5 -3.5L-3.5 -2.5Z"/>
<!-- (-2, -3, 0) -->
<path class="cell-path" d="M-1.5 3.5L-1.5 2.5L-2.5 2.5L-2.5 3.5Z"/>
<!-- (-2, -2, 0) -->
<path class="cell-path" d="M-1.5 2.5L-1.5 1.5L-2.5 1.5L-2.5 2.5Z"/>
<!-- (-2, -1, 0) -->
<path class="cell-path" d="M-1.5 1.5L-1.5 0.5L-2.5 0.5L-2.5 1.5Z"/>
<!-- (-2, 0, 0) -->
<path class="cell-path" d="M-1.5 0.5L-1.5 -0.5L-2.5 -0.5L-2.5 0.5Z"/>
<!-- (-2, 1, 0) -->
<path class="cell-path" d="M-1.5 -0.5L-1.5 -1.5L-2.5 -1.5L-2.5 -0.5Z"/>
<!-- (-2, 2, 0) -->
<path class="cell-path" d="M-1.5 -1.5L-1.5 -2.5L-2.5 -2.5L-2.5 -1.5Z"/>
<!-- (-2, 3, 0) -->
<path class="cell-path" d="M-1.5 -2.5L-1.5 -3.5L-2.5 -3.5L-2.5 -2.5Z"/>
<!-- (-1, -3, 0) -->
<path class="cell-path" d="M-0.5 3.5L-0.5 2.5L-1.5 2.5L-1.5 3.5Z"/>
<!-- (-1, -2, 0) -->
<path class="cell-path" d="M-0.5 2.5L-0.5 1.5L-1.5 1.5L-1.5 2.5Z"/>
<!-- (-1, -1, 0) -->
<path class="cell-path" d="M-0.5 1.5L-0.5 0.5L-1.5 0.5L-1.5 1.5Z"/>
<!-- (-1, 0, 0) -->
<path class="cell-path" d="M-0.5 0.5L-0.5 -0.5L-1.5 -0.5L-1.5 0.5Z"/>
<!-- (-1, 1, 0) -->
<path class="cell-path" d="M-0.5 -0.5L-0.5 -1.5L-1.5 -1.5L-1.5 -0.5Z"/>
<!-- (-1, 2, 0) -->
<path class="cell-path" d="M-0.5 -1.5L-0.5 -2.5L-1.5 -2.5L-1.5 -1.5Z"/>
<!-- (-1, 3, 0) -->
<path class="cell-path" d="M-0.5 -2.5L-0.5 -3.5L-1.5 -3.5L-1.5 -2.5Z"/>
<!-- (0, -3, 0) -->
<path class="cell-path" d="M0.5 3.5L0.5 2.5L-0.5 2.5L-0.5 3.5Z"/>
<!-- (0, -2, 0) -->
<path class="cell-path" d="M0.5 2.5L0.5 1.5L-0.5 1.5L-0.5 2.5Z"/>
<!-- (0, -1, 0) -->
<path class="cell-path" d="M0.5 1.5L0.5 0.5L-0.5 0.5L-0.5 1.5Z"/>
<!-- (0, 0, 0) -->
<path class="cell-path" d="M0.5 0.5L0.5 -0.5L-0.5 -0.5L-0.5 0.5Z"/>
<!-- (0, 1, 0) -->
<path class="cell-path" d="M0.5 -0.5L0.5 -1.5L-0.5 -1.5L-0.5 -0.5Z"/>
<!-- (0, 2, 0) -->
<path class="cell-path" d="M0.5 -1.5L0.5 -2.5L-0.5 -2.5L-0.5 -1.5Z"/>
<!-- (0, 3, 0) -->
<path class="cell-path" d="M0.5 -2.5L0.5 -3.5L-0.5 -3.5L-0.5 -2.5Z"/>
<!-- (1, -3, 0) -->
<path class="cell-path" d="M1.5 3.5L1.5 2.5L0.5 2.5L0.5 3.5Z"/>
<!-- (1, -2, 0) -->
<path class="cell-path" d="M1.5 2.5L1.5 1.5L0.5 1.5L0.5 2.5Z"/>
<!-- (1, -1, 0) -->
<path class="cell-path" d="M1.5 1.5L1.5 0.5L0.5 0.5L0.5 1.5Z"/>
<!-- (1, 0, 0) -->
<path class="cell-path" d="M1.5 0.5L1.5 -0.5L0.5 -0.5L0.5 0.5Z"/>
<!-- (1, 1, 0) -->
<path class="cell-path" d="M1.5 -0.5L1.5 -1.5L0.5 -1.5L0.5 -0.5Z"/>
<!-- (1, 2, 0) -->
<path class="cell-path" d="M1.5 -1.5L1.5 -2.5L0.5 -2.5L0.5 -1.5Z"/>
<!-- (1, 3, 0) -->
<path class="cell-path" d="M1.5 -2.5L1.5 -3.5L0.5 -3.5L0.5 -2.5Z"/>
<!-- (2, -3, 0) -->
<path class="cell-path" d="M2.5 3.5L2.5 2.5L1.5 2.5L1.5 3.5Z"/>
<!-- (2, -2, 0) -->
<path class="cell-path" d="M2.5 2.5L2.5 1.5L1.5 1.5L1.5 2.5Z"/>
<!-- (2, -1, 0) -->
<path class="cell-path" d="M2.5 1.5L2.5 0.5L1.5 0.5L1.5 1.5Z"/>
<!-- (2, 0, 0) -->
<path class="cell-path" d="M2.5 0.5L2.5 -0.5L1.5 -0.5L1.5 0.5Z"/>
<!-- (2, 1, 0) -->
<path class="cell-path" d="M2.5 -0.5L2.5 -1.5L1.5 -1.5L1.5 -0.5Z"/>
<!-- (2, 2, 0) -->
<path class="cell-path" d="M2.5 -1.5L2.5 -2.5L1.5 -2.5L1.5 -1.5Z"/>
<!-- (2, 3, 0) -->
<path class="cell-path" d="M2.5 -2.5L2.5 -3.5L1.5 -3.5L1.5 -2.5Z"/>
<!-- (3, -3, 0) -->
<path class="cell-path" d="M3.5 3.5L3.5 2.5L2.5 2.5L2.5 3.5Z"/>
<!-- (3, -2, 0) -->
<path class="cell-path" d="M3.5 2.5L3.5 1.5L2.5 1.5L2.5 2.5Z"/>
<!-- (3, -1, 0) -->
<path class="cell-path" d="M3.5 1.5L3.5 0.5L2.5 0.5L2.5 1.5Z"/>
<!-- (3, 0, 0) -->
<path class="cell-path" d="M3.5 0.5L3.5 -0.5L2.5 -0.5L2.5 0.5Z"/>
<!-- (3, 1, 0) -->
<path class="cell-path" d="M3.5 -0.5L3.5 -1.5L2.5 -1.5L2.5 -0.5Z"/>
<!-- (3, 2, 0) -->
<path class="cell-path" d="M3.5 -1.5L3.5 -2.5L2.5 -2.5L2.5 -1.5Z"/>
<!-- (3, 3, 0) -->
<path class="cell-path" d="M3.5 -2.5L3.5 -3.5L2.5 -3.5L2.5 -2.5Z"/>
</g>
</svg>
