<svg viewBox="-2 -2 4 4" xmlns="http://www.w3.org/2000/svg">
<style>
.cell-path {
                stroke-linejoin: round;
                fill: rgb(244, 244, 241);
                stroke: rgb(51, 51, 51);
                stroke-width: 0.1
            }
.dual .cell-path {
                fill: none;
                stroke: rgb(255, 0, 0);
                stroke-opacity: 0.5;
                stroke-width: 0.033333335
            }
</style>
<!-- (-2, 0, 3) -->
<path class="cell-path" d="M-2 -2.9802322E-08L-3 -2.9802322E-08L-2.5 0.8660253Z"/>
<!-- (-2, 1, 2) -->
<path class="cell-path" d="M-1.5 -0.8660254L-2.5 -0.8660254L-2 0Z"/>
<!-- (-2, 1, 3) -->
<path class="cell-path" d="M-2 -2.9802322E-08L-2.5 -0.86602545L-3 -2.9802322E-08Z"/>
<!-- (-2, 2, 1) -->
<path class="cell-path" d="M-1 -1.7320507L-2 -1.7320507L-1.5 -0.8660253Z"/>
<!-- (-2, 2, 2) -->
<path class="cell-path" d="M-1.5 -0.86602527L-2 -1.7320507L-2.5 -0.86602527Z"/>
<!-- (-2, 3, 0) -->
<path class="cell-path" d="M-0.5 -2.598076L-1.5 -2.598076L-1 -1.7320508Z"/>
<!-- (-2, 3, 1) -->
<path class="cell-path" d="M-1 -1.7320509L-1.5 -2.5980763L-2 -1.7320509Z"/>
<!-- (-1, -1, 3) -->
<path class="cell-path" d="M-1.5 0.8660254L-2.5 0.8660254L-2 1.7320508Z"/>
<!-- (-1, 0, 2) -->
<path class="cell-path" d="M-1 0L-2 0L-1.5 0.8660254Z"/>
<!-- (-1, 0, 3) -->
<path class="cell-path" d="M-1.5 0.8660253L-2 -5.9604645E-08L-2.5 0.8660253Z"/>
<!-- (-1, 1, 1) -->
<path class="cell-path" d="M-0.5 -0.8660253L-1.5 -0.8660253L-1 5.9604645E-08Z"/>
<!-- (-1, 1, 2) -->
<path class="cell-path" d="M-1 2.9802322E-08L-1.5 -0.8660253L-2 2.9802322E-08Z"/>
<!-- (-1, 2, 0) -->
<path class="cell-path" d="M0 -1.7320509L-1 -1.7320509L-0.5 -0.86602545Z"/>
<!-- (-1, 2, 1) -->
<path class="cell-path" d="M-0.5 -0.8660254L-1 -1.7320508L-1.5 -0.8660254Z"/>
<!-- (-1, 3, -1) -->
<path class="cell-path" d="M0.5 -2.5980759L-0.5 -2.5980759L0 -1.7320505Z"/>
<!-- (-1, 3, 0) -->
<path class="cell-path" d="M0 -1.7320507L-0.5 -2.5980759L-1 -1.7320507Z"/>
<!-- (0, -2, 3) -->
<path class="cell-path" d="M-1 1.7320509L-2 1.7320509L-1.5 2.5980763Z"/>
<!-- (0, -1, 2) -->
<path class="cell-path" d="M-0.5 0.8660254L-1.5 0.8660254L-1 1.7320508Z"/>
<!-- (0, -1, 3) -->
<path class="cell-path" d="M-1 1.7320509L-1.5 0.86602545L-2 1.7320509Z"/>
<!-- (0, 0, 1) -->
<path class="cell-path" d="M0 0L-1 0L-0.5 0.8660254Z"/>
<!-- (0, 0, 2) -->
<path class="cell-path" d="M-0.5 0.8660254L-1 0L-1.5 0.8660254Z"/>
<!-- (0, 1, 0) -->
<path class="cell-path" d="M0.5 -0.8660254L-0.5 -0.8660254L0 0Z"/>
<!-- (0, 1, 1) -->
<path class="cell-path" d="M0 0L-0.5 -0.8660254L-1 0Z"/>
<!-- (0, 2, -1) -->
<path class="cell-path" d="M1 -1.7320509L0 -1.7320509L0.5 -0.86602545Z"/>
<!-- (0, 2, 0) -->
<path class="cell-path" d="M0.5 -0.8660254L0 -1.7320508L-0.5 -0.8660254Z"/>
<!-- (0, 3, -2) -->
<path class="cell-path" d="M1.5 -2.598076L0.5 -2.598076L1 -1.7320508Z"/>
<!-- (0, 3, -1) -->
<path class="cell-path" d="M1 -1.7320507L0.5 -2.5980759L0 -1.7320507Z"/>
<!-- (1, -2, 2) -->
<path class="cell-path" d="M0 1.7320509L-1 1.7320509L-0.5 2.5980763Z"/>
<!-- (1, -2, 3) -->
<path class="cell-path" d="M-0.5 2.598076L-1 1.7320508L-1.5 2.598076Z"/>
<!-- (1, -1, 1) -->
<path class="cell-path" d="M0.5 0.8660254L-0.5 0.8660254L0 1.7320508Z"/>
<!-- (1, -1, 2) -->
<path class="cell-path" d="M0 1.7320509L-0.5 0.86602545L-1 1.7320509Z"/>
<!-- (1, 0, 0) -->
<path class="cell-path" d="M1 0L0 0L0.5 0.8660254Z"/>
<!-- (1, 0, 1) -->
<path class="cell-path" d="M0.5 0.8660254L0 0L-0.5 0.8660254Z"/>
<!-- (1, 1, -1) -->
<path class="cell-path" d="M1.5 -0.8660254L0.5 -0.8660254L1 0Z"/>
<!-- (1, 1, 0) -->
<path class="cell-path" d="M1 0L0.5 -0.8660254L0 0Z"/>
<!-- (1, 2, -2) -->
<path class="cell-path" d="M2 -1.7320509L1 -1.7320509L1.5 -0.86602545Z"/>
<!-- (1, 2, -1) -->
<path class="cell-path" d="M1.5 -0.8660254L1 -1.7320508L0.5 -0.8660254Z"/>
<!-- (1, 3, -2) -->
<path class="cell-path" d="M2 -1.7320507L1.5 -2.5980759L1 -1.7320507Z"/>
<!-- (2, -2, 1) -->
<path class="cell-path" d="M1 1.7320507L0 1.7320507L0.5 2.5980759Z"/>
<!-- (2, -2, 2) -->
<path class="cell-path" d="M0.5 2.598076L0 1.7320508L-0.5 2.598076Z"/>
<!-- (2, -1, 0) -->
<path class="cell-path" d="M1.5 0.8660254L0.5 0.8660254L1 1.7320508Z"/>
<!-- (2, -1, 1) -->
<path class="cell-path" d="M1 1.7320509L0.5 0.86602545L0 1.7320509Z"/>
<!-- (2, 0, -1) -->
<path class="cell-path" d="M2 0L1 0L1.5 0.8660254Z"/>
<!-- (2, 0, 0) -->
<path class="cell-path" d="M1.5 0.8660254L1 0L0.5 0.8660254Z"/>
<!-- (2, 1, -2) -->
<path class="cell-path" d="M2.5 -0.8660254L1.5 -0.8660254L2 0Z"/>
<!-- (2, 1, -1) -->
<path class="cell-path" d="M2 0L1.5 -0.8660254L1 0Z"/>
<!-- (2, 2, -2) -->
<path class="cell-path" d="M2.5 -0.8660254L2 -1.7320508L1.5 -0.8660254Z"/>
<!-- (3, -2, 0) -->
<path class="cell-path" d="M2 1.7320509L1 1.7320509L1.5 2.5980763Z"/>
<!-- (3, -2, 1) -->
<path class="cell-path" d="M1.5 2.598076L1 1.7320508L0.5 2.598076Z"/>
<!-- (3, -1, -1) -->
<path class="cell-path" d="M2.5 0.8660254L1.5 0.8660254L2 1.7320508Z"/>
<!-- (3, -1, 0) -->
<path class="cell-path" d="M2 1.7320509L1.5 0.86602545L1 1.7320509Z"/>
<!-- (3, 0, -2) -->
<path class="cell-path" d="M3 -2.9802322E-08L2 -2.9802322E-08L2.5 0.8660253Z"/>
<!-- (3, 0, -1) -->
<path class="cell-path" d="M2.5 0.8660253L2 -5.9604645E-08L1.5 0.8660253Z"/>
<!-- (3, 1, -2) -->
<path class="cell-path" d="M3 -2.9802322E-08L2.5 -0.86602545L2 -2.9802322E-08Z"/>
<g class="dual">
<!-- (-2, -2, 4) -->
<path class="cell-path" d="M-2.5 2.020726L-2.5 1.4433756L-3 1.1547005L-3.5 1.4433756L-3.5 2.020726L-3 2.309401Z"/>
<!-- (-2, -1, 3) -->
<path class="cell-path" d="M-2 1.1547005L-2 0.57735026L-2.5 0.28867513L-3 0.57735026L-3 1.1547005L-2.5 1.4433756Z"/>
<!-- (-2, 0, 2) -->
<path class="cell-path" d="M-1.5 0.28867513L-1.5 -0.28867513L-2 -0.57735026L-2.5 -0.28867513L-2.5 0.28867513L-2 0.57735026Z"/>
<!-- (-2, 1, 1) -->
<path class="cell-path" d="M-1 -0.57735026L-1 -1.1547005L-1.5 -1.4433756L-2 -1.1547005L-2 -0.57735026L-1.5 -0.28867513Z"/>
<!-- (-2, 2, 0) -->
<path class="cell-path" d="M-0.5 -1.4433756L-0.5 -2.020726L-1 -2.309401L-1.5 -2.020726L-1.5 -1.4433756L-1 -1.1547005Z"/>
<!-- (-2, 3, -1) -->
<path class="cell-path" d="M0 -2.309401L0 -2.8867512L-0.5 -3.1754265L-1 -2.8867512L-1 -2.309401L-0.5 -2.0207257Z"/>
<!-- (-2, 4, -2) -->
<path class="cell-path" d="M0.5 -3.1754265L0.5 -3.7527766L0 -4.041452L-0.5 -3.7527766L-0.5 -3.1754265L0 -2.8867512Z"/>
<!-- (-1, -2, 3) -->
<path class="cell-path" d="M-1.5 2.020726L-1.5 1.4433756L-2 1.1547005L-2.5 1.4433756L-2.5 2.020726L-2 2.309401Z"/>
<!-- (-1, -1, 2) -->
<path class="cell-path" d="M-1 1.1547005L-1 0.57735026L-1.5 0.28867513L-2 0.57735026L-2 1.1547005L-1.5 1.4433756Z"/>
<!-- (-1, 0, 1) -->
<path class="cell-path" d="M-0.5 0.28867513L-0.5 -0.28867513L-1 -0.57735026L-1.5 -0.28867513L-1.5 0.28867513L-1 0.57735026Z"/>
<!-- (-1, 1, 0) -->
<path class="cell-path" d="M0 -0.57735026L0 -1.1547005L-0.5 -1.4433756L-1 -1.1547005L-1 -0.57735026L-0.5 -0.28867513Z"/>
<!-- (-1, 2, -1) -->
<path class="cell-path" d="M0.5 -1.4433756L0.5 -2.020726L0 -2.309401L-0.5 -2.020726L-0.5 -1.4433756L0 -1.1547005Z"/>
<!-- (-1, 3, -2) -->
<path class="cell-path" d="M1 -2.309401L1 -2.8867512L0.5 -3.1754265L0 -2.8867512L0 -2.309401L0.5 -2.0207257Z"/>
<!-- (0, -2, 2) -->
<path class="cell-path" d="M-0.5 2.020726L-0.5 1.4433756L-1 1.1547005L-1.5 1.4433756L-1.5 2.020726L-1 2.309401Z"/>
<!-- (0, -1, 1) -->
<path class="cell-path" d="M0 1.1547005L0 0.57735026L-0.5 0.28867513L-1 0.57735026L-1 1.1547005L-0.5 1.4433756Z"/>
<!-- (0, 0, 0) -->
<path class="cell-path" d="M0.5 0.28867513L0.5 -0.28867513L0 -0.57735026L-0.5 -0.28867513L-0.5 0.28867513L0 0.57735026Z"/>
<!-- (0, 1, -1) -->
<path class="cell-path" d="M1 -0.57735026L1 -1.1547005L0.5 -1.4433756L0 -1.1547005L0 -0.57735026L0.5 -0.28867513Z"/>
<!-- (0, 2, -2) -->
<path class="cell-path" d="M1.5 -1.4433756L1.5 -2.020726L1 -2.309401L0.5 -2.020726L0.5 -1.4433756L1 -1.1547005Z"/>
<!-- (1, -2, 1) -->
<path class="cell-path" d="M0.5 2.020726L0.5 1.4433756L0 1.1547005L-0.5 1.4433756L-0.5 2.020726L0 2.309401Z"/>
<!-- (1, -1, 0) -->
<path class="cell-path" d="M1 1.1547005L1 0.57735026L0.5 0.28867513L0 0.57735026L0 1.1547005L0.5 1.4433756Z"/>
<!-- (1, 0, -1) -->
<path class="cell-path" d="M1.5 0.28867513L1.5 -0.28867513L1 -0.57735026L0.5 -0.28867513L0.5 0.28867513L1 0.57735026Z"/>
<!-- (1, 1, -2) -->
<path class="cell-path" d="M2 -0.57735026L2 -1.1547005L1.5 -1.4433756L1 -1.1547005L1 -0.57735026L1.5 -0.28867513Z"/>
<!-- (2, -2, 0) -->
<path class="cell-path" d="M1.5 2.020726L1.5 1.4433756L1 1.1547005L0.5 1.4433756L0.5 2.020726L1 2.309401Z"/>
<!-- (2, -1, -1) -->
<path class="cell-path" d="M2 1.1547005L2 0.57735026L1.5 0.28867513L1 0.57735026L1 1.1547005L1.5 1.4433756Z"/>
<!-- (2, 0, -2) -->
<path class="cell-path" d="M2.5 0.28867513L2.5 -0.28867513L2 -0.57735026L1.5 -0.28867513L1.5 0.28867513L2 0.57735026Z"/>
<!-- (3, -2, -1) -->
<path class="cell-path" d="M2.5 2.020726L2.5 1.4433756L2 1.1547005L1.5 1.4433756L1.5 2.020726L2 2.309401Z"/>
<!-- (3, -1, -2) -->
<path class="cell-path" d="M3 1.1547005L3 0.57735026L2.5 0.28867513L2 0.57735026L2 1.1547005L2.5 1.4433756Z"/>
<!-- (4, -2, -2) -->
<path class="cell-path" d="M3.5 2.020726L3.5 1.4433756L3 1.1547005L2.5 1.4433756L2.5 2.020726L3 2.309401Z"/>
</g>
</svg>
