<svg viewBox="-2 -2 4 4" xmlns="http://www.w3.org/2000/svg">
<style>
.cell-path {
                stroke-linejoin: round;
                fill: rgb(244, 244, 241);
                stroke: rgb(51, 51, 51);
                stroke-width: 0.05
            }
</style>
<!-- (0, 0, 0) -->
<path class="cell-path" d="M-0.4330127 0.75L-0.4330127 0.25L-0.8660254 0.5L-0.86602545 1Z"/>
<!-- (1, 0, 0) -->
<path class="cell-path" d="M-0.8660254 1L-1.299038 0.75L-1.299038 1.25L-0.86602545 1.5Z"/>
<!-- (2, 0, 0) -->
<path class="cell-path" d="M-0.43301266 -1.25L-0.43301266 -0.75L2.9802322E-08 -1L1.4901161E-08 -1.5Z"/>
<!-- (3, 0, 0) -->
<path class="cell-path" d="M0.8660254 -1L0.4330127 -1.25L0.4330127 -0.75L0.86602545 -0.5Z"/>
<!-- (4, 0, 0) -->
<path class="cell-path" d="M0.43301275 1.25L0.43301275 1.75L0.86602545 1.5L0.86602545 1Z"/>
<!-- (5, 0, 0) -->
<path class="cell-path" d="M2.9802322E-08 1L-0.43301266 0.75L-0.43301266 1.25L1.4901161E-08 1.5Z"/>
<!-- (6, 0, 0) -->
<path class="cell-path" d="M1.7320508 0L1.7320508 -0.5L1.2990382 -0.25L1.299038 0.25Z"/>
<!-- (7, 0, 0) -->
<path class="cell-path" d="M-1.2990382 -0.75L-0.86602545 -0.5L-0.86602545 -1L-1.299038 -1.25Z"/>
<!-- (8, 0, 0) -->
<path class="cell-path" d="M-1.2990382 0.25L-1.7320508 0L-1.7320508 0.5L-1.299038 0.75Z"/>
<!-- (9, 0, 0) -->
<path class="cell-path" d="M-0.86602545 0L-1.2990382 0.25L-0.86602545 0.5L-0.43301272 0.25Z"/>
<!-- (10, 0, 0) -->
<path class="cell-path" d="M-0.43301266 -1.25L-0.8660253 -1.5L-0.8660253 -1L-0.4330127 -0.75Z"/>
<!-- (11, 0, 0) -->
<path class="cell-path" d="M0 0L-0.4330127 0.25L0 0.5L0.4330127 0.25Z"/>
<!-- (12, 0, 0) -->
<path class="cell-path" d="M1.2990382 -0.75L1.7320509 -1L1.2990382 -1.25L0.86602527 -1Z"/>
<!-- (13, 0, 0) -->
<path class="cell-path" d="M0.86602545 -0.5L0.43301272 -0.25L0.86602545 0L1.2990379 -0.25Z"/>
<!-- (14, 0, 0) -->
<path class="cell-path" d="M0.4330127 0.75L0.8660254 0.5L0.4330127 0.25L-2.9802322E-08 0.5Z"/>
<!-- (15, 0, 0) -->
<path class="cell-path" d="M-1.2990382 0.75L-0.86602545 1L-0.86602545 0.5L-1.299038 0.25Z"/>
<!-- (16, 0, 0) -->
<path class="cell-path" d="M0.8660253 0.5L0.43301266 0.75L0.8660253 1L1.2990382 0.75Z"/>
<!-- (17, 0, 0) -->
<path class="cell-path" d="M0.4330127 -0.25L0.8660254 -0.5L0.4330127 -0.75L0 -0.5Z"/>
<!-- (18, 0, 0) -->
<path class="cell-path" d="M0.86602545 -1.5L0.43301272 -1.25L0.86602545 -1L1.2990379 -1.25Z"/>
<!-- (19, 0, 0) -->
<path class="cell-path" d="M-0.86602545 -0.5L-0.86602545 0L-0.43301272 -0.25L-0.4330127 -0.75Z"/>
<!-- (20, 0, 0) -->
<path class="cell-path" d="M-0.43301272 1.75L-1.4901161E-08 2L-1.4901161E-08 1.5L-0.4330127 1.25Z"/>
<!-- (21, 0, 0) -->
<path class="cell-path" d="M0 1L0.4330127 1.25L0.4330127 0.75L-1.4901161E-08 0.5Z"/>
<!-- (22, 0, 0) -->
<path class="cell-path" d="M0.8660253 0.5L1.2990379 0.25L0.8660253 0L0.43301272 0.25Z"/>
<!-- (23, 0, 0) -->
<path class="cell-path" d="M-1.2990382 -0.25L-1.7320508 -0.5L-1.7320508 0L-1.2990382 0.25Z"/>
<!-- (24, 0, 0) -->
<path class="cell-path" d="M0.43301272 1.75L0.43301272 1.25L2.9802322E-08 1.5L1.4901161E-08 2Z"/>
<!-- (25, 0, 0) -->
<path class="cell-path" d="M1.2990382 1.25L1.7320509 1L1.2990382 0.75L0.8660254 1Z"/>
<!-- (26, 0, 0) -->
<path class="cell-path" d="M-0.86602545 1L-0.86602545 1.5L-0.43301272 1.25L-0.4330127 0.75Z"/>
<!-- (27, 0, 0) -->
<path class="cell-path" d="M1.2990382 0.75L1.7320508 1L1.7320508 0.5L1.2990382 0.25Z"/>
<!-- (28, 0, 0) -->
<path class="cell-path" d="M0 -0.5L-0.4330127 -0.25L0 0L0.4330127 -0.25Z"/>
<!-- (29, 0, 0) -->
<path class="cell-path" d="M-1.299038 -0.25L-1.299038 0.25L-0.8660254 0L-0.8660253 -0.5Z"/>
<!-- (30, 0, 0) -->
<path class="cell-path" d="M0 -1L-0.4330127 -0.75L0 -0.5L0.4330127 -0.75Z"/>
<!-- (31, 0, 0) -->
<path class="cell-path" d="M-1.2990379 0.75L-1.7320507 0.5L-1.7320507 1L-1.2990382 1.25Z"/>
<!-- (32, 0, 0) -->
<path class="cell-path" d="M0.4330127 0.25L0.8660254 0L0.4330127 -0.25L0 0Z"/>
<!-- (33, 0, 0) -->
<path class="cell-path" d="M-1.299038 -0.25L-0.8660254 -0.5L-1.299038 -0.75L-1.7320507 -0.5Z"/>
<!-- (34, 0, 0) -->
<path class="cell-path" d="M0 -1L0.4330127 -0.75L0.4330127 -1.25L1.4901161E-08 -1.5Z"/>
<!-- (35, 0, 0) -->
<path class="cell-path" d="M-1.7320508 -1L-1.7320508 -0.5L-1.2990382 -0.75L-1.2990382 -1.25Z"/>
<!-- (36, 0, 0) -->
<path class="cell-path" d="M1.299038 -0.75L0.8660254 -0.5L1.299038 -0.25L1.7320509 -0.5Z"/>
<!-- (37, 0, 0) -->
<path class="cell-path" d="M-0.4330127 -1.25L0 -1.5L-0.4330127 -1.75L-0.8660253 -1.5Z"/>
<!-- (38, 0, 0) -->
<path class="cell-path" d="M0 -1.5L0.4330127 -1.25L0.4330127 -1.75L-1.4901161E-08 -2Z"/>
<!-- (39, 0, 0) -->
<path class="cell-path" d="M-0.4330127 -0.25L-0.8660254 0L-0.4330127 0.25L0 0Z"/>
<!-- (40, 0, 0) -->
<path class="cell-path" d="M0 0.5L-0.4330127 0.25L-0.4330127 0.75L0 1Z"/>
<!-- (41, 0, 0) -->
<path class="cell-path" d="M-0.86602545 -1L-0.86602545 -1.5L-1.2990382 -1.25Z"/>
<!-- (42, 0, 0) -->
<path class="cell-path" d="M-0.4330127 1.75L-0.4330127 1.25L-0.8660254 1.5Z"/>
<!-- (43, 0, 0) -->
<path class="cell-path" d="M-0.86602545 -0.5L-0.43301272 -0.75L-0.86602545 -1Z"/>
<!-- (44, 0, 0) -->
<path class="cell-path" d="M-0.4330127 -0.25L0 -0.5L-0.4330127 -0.75Z"/>
<!-- (45, 0, 0) -->
<path class="cell-path" d="M-1.4901161E-08 -1.5L-1.4901161E-08 -2L-0.43301272 -1.75Z"/>
<!-- (46, 0, 0) -->
<path class="cell-path" d="M1.4901161E-08 1.5L0.43301272 1.25L1.4901161E-08 1Z"/>
<!-- (47, 0, 0) -->
<path class="cell-path" d="M0.43301263 1.25L0.8660253 1L0.43301263 0.75Z"/>
<!-- (48, 0, 0) -->
<path class="cell-path" d="M0.4330127 -1.25L0.8660254 -1.5L0.4330127 -1.75Z"/>
<!-- (49, 0, 0) -->
<path class="cell-path" d="M0.8660253 1.5L1.2990379 1.25L0.8660253 1Z"/>
<!-- (50, 0, 0) -->
<path class="cell-path" d="M1.299038 0.75L1.299038 0.25L0.8660254 0.5Z"/>
<!-- (51, 0, 0) -->
<path class="cell-path" d="M1.2990379 0.25L1.2990379 -0.25L0.86602527 0Z"/>
<!-- (52, 0, 0) -->
<path class="cell-path" d="M0.8660253 -0.5L1.2990379 -0.75L0.8660253 -1Z"/>
<!-- (53, 0, 0) -->
<path class="cell-path" d="M1.7320508 0.5L1.7320508 0L1.2990382 0.25Z"/>
<!-- (54, 0, 0) -->
<path class="cell-path" d="M1.7320508 -0.5L1.7320508 -1L1.2990382 -0.75Z"/>
</svg>
