<svg viewBox="-2 -2 4 4" xmlns="http://www.w3.org/2000/svg">
<style>
.cell-path {
                stroke-linejoin: round;
                fill: rgb(244, 244, 241);
                stroke: rgb(51, 51, 51);
                stroke-width: 0.05
            }
</style>
<!-- (0, 0, 0) -->
<path class="cell-path" d="M-0.6630507 0.6390625L-0.6517743 0.875L-0.43301272 0.86249995L-0.43301272 0.6125Z"/>
<!-- (1, 0, 0) -->
<path class="cell-path" d="M-0.6630507 0.6390625L-0.43301272 0.6125L-0.42759997 0.34062502L-0.7036456 0.42890626Z"/>
<!-- (2, 0, 0) -->
<path class="cell-path" d="M-0.6630507 0.6390625L-0.7036456 0.42890626L-0.86241704 0.49687496L-0.8660254 0.6640625Z"/>
<!-- (3, 0, 0) -->
<path class="cell-path" d="M-0.6630507 0.6390625L-0.8660254 0.6640625L-0.86151487 0.88671875L-0.6517743 0.875Z"/>
<!-- (4, 0, 0) -->
<path class="cell-path" d="M-1.0735105 1.0390625L-0.8438485 1.1035156L-0.86151487 0.88671875L-1.0791488 0.8378906Z"/>
<!-- (5, 0, 0) -->
<path class="cell-path" d="M-1.0735105 1.0390625L-1.0791488 0.8378906L-1.2895659 0.740625L-1.2922722 0.9375Z"/>
<!-- (6, 0, 0) -->
<path class="cell-path" d="M-1.0735105 1.0390625L-1.2922722 0.9375L-1.2877617 1.0195312L-1.0614825 1.1328125Z"/>
<!-- (7, 0, 0) -->
<path class="cell-path" d="M-1.0735105 1.0390625L-1.0614825 1.1328125L-0.76378626 1.2708334L-0.8438485 1.1035156Z"/>
<!-- (8, 0, 0) -->
<path class="cell-path" d="M-0.22191899 -1.121875L-0.28055614 -1.3234375L-0.43060705 -1.2375001L-0.42812625 -1.0670573Z"/>
<!-- (9, 0, 0) -->
<path class="cell-path" d="M-0.22191899 -1.121875L-0.42812625 -1.0670573L-0.42654756 -0.7627604L-0.15862097 -0.91276044Z"/>
<!-- (10, 0, 0) -->
<path class="cell-path" d="M-0.22191899 -1.121875L-0.15862097 -0.91276044L-0.008118987 -1.0005208L-0.01781666 -1.1730468Z"/>
<!-- (11, 0, 0) -->
<path class="cell-path" d="M-0.22191899 -1.121875L-0.01781666 -1.1730468L-0.060982615 -1.4324999L-0.28055614 -1.3234375Z"/>
<!-- (12, 0, 0) -->
<path class="cell-path" d="M0.65042114 -0.8921875L0.86760414 -0.79361975L0.9476664 -0.9617188L0.73386633 -1.0882813Z"/>
<!-- (13, 0, 0) -->
<path class="cell-path" d="M0.65042114 -0.8921875L0.73386633 -1.0882813L0.49399525 -1.2706251L0.42263845 -1.0179688Z"/>
<!-- (14, 0, 0) -->
<path class="cell-path" d="M0.65042114 -0.8921875L0.42263845 -1.0179688L0.34099746 -0.809375L0.5687802 -0.6875Z"/>
<!-- (15, 0, 0) -->
<path class="cell-path" d="M0.65042114 -0.8921875L0.5687802 -0.6875L0.85610217 -0.5734375L0.86760414 -0.79361975Z"/>
<!-- (16, 0, 0) -->
<path class="cell-path" d="M0.6350852 1.3312501L0.61659205 1.1617187L0.36715862 1.2134374L0.41519606 1.4332032Z"/>
<!-- (17, 0, 0) -->
<path class="cell-path" d="M0.6350852 1.3312501L0.41519606 1.4332032L0.42760003 1.5085938L0.6404979 1.40625Z"/>
<!-- (18, 0, 0) -->
<path class="cell-path" d="M0.6350852 1.3312501L0.6404979 1.40625L0.8412174 1.3070313L0.8415181 1.2513021Z"/>
<!-- (19, 0, 0) -->
<path class="cell-path" d="M0.6350852 1.3312501L0.8415181 1.2513021L0.8656645 1.064375L0.61659205 1.1617187Z"/>
<!-- (20, 0, 0) -->
<path class="cell-path" d="M-0.22101691 1.140625L-0.028190939 1.1946615L-0.00834452 0.98476565L-0.21650633 0.90234375Z"/>
<!-- (21, 0, 0) -->
<path class="cell-path" d="M-0.22101691 1.140625L-0.21650633 0.90234375L-0.43301272 0.86249995L-0.43075743 1.1054688Z"/>
<!-- (22, 0, 0) -->
<path class="cell-path" d="M-0.22101691 1.140625L-0.43075743 1.1054688L-0.41948104 1.328125L-0.21650635 1.3671875Z"/>
<!-- (23, 0, 0) -->
<path class="cell-path" d="M-0.22101691 1.140625L-0.21650635 1.3671875L-0.011727426 1.3968749L-0.028190939 1.1946615Z"/>
<!-- (24, 0, 0) -->
<path class="cell-path" d="M1.4456308 -0.10546875L1.4866018 0.111328125L1.5448629 0.07421875L1.5208068 -0.1627604Z"/>
<!-- (25, 0, 0) -->
<path class="cell-path" d="M1.4456308 -0.10546875L1.5208068 -0.1627604L1.4757012 -0.4700521L1.3809797 -0.3268229Z"/>
<!-- (26, 0, 0) -->
<path class="cell-path" d="M1.4456308 -0.10546875L1.3809797 -0.3268229L1.2043166 -0.2140625L1.286634 -0.024088543Z"/>
<!-- (27, 0, 0) -->
<path class="cell-path" d="M1.4456308 -0.10546875L1.286634 -0.024088543L1.2855064 0.25L1.4866018 0.111328125Z"/>
<!-- (28, 0, 0) -->
<path class="cell-path" d="M-1.0924549 -0.8546875L-1.271223 -0.8828125L-1.2846044 -0.7416666L-1.1580834 -0.6605469Z"/>
<!-- (29, 0, 0) -->
<path class="cell-path" d="M-1.0924549 -0.8546875L-1.1580834 -0.6605469L-0.9463132 -0.5328125L-0.91000324 -0.788151Z"/>
<!-- (30, 0, 0) -->
<path class="cell-path" d="M-1.0924549 -0.8546875L-0.91000324 -0.788151L-0.8597107 -0.9859375L-1.0408092 -1.0345052Z"/>
<!-- (31, 0, 0) -->
<path class="cell-path" d="M-1.0924549 -0.8546875L-1.0408092 -1.0345052L-1.1892815 -1.0234375L-1.271223 -0.8828125Z"/>
<!-- (32, 0, 0) -->
<path class="cell-path" d="M-1.4560052 0.403125L-1.2726513 0.49257815L-1.215142 0.2078125L-1.4417969 0.14492187Z"/>
<!-- (33, 0, 0) -->
<path class="cell-path" d="M-1.4560052 0.403125L-1.4417969 0.14492187L-1.5214082 0.11015625L-1.5290761 0.3671875Z"/>
<!-- (34, 0, 0) -->
<path class="cell-path" d="M-1.4560052 0.403125L-1.5290761 0.3671875L-1.5290761 0.609375L-1.4614179 0.6484375Z"/>
<!-- (35, 0, 0) -->
<path class="cell-path" d="M-1.4560052 0.403125L-1.4614179 0.6484375L-1.2895659 0.740625L-1.2726513 0.49257815Z"/>
<!-- (36, 0, 0) -->
<path class="cell-path" d="M-0.84031534 0.25703123L-0.6224557 0.13203125L-0.7679209 -0.056640625L-0.9884869 0.07070312Z"/>
<!-- (37, 0, 0) -->
<path class="cell-path" d="M-0.84031534 0.25703123L-0.9884869 0.07070312L-1.215142 0.2078125L-1.0054013 0.39687502Z"/>
<!-- (38, 0, 0) -->
<path class="cell-path" d="M-0.84031534 0.25703123L-1.0054013 0.39687502L-0.86241704 0.49687496L-0.7036456 0.42890626Z"/>
<!-- (39, 0, 0) -->
<path class="cell-path" d="M-0.84031534 0.25703123L-0.7036456 0.42890626L-0.42759997 0.34062502L-0.6224557 0.13203125Z"/>
<!-- (40, 0, 0) -->
<path class="cell-path" d="M-0.6269663 -1.1171875L-0.42812625 -1.0670573L-0.43060705 -1.2375001L-0.55742866 -1.296224Z"/>
<!-- (41, 0, 0) -->
<path class="cell-path" d="M-0.6269663 -1.1171875L-0.55742866 -1.296224L-0.7201843 -1.2942709L-0.8085159 -1.1686198Z"/>
<!-- (42, 0, 0) -->
<path class="cell-path" d="M-0.6269663 -1.1171875L-0.8085159 -1.1686198L-0.8597107 -0.9859375L-0.66718537 -0.9134114Z"/>
<!-- (43, 0, 0) -->
<path class="cell-path" d="M-0.6269663 -1.1171875L-0.66718537 -0.9134114L-0.42654756 -0.7627604L-0.42812625 -1.0670573Z"/>
<!-- (44, 0, 0) -->
<path class="cell-path" d="M0.020297466 0.26796874L0.21988924 0.12695312L0.003382912 0.0011718739L-0.2097405 0.14375Z"/>
<!-- (45, 0, 0) -->
<path class="cell-path" d="M0.020297466 0.26796874L-0.2097405 0.14375L-0.42759997 0.34062502L-0.13531645 0.44453126Z"/>
<!-- (46, 0, 0) -->
<path class="cell-path" d="M0.020297466 0.26796874L-0.13531645 0.44453126L0.098104425 0.5597656L0.24356963 0.390625Z"/>
<!-- (47, 0, 0) -->
<path class="cell-path" d="M0.020297466 0.26796874L0.24356963 0.390625L0.43639556 0.25195312L0.21988924 0.12695312Z"/>
<!-- (48, 0, 0) -->
<path class="cell-path" d="M1.2449116 -0.9609375L1.1344031 -0.8658854L1.2832512 -0.7453125L1.4042842 -0.84375Z"/>
<!-- (49, 0, 0) -->
<path class="cell-path" d="M1.2449116 -0.9609375L1.4042842 -0.84375L1.4501415 -0.86328125L1.296783 -1.0039062Z"/>
<!-- (50, 0, 0) -->
<path class="cell-path" d="M1.2449116 -0.9609375L1.296783 -1.0039062L1.0994464 -1.1269531L1.0520856 -1.0839844Z"/>
<!-- (51, 0, 0) -->
<path class="cell-path" d="M1.2449116 -0.9609375L1.0520856 -1.0839844L0.9476664 -0.9617188L1.1344031 -0.8658854Z"/>
<!-- (52, 0, 0) -->
<path class="cell-path" d="M0.85023844 -0.25234374L1.0570471 -0.38085938L0.85610217 -0.5734375L0.6420766 -0.39257812Z"/>
<!-- (53, 0, 0) -->
<path class="cell-path" d="M0.85023844 -0.25234374L0.6420766 -0.39257812L0.43301263 -0.253125L0.6427531 -0.125Z"/>
<!-- (54, 0, 0) -->
<path class="cell-path" d="M0.85023844 -0.25234374L0.6427531 -0.125L0.8446002 0.001953125L1.0171287 -0.11979167Z"/>
<!-- (55, 0, 0) -->
<path class="cell-path" d="M0.85023844 -0.25234374L1.0171287 -0.11979167L1.2043166 -0.2140625L1.0570471 -0.38085938Z"/>
<!-- (56, 0, 0) -->
<path class="cell-path" d="M0.4600759 0.515625L0.31348312 0.67578125L0.5193896 0.79257816L0.6664335 0.6347656Z"/>
<!-- (57, 0, 0) -->
<path class="cell-path" d="M0.4600759 0.515625L0.6664335 0.6347656L0.8479831 0.5L0.6438808 0.37695312Z"/>
<!-- (58, 0, 0) -->
<path class="cell-path" d="M0.4600759 0.515625L0.6438808 0.37695312L0.43639556 0.25195312L0.24356963 0.390625Z"/>
<!-- (59, 0, 0) -->
<path class="cell-path" d="M0.4600759 0.515625L0.24356963 0.390625L0.098104425 0.5597656L0.31348312 0.67578125Z"/>
<!-- (60, 0, 0) -->
<path class="cell-path" d="M-1.0635874 0.60625005L-1.2726513 0.49257815L-1.2895659 0.740625L-1.0791488 0.8378906Z"/>
<!-- (61, 0, 0) -->
<path class="cell-path" d="M-1.0635874 0.60625005L-1.0791488 0.8378906L-0.86151487 0.88671875L-0.8660254 0.6640625Z"/>
<!-- (62, 0, 0) -->
<path class="cell-path" d="M-1.0635874 0.60625005L-0.8660254 0.6640625L-0.86241704 0.49687496L-1.0054013 0.39687502Z"/>
<!-- (63, 0, 0) -->
<path class="cell-path" d="M-1.0635874 0.60625005L-1.0054013 0.39687502L-1.215142 0.2078125L-1.2726513 0.49257815Z"/>
<!-- (64, 0, 0) -->
<path class="cell-path" d="M0.8660253 0.75625L1.019384 0.6197917L0.8479831 0.5L0.6664335 0.6347656Z"/>
<!-- (65, 0, 0) -->
<path class="cell-path" d="M0.8660253 0.75625L0.6664335 0.6347656L0.5193896 0.79257816L0.7054498 0.8984375Z"/>
<!-- (66, 0, 0) -->
<path class="cell-path" d="M0.8660253 0.75625L0.7054498 0.8984375L0.8656645 1.064375L1.0584004 0.8769531Z"/>
<!-- (67, 0, 0) -->
<path class="cell-path" d="M0.8660253 0.75625L1.0584004 0.8769531L1.203189 0.70820314L1.019384 0.6197917Z"/>
<!-- (68, 0, 0) -->
<path class="cell-path" d="M0.4127152 -0.5179688L0.21988922 -0.37695312L0.43301263 -0.253125L0.6420766 -0.39257812Z"/>
<!-- (69, 0, 0) -->
<path class="cell-path" d="M0.4127152 -0.5179688L0.6420766 -0.39257812L0.85610217 -0.5734375L0.5687802 -0.6875Z"/>
<!-- (70, 0, 0) -->
<path class="cell-path" d="M0.4127152 -0.5179688L0.5687802 -0.6875L0.34099746 -0.809375L0.19959179 -0.6425781Z"/>
<!-- (71, 0, 0) -->
<path class="cell-path" d="M0.4127152 -0.5179688L0.19959179 -0.6425781L0.018042184 -0.50390625L0.21988922 -0.37695312Z"/>
<!-- (72, 0, 0) -->
<path class="cell-path" d="M0.84663004 -1.2101562L0.89985454 -1.2539062L0.7113135 -1.3820312L0.66583216 -1.349349Z"/>
<!-- (73, 0, 0) -->
<path class="cell-path" d="M0.84663004 -1.2101562L0.66583216 -1.349349L0.49399525 -1.2706251L0.73386633 -1.0882813Z"/>
<!-- (74, 0, 0) -->
<path class="cell-path" d="M0.84663004 -1.2101562L0.73386633 -1.0882813L0.9476664 -0.9617188L1.0520856 -1.0839844Z"/>
<!-- (75, 0, 0) -->
<path class="cell-path" d="M0.84663004 -1.2101562L1.0520856 -1.0839844L1.0994464 -1.1269531L0.89985454 -1.2539062Z"/>
<!-- (76, 0, 0) -->
<path class="cell-path" d="M-0.6368895 -0.378125L-0.68748283 -0.60325515L-0.9463132 -0.5328125L-0.8626425 -0.26992187Z"/>
<!-- (77, 0, 0) -->
<path class="cell-path" d="M-0.6368895 -0.378125L-0.8626425 -0.26992187L-0.7679209 -0.056640625L-0.55254227 -0.17578125Z"/>
<!-- (78, 0, 0) -->
<path class="cell-path" d="M-0.6368895 -0.378125L-0.55254227 -0.17578125L-0.34392938 -0.29101562L-0.425871 -0.47460938Z"/>
<!-- (79, 0, 0) -->
<path class="cell-path" d="M-0.6368895 -0.378125L-0.425871 -0.47460938L-0.42654756 -0.7627604L-0.68748283 -0.60325515Z"/>
<!-- (80, 0, 0) -->
<path class="cell-path" d="M-0.21199581 1.546875L-0.401063 1.4967448L-0.41045997 1.5507812L-0.20974055 1.6210938Z"/>
<!-- (81, 0, 0) -->
<path class="cell-path" d="M-0.21199581 1.546875L-0.20974055 1.6210938L0 1.6484375L-0.0022552758 1.578125Z"/>
<!-- (82, 0, 0) -->
<path class="cell-path" d="M-0.21199581 1.546875L-0.0022552758 1.578125L-0.011727426 1.3968749L-0.21650635 1.3671875Z"/>
<!-- (83, 0, 0) -->
<path class="cell-path" d="M-0.21199581 1.546875L-0.21650635 1.3671875L-0.41948104 1.328125L-0.401063 1.4967448Z"/>
<!-- (84, 0, 0) -->
<path class="cell-path" d="M0.22913587 0.871875L0.022552736 0.76171875L-0.00834452 0.98476565L0.17839219 1.0790365Z"/>
<!-- (85, 0, 0) -->
<path class="cell-path" d="M0.22913587 0.871875L0.17839219 1.0790365L0.36715862 1.2134374L0.41970652 0.96835935Z"/>
<!-- (86, 0, 0) -->
<path class="cell-path" d="M0.22913587 0.871875L0.41970652 0.96835935L0.5193896 0.79257816L0.31348312 0.67578125Z"/>
<!-- (87, 0, 0) -->
<path class="cell-path" d="M0.22913587 0.871875L0.31348312 0.67578125L0.098104425 0.5597656L0.022552736 0.76171875Z"/>
<!-- (88, 0, 0) -->
<path class="cell-path" d="M0.8479831 0.25L0.6438808 0.37695312L0.8479831 0.5L1.0329156 0.3776042Z"/>
<!-- (89, 0, 0) -->
<path class="cell-path" d="M0.8479831 0.25L1.0329156 0.3776042L1.2855064 0.25L1.0329156 0.12239583Z"/>
<!-- (90, 0, 0) -->
<path class="cell-path" d="M0.8479831 0.25L1.0329156 0.12239583L0.8446002 0.001953125L0.6404979 0.125Z"/>
<!-- (91, 0, 0) -->
<path class="cell-path" d="M0.8479831 0.25L0.6404979 0.125L0.43639556 0.25195312L0.6438808 0.37695312Z"/>
<!-- (92, 0, 0) -->
<path class="cell-path" d="M-1.437963 -0.11250001L-1.2726513 -0.07382813L-1.2870098 -0.2541667L-1.3971424 -0.34179688Z"/>
<!-- (93, 0, 0) -->
<path class="cell-path" d="M-1.437963 -0.11250001L-1.3971424 -0.34179688L-1.470439 -0.49479166L-1.5087786 -0.16015625Z"/>
<!-- (94, 0, 0) -->
<path class="cell-path" d="M-1.437963 -0.11250001L-1.5087786 -0.16015625L-1.5214082 0.11015625L-1.4417969 0.14492187Z"/>
<!-- (95, 0, 0) -->
<path class="cell-path" d="M-1.437963 -0.11250001L-1.4417969 0.14492187L-1.215142 0.2078125L-1.2726513 -0.07382813Z"/>
<!-- (96, 0, 0) -->
<path class="cell-path" d="M0.20658314 1.5359375L0.2142511 1.6132812L0.42760003 1.5085938L0.41519606 1.4332032Z"/>
<!-- (97, 0, 0) -->
<path class="cell-path" d="M0.20658314 1.5359375L0.41519606 1.4332032L0.36715862 1.2134374L0.17613693 1.368099Z"/>
<!-- (98, 0, 0) -->
<path class="cell-path" d="M0.20658314 1.5359375L0.17613693 1.368099L-0.011727426 1.3968749L-0.0022552758 1.578125Z"/>
<!-- (99, 0, 0) -->
<path class="cell-path" d="M0.20658314 1.5359375L-0.0022552758 1.578125L0 1.6484375L0.2142511 1.6132812Z"/>
<!-- (100, 0, 0) -->
<path class="cell-path" d="M1.2268693 0.959375L1.0794495 1.108724L1.1355307 1.1332031L1.2990382 0.9921875Z"/>
<!-- (101, 0, 0) -->
<path class="cell-path" d="M1.2268693 0.959375L1.2990382 0.9921875L1.4275888 0.82421875L1.3666965 0.79296875Z"/>
<!-- (102, 0, 0) -->
<path class="cell-path" d="M1.2268693 0.959375L1.3666965 0.79296875L1.203189 0.70820314L1.0584004 0.8769531Z"/>
<!-- (103, 0, 0) -->
<path class="cell-path" d="M1.2268693 0.959375L1.0584004 0.8769531L0.8656645 1.064375L1.0794495 1.108724Z"/>
<!-- (104, 0, 0) -->
<path class="cell-path" d="M-0.6359874 1.109375L-0.6517743 0.875L-0.86151487 0.88671875L-0.8438485 1.1035156Z"/>
<!-- (105, 0, 0) -->
<path class="cell-path" d="M-0.6359874 1.109375L-0.8438485 1.1035156L-0.76378626 1.2708334L-0.60103065 1.3092448Z"/>
<!-- (106, 0, 0) -->
<path class="cell-path" d="M-0.6359874 1.109375L-0.60103065 1.3092448L-0.41948104 1.328125L-0.43075743 1.1054688Z"/>
<!-- (107, 0, 0) -->
<path class="cell-path" d="M-0.6359874 1.109375L-0.43075743 1.1054688L-0.43301272 0.86249995L-0.6517743 0.875Z"/>
<!-- (108, 0, 0) -->
<path class="cell-path" d="M1.4433756 0.59375L1.286634 0.52408856L1.203189 0.70820314L1.3666965 0.79296875Z"/>
<!-- (109, 0, 0) -->
<path class="cell-path" d="M1.4433756 0.59375L1.3666965 0.79296875L1.4275888 0.82421875L1.511034 0.6328125Z"/>
<!-- (110, 0, 0) -->
<path class="cell-path" d="M1.4433756 0.59375L1.511034 0.6328125L1.5437353 0.41992188L1.4866018 0.38867188Z"/>
<!-- (111, 0, 0) -->
<path class="cell-path" d="M1.4433756 0.59375L1.4866018 0.38867188L1.2855064 0.25L1.286634 0.52408856Z"/>
<!-- (112, 0, 0) -->
<path class="cell-path" d="M0.015786912 -0.25390625L0.21988922 -0.37695312L0.018042184 -0.50390625L-0.15110339 -0.38020834Z"/>
<!-- (113, 0, 0) -->
<path class="cell-path" d="M0.015786912 -0.25390625L-0.15110339 -0.38020834L-0.34392938 -0.29101562L-0.19282596 -0.13476562Z"/>
<!-- (114, 0, 0) -->
<path class="cell-path" d="M0.015786912 -0.25390625L-0.19282596 -0.13476562L0.003382912 0.0011718739L0.2187616 -0.125Z"/>
<!-- (115, 0, 0) -->
<path class="cell-path" d="M0.015786912 -0.25390625L0.2187616 -0.125L0.43301263 -0.253125L0.21988922 -0.37695312Z"/>
<!-- (116, 0, 0) -->
<path class="cell-path" d="M-1.075766 -0.15078126L-1.1547005 -0.35390627L-1.2870098 -0.2541667L-1.2726513 -0.07382813Z"/>
<!-- (117, 0, 0) -->
<path class="cell-path" d="M-1.075766 -0.15078126L-1.2726513 -0.07382813L-1.215142 0.2078125L-0.9884869 0.07070312Z"/>
<!-- (118, 0, 0) -->
<path class="cell-path" d="M-1.075766 -0.15078126L-0.9884869 0.07070312L-0.7679209 -0.056640625L-0.8626425 -0.26992187Z"/>
<!-- (119, 0, 0) -->
<path class="cell-path" d="M-1.075766 -0.15078126L-0.8626425 -0.26992187L-0.9463132 -0.5328125L-1.1547005 -0.35390627Z"/>
<!-- (120, 0, 0) -->
<path class="cell-path" d="M0.0022552721 -0.76953125L0.14095464 -0.9199219L-0.008118987 -1.0005208L-0.15862097 -0.91276044Z"/>
<!-- (121, 0, 0) -->
<path class="cell-path" d="M0.0022552721 -0.76953125L-0.15862097 -0.91276044L-0.42654756 -0.7627604L-0.16764207 -0.62890625Z"/>
<!-- (122, 0, 0) -->
<path class="cell-path" d="M0.0022552721 -0.76953125L-0.16764207 -0.62890625L0.018042184 -0.50390625L0.19959179 -0.6425781Z"/>
<!-- (123, 0, 0) -->
<path class="cell-path" d="M0.0022552721 -0.76953125L0.19959179 -0.6425781L0.34099746 -0.809375L0.14095464 -0.9199219Z"/>
<!-- (124, 0, 0) -->
<path class="cell-path" d="M-1.4614177 0.84375L-1.2922722 0.9375L-1.2895659 0.740625L-1.4614179 0.6484375Z"/>
<!-- (125, 0, 0) -->
<path class="cell-path" d="M-1.4614177 0.84375L-1.4614179 0.6484375L-1.5290761 0.609375L-1.5290761 0.8046875Z"/>
<!-- (126, 0, 0) -->
<path class="cell-path" d="M-1.4614177 0.84375L-1.5290761 0.8046875L-1.529076 0.8828125L-1.4614178 0.921875Z"/>
<!-- (127, 0, 0) -->
<path class="cell-path" d="M-1.4614177 0.84375L-1.4614178 0.921875L-1.2877617 1.0195312L-1.2922722 0.9375Z"/>
<!-- (128, 0, 0) -->
<path class="cell-path" d="M0.4330126 0L0.21988924 0.12695312L0.43639556 0.25195312L0.6404979 0.125Z"/>
<!-- (129, 0, 0) -->
<path class="cell-path" d="M0.4330126 0L0.6404979 0.125L0.8446002 0.001953125L0.6427531 -0.125Z"/>
<!-- (130, 0, 0) -->
<path class="cell-path" d="M0.4330126 0L0.6427531 -0.125L0.43301263 -0.253125L0.2187616 -0.125Z"/>
<!-- (131, 0, 0) -->
<path class="cell-path" d="M0.4330126 0L0.2187616 -0.125L0.003382912 0.0011718739L0.21988924 0.12695312Z"/>
<!-- (132, 0, 0) -->
<path class="cell-path" d="M-1.2864084 -0.503125L-1.3971424 -0.34179688L-1.2870098 -0.2541667L-1.1547005 -0.35390627Z"/>
<!-- (133, 0, 0) -->
<path class="cell-path" d="M-1.2864084 -0.503125L-1.1547005 -0.35390627L-0.9463132 -0.5328125L-1.1580834 -0.6605469Z"/>
<!-- (134, 0, 0) -->
<path class="cell-path" d="M-1.2864084 -0.503125L-1.1580834 -0.6605469L-1.2846044 -0.7416666L-1.3971424 -0.6503906Z"/>
<!-- (135, 0, 0) -->
<path class="cell-path" d="M-1.2864084 -0.503125L-1.3971424 -0.6503906L-1.470439 -0.49479166L-1.3971424 -0.34179688Z"/>
<!-- (136, 0, 0) -->
<path class="cell-path" d="M0.19620886 -1.1210938L-0.01781666 -1.1730468L-0.008118987 -1.0005208L0.14095464 -0.9199219Z"/>
<!-- (137, 0, 0) -->
<path class="cell-path" d="M0.19620886 -1.1210938L0.14095464 -0.9199219L0.34099746 -0.809375L0.42263845 -1.0179688Z"/>
<!-- (138, 0, 0) -->
<path class="cell-path" d="M0.19620886 -1.1210938L0.42263845 -1.0179688L0.49399525 -1.2706251L0.21312341 -1.3589844Z"/>
<!-- (139, 0, 0) -->
<path class="cell-path" d="M0.19620886 -1.1210938L0.21312341 -1.3589844L-0.060982615 -1.4324999L-0.01781666 -1.1730468Z"/>
<!-- (140, 0, 0) -->
<path class="cell-path" d="M-1.4343547 -0.828125L-1.4336028 -0.91796875L-1.5155444 -0.875L-1.5087786 -0.77734375Z"/>
<!-- (141, 0, 0) -->
<path class="cell-path" d="M-1.4343547 -0.828125L-1.5087786 -0.77734375L-1.470439 -0.49479166L-1.3971424 -0.6503906Z"/>
<!-- (142, 0, 0) -->
<path class="cell-path" d="M-1.4343547 -0.828125L-1.3971424 -0.6503906L-1.2846044 -0.7416666L-1.271223 -0.8828125Z"/>
<!-- (143, 0, 0) -->
<path class="cell-path" d="M-1.4343547 -0.828125L-1.271223 -0.8828125L-1.1892815 -1.0234375L-1.4336028 -0.91796875Z"/>
<!-- (144, 0, 0) -->
<path class="cell-path" d="M1.2606986 -0.49453127L1.4129295 -0.61783856L1.2832512 -0.7453125L1.1179396 -0.64127606Z"/>
<!-- (145, 0, 0) -->
<path class="cell-path" d="M1.2606986 -0.49453127L1.1179396 -0.64127606L0.85610217 -0.5734375L1.0570471 -0.38085938Z"/>
<!-- (146, 0, 0) -->
<path class="cell-path" d="M1.2606986 -0.49453127L1.0570471 -0.38085938L1.2043166 -0.2140625L1.3809797 -0.3268229Z"/>
<!-- (147, 0, 0) -->
<path class="cell-path" d="M1.2606986 -0.49453127L1.3809797 -0.3268229L1.4757012 -0.4700521L1.4129295 -0.61783856Z"/>
<!-- (148, 0, 0) -->
<path class="cell-path" d="M-0.39783043 -1.4421875L-0.55742866 -1.296224L-0.43060705 -1.2375001L-0.28055614 -1.3234375Z"/>
<!-- (149, 0, 0) -->
<path class="cell-path" d="M-0.39783043 -1.4421875L-0.28055614 -1.3234375L-0.060982615 -1.4324999L-0.2294366 -1.5734375Z"/>
<!-- (150, 0, 0) -->
<path class="cell-path" d="M-0.39783043 -1.4421875L-0.2294366 -1.5734375L-0.28055614 -1.6179688L-0.4706006 -1.4817709Z"/>
<!-- (151, 0, 0) -->
<path class="cell-path" d="M-0.39783043 -1.4421875L-0.4706006 -1.4817709L-0.7201843 -1.2942709L-0.55742866 -1.296224Z"/>
<!-- (152, 0, 0) -->
<path class="cell-path" d="M0.21650635 -1.5546875L0.009622504 -1.628125L-0.060982615 -1.4324999L0.21312341 -1.3589844Z"/>
<!-- (153, 0, 0) -->
<path class="cell-path" d="M0.21650635 -1.5546875L0.21312341 -1.3589844L0.49399525 -1.2706251L0.42339015 -1.4880208Z"/>
<!-- (154, 0, 0) -->
<path class="cell-path" d="M0.21650635 -1.5546875L0.42339015 -1.4880208L0.4136173 -1.55L0.21650635 -1.6328125Z"/>
<!-- (155, 0, 0) -->
<path class="cell-path" d="M0.21650635 -1.5546875L0.21650635 -1.6328125L0.019395355 -1.6882813L0.009622504 -1.628125Z"/>
<!-- (156, 0, 0) -->
<path class="cell-path" d="M-0.40594932 -0.009375L-0.19282596 -0.13476562L-0.34392938 -0.29101562L-0.55254227 -0.17578125Z"/>
<!-- (157, 0, 0) -->
<path class="cell-path" d="M-0.40594932 -0.009375L-0.55254227 -0.17578125L-0.7679209 -0.056640625L-0.6224557 0.13203125Z"/>
<!-- (158, 0, 0) -->
<path class="cell-path" d="M-0.40594932 -0.009375L-0.6224557 0.13203125L-0.42759997 0.34062502L-0.2097405 0.14375Z"/>
<!-- (159, 0, 0) -->
<path class="cell-path" d="M-0.40594932 -0.009375L-0.2097405 0.14375L0.003382912 0.0011718739L-0.19282596 -0.13476562Z"/>
<!-- (160, 0, 0) -->
<path class="cell-path" d="M-0.19620888 0.6664063L0.022552736 0.76171875L0.098104425 0.5597656L-0.13531645 0.44453126Z"/>
<!-- (161, 0, 0) -->
<path class="cell-path" d="M-0.19620888 0.6664063L-0.13531645 0.44453126L-0.42759997 0.34062502L-0.43301272 0.6125Z"/>
<!-- (162, 0, 0) -->
<path class="cell-path" d="M-0.19620888 0.6664063L-0.43301272 0.6125L-0.43301272 0.86249995L-0.21650633 0.90234375Z"/>
<!-- (163, 0, 0) -->
<path class="cell-path" d="M-0.19620888 0.6664063L-0.21650633 0.90234375L-0.00834452 0.98476565L0.022552736 0.76171875Z"/>
<!-- (164, 0, 0) -->
<path class="cell-path" d="M-0.9622505 -1.1666666L-1.0408092 -1.0345052L-0.8597107 -0.9859375L-0.8085159 -1.1686198Z"/>
<!-- (165, 0, 0) -->
<path class="cell-path" d="M-0.9622505 -1.1666666L-0.8085159 -1.1686198L-0.7201843 -1.2942709L-0.98329973 -1.203125Z"/>
<!-- (166, 0, 0) -->
<path class="cell-path" d="M-0.9622505 -1.1666666L-0.98329973 -1.203125L-1.1892815 -1.0234375L-1.0408092 -1.0345052Z"/>
<!-- (167, 0, 0) -->
<path class="cell-path" d="M-0.5412659 1.4479166L-0.5758468 1.4661458L-0.41045997 1.5507812L-0.401063 1.4967448Z"/>
<!-- (168, 0, 0) -->
<path class="cell-path" d="M-0.5412659 1.4479166L-0.401063 1.4967448L-0.41948104 1.328125L-0.60103065 1.3092448Z"/>
<!-- (169, 0, 0) -->
<path class="cell-path" d="M-0.5412659 1.4479166L-0.60103065 1.3092448L-0.76378626 1.2708334L-0.5758468 1.4661458Z"/>
<!-- (170, 0, 0) -->
<path class="cell-path" d="M-0.7469469 -0.76458335L-0.91000324 -0.788151L-0.9463132 -0.5328125L-0.68748283 -0.60325515Z"/>
<!-- (171, 0, 0) -->
<path class="cell-path" d="M-0.7469469 -0.76458335L-0.68748283 -0.60325515L-0.42654756 -0.7627604L-0.66718537 -0.9134114Z"/>
<!-- (172, 0, 0) -->
<path class="cell-path" d="M-0.7469469 -0.76458335L-0.66718537 -0.9134114L-0.8597107 -0.9859375L-0.91000324 -0.788151Z"/>
<!-- (173, 0, 0) -->
<path class="cell-path" d="M-0.26161182 -0.49479166L-0.425871 -0.47460938L-0.34392938 -0.29101562L-0.15110339 -0.38020834Z"/>
<!-- (174, 0, 0) -->
<path class="cell-path" d="M-0.26161182 -0.49479166L-0.15110339 -0.38020834L0.018042184 -0.50390625L-0.16764207 -0.62890625Z"/>
<!-- (175, 0, 0) -->
<path class="cell-path" d="M-0.26161182 -0.49479166L-0.16764207 -0.62890625L-0.42654756 -0.7627604L-0.425871 -0.47460938Z"/>
<!-- (176, 0, 0) -->
<path class="cell-path" d="M-0.1274982 -1.6729168L-0.2294366 -1.5734375L-0.060982615 -1.4324999L0.009622504 -1.628125Z"/>
<!-- (177, 0, 0) -->
<path class="cell-path" d="M-0.1274982 -1.6729168L0.009622504 -1.628125L0.019395355 -1.6882813L-0.14133054 -1.7109375Z"/>
<!-- (178, 0, 0) -->
<path class="cell-path" d="M-0.1274982 -1.6729168L-0.14133054 -1.7109375L-0.28055614 -1.6179688L-0.2294366 -1.5734375Z"/>
<!-- (179, 0, 0) -->
<path class="cell-path" d="M0.11907849 1.225L-0.028190939 1.1946615L-0.011727426 1.3968749L0.17613693 1.368099Z"/>
<!-- (180, 0, 0) -->
<path class="cell-path" d="M0.11907849 1.225L0.17613693 1.368099L0.36715862 1.2134374L0.17839219 1.0790365Z"/>
<!-- (181, 0, 0) -->
<path class="cell-path" d="M0.11907849 1.225L0.17839219 1.0790365L-0.00834452 0.98476565L-0.028190939 1.1946615Z"/>
<!-- (182, 0, 0) -->
<path class="cell-path" d="M0.57915443 1.0093751L0.41970652 0.96835935L0.36715862 1.2134374L0.61659205 1.1617187Z"/>
<!-- (183, 0, 0) -->
<path class="cell-path" d="M0.57915443 1.0093751L0.61659205 1.1617187L0.8656645 1.064375L0.7054498 0.8984375Z"/>
<!-- (184, 0, 0) -->
<path class="cell-path" d="M0.57915443 1.0093751L0.7054498 0.8984375L0.5193896 0.79257816L0.41970652 0.96835935Z"/>
<!-- (185, 0, 0) -->
<path class="cell-path" d="M0.5605108 -1.4625L0.42339015 -1.4880208L0.49399525 -1.2706251L0.66583216 -1.349349Z"/>
<!-- (186, 0, 0) -->
<path class="cell-path" d="M0.5605108 -1.4625L0.66583216 -1.349349L0.7113135 -1.3820312L0.5743432 -1.4947917Z"/>
<!-- (187, 0, 0) -->
<path class="cell-path" d="M0.5605108 -1.4625L0.5743432 -1.4947917L0.4136173 -1.55L0.42339015 -1.4880208Z"/>
<!-- (188, 0, 0) -->
<path class="cell-path" d="M0.98630667 1.2166667L0.8415181 1.2513021L0.8412174 1.3070313L1.0073559 1.2447917Z"/>
<!-- (189, 0, 0) -->
<path class="cell-path" d="M0.98630667 1.2166667L1.0073559 1.2447917L1.1355307 1.1332031L1.0794495 1.108724Z"/>
<!-- (190, 0, 0) -->
<path class="cell-path" d="M0.98630667 1.2166667L1.0794495 1.108724L0.8656645 1.064375L0.8415181 1.2513021Z"/>
<!-- (191, 0, 0) -->
<path class="cell-path" d="M1.1276373 0.5052083L1.019384 0.6197917L1.203189 0.70820314L1.286634 0.52408856Z"/>
<!-- (192, 0, 0) -->
<path class="cell-path" d="M1.1276373 0.5052083L1.286634 0.52408856L1.2855064 0.25L1.0329156 0.3776042Z"/>
<!-- (193, 0, 0) -->
<path class="cell-path" d="M1.1276373 0.5052083L1.0329156 0.3776042L0.8479831 0.5L1.019384 0.6197917Z"/>
<!-- (194, 0, 0) -->
<path class="cell-path" d="M1.127637 -0.0052083335L1.0329156 0.12239583L1.2855064 0.25L1.286634 -0.024088543Z"/>
<!-- (195, 0, 0) -->
<path class="cell-path" d="M1.127637 -0.0052083335L1.286634 -0.024088543L1.2043166 -0.2140625L1.0171287 -0.11979167Z"/>
<!-- (196, 0, 0) -->
<path class="cell-path" d="M1.127637 -0.0052083335L1.0171287 -0.11979167L0.8446002 0.001953125L1.0329156 0.12239583Z"/>
<!-- (197, 0, 0) -->
<path class="cell-path" d="M1.0374264 -0.7635417L0.86760414 -0.79361975L0.85610217 -0.5734375L1.1179396 -0.64127606Z"/>
<!-- (198, 0, 0) -->
<path class="cell-path" d="M1.0374264 -0.7635417L1.1179396 -0.64127606L1.2832512 -0.7453125L1.1344031 -0.8658854Z"/>
<!-- (199, 0, 0) -->
<path class="cell-path" d="M1.0374264 -0.7635417L1.1344031 -0.8658854L0.9476664 -0.9617188L0.86760414 -0.79361975Z"/>
<!-- (200, 0, 0) -->
<path class="cell-path" d="M1.5396005 0.25L1.4866018 0.38867188L1.5437353 0.41992188L1.5816991 0.25Z"/>
<!-- (201, 0, 0) -->
<path class="cell-path" d="M1.5396005 0.25L1.5816991 0.25L1.5448629 0.07421875L1.4866018 0.111328125Z"/>
<!-- (202, 0, 0) -->
<path class="cell-path" d="M1.5396005 0.25L1.4866018 0.111328125L1.2855064 0.25L1.4866018 0.38867188Z"/>
<!-- (203, 0, 0) -->
<path class="cell-path" d="M1.4884812 -0.734375L1.4129295 -0.61783856L1.4757012 -0.4700521L1.5283245 -0.7174479Z"/>
<!-- (204, 0, 0) -->
<path class="cell-path" d="M1.4884812 -0.734375L1.5283245 -0.7174479L1.4501415 -0.86328125L1.4042842 -0.84375Z"/>
<!-- (205, 0, 0) -->
<path class="cell-path" d="M1.4884812 -0.734375L1.4042842 -0.84375L1.2832512 -0.7453125L1.4129295 -0.61783856Z"/>
</svg>
