<svg viewBox="-2 -2 4 4" xmlns="http://www.w3.org/2000/svg">
<style>path{stroke-linejoin: round}</style>
<!-- (0, 0, 0) -->
<path style="fill: rgb(244, 244, 241); stroke: rgb(51, 51, 51); stroke-width: 0.1" d="M0 0L0.8660254 0.5L0.8660254 0Z"/>
<!-- (1, 0, 0) -->
<path style="fill: rgb(244, 244, 241); stroke: rgb(51, 51, 51); stroke-width: 0.1" d="M0 0L0.8660254 0L0.8660254 -0.5Z"/>
<!-- (2, 0, 0) -->
<path style="fill: rgb(244, 244, 241); stroke: rgb(51, 51, 51); stroke-width: 0.1" d="M0 0L0.8660254 -0.5L0.4330127 -0.75Z"/>
<!-- (3, 0, 0) -->
<path style="fill: rgb(244, 244, 241); stroke: rgb(51, 51, 51); stroke-width: 0.1" d="M0 0L0.4330127 -0.75L0 -1Z"/>
<!-- (4, 0, 0) -->
<path style="fill: rgb(244, 244, 241); stroke: rgb(51, 51, 51); stroke-width: 0.1" d="M0 0L0 -1L-0.4330127 -0.75Z"/>
<!-- (5, 0, 0) -->
<path style="fill: rgb(244, 244, 241); stroke: rgb(51, 51, 51); stroke-width: 0.1" d="M0 0L-0.4330127 -0.75L-0.8660254 -0.5Z"/>
<!-- (6, 0, 0) -->
<path style="fill: rgb(244, 244, 241); stroke: rgb(51, 51, 51); stroke-width: 0.1" d="M0 0L-0.8660254 -0.5L-0.8660254 0Z"/>
<!-- (7, 0, 0) -->
<path style="fill: rgb(244, 244, 241); stroke: rgb(51, 51, 51); stroke-width: 0.1" d="M0 0L-0.8660254 0L-0.8660254 0.5Z"/>
<!-- (8, 0, 0) -->
<path style="fill: rgb(244, 244, 241); stroke: rgb(51, 51, 51); stroke-width: 0.1" d="M0 0L-0.8660254 0.5L-0.4330127 0.75Z"/>
<!-- (9, 0, 0) -->
<path style="fill: rgb(244, 244, 241); stroke: rgb(51, 51, 51); stroke-width: 0.1" d="M0 0L-0.4330127 0.75L0 1Z"/>
<!-- (10, 0, 0) -->
<path style="fill: rgb(244, 244, 241); stroke: rgb(51, 51, 51); stroke-width: 0.1" d="M0 0L0 1L0.4330127 0.75Z"/>
<!-- (11, 0, 0) -->
<path style="fill: rgb(244, 244, 241); stroke: rgb(51, 51, 51); stroke-width: 0.1" d="M0 0L0.4330127 0.75L0.8660254 0.5Z"/>
</svg>
