<svg viewBox="-2 -2 4 4" xmlns="http://www.w3.org/2000/svg">
<style>
.cell-path {
                stroke-linejoin: round;
                fill: rgb(244, 244, 241);
                stroke: rgb(51, 51, 51);
                stroke-width: 0.1
            }
.dual .cell-path {
                fill: none;
                stroke: rgb(255, 0, 0);
                stroke-opacity: 0.5;
                stroke-width: 0.033333335
            }
</style>
<!-- (0, 0, 0) -->
<path class="cell-path" d="M-1.240285 -0.024621638L-1.1277881 -0.1775297L-1.2578384 -0.26829946L-1.3934336 -0.19465445Z"/>
<!-- (1, 0, 0) -->
<path class="cell-path" d="M-1.240285 -0.024621638L-1.3934336 -0.19465445L-1.6125853 -0.07116356L-1.3695167 0.15060781Z"/>
<!-- (2, 0, 0) -->
<path class="cell-path" d="M-1.240285 -0.024621638L-1.3695167 0.15060781L-1.1557047 0.30782127L-1.0532452 0.116732135Z"/>
<!-- (3, 0, 0) -->
<path class="cell-path" d="M-1.240285 -0.024621638L-1.0532452 0.116732135L-0.9487558 -0.066282526L-1.1277881 -0.1775297Z"/>
<!-- (4, 0, 0) -->
<path class="cell-path" d="M-1.0235493 0.6425791L-1.2353545 0.5222583L-1.2992058 0.7481502L-1.0786308 0.85579383Z"/>
<!-- (5, 0, 0) -->
<path class="cell-path" d="M-1.0235493 0.6425791L-1.0786308 0.85579383L-0.8736763 0.94480413L-0.82035345 0.74776417Z"/>
<!-- (6, 0, 0) -->
<path class="cell-path" d="M-1.0235493 0.6425791L-0.82035345 0.74776417L-0.75223887 0.5501498L-0.9492403 0.43799287Z"/>
<!-- (7, 0, 0) -->
<path class="cell-path" d="M-1.0235493 0.6425791L-0.9492403 0.43799287L-1.1557047 0.30782127L-1.2353545 0.5222583Z"/>
<!-- (8, 0, 0) -->
<path class="cell-path" d="M1.455583 0.93998235L1.4695876 1.1948864L1.7098026 1.1584065L1.6862156 0.8845826Z"/>
<!-- (9, 0, 0) -->
<path class="cell-path" d="M1.455583 0.93998235L1.6862156 0.8845826L1.6293879 0.57926106L1.4032781 0.7196492Z"/>
<!-- (10, 0, 0) -->
<path class="cell-path" d="M1.455583 0.93998235L1.4032781 0.7196492L1.2599734 0.80504006L1.2486819 0.9775638Z"/>
<!-- (11, 0, 0) -->
<path class="cell-path" d="M1.455583 0.93998235L1.2486819 0.9775638L1.2065378 1.2495364L1.4695876 1.1948864Z"/>
<!-- (12, 0, 0) -->
<path class="cell-path" d="M-0.85546863 0.24268627L-0.74247974 0.04808157L-0.9487558 -0.066282526L-1.0532452 0.116732135Z"/>
<!-- (13, 0, 0) -->
<path class="cell-path" d="M-0.85546863 0.24268627L-1.0532452 0.116732135L-1.1557047 0.30782127L-0.9492403 0.43799287Z"/>
<!-- (14, 0, 0) -->
<path class="cell-path" d="M-0.85546863 0.24268627L-0.9492403 0.43799287L-0.75223887 0.5501498L-0.66241705 0.36329606Z"/>
<!-- (15, 0, 0) -->
<path class="cell-path" d="M-0.85546863 0.24268627L-0.66241705 0.36329606L-0.49367207 0.17037484L-0.74247974 0.04808157Z"/>
<!-- (16, 0, 0) -->
<path class="cell-path" d="M-1.1195006 1.07422L-1.3582704 0.98894465L-1.4344058 1.2698544L-1.1438388 1.3007017Z"/>
<!-- (17, 0, 0) -->
<path class="cell-path" d="M-1.1195006 1.07422L-1.1438388 1.3007017L-0.8707633 1.3763673L-0.9016177 1.1411171Z"/>
<!-- (18, 0, 0) -->
<path class="cell-path" d="M-1.1195006 1.07422L-0.9016177 1.1411171L-0.8736763 0.94480413L-1.0786308 0.85579383Z"/>
<!-- (19, 0, 0) -->
<path class="cell-path" d="M-1.1195006 1.07422L-1.0786308 0.85579383L-1.2992058 0.7481502L-1.3582704 0.98894465Z"/>
<!-- (20, 0, 0) -->
<path class="cell-path" d="M0.020756435 -1.1909184L0.21392985 -1.335196L0.014845794 -1.494214L-0.15427633 -1.335694Z"/>
<!-- (21, 0, 0) -->
<path class="cell-path" d="M0.020756435 -1.1909184L-0.15427633 -1.335694L-0.30532026 -1.1706415L-0.13036048 -1.055859Z"/>
<!-- (22, 0, 0) -->
<path class="cell-path" d="M0.020756435 -1.1909184L-0.13036048 -1.055859L-0.0039444133 -0.96567017L0.15685666 -1.0279751Z"/>
<!-- (23, 0, 0) -->
<path class="cell-path" d="M0.020756435 -1.1909184L0.15685666 -1.0279751L0.42623597 -1.1249622L0.21392985 -1.335196Z"/>
<!-- (24, 0, 0) -->
<path class="cell-path" d="M-1.446717 -0.42418924L-1.3934336 -0.19465445L-1.2578384 -0.26829946L-1.2392974 -0.43933946Z"/>
<!-- (25, 0, 0) -->
<path class="cell-path" d="M-1.446717 -0.42418924L-1.2392974 -0.43933946L-1.1874202 -0.7149903L-1.4655557 -0.67922646Z"/>
<!-- (26, 0, 0) -->
<path class="cell-path" d="M-1.446717 -0.42418924L-1.4655557 -0.67922646L-1.6970487 -0.66324025L-1.6724184 -0.39689386Z"/>
<!-- (27, 0, 0) -->
<path class="cell-path" d="M-1.446717 -0.42418924L-1.6724184 -0.39689386L-1.6125853 -0.07116356L-1.3934336 -0.19465445Z"/>
<!-- (28, 0, 0) -->
<path class="cell-path" d="M-0.021449579 -1.7982681L-0.17275777 -1.6415854L0.014845794 -1.494214L0.17490137 -1.6656361Z"/>
<!-- (29, 0, 0) -->
<path class="cell-path" d="M-0.021449579 -1.7982681L0.17490137 -1.6656361L0.31118846 -1.8486278L0.10297093 -1.971825Z"/>
<!-- (30, 0, 0) -->
<path class="cell-path" d="M-0.021449579 -1.7982681L0.10297093 -1.971825L-0.093793295 -2.089699L-0.19228104 -1.9257276Z"/>
<!-- (31, 0, 0) -->
<path class="cell-path" d="M-0.021449579 -1.7982681L-0.19228104 -1.9257276L-0.34018633 -1.7934147L-0.17275777 -1.6415854Z"/>
<!-- (32, 0, 0) -->
<path class="cell-path" d="M0.85486364 -1.2049298L0.7017436 -1.0337514L0.86130863 -0.96406794L1.0153687 -1.0394624Z"/>
<!-- (33, 0, 0) -->
<path class="cell-path" d="M0.85486364 -1.2049298L1.0153687 -1.0394624L1.2749482 -1.1446627L1.0636939 -1.3749838Z"/>
<!-- (34, 0, 0) -->
<path class="cell-path" d="M0.85486364 -1.2049298L1.0636939 -1.3749838L0.8489475 -1.6152704L0.63209176 -1.3682163Z"/>
<!-- (35, 0, 0) -->
<path class="cell-path" d="M0.85486364 -1.2049298L0.63209176 -1.3682163L0.42623597 -1.1249622L0.7017436 -1.0337514Z"/>
<!-- (36, 0, 0) -->
<path class="cell-path" d="M-0.8224429 -0.7460701L-0.701422 -0.9057388L-0.83289045 -0.98306334L-0.9736732 -0.8875268Z"/>
<!-- (37, 0, 0) -->
<path class="cell-path" d="M-0.8224429 -0.7460701L-0.9736732 -0.8875268L-1.1874202 -0.7149903L-0.9585635 -0.5657923Z"/>
<!-- (38, 0, 0) -->
<path class="cell-path" d="M-0.8224429 -0.7460701L-0.9585635 -0.5657923L-0.7647997 -0.44746846L-0.6473739 -0.6247994Z"/>
<!-- (39, 0, 0) -->
<path class="cell-path" d="M-0.8224429 -0.7460701L-0.6473739 -0.6247994L-0.526666 -0.8015601L-0.701422 -0.9057388Z"/>
<!-- (40, 0, 0) -->
<path class="cell-path" d="M0.004618386 0.72092223L0.15165512 0.58583707L0.025194705 0.49423623L-0.117523395 0.5674613Z"/>
<!-- (41, 0, 0) -->
<path class="cell-path" d="M0.004618386 0.72092223L-0.117523395 0.5674613L-0.32755247 0.68692267L-0.14026521 0.85115457Z"/>
<!-- (42, 0, 0) -->
<path class="cell-path" d="M0.004618386 0.72092223L-0.14026521 0.85115457L-0.012670684 0.94456935L0.1271806 0.86569035Z"/>
<!-- (43, 0, 0) -->
<path class="cell-path" d="M0.004618386 0.72092223L0.1271806 0.86569035L0.34001938 0.72831076L0.15165512 0.58583707Z"/>
<!-- (44, 0, 0) -->
<path class="cell-path" d="M-0.46737128 1.4147428L-0.31540394 1.2351311L-0.51943034 1.1193068L-0.6498195 1.2709785Z"/>
<!-- (45, 0, 0) -->
<path class="cell-path" d="M-0.46737128 1.4147428L-0.6498195 1.2709785L-0.8707633 1.3763673L-0.6527674 1.5700098Z"/>
<!-- (46, 0, 0) -->
<path class="cell-path" d="M-0.46737128 1.4147428L-0.6527674 1.5700098L-0.4494059 1.7337902L-0.25941703 1.559169Z"/>
<!-- (47, 0, 0) -->
<path class="cell-path" d="M-0.46737128 1.4147428L-0.25941703 1.559169L-0.055709124 1.3466899L-0.31540394 1.2351311Z"/>
<!-- (48, 0, 0) -->
<path class="cell-path" d="M-0.24846363 -0.1507225L-0.20366676 0.10762361L0.09854617 0.04625012L-0.0044487156 -0.2456451Z"/>
<!-- (49, 0, 0) -->
<path class="cell-path" d="M-0.24846363 -0.1507225L-0.0044487156 -0.2456451L-0.10121848 -0.5367653L-0.31889188 -0.36449942Z"/>
<!-- (50, 0, 0) -->
<path class="cell-path" d="M-0.24846363 -0.1507225L-0.31889188 -0.36449942L-0.4577275 -0.26955208L-0.46620655 -0.101169005Z"/>
<!-- (51, 0, 0) -->
<path class="cell-path" d="M-0.24846363 -0.1507225L-0.46620655 -0.101169005L-0.49367207 0.17037484L-0.20366676 0.10762361Z"/>
<!-- (52, 0, 0) -->
<path class="cell-path" d="M-0.6265868 0.8383199L-0.82035345 0.74776417L-0.8736763 0.94480413L-0.69148564 1.018869Z"/>
<!-- (53, 0, 0) -->
<path class="cell-path" d="M-0.6265868 0.8383199L-0.69148564 1.018869L-0.51943034 1.1193068L-0.42508748 0.92533374Z"/>
<!-- (54, 0, 0) -->
<path class="cell-path" d="M-0.6265868 0.8383199L-0.42508748 0.92533374L-0.32755247 0.68692267L-0.5633473 0.6424902Z"/>
<!-- (55, 0, 0) -->
<path class="cell-path" d="M-0.6265868 0.8383199L-0.5633473 0.6424902L-0.75223887 0.5501498L-0.82035345 0.74776417Z"/>
<!-- (56, 0, 0) -->
<path class="cell-path" d="M1.2757109 -0.04874954L1.0769148 0.09091225L1.2539186 0.2624715L1.4436576 0.11189686Z"/>
<!-- (57, 0, 0) -->
<path class="cell-path" d="M1.2757109 -0.04874954L1.4436576 0.11189686L1.7114104 -0.04317763L1.4451575 -0.18978614Z"/>
<!-- (58, 0, 0) -->
<path class="cell-path" d="M1.2757109 -0.04874954L1.4451575 -0.18978614L1.2923384 -0.2754169L1.1368296 -0.21086678Z"/>
<!-- (59, 0, 0) -->
<path class="cell-path" d="M1.2757109 -0.04874954L1.1368296 -0.21086678L0.8796493 -0.117503025L1.0769148 0.09091225Z"/>
<!-- (60, 0, 0) -->
<path class="cell-path" d="M0.24048376 0.3962711L0.42797735 0.49209613L0.548109 0.30350742L0.34334537 0.18402706Z"/>
<!-- (61, 0, 0) -->
<path class="cell-path" d="M0.24048376 0.3962711L0.34334537 0.18402706L0.09854617 0.04625012L0.04753563 0.3246032Z"/>
<!-- (62, 0, 0) -->
<path class="cell-path" d="M0.24048376 0.3962711L0.04753563 0.3246032L0.025194705 0.49423623L0.15165512 0.58583707Z"/>
<!-- (63, 0, 0) -->
<path class="cell-path" d="M0.24048376 0.3962711L0.15165512 0.58583707L0.34001938 0.72831076L0.42797735 0.49209613Z"/>
<!-- (64, 0, 0) -->
<path class="cell-path" d="M-0.6652404 -0.16273317L-0.85882354 -0.25707462L-0.9487558 -0.066282526L-0.74247974 0.04808157Z"/>
<!-- (65, 0, 0) -->
<path class="cell-path" d="M-0.6652404 -0.16273317L-0.74247974 0.04808157L-0.49367207 0.17037484L-0.46620655 -0.101169005Z"/>
<!-- (66, 0, 0) -->
<path class="cell-path" d="M-0.6652404 -0.16273317L-0.46620655 -0.101169005L-0.4577275 -0.26955208L-0.5896412 -0.3445592Z"/>
<!-- (67, 0, 0) -->
<path class="cell-path" d="M-0.6652404 -0.16273317L-0.5896412 -0.3445592L-0.7647997 -0.44746846L-0.85882354 -0.25707462Z"/>
<!-- (68, 0, 0) -->
<path class="cell-path" d="M-1.5917597 0.8549364L-1.3582704 0.98894465L-1.2992058 0.7481502L-1.5244946 0.62139016Z"/>
<!-- (69, 0, 0) -->
<path class="cell-path" d="M-1.5917597 0.8549364L-1.5244946 0.62139016L-1.7558773 0.4930346L-1.8121556 0.72793996Z"/>
<!-- (70, 0, 0) -->
<path class="cell-path" d="M-1.5917597 0.8549364L-1.8121556 0.72793996L-1.8937895 0.9311929L-1.6863557 1.0793135Z"/>
<!-- (71, 0, 0) -->
<path class="cell-path" d="M-1.5917597 0.8549364L-1.6863557 1.0793135L-1.4344058 1.2698544L-1.3582704 0.98894465Z"/>
<!-- (72, 0, 0) -->
<path class="cell-path" d="M0.3926472 -1.5240753L0.21392985 -1.335196L0.42623597 -1.1249622L0.63209176 -1.3682163Z"/>
<!-- (73, 0, 0) -->
<path class="cell-path" d="M0.3926472 -1.5240753L0.63209176 -1.3682163L0.8489475 -1.6152704L0.5469157 -1.7324426Z"/>
<!-- (74, 0, 0) -->
<path class="cell-path" d="M0.3926472 -1.5240753L0.5469157 -1.7324426L0.31118846 -1.8486278L0.17490137 -1.6656361Z"/>
<!-- (75, 0, 0) -->
<path class="cell-path" d="M0.3926472 -1.5240753L0.17490137 -1.6656361L0.014845794 -1.494214L0.21392985 -1.335196Z"/>
<!-- (76, 0, 0) -->
<path class="cell-path" d="M0.61272746 1.3844434L0.618139 1.1685982L0.40382668 1.2125427L0.40184593 1.4267634Z"/>
<!-- (77, 0, 0) -->
<path class="cell-path" d="M0.61272746 1.3844434L0.40184593 1.4267634L0.33560345 1.6828362L0.60940653 1.6060889Z"/>
<!-- (78, 0, 0) -->
<path class="cell-path" d="M0.61272746 1.3844434L0.60940653 1.6060889L0.8251405 1.5239205L0.8059889 1.3350815Z"/>
<!-- (79, 0, 0) -->
<path class="cell-path" d="M0.61272746 1.3844434L0.8059889 1.3350815L0.825416 1.13826L0.618139 1.1685982Z"/>
<!-- (80, 0, 0) -->
<path class="cell-path" d="M0.61724794 0.94198805L0.605837 0.7115772L0.34001938 0.72831076L0.38583115 0.9861213Z"/>
<!-- (81, 0, 0) -->
<path class="cell-path" d="M0.61724794 0.94198805L0.38583115 0.9861213L0.40382668 1.2125427L0.618139 1.1685982Z"/>
<!-- (82, 0, 0) -->
<path class="cell-path" d="M0.61724794 0.94198805L0.618139 1.1685982L0.825416 1.13826L0.8472403 0.910958Z"/>
<!-- (83, 0, 0) -->
<path class="cell-path" d="M0.61724794 0.94198805L0.8472403 0.910958L0.87497354 0.6407484L0.605837 0.7115772Z"/>
<!-- (84, 0, 0) -->
<path class="cell-path" d="M-0.07377039 1.7228818L0.114948295 1.5467792L-0.055709124 1.3466899L-0.25941703 1.559169Z"/>
<!-- (85, 0, 0) -->
<path class="cell-path" d="M-0.07377039 1.7228818L-0.25941703 1.559169L-0.4494059 1.7337902L-0.25927788 1.8869262Z"/>
<!-- (86, 0, 0) -->
<path class="cell-path" d="M-0.07377039 1.7228818L-0.25927788 1.8869262L-0.094237655 2.0370543L0.09987795 1.8834851Z"/>
<!-- (87, 0, 0) -->
<path class="cell-path" d="M-0.07377039 1.7228818L0.09987795 1.8834851L0.33560345 1.6828362L0.114948295 1.5467792Z"/>
<!-- (88, 0, 0) -->
<path class="cell-path" d="M-0.2261326 1.0347147L-0.028374216 1.1010982L-0.012670684 0.94456935L-0.14026521 0.85115457Z"/>
<!-- (89, 0, 0) -->
<path class="cell-path" d="M-0.2261326 1.0347147L-0.14026521 0.85115457L-0.32755247 0.68692267L-0.42508748 0.92533374Z"/>
<!-- (90, 0, 0) -->
<path class="cell-path" d="M-0.2261326 1.0347147L-0.42508748 0.92533374L-0.51943034 1.1193068L-0.31540394 1.2351311Z"/>
<!-- (91, 0, 0) -->
<path class="cell-path" d="M-0.2261326 1.0347147L-0.31540394 1.2351311L-0.055709124 1.3466899L-0.028374216 1.1010982Z"/>
<!-- (92, 0, 0) -->
<path class="cell-path" d="M1.0633252 -0.8371396L1.0153687 -1.0394624L0.86130863 -0.96406794L0.8634936 -0.8123308Z"/>
<!-- (93, 0, 0) -->
<path class="cell-path" d="M1.0633252 -0.8371396L0.8634936 -0.8123308L0.8658936 -0.6097709L1.0809147 -0.62369347Z"/>
<!-- (94, 0, 0) -->
<path class="cell-path" d="M1.0633252 -0.8371396L1.0809147 -0.62369347L1.2949257 -0.6373167L1.289711 -0.86789Z"/>
<!-- (95, 0, 0) -->
<path class="cell-path" d="M1.0633252 -0.8371396L1.289711 -0.86789L1.2749482 -1.1446627L1.0153687 -1.0394624Z"/>
<!-- (96, 0, 0) -->
<path class="cell-path" d="M1.0603006 0.9382603L1.2486819 0.9775638L1.2599734 0.80504006L1.1155096 0.73398066Z"/>
<!-- (97, 0, 0) -->
<path class="cell-path" d="M1.0603006 0.9382603L1.1155096 0.73398066L0.87497354 0.6407484L0.8472403 0.910958Z"/>
<!-- (98, 0, 0) -->
<path class="cell-path" d="M1.0603006 0.9382603L0.8472403 0.910958L0.825416 1.13826L1.0131326 1.15224Z"/>
<!-- (99, 0, 0) -->
<path class="cell-path" d="M1.0603006 0.9382603L1.0131326 1.15224L1.2065378 1.2495364L1.2486819 0.9775638Z"/>
<!-- (100, 0, 0) -->
<path class="cell-path" d="M1.2552239 0.57261L1.4187384 0.41985333L1.2539186 0.2624715L1.071473 0.4326231Z"/>
<!-- (101, 0, 0) -->
<path class="cell-path" d="M1.2552239 0.57261L1.071473 0.4326231L0.87497354 0.6407484L1.1155096 0.73398066Z"/>
<!-- (102, 0, 0) -->
<path class="cell-path" d="M1.2552239 0.57261L1.1155096 0.73398066L1.2599734 0.80504006L1.4032781 0.7196492Z"/>
<!-- (103, 0, 0) -->
<path class="cell-path" d="M1.2552239 0.57261L1.4032781 0.7196492L1.6293879 0.57926106L1.4187384 0.41985333Z"/>
<!-- (104, 0, 0) -->
<path class="cell-path" d="M0.64277196 -0.39863923L0.8710543 -0.38355932L0.8658936 -0.6097709L0.6483543 -0.61420536Z"/>
<!-- (105, 0, 0) -->
<path class="cell-path" d="M0.64277196 -0.39863923L0.6483543 -0.61420536L0.42413384 -0.6130637L0.4387858 -0.40001276Z"/>
<!-- (106, 0, 0) -->
<path class="cell-path" d="M0.64277196 -0.39863923L0.4387858 -0.40001276L0.45661417 -0.24433194L0.6169543 -0.1919227Z"/>
<!-- (107, 0, 0) -->
<path class="cell-path" d="M0.64277196 -0.39863923L0.6169543 -0.1919227L0.8796493 -0.117503025L0.8710543 -0.38355932Z"/>
<!-- (108, 0, 0) -->
<path class="cell-path" d="M1.4946511 -0.40372065L1.725883 -0.37207648L1.731555 -0.62954116L1.5114579 -0.62876135Z"/>
<!-- (109, 0, 0) -->
<path class="cell-path" d="M1.4946511 -0.40372065L1.5114579 -0.62876135L1.2949257 -0.6373167L1.2957177 -0.42949715Z"/>
<!-- (110, 0, 0) -->
<path class="cell-path" d="M1.4946511 -0.40372065L1.2957177 -0.42949715L1.2923384 -0.2754169L1.4451575 -0.18978614Z"/>
<!-- (111, 0, 0) -->
<path class="cell-path" d="M1.4946511 -0.40372065L1.4451575 -0.18978614L1.7114104 -0.04317763L1.725883 -0.37207648Z"/>
<!-- (112, 0, 0) -->
<path class="cell-path" d="M0.18249293 -0.8180998L0.15685666 -1.0279751L-0.0039444133 -0.96567017L-0.037792936 -0.80371916Z"/>
<!-- (113, 0, 0) -->
<path class="cell-path" d="M0.18249293 -0.8180998L-0.037792936 -0.80371916L-0.10121848 -0.5367653L0.18531558 -0.5791001Z"/>
<!-- (114, 0, 0) -->
<path class="cell-path" d="M0.18249293 -0.8180998L0.18531558 -0.5791001L0.42413384 -0.6130637L0.4239262 -0.849257Z"/>
<!-- (115, 0, 0) -->
<path class="cell-path" d="M0.18249293 -0.8180998L0.4239262 -0.849257L0.42623597 -1.1249622L0.15685666 -1.0279751Z"/>
<!-- (116, 0, 0) -->
<path class="cell-path" d="M-1.5179994 -0.9275021L-1.5967518 -1.142981L-1.7294424 -1.0553455L-1.7160231 -0.89237165Z"/>
<!-- (117, 0, 0) -->
<path class="cell-path" d="M-1.5179994 -0.9275021L-1.7160231 -0.89237165L-1.6970487 -0.66324025L-1.4655557 -0.67922646Z"/>
<!-- (118, 0, 0) -->
<path class="cell-path" d="M-1.5179994 -0.9275021L-1.4655557 -0.67922646L-1.1874202 -0.7149903L-1.2845371 -1.0130028Z"/>
<!-- (119, 0, 0) -->
<path class="cell-path" d="M-1.5179994 -0.9275021L-1.2845371 -1.0130028L-1.3838291 -1.311097L-1.5967518 -1.142981Z"/>
<!-- (120, 0, 0) -->
<path class="cell-path" d="M0.89374685 0.2650711L0.7258744 0.43615046L0.87497354 0.6407484L1.071473 0.4326231Z"/>
<!-- (121, 0, 0) -->
<path class="cell-path" d="M0.89374685 0.2650711L1.071473 0.4326231L1.2539186 0.2624715L1.0769148 0.09091225Z"/>
<!-- (122, 0, 0) -->
<path class="cell-path" d="M0.89374685 0.2650711L1.0769148 0.09091225L0.8796493 -0.117503025L0.7028673 0.110331096Z"/>
<!-- (123, 0, 0) -->
<path class="cell-path" d="M0.89374685 0.2650711L0.7028673 0.110331096L0.548109 0.30350742L0.7258744 0.43615046Z"/>
<!-- (124, 0, 0) -->
<path class="cell-path" d="M0.17226808 1.0576279L0.1939553 1.2623634L0.40382668 1.2125427L0.38583115 0.9861213Z"/>
<!-- (125, 0, 0) -->
<path class="cell-path" d="M0.17226808 1.0576279L0.38583115 0.9861213L0.34001938 0.72831076L0.1271806 0.86569035Z"/>
<!-- (126, 0, 0) -->
<path class="cell-path" d="M0.17226808 1.0576279L0.1271806 0.86569035L-0.012670684 0.94456935L-0.028374216 1.1010982Z"/>
<!-- (127, 0, 0) -->
<path class="cell-path" d="M0.17226808 1.0576279L-0.028374216 1.1010982L-0.055709124 1.3466899L0.1939553 1.2623634Z"/>
<!-- (128, 0, 0) -->
<path class="cell-path" d="M0.2340384 -0.34215865L0.3191844 -0.13731016L0.45661417 -0.24433194L0.4387858 -0.40001276Z"/>
<!-- (129, 0, 0) -->
<path class="cell-path" d="M0.2340384 -0.34215865L0.4387858 -0.40001276L0.42413384 -0.6130637L0.18531558 -0.5791001Z"/>
<!-- (130, 0, 0) -->
<path class="cell-path" d="M0.2340384 -0.34215865L0.18531558 -0.5791001L-0.10121848 -0.5367653L-0.0044487156 -0.2456451Z"/>
<!-- (131, 0, 0) -->
<path class="cell-path" d="M0.2340384 -0.34215865L-0.0044487156 -0.2456451L0.09854617 0.04625012L0.3191844 -0.13731016Z"/>
<!-- (132, 0, 0) -->
<path class="cell-path" d="M-0.6139324 -1.0870602L-0.8154849 -1.1536602L-0.83289045 -0.98306334L-0.701422 -0.9057388Z"/>
<!-- (133, 0, 0) -->
<path class="cell-path" d="M-0.6139324 -1.0870602L-0.701422 -0.9057388L-0.526666 -0.8015601L-0.42066032 -0.9881314Z"/>
<!-- (134, 0, 0) -->
<path class="cell-path" d="M-0.6139324 -1.0870602L-0.42066032 -0.9881314L-0.30532026 -1.1706415L-0.5086358 -1.2945824Z"/>
<!-- (135, 0, 0) -->
<path class="cell-path" d="M-0.6139324 -1.0870602L-0.5086358 -1.2945824L-0.76484907 -1.4335566L-0.8154849 -1.1536602Z"/>
<!-- (136, 0, 0) -->
<path class="cell-path" d="M-0.47182664 -0.5044097L-0.5896412 -0.3445592L-0.4577275 -0.26955208L-0.31889188 -0.36449942Z"/>
<!-- (137, 0, 0) -->
<path class="cell-path" d="M-0.47182664 -0.5044097L-0.31889188 -0.36449942L-0.10121848 -0.5367653L-0.3324484 -0.6827705Z"/>
<!-- (138, 0, 0) -->
<path class="cell-path" d="M-0.47182664 -0.5044097L-0.3324484 -0.6827705L-0.526666 -0.8015601L-0.6473739 -0.6247994Z"/>
<!-- (139, 0, 0) -->
<path class="cell-path" d="M-0.47182664 -0.5044097L-0.6473739 -0.6247994L-0.7647997 -0.44746846L-0.5896412 -0.3445592Z"/>
<!-- (140, 0, 0) -->
<path class="cell-path" d="M-1.0493134 -0.35844988L-0.85882354 -0.25707462L-0.7647997 -0.44746846L-0.9585635 -0.5657923Z"/>
<!-- (141, 0, 0) -->
<path class="cell-path" d="M-1.0493134 -0.35844988L-0.9585635 -0.5657923L-1.1874202 -0.7149903L-1.2392974 -0.43933946Z"/>
<!-- (142, 0, 0) -->
<path class="cell-path" d="M-1.0493134 -0.35844988L-1.2392974 -0.43933946L-1.2578384 -0.26829946L-1.1277881 -0.1775297Z"/>
<!-- (143, 0, 0) -->
<path class="cell-path" d="M-1.0493134 -0.35844988L-1.1277881 -0.1775297L-0.9487558 -0.066282526L-0.85882354 -0.25707462Z"/>
<!-- (144, 0, 0) -->
<path class="cell-path" d="M-1.0402135 -1.105119L-0.9736732 -0.8875268L-0.83289045 -0.98306334L-0.8154849 -1.1536602Z"/>
<!-- (145, 0, 0) -->
<path class="cell-path" d="M-1.0402135 -1.105119L-0.8154849 -1.1536602L-0.76484907 -1.4335566L-1.0785979 -1.3674672Z"/>
<!-- (146, 0, 0) -->
<path class="cell-path" d="M-1.0402135 -1.105119L-1.0785979 -1.3674672L-1.3838291 -1.311097L-1.2845371 -1.0130028Z"/>
<!-- (147, 0, 0) -->
<path class="cell-path" d="M-1.0402135 -1.105119L-1.2845371 -1.0130028L-1.1874202 -0.7149903L-0.9736732 -0.8875268Z"/>
<!-- (148, 0, 0) -->
<path class="cell-path" d="M-1.4578187 0.38272917L-1.2353545 0.5222583L-1.1557047 0.30782127L-1.3695167 0.15060781Z"/>
<!-- (149, 0, 0) -->
<path class="cell-path" d="M-1.4578187 0.38272917L-1.3695167 0.15060781L-1.6125853 -0.07116356L-1.6955585 0.23318619Z"/>
<!-- (150, 0, 0) -->
<path class="cell-path" d="M-1.4578187 0.38272917L-1.6955585 0.23318619L-1.7558773 0.4930346L-1.5244946 0.62139016Z"/>
<!-- (151, 0, 0) -->
<path class="cell-path" d="M-1.4578187 0.38272917L-1.5244946 0.62139016L-1.2992058 0.7481502L-1.2353545 0.5222583Z"/>
<!-- (152, 0, 0) -->
<path class="cell-path" d="M1.0957385 -0.41160816L1.1368296 -0.21086678L1.2923384 -0.2754169L1.2957177 -0.42949715Z"/>
<!-- (153, 0, 0) -->
<path class="cell-path" d="M1.0957385 -0.41160816L1.2957177 -0.42949715L1.2949257 -0.6373167L1.0809147 -0.62369347Z"/>
<!-- (154, 0, 0) -->
<path class="cell-path" d="M1.0957385 -0.41160816L1.0809147 -0.62369347L0.8658936 -0.6097709L0.8710543 -0.38355932Z"/>
<!-- (155, 0, 0) -->
<path class="cell-path" d="M1.0957385 -0.41160816L0.8710543 -0.38355932L0.8796493 -0.117503025L1.1368296 -0.21086678Z"/>
<!-- (156, 0, 0) -->
<path class="cell-path" d="M0.49326366 -0.009955296L0.34334537 0.18402706L0.548109 0.30350742L0.7028673 0.110331096Z"/>
<!-- (157, 0, 0) -->
<path class="cell-path" d="M0.49326366 -0.009955296L0.7028673 0.110331096L0.8796493 -0.117503025L0.6169543 -0.1919227Z"/>
<!-- (158, 0, 0) -->
<path class="cell-path" d="M0.49326366 -0.009955296L0.6169543 -0.1919227L0.45661417 -0.24433194L0.3191844 -0.13731016Z"/>
<!-- (159, 0, 0) -->
<path class="cell-path" d="M0.49326366 -0.009955296L0.3191844 -0.13731016L0.09854617 0.04625012L0.34334537 0.18402706Z"/>
<!-- (160, 0, 0) -->
<path class="cell-path" d="M-0.16647929 0.3584023L-0.20366676 0.10762361L-0.49367207 0.17037484L-0.3835919 0.42666322Z"/>
<!-- (161, 0, 0) -->
<path class="cell-path" d="M-0.16647929 0.3584023L-0.3835919 0.42666322L-0.32755247 0.68692267L-0.117523395 0.5674613Z"/>
<!-- (162, 0, 0) -->
<path class="cell-path" d="M-0.16647929 0.3584023L-0.117523395 0.5674613L0.025194705 0.49423623L0.04753563 0.3246032Z"/>
<!-- (163, 0, 0) -->
<path class="cell-path" d="M-0.16647929 0.3584023L0.04753563 0.3246032L0.09854617 0.04625012L-0.20366676 0.10762361Z"/>
<!-- (164, 0, 0) -->
<path class="cell-path" d="M0.6599462 -0.8299507L0.8634936 -0.8123308L0.86130863 -0.96406794L0.7017436 -1.0337514Z"/>
<!-- (165, 0, 0) -->
<path class="cell-path" d="M0.6599462 -0.8299507L0.7017436 -1.0337514L0.42623597 -1.1249622L0.4239262 -0.849257Z"/>
<!-- (166, 0, 0) -->
<path class="cell-path" d="M0.6599462 -0.8299507L0.4239262 -0.849257L0.42413384 -0.6130637L0.6483543 -0.61420536Z"/>
<!-- (167, 0, 0) -->
<path class="cell-path" d="M0.6599462 -0.8299507L0.6483543 -0.61420536L0.8658936 -0.6097709L0.8634936 -0.8123308Z"/>
<!-- (168, 0, 0) -->
<path class="cell-path" d="M-0.23083784 -0.8849767L-0.42066032 -0.9881314L-0.526666 -0.8015601L-0.3324484 -0.6827705Z"/>
<!-- (169, 0, 0) -->
<path class="cell-path" d="M-0.23083784 -0.8849767L-0.3324484 -0.6827705L-0.10121848 -0.5367653L-0.037792936 -0.80371916Z"/>
<!-- (170, 0, 0) -->
<path class="cell-path" d="M-0.23083784 -0.8849767L-0.037792936 -0.80371916L-0.0039444133 -0.96567017L-0.13036048 -1.055859Z"/>
<!-- (171, 0, 0) -->
<path class="cell-path" d="M-0.23083784 -0.8849767L-0.13036048 -1.055859L-0.30532026 -1.1706415L-0.42066032 -0.9881314Z"/>
<!-- (172, 0, 0) -->
<path class="cell-path" d="M1.5178502 -0.8527L1.7215805 -0.850624L1.7042009 -1.0129443L1.5429397 -1.0655801Z"/>
<!-- (173, 0, 0) -->
<path class="cell-path" d="M1.5178502 -0.8527L1.5429397 -1.0655801L1.2749482 -1.1446627L1.289711 -0.86789Z"/>
<!-- (174, 0, 0) -->
<path class="cell-path" d="M1.5178502 -0.8527L1.289711 -0.86789L1.2949257 -0.6373167L1.5114579 -0.62876135Z"/>
<!-- (175, 0, 0) -->
<path class="cell-path" d="M1.5178502 -0.8527L1.5114579 -0.62876135L1.731555 -0.62954116L1.7215805 -0.850624Z"/>
<!-- (176, 0, 0) -->
<path class="cell-path" d="M-0.34262282 -1.4783854L-0.5086358 -1.2945824L-0.30532026 -1.1706415L-0.15427633 -1.335694Z"/>
<!-- (177, 0, 0) -->
<path class="cell-path" d="M-0.34262282 -1.4783854L-0.15427633 -1.335694L0.014845794 -1.494214L-0.17275777 -1.6415854Z"/>
<!-- (178, 0, 0) -->
<path class="cell-path" d="M-0.34262282 -1.4783854L-0.17275777 -1.6415854L-0.34018633 -1.7934147L-0.5287782 -1.6392051Z"/>
<!-- (179, 0, 0) -->
<path class="cell-path" d="M-0.34262282 -1.4783854L-0.5287782 -1.6392051L-0.76484907 -1.4335566L-0.5086358 -1.2945824Z"/>
<!-- (180, 0, 0) -->
<path class="cell-path" d="M-0.7467654 1.1494989L-0.6498195 1.2709785L-0.51943034 1.1193068L-0.69148564 1.018869Z"/>
<!-- (181, 0, 0) -->
<path class="cell-path" d="M-0.7467654 1.1494989L-0.69148564 1.018869L-0.8736763 0.94480413L-0.9016177 1.1411171Z"/>
<!-- (182, 0, 0) -->
<path class="cell-path" d="M-0.7467654 1.1494989L-0.9016177 1.1411171L-0.8707633 1.3763673L-0.6498195 1.2709785Z"/>
<!-- (183, 0, 0) -->
<path class="cell-path" d="M-0.5395056 0.48013183L-0.3835919 0.42666322L-0.49367207 0.17037484L-0.66241705 0.36329606Z"/>
<!-- (184, 0, 0) -->
<path class="cell-path" d="M-0.5395056 0.48013183L-0.66241705 0.36329606L-0.75223887 0.5501498L-0.5633473 0.6424902Z"/>
<!-- (185, 0, 0) -->
<path class="cell-path" d="M-0.5395056 0.48013183L-0.5633473 0.6424902L-0.32755247 0.68692267L-0.3835919 0.42666322Z"/>
<!-- (186, 0, 0) -->
<path class="cell-path" d="M0.2410386 1.4160644L0.40184593 1.4267634L0.40382668 1.2125427L0.1939553 1.2623634Z"/>
<!-- (187, 0, 0) -->
<path class="cell-path" d="M0.2410386 1.4160644L0.1939553 1.2623634L-0.055709124 1.3466899L0.114948295 1.5467792Z"/>
<!-- (188, 0, 0) -->
<path class="cell-path" d="M0.2410386 1.4160644L0.114948295 1.5467792L0.33560345 1.6828362L0.40184593 1.4267634Z"/>
<!-- (189, 0, 0) -->
<path class="cell-path" d="M0.58606577 0.5436349L0.605837 0.7115772L0.87497354 0.6407484L0.7258744 0.43615046Z"/>
<!-- (190, 0, 0) -->
<path class="cell-path" d="M0.58606577 0.5436349L0.7258744 0.43615046L0.548109 0.30350742L0.42797735 0.49209613Z"/>
<!-- (191, 0, 0) -->
<path class="cell-path" d="M0.58606577 0.5436349L0.42797735 0.49209613L0.34001938 0.72831076L0.605837 0.7115772Z"/>
<!-- (192, 0, 0) -->
<path class="cell-path" d="M0.94815105 1.3005806L1.0127865 1.4237276L1.2065378 1.2495364L1.0131326 1.15224Z"/>
<!-- (193, 0, 0) -->
<path class="cell-path" d="M0.94815105 1.3005806L1.0131326 1.15224L0.825416 1.13826L0.8059889 1.3350815Z"/>
<!-- (194, 0, 0) -->
<path class="cell-path" d="M0.94815105 1.3005806L0.8059889 1.3350815L0.8251405 1.5239205L1.0127865 1.4237276Z"/>
<!-- (195, 0, 0) -->
<path class="cell-path" d="M1.5241544 0.27239424L1.7041435 0.28487968L1.7114104 -0.04317763L1.4436576 0.11189686Z"/>
<!-- (196, 0, 0) -->
<path class="cell-path" d="M1.5241544 0.27239424L1.4436576 0.11189686L1.2539186 0.2624715L1.4187384 0.41985333Z"/>
<!-- (197, 0, 0) -->
<path class="cell-path" d="M1.5241544 0.27239424L1.4187384 0.41985333L1.6293879 0.57926106L1.7041435 0.28487968Z"/>
<path style="stroke-width: 0.05;stroke: red; stroke-linecap: round; fill: none" d="M1.045152 1.2815211L0.89817214 1.2315406M-0.0052842237 0.84558415L0.064600945 0.9922465M0.89817214 1.2315406L0.8980167 1.3958275M-0.10186068 0.98288417L0.064600945 0.9922465M-1.3343215 -0.33162063L-1.1685593 -0.31090462M-1.2548362 -0.1662763L-1.1685593 -0.31090462M0.01082705 -1.0601057L0.074403055 -0.90386605M-0.65187526 1.1396633L-0.79224145 1.2344904M-0.65187526 1.1396633L-0.8033863 1.0635723M0.1162173 0.45023692L-0.05281809 0.43617576M0.015986206 0.5921142L-0.05281809 0.43617576M1.3418791 0.86055887L1.1711164 0.86371124M1.2875092 -0.18120484L1.2051561 -0.33184725M1.2875092 -0.18120484L1.3819661 -0.32460523M-0.3728224 -0.22148576L-0.54470396 -0.21950337M-0.3728224 -0.22148576L-0.45952183 -0.37075508M-0.83260715 -0.88059974L-0.9155655 -1.0323423M0.01082705 -1.0601057L-0.10073392 -0.9275563M0.85832113 -1.060553L0.771623 -0.91002524M0.36215568 -0.28095338L0.47150415 -0.14588003M0.85832113 -1.060553L0.95087403 -0.9132502M1.3418791 0.86055887L1.2584963 0.70781994M-0.74093246 -1.0323806L-0.9155655 -1.0323423M0.5387815 -0.30872667L0.47150415 -0.14588003M-0.6293772 0.509017L-0.4534993 0.559052M-0.75302553 0.8874393L-0.8033863 1.0635723M0.7155679 1.2565957L0.89817214 1.2315406M-0.5197966 0.36011648L-0.6293772 0.509017M-0.5656476 0.9754574L-0.65187526 1.1396633M0.6981877 0.5830277L0.57200664 0.4438472M0.31016666 1.3294334L0.27335906 1.5181108M-0.45952183 -0.37075508L-0.61841035 -0.4803092M0.015986206 0.5921142L0.15586837 0.7251901M-0.83260715 -0.88059974L-0.67447615 -0.7695421M0.95087403 -0.9132502L0.9684068 -0.72073364M0.57200664 0.4438472L0.48997486 0.61890477M-0.54470396 -0.21950337L-0.7196262 -0.30295888M0.771623 -0.91002524L0.75942194 -0.7165644M1.2051561 -0.33184725L1.1918242 -0.5255289M0.123558275 1.3929741L0.27335906 1.5181108M-0.69063157 0.69468105L-0.6293772 0.509017M-0.74093246 -1.0323806L-0.56567013 -0.9456226M0.71331584 1.4623836L0.8980167 1.3958275M-0.10073392 -0.9275563L-0.27179474 -1.0249021M-0.14518067 0.7066152L-0.0052842237 0.84558415M-1.1685593 -0.31090462L-0.9961702 -0.21483418M0.015986206 0.5921142L-0.14518067 0.7066152M0.53851146 -0.5064802L0.5387815 -0.30872667M-1.2548362 -0.1662763L-1.4039551 -0.03495796M-0.99335635 1.0039837L-0.8033863 1.0635723M-0.14230016 -1.1882782L0.01082705 -1.0601057M0.064600945 0.9922465L0.07053501 1.1919448M0.93652236 1.0349296L0.89817214 1.2315406M0.93652236 1.0349296L1.1321633 1.0794001M1.4101173 0.26665398L1.5691061 0.3890971M0.1162173 0.45023692L0.2900339 0.5506288M0.2889703 1.1296638L0.31016666 1.3294334M1.399188 -0.52482396L1.3819661 -0.32460523M0.50913477 1.2980869L0.31016666 1.3294334M-1.0925186 -0.03792543L-0.9961702 -0.21483418M-0.75302553 0.8874393L-0.69063157 0.69468105M-0.48800623 1.2600398L-0.65187526 1.1396633M-0.05113825 -1.9463799L-0.18166868 -1.7897489M-0.10186068 0.98288417L-0.15640497 1.1794086M1.1711164 0.86371124L0.974506 0.8059868M1.6216428 -0.94546217L1.620611 -0.74040663M-1.3343215 -0.33162063L-1.5312886 -0.27172527M0.36215568 -0.28095338L0.32056838 -0.48358378M-0.8048412 0.39853126L-0.6293772 0.509017M0.38997886 0.34397542L0.57200664 0.4438472M0.07053501 1.1919448L0.123558275 1.3929741M-0.10186068 0.98288417L-0.27975944 0.8745314M-1.204688 0.13763489L-1.0925186 -0.03792543M0.2563248 0.9094376L0.064600945 0.9922465M-0.24878676 0.5098624L-0.05281809 0.43617576M0.72701085 1.0399511L0.93652236 1.0349296M-0.24878676 0.5098624L-0.4534993 0.559052M0.50913477 1.2980869L0.7155679 1.2565957M-0.94905245 0.79773533L-0.99335635 1.0039837M-0.8038249 -0.10950219L-0.7196262 -0.30295888M0.2900339 0.5506288L0.48997486 0.61890477M-0.90787506 -0.40719634L-0.9961702 -0.21483418M1.079295 0.5949905L1.2584963 0.70781994M-0.8863455 0.5946215L-0.8048412 0.39853126M-0.49457872 -0.6533849L-0.61841035 -0.4803092M-0.798295 -0.59603256L-0.67447615 -0.7695421M1.3450975 1.0904922L1.1321633 1.0794001M-0.5918997 -0.011361441L-0.54470396 -0.21950337M-0.37765312 -0.8393597L-0.27179474 -1.0249021M0.9684068 -0.72073364L0.97840035 -0.507158M-0.798295 -0.59603256L-0.61841035 -0.4803092M-0.17557442 -0.7270579L-0.10073392 -0.9275563M1.1918242 -0.5255289L0.97840035 -0.507158M0.9684068 -0.72073364L1.1822191 -0.7415099M0.75701857 -0.5015437L0.75942194 -0.7165644M-0.7196262 -0.30295888L-0.90787506 -0.40719634M1.2051561 -0.33184725L0.99581796 -0.28088433M-0.45952183 -0.37075508L-0.30609637 -0.52211124M-0.48800623 1.2600398L-0.3715136 1.0786216M-0.83260715 -0.88059974L-0.98552495 -0.7285949M1.2584963 0.70781994L1.4266571 0.57284343M-1.6400542 -1.0045501L-1.4457793 -1.0986457M-0.56567013 -0.9456226L-0.46213716 -1.1351038M1.5958414 0.15649828L1.4101173 0.26665398M-0.56567013 -0.9456226L-0.37765312 -0.8393597M-0.4856435 0.7732667L-0.4534993 0.559052M0.48989582 1.525033L0.27335906 1.5181108M0.5387815 -0.30872667L0.75260746 -0.27290606M1.543616 0.78086877L1.3418791 0.86055887M-1.0089302 1.2231016L-0.79224145 1.2344904M-1.1086487 -0.519643L-1.1685593 -0.31090462M-0.89998734 0.085304365L-1.0034148 0.27630812M1.4034863 -0.746667L1.620611 -0.74040663M-0.89998734 0.085304365L-0.8038249 -0.10950219M1.6158867 -0.5085249L1.399188 -0.52482396M-1.6400542 -1.0045501L-1.5991567 -0.79058516M-0.6601804 1.4080247L-0.79224145 1.2344904M0.95087403 -0.9132502L1.1608384 -0.9722887M1.6216428 -0.94546217L1.4063623 -0.9827082M0.75701857 -0.5015437L0.53851146 -0.5064802M1.1711164 0.86371124L1.1321633 1.0794001M1.2625506 0.10413277L1.4101173 0.26665398M-1.0909623 0.47766286L-1.0034148 0.27630812M-0.74093246 -1.0323806L-0.6757255 -1.2422149M0.074403055 -0.90386605L0.057199273 -0.68442106M0.53851146 -0.5064802L0.53909016 -0.7266192M0.7176494 0.27876502L0.57200664 0.4438472M0.50913477 1.2980869L0.5062612 1.0773125M1.1822191 -0.7415099L1.4034863 -0.746667M0.73632467 0.80131793L0.6981877 0.5830277M0.6731837 -0.052262478L0.47150415 -0.14588003M0.01082705 -1.0601057L0.20444472 -1.169763M0.18247774 0.23778787L0.1162173 0.45023692M-0.0011150502 -1.649926L0.14190279 -1.8210893M0.48723388 0.8419993L0.48997486 0.61890477M1.2498385 0.42188948L1.4101173 0.26665398M-0.18166868 -1.7897489L-0.3460863 -1.6381476M1.2875092 -0.18120484L1.0922761 -0.07155177M0.771623 -0.91002524L0.552963 -0.9594803M0.023813937 -1.3390056L-0.14230016 -1.1882782M1.3819661 -0.32460523L1.5942755 -0.25219023M-0.8048412 0.39853126L-0.68850935 0.20610967M-1.1591852 0.69219536L-1.0909623 0.47766286M-1.204688 0.13763489L-1.3045987 0.34085414M-0.05281809 0.43617576L-0.056016065 0.20921981M-0.14230016 -1.1882782L-0.3277138 -1.3198259M-0.3118525 0.265766L-0.5197966 0.36011648M-0.0011150502 -1.649926L-0.18166868 -1.7897489M1.4689841 -0.042454112L1.2875092 -0.18120484M0.074403055 -0.90386605L0.29737794 -0.95507354M-0.3728224 -0.22148576L-0.35300225 0.0065267384M-0.16825567 -0.32440805L-0.3728224 -0.22148576M0.36215568 -0.28095338L0.16183007 -0.16971594M0.47150415 -0.14588003L0.3135849 0.02075293M-0.0011150502 -1.649926L-0.16370279 -1.4874697M-0.9155655 -1.0323423L-1.1214609 -0.9301597M-1.3347476 -0.5644364L-1.1086487 -0.519643M-1.1591852 0.69219536L-1.213902 0.91677713M0.30396712 -0.7148801L0.32056838 -0.48358378M1.2498385 0.42188948L1.4266571 0.57284343M-0.9155655 -1.0323423L-0.9247863 -1.2649508M-1.0034148 0.27630812L-0.8048412 0.39853126M0.85832113 -1.060553L1.0522187 -1.1910098M-0.3277138 -1.3198259L-0.16370279 -1.4874697M1.4689841 -0.042454112L1.5958414 0.15649828M0.7176494 0.27876502L0.52189636 0.14697757M-1.6710718 0.6743253L-1.7460152 0.8983457M-1.3347476 -0.5644364L-1.5704349 -0.5408875M1.2498385 0.42188948L1.0740134 0.2627695M-0.2604678 1.7256918L-0.081852 1.8825868M0.8915169 0.44364825L0.6981877 0.5830277M0.85832113 -1.060553L0.65373373 -1.1829649M-1.5991567 -0.79058516L-1.363878 -0.8336804M1.5802972 1.0444645L1.3450975 1.0904922M-1.3045987 0.34085414L-1.3792183 0.568632M-0.27447534 1.3889332L-0.15640497 1.1794086M0.023813937 -1.3390056L0.19908105 -1.5047803M-1.4434326 0.8033554L-1.3792183 0.568632M-0.06848706 1.54388L0.123558275 1.3929741M0.3564132 -1.6926954L0.19908105 -1.5047803M0.119164824 1.7089956L0.27335906 1.5181108M-1.4039551 -0.03495796L-1.5338697 0.1738399M-1.264004 1.1584302L-1.213902 0.91677713M0.32056838 -0.48358378L0.0784217 -0.42591727M-1.6710718 0.6743253L-1.6084373 0.432585M-0.4572404 1.569428L-0.2604678 1.7256918M-1.5704349 -0.5408875L-1.5991567 -0.79058516M-0.3277138 -1.3198259L-0.5362215 -1.4614323M1.0740134 0.2627695L0.8882946 0.087202854M-1.4434326 0.8033554L-1.5176978 1.0482622M-0.4572404 1.569428L-0.27447534 1.3889332M-1.4434326 0.8033554L-1.6710718 0.6743253M-1.4457793 -1.0986457L-1.1967944 -1.1991715M0.20444472 -1.169763L0.41622618 -1.3381124M-0.089508235 -0.06062347L-0.056016065 0.20921981M0.6051506 -1.5600011L0.3564132 -1.6926954M1.0522187 -1.1910098L0.8498992 -1.3908501"/>
</svg>
