<svg viewBox="-2 -2 4 4" xmlns="http://www.w3.org/2000/svg">
<style>
.cell-path {
                stroke-linejoin: round;
                fill: rgb(244, 244, 241);
                stroke: rgb(51, 51, 51);
                stroke-width: 0.05
            }
</style>
<!-- (0, 0, 0) -->
<path class="cell-path" d="M-0.6495191 0.625L-0.6495191 0.875L-0.4330127 0.75L-0.4330127 0.5Z"/>
<!-- (1, 0, 0) -->
<path class="cell-path" d="M-0.6495191 0.625L-0.4330127 0.5L-0.4330127 0.25L-0.649519 0.375Z"/>
<!-- (2, 0, 0) -->
<path class="cell-path" d="M-0.6495191 0.625L-0.649519 0.375L-0.8660254 0.5L-0.86602545 0.75Z"/>
<!-- (3, 0, 0) -->
<path class="cell-path" d="M-0.6495191 0.625L-0.86602545 0.75L-0.86602545 1L-0.6495191 0.875Z"/>
<!-- (4, 0, 0) -->
<path class="cell-path" d="M-1.0825317 1.125L-0.86602545 1.25L-0.8660254 1L-1.0825317 0.875Z"/>
<!-- (5, 0, 0) -->
<path class="cell-path" d="M-1.0825317 1.125L-1.0825317 0.875L-1.299038 0.75L-1.299038 1Z"/>
<!-- (6, 0, 0) -->
<path class="cell-path" d="M-1.0825317 1.125L-1.299038 1L-1.299038 1.25L-1.0825317 1.375Z"/>
<!-- (7, 0, 0) -->
<path class="cell-path" d="M-1.0825317 1.125L-1.0825317 1.375L-0.86602545 1.5L-0.86602545 1.25Z"/>
<!-- (8, 0, 0) -->
<path class="cell-path" d="M-0.21650633 -1.125L-0.21650633 -1.375L-0.43301266 -1.25L-0.43301266 -1Z"/>
<!-- (9, 0, 0) -->
<path class="cell-path" d="M-0.21650633 -1.125L-0.43301266 -1L-0.43301266 -0.75L-0.21650632 -0.875Z"/>
<!-- (10, 0, 0) -->
<path class="cell-path" d="M-0.21650633 -1.125L-0.21650632 -0.875L2.9802322E-08 -1L2.2351742E-08 -1.25Z"/>
<!-- (11, 0, 0) -->
<path class="cell-path" d="M-0.21650633 -1.125L2.2351742E-08 -1.25L1.4901161E-08 -1.5L-0.21650633 -1.375Z"/>
<!-- (12, 0, 0) -->
<path class="cell-path" d="M0.6495191 -0.875L0.86602545 -0.75L0.8660254 -1L0.649519 -1.125Z"/>
<!-- (13, 0, 0) -->
<path class="cell-path" d="M0.6495191 -0.875L0.649519 -1.125L0.4330127 -1.25L0.4330127 -1Z"/>
<!-- (14, 0, 0) -->
<path class="cell-path" d="M0.6495191 -0.875L0.4330127 -1L0.4330127 -0.75L0.6495191 -0.625Z"/>
<!-- (15, 0, 0) -->
<path class="cell-path" d="M0.6495191 -0.875L0.6495191 -0.625L0.86602545 -0.5L0.86602545 -0.75Z"/>
<!-- (16, 0, 0) -->
<path class="cell-path" d="M0.6495191 1.375L0.6495191 1.125L0.43301275 1.25L0.43301275 1.5Z"/>
<!-- (17, 0, 0) -->
<path class="cell-path" d="M0.6495191 1.375L0.43301275 1.5L0.43301275 1.75L0.6495191 1.625Z"/>
<!-- (18, 0, 0) -->
<path class="cell-path" d="M0.6495191 1.375L0.6495191 1.625L0.86602545 1.5L0.86602545 1.25Z"/>
<!-- (19, 0, 0) -->
<path class="cell-path" d="M0.6495191 1.375L0.86602545 1.25L0.86602545 1L0.6495191 1.125Z"/>
<!-- (20, 0, 0) -->
<path class="cell-path" d="M-0.21650633 1.125L2.2351742E-08 1.25L2.9802322E-08 1L-0.21650632 0.875Z"/>
<!-- (21, 0, 0) -->
<path class="cell-path" d="M-0.21650633 1.125L-0.21650632 0.875L-0.43301266 0.75L-0.43301266 1Z"/>
<!-- (22, 0, 0) -->
<path class="cell-path" d="M-0.21650633 1.125L-0.43301266 1L-0.43301266 1.25L-0.21650633 1.375Z"/>
<!-- (23, 0, 0) -->
<path class="cell-path" d="M-0.21650633 1.125L-0.21650633 1.375L1.4901161E-08 1.5L2.2351742E-08 1.25Z"/>
<!-- (24, 0, 0) -->
<path class="cell-path" d="M1.5155444 -0.125L1.5155444 0.125L1.7320508 0L1.7320508 -0.25Z"/>
<!-- (25, 0, 0) -->
<path class="cell-path" d="M1.5155444 -0.125L1.7320508 -0.25L1.7320508 -0.5L1.5155444 -0.375Z"/>
<!-- (26, 0, 0) -->
<path class="cell-path" d="M1.5155444 -0.125L1.5155444 -0.375L1.2990382 -0.25L1.2990382 0Z"/>
<!-- (27, 0, 0) -->
<path class="cell-path" d="M1.5155444 -0.125L1.2990382 0L1.299038 0.25L1.5155444 0.125Z"/>
<!-- (28, 0, 0) -->
<path class="cell-path" d="M-1.0825318 -0.875L-1.2990382 -1L-1.2990382 -0.75L-1.0825318 -0.625Z"/>
<!-- (29, 0, 0) -->
<path class="cell-path" d="M-1.0825318 -0.875L-1.0825318 -0.625L-0.86602545 -0.5L-0.86602545 -0.75Z"/>
<!-- (30, 0, 0) -->
<path class="cell-path" d="M-1.0825318 -0.875L-0.86602545 -0.75L-0.86602545 -1L-1.0825317 -1.125Z"/>
<!-- (31, 0, 0) -->
<path class="cell-path" d="M-1.0825318 -0.875L-1.0825317 -1.125L-1.299038 -1.25L-1.2990382 -1Z"/>
<!-- (32, 0, 0) -->
<path class="cell-path" d="M-1.5155444 0.375L-1.2990382 0.5L-1.2990382 0.25L-1.5155444 0.125Z"/>
<!-- (33, 0, 0) -->
<path class="cell-path" d="M-1.5155444 0.375L-1.5155444 0.125L-1.7320508 0L-1.7320508 0.25Z"/>
<!-- (34, 0, 0) -->
<path class="cell-path" d="M-1.5155444 0.375L-1.7320508 0.25L-1.7320508 0.5L-1.5155444 0.625Z"/>
<!-- (35, 0, 0) -->
<path class="cell-path" d="M-1.5155444 0.375L-1.5155444 0.625L-1.299038 0.75L-1.2990382 0.5Z"/>
<!-- (36, 0, 0) -->
<path class="cell-path" d="M-0.86602545 0.25L-0.6495191 0.125L-0.86602545 0L-1.0825318 0.125Z"/>
<!-- (37, 0, 0) -->
<path class="cell-path" d="M-0.86602545 0.25L-1.0825318 0.125L-1.2990382 0.25L-1.0825318 0.375Z"/>
<!-- (38, 0, 0) -->
<path class="cell-path" d="M-0.86602545 0.25L-1.0825318 0.375L-0.86602545 0.5L-0.6495191 0.375Z"/>
<!-- (39, 0, 0) -->
<path class="cell-path" d="M-0.86602545 0.25L-0.6495191 0.375L-0.43301272 0.25L-0.6495191 0.125Z"/>
<!-- (40, 0, 0) -->
<path class="cell-path" d="M-0.649519 -1.125L-0.43301266 -1L-0.43301266 -1.25L-0.64951897 -1.375Z"/>
<!-- (41, 0, 0) -->
<path class="cell-path" d="M-0.649519 -1.125L-0.64951897 -1.375L-0.8660253 -1.5L-0.8660253 -1.25Z"/>
<!-- (42, 0, 0) -->
<path class="cell-path" d="M-0.649519 -1.125L-0.8660253 -1.25L-0.8660253 -1L-0.649519 -0.875Z"/>
<!-- (43, 0, 0) -->
<path class="cell-path" d="M-0.649519 -1.125L-0.649519 -0.875L-0.4330127 -0.75L-0.43301266 -1Z"/>
<!-- (44, 0, 0) -->
<path class="cell-path" d="M0 0.25L0.21650635 0.125L0 0L-0.21650635 0.125Z"/>
<!-- (45, 0, 0) -->
<path class="cell-path" d="M0 0.25L-0.21650635 0.125L-0.4330127 0.25L-0.21650635 0.375Z"/>
<!-- (46, 0, 0) -->
<path class="cell-path" d="M0 0.25L-0.21650635 0.375L0 0.5L0.21650635 0.375Z"/>
<!-- (47, 0, 0) -->
<path class="cell-path" d="M0 0.25L0.21650635 0.375L0.4330127 0.25L0.21650635 0.125Z"/>
<!-- (48, 0, 0) -->
<path class="cell-path" d="M1.2990382 -1L1.0825317 -0.875L1.2990382 -0.75L1.5155445 -0.875Z"/>
<!-- (49, 0, 0) -->
<path class="cell-path" d="M1.2990382 -1L1.5155445 -0.875L1.7320509 -1L1.5155445 -1.125Z"/>
<!-- (50, 0, 0) -->
<path class="cell-path" d="M1.2990382 -1L1.5155445 -1.125L1.2990382 -1.25L1.0825317 -1.125Z"/>
<!-- (51, 0, 0) -->
<path class="cell-path" d="M1.2990382 -1L1.0825317 -1.125L0.86602527 -1L1.0825317 -0.875Z"/>
<!-- (52, 0, 0) -->
<path class="cell-path" d="M0.8660254 -0.25L1.0825317 -0.375L0.86602545 -0.5L0.6495191 -0.375Z"/>
<!-- (53, 0, 0) -->
<path class="cell-path" d="M0.8660254 -0.25L0.6495191 -0.375L0.43301272 -0.25L0.6495191 -0.125Z"/>
<!-- (54, 0, 0) -->
<path class="cell-path" d="M0.8660254 -0.25L0.6495191 -0.125L0.86602545 0L1.0825317 -0.125Z"/>
<!-- (55, 0, 0) -->
<path class="cell-path" d="M0.8660254 -0.25L1.0825317 -0.125L1.2990379 -0.25L1.0825317 -0.375Z"/>
<!-- (56, 0, 0) -->
<path class="cell-path" d="M0.4330127 0.5L0.21650633 0.625L0.4330127 0.75L0.649519 0.625Z"/>
<!-- (57, 0, 0) -->
<path class="cell-path" d="M0.4330127 0.5L0.649519 0.625L0.8660254 0.5L0.649519 0.375Z"/>
<!-- (58, 0, 0) -->
<path class="cell-path" d="M0.4330127 0.5L0.649519 0.375L0.4330127 0.25L0.21650633 0.375Z"/>
<!-- (59, 0, 0) -->
<path class="cell-path" d="M0.4330127 0.5L0.21650633 0.375L-2.9802322E-08 0.5L0.21650633 0.625Z"/>
<!-- (60, 0, 0) -->
<path class="cell-path" d="M-1.0825318 0.625L-1.2990382 0.5L-1.2990382 0.75L-1.0825318 0.875Z"/>
<!-- (61, 0, 0) -->
<path class="cell-path" d="M-1.0825318 0.625L-1.0825318 0.875L-0.86602545 1L-0.86602545 0.75Z"/>
<!-- (62, 0, 0) -->
<path class="cell-path" d="M-1.0825318 0.625L-0.86602545 0.75L-0.86602545 0.5L-1.0825317 0.375Z"/>
<!-- (63, 0, 0) -->
<path class="cell-path" d="M-1.0825318 0.625L-1.0825317 0.375L-1.299038 0.25L-1.2990382 0.5Z"/>
<!-- (64, 0, 0) -->
<path class="cell-path" d="M0.8660254 0.75L1.0825317 0.625L0.8660253 0.5L0.64951897 0.625Z"/>
<!-- (65, 0, 0) -->
<path class="cell-path" d="M0.8660254 0.75L0.64951897 0.625L0.43301266 0.75L0.64951897 0.875Z"/>
<!-- (66, 0, 0) -->
<path class="cell-path" d="M0.8660254 0.75L0.64951897 0.875L0.8660253 1L1.0825317 0.875Z"/>
<!-- (67, 0, 0) -->
<path class="cell-path" d="M0.8660254 0.75L1.0825317 0.875L1.2990382 0.75L1.0825317 0.625Z"/>
<!-- (68, 0, 0) -->
<path class="cell-path" d="M0.4330127 -0.5L0.21650635 -0.375L0.4330127 -0.25L0.649519 -0.375Z"/>
<!-- (69, 0, 0) -->
<path class="cell-path" d="M0.4330127 -0.5L0.649519 -0.375L0.8660254 -0.5L0.649519 -0.625Z"/>
<!-- (70, 0, 0) -->
<path class="cell-path" d="M0.4330127 -0.5L0.649519 -0.625L0.4330127 -0.75L0.21650635 -0.625Z"/>
<!-- (71, 0, 0) -->
<path class="cell-path" d="M0.4330127 -0.5L0.21650635 -0.625L0 -0.5L0.21650635 -0.375Z"/>
<!-- (72, 0, 0) -->
<path class="cell-path" d="M0.8660254 -1.25L1.0825317 -1.375L0.86602545 -1.5L0.6495191 -1.375Z"/>
<!-- (73, 0, 0) -->
<path class="cell-path" d="M0.8660254 -1.25L0.6495191 -1.375L0.43301272 -1.25L0.6495191 -1.125Z"/>
<!-- (74, 0, 0) -->
<path class="cell-path" d="M0.8660254 -1.25L0.6495191 -1.125L0.86602545 -1L1.0825317 -1.125Z"/>
<!-- (75, 0, 0) -->
<path class="cell-path" d="M0.8660254 -1.25L1.0825317 -1.125L1.2990379 -1.25L1.0825317 -1.375Z"/>
<!-- (76, 0, 0) -->
<path class="cell-path" d="M-0.6495191 -0.375L-0.6495191 -0.625L-0.86602545 -0.5L-0.86602545 -0.25Z"/>
<!-- (77, 0, 0) -->
<path class="cell-path" d="M-0.6495191 -0.375L-0.86602545 -0.25L-0.86602545 0L-0.6495191 -0.125Z"/>
<!-- (78, 0, 0) -->
<path class="cell-path" d="M-0.6495191 -0.375L-0.6495191 -0.125L-0.43301272 -0.25L-0.43301272 -0.5Z"/>
<!-- (79, 0, 0) -->
<path class="cell-path" d="M-0.6495191 -0.375L-0.43301272 -0.5L-0.4330127 -0.75L-0.6495191 -0.625Z"/>
<!-- (80, 0, 0) -->
<path class="cell-path" d="M-0.21650636 1.625L-0.43301272 1.5L-0.43301272 1.75L-0.21650636 1.875Z"/>
<!-- (81, 0, 0) -->
<path class="cell-path" d="M-0.21650636 1.625L-0.21650636 1.875L-1.4901161E-08 2L-1.4901161E-08 1.75Z"/>
<!-- (82, 0, 0) -->
<path class="cell-path" d="M-0.21650636 1.625L-1.4901161E-08 1.75L-1.4901161E-08 1.5L-0.21650636 1.375Z"/>
<!-- (83, 0, 0) -->
<path class="cell-path" d="M-0.21650636 1.625L-0.21650636 1.375L-0.4330127 1.25L-0.43301272 1.5Z"/>
<!-- (84, 0, 0) -->
<path class="cell-path" d="M0.21650635 0.875L-7.450581E-09 0.75L0 1L0.21650635 1.125Z"/>
<!-- (85, 0, 0) -->
<path class="cell-path" d="M0.21650635 0.875L0.21650635 1.125L0.4330127 1.25L0.4330127 1Z"/>
<!-- (86, 0, 0) -->
<path class="cell-path" d="M0.21650635 0.875L0.4330127 1L0.4330127 0.75L0.21650633 0.625Z"/>
<!-- (87, 0, 0) -->
<path class="cell-path" d="M0.21650635 0.875L0.21650633 0.625L-1.4901161E-08 0.5L-7.450581E-09 0.75Z"/>
<!-- (88, 0, 0) -->
<path class="cell-path" d="M0.8660254 0.25L0.649519 0.375L0.8660253 0.5L1.0825317 0.375Z"/>
<!-- (89, 0, 0) -->
<path class="cell-path" d="M0.8660254 0.25L1.0825317 0.375L1.2990379 0.25L1.0825317 0.125Z"/>
<!-- (90, 0, 0) -->
<path class="cell-path" d="M0.8660254 0.25L1.0825317 0.125L0.8660253 0L0.649519 0.125Z"/>
<!-- (91, 0, 0) -->
<path class="cell-path" d="M0.8660254 0.25L0.649519 0.125L0.43301272 0.25L0.649519 0.375Z"/>
<!-- (92, 0, 0) -->
<path class="cell-path" d="M-1.5155444 -0.125L-1.2990382 0L-1.2990382 -0.25L-1.5155444 -0.375Z"/>
<!-- (93, 0, 0) -->
<path class="cell-path" d="M-1.5155444 -0.125L-1.5155444 -0.375L-1.7320508 -0.5L-1.7320508 -0.25Z"/>
<!-- (94, 0, 0) -->
<path class="cell-path" d="M-1.5155444 -0.125L-1.7320508 -0.25L-1.7320508 0L-1.5155444 0.125Z"/>
<!-- (95, 0, 0) -->
<path class="cell-path" d="M-1.5155444 -0.125L-1.5155444 0.125L-1.2990382 0.25L-1.2990382 0Z"/>
<!-- (96, 0, 0) -->
<path class="cell-path" d="M0.21650636 1.625L0.21650636 1.875L0.43301272 1.75L0.43301272 1.5Z"/>
<!-- (97, 0, 0) -->
<path class="cell-path" d="M0.21650636 1.625L0.43301272 1.5L0.43301272 1.25L0.21650638 1.375Z"/>
<!-- (98, 0, 0) -->
<path class="cell-path" d="M0.21650636 1.625L0.21650638 1.375L2.9802322E-08 1.5L2.2351742E-08 1.75Z"/>
<!-- (99, 0, 0) -->
<path class="cell-path" d="M0.21650636 1.625L2.2351742E-08 1.75L1.4901161E-08 2L0.21650636 1.875Z"/>
<!-- (100, 0, 0) -->
<path class="cell-path" d="M1.2990382 1L1.0825318 1.125L1.2990382 1.25L1.5155445 1.125Z"/>
<!-- (101, 0, 0) -->
<path class="cell-path" d="M1.2990382 1L1.5155445 1.125L1.7320509 1L1.5155445 0.875Z"/>
<!-- (102, 0, 0) -->
<path class="cell-path" d="M1.2990382 1L1.5155445 0.875L1.2990382 0.75L1.0825318 0.875Z"/>
<!-- (103, 0, 0) -->
<path class="cell-path" d="M1.2990382 1L1.0825318 0.875L0.8660254 1L1.0825318 1.125Z"/>
<!-- (104, 0, 0) -->
<path class="cell-path" d="M-0.6495191 1.125L-0.6495191 0.875L-0.86602545 1L-0.86602545 1.25Z"/>
<!-- (105, 0, 0) -->
<path class="cell-path" d="M-0.6495191 1.125L-0.86602545 1.25L-0.86602545 1.5L-0.6495191 1.375Z"/>
<!-- (106, 0, 0) -->
<path class="cell-path" d="M-0.6495191 1.125L-0.6495191 1.375L-0.43301272 1.25L-0.43301272 1Z"/>
<!-- (107, 0, 0) -->
<path class="cell-path" d="M-0.6495191 1.125L-0.43301272 1L-0.4330127 0.75L-0.6495191 0.875Z"/>
<!-- (108, 0, 0) -->
<path class="cell-path" d="M1.5155444 0.625L1.2990382 0.5L1.2990382 0.75L1.5155444 0.875Z"/>
<!-- (109, 0, 0) -->
<path class="cell-path" d="M1.5155444 0.625L1.5155444 0.875L1.7320508 1L1.7320508 0.75Z"/>
<!-- (110, 0, 0) -->
<path class="cell-path" d="M1.5155444 0.625L1.7320508 0.75L1.7320508 0.5L1.5155444 0.375Z"/>
<!-- (111, 0, 0) -->
<path class="cell-path" d="M1.5155444 0.625L1.5155444 0.375L1.2990382 0.25L1.2990382 0.5Z"/>
<!-- (112, 0, 0) -->
<path class="cell-path" d="M0 -0.25L0.21650635 -0.375L0 -0.5L-0.21650635 -0.375Z"/>
<!-- (113, 0, 0) -->
<path class="cell-path" d="M0 -0.25L-0.21650635 -0.375L-0.4330127 -0.25L-0.21650635 -0.125Z"/>
<!-- (114, 0, 0) -->
<path class="cell-path" d="M0 -0.25L-0.21650635 -0.125L0 0L0.21650635 -0.125Z"/>
<!-- (115, 0, 0) -->
<path class="cell-path" d="M0 -0.25L0.21650635 -0.125L0.4330127 -0.25L0.21650635 -0.375Z"/>
<!-- (116, 0, 0) -->
<path class="cell-path" d="M-1.0825317 -0.125L-1.0825317 -0.375L-1.299038 -0.25L-1.299038 0Z"/>
<!-- (117, 0, 0) -->
<path class="cell-path" d="M-1.0825317 -0.125L-1.299038 0L-1.299038 0.25L-1.0825317 0.125Z"/>
<!-- (118, 0, 0) -->
<path class="cell-path" d="M-1.0825317 -0.125L-1.0825317 0.125L-0.8660254 0L-0.8660253 -0.25Z"/>
<!-- (119, 0, 0) -->
<path class="cell-path" d="M-1.0825317 -0.125L-0.8660253 -0.25L-0.8660253 -0.5L-1.0825317 -0.375Z"/>
<!-- (120, 0, 0) -->
<path class="cell-path" d="M0 -0.75L0.21650635 -0.875L0 -1L-0.21650635 -0.875Z"/>
<!-- (121, 0, 0) -->
<path class="cell-path" d="M0 -0.75L-0.21650635 -0.875L-0.4330127 -0.75L-0.21650635 -0.625Z"/>
<!-- (122, 0, 0) -->
<path class="cell-path" d="M0 -0.75L-0.21650635 -0.625L0 -0.5L0.21650635 -0.625Z"/>
<!-- (123, 0, 0) -->
<path class="cell-path" d="M0 -0.75L0.21650635 -0.625L0.4330127 -0.75L0.21650635 -0.875Z"/>
<!-- (124, 0, 0) -->
<path class="cell-path" d="M-1.5155444 0.875L-1.299038 1L-1.2990379 0.75L-1.5155443 0.625Z"/>
<!-- (125, 0, 0) -->
<path class="cell-path" d="M-1.5155444 0.875L-1.5155443 0.625L-1.7320507 0.5L-1.7320507 0.75Z"/>
<!-- (126, 0, 0) -->
<path class="cell-path" d="M-1.5155444 0.875L-1.7320507 0.75L-1.7320507 1L-1.5155444 1.125Z"/>
<!-- (127, 0, 0) -->
<path class="cell-path" d="M-1.5155444 0.875L-1.5155444 1.125L-1.2990382 1.25L-1.299038 1Z"/>
<!-- (128, 0, 0) -->
<path class="cell-path" d="M0.4330127 0L0.21650635 0.125L0.4330127 0.25L0.649519 0.125Z"/>
<!-- (129, 0, 0) -->
<path class="cell-path" d="M0.4330127 0L0.649519 0.125L0.8660254 0L0.649519 -0.125Z"/>
<!-- (130, 0, 0) -->
<path class="cell-path" d="M0.4330127 0L0.649519 -0.125L0.4330127 -0.25L0.21650635 -0.125Z"/>
<!-- (131, 0, 0) -->
<path class="cell-path" d="M0.4330127 0L0.21650635 -0.125L0 0L0.21650635 0.125Z"/>
<!-- (132, 0, 0) -->
<path class="cell-path" d="M-1.2990379 -0.5L-1.5155444 -0.375L-1.299038 -0.25L-1.0825317 -0.375Z"/>
<!-- (133, 0, 0) -->
<path class="cell-path" d="M-1.2990379 -0.5L-1.0825317 -0.375L-0.8660254 -0.5L-1.0825317 -0.625Z"/>
<!-- (134, 0, 0) -->
<path class="cell-path" d="M-1.2990379 -0.5L-1.0825317 -0.625L-1.299038 -0.75L-1.5155444 -0.625Z"/>
<!-- (135, 0, 0) -->
<path class="cell-path" d="M-1.2990379 -0.5L-1.5155444 -0.625L-1.7320507 -0.5L-1.5155444 -0.375Z"/>
<!-- (136, 0, 0) -->
<path class="cell-path" d="M0.21650635 -1.125L7.450581E-09 -1.25L0 -1L0.21650635 -0.875Z"/>
<!-- (137, 0, 0) -->
<path class="cell-path" d="M0.21650635 -1.125L0.21650635 -0.875L0.4330127 -0.75L0.4330127 -1Z"/>
<!-- (138, 0, 0) -->
<path class="cell-path" d="M0.21650635 -1.125L0.4330127 -1L0.4330127 -1.25L0.21650636 -1.375Z"/>
<!-- (139, 0, 0) -->
<path class="cell-path" d="M0.21650635 -1.125L0.21650636 -1.375L1.4901161E-08 -1.5L7.450581E-09 -1.25Z"/>
<!-- (140, 0, 0) -->
<path class="cell-path" d="M-1.5155444 -0.875L-1.5155444 -1.125L-1.7320508 -1L-1.7320508 -0.75Z"/>
<!-- (141, 0, 0) -->
<path class="cell-path" d="M-1.5155444 -0.875L-1.7320508 -0.75L-1.7320508 -0.5L-1.5155444 -0.625Z"/>
<!-- (142, 0, 0) -->
<path class="cell-path" d="M-1.5155444 -0.875L-1.5155444 -0.625L-1.2990382 -0.75L-1.2990382 -1Z"/>
<!-- (143, 0, 0) -->
<path class="cell-path" d="M-1.5155444 -0.875L-1.2990382 -1L-1.2990382 -1.25L-1.5155444 -1.125Z"/>
<!-- (144, 0, 0) -->
<path class="cell-path" d="M1.299038 -0.5L1.5155444 -0.625L1.299038 -0.75L1.0825317 -0.625Z"/>
<!-- (145, 0, 0) -->
<path class="cell-path" d="M1.299038 -0.5L1.0825317 -0.625L0.8660254 -0.5L1.0825317 -0.375Z"/>
<!-- (146, 0, 0) -->
<path class="cell-path" d="M1.299038 -0.5L1.0825317 -0.375L1.299038 -0.25L1.5155444 -0.375Z"/>
<!-- (147, 0, 0) -->
<path class="cell-path" d="M1.299038 -0.5L1.5155444 -0.375L1.7320509 -0.5L1.5155444 -0.625Z"/>
<!-- (148, 0, 0) -->
<path class="cell-path" d="M-0.43301266 -1.5L-0.649519 -1.375L-0.4330127 -1.25L-0.21650635 -1.375Z"/>
<!-- (149, 0, 0) -->
<path class="cell-path" d="M-0.43301266 -1.5L-0.21650635 -1.375L0 -1.5L-0.21650635 -1.625Z"/>
<!-- (150, 0, 0) -->
<path class="cell-path" d="M-0.43301266 -1.5L-0.21650635 -1.625L-0.4330127 -1.75L-0.649519 -1.625Z"/>
<!-- (151, 0, 0) -->
<path class="cell-path" d="M-0.43301266 -1.5L-0.649519 -1.625L-0.8660253 -1.5L-0.649519 -1.375Z"/>
<!-- (152, 0, 0) -->
<path class="cell-path" d="M0.21650635 -1.625L-7.450581E-09 -1.75L0 -1.5L0.21650635 -1.375Z"/>
<!-- (153, 0, 0) -->
<path class="cell-path" d="M0.21650635 -1.625L0.21650635 -1.375L0.4330127 -1.25L0.4330127 -1.5Z"/>
<!-- (154, 0, 0) -->
<path class="cell-path" d="M0.21650635 -1.625L0.4330127 -1.5L0.4330127 -1.75L0.21650633 -1.875Z"/>
<!-- (155, 0, 0) -->
<path class="cell-path" d="M0.21650635 -1.625L0.21650633 -1.875L-1.4901161E-08 -2L-7.450581E-09 -1.75Z"/>
<!-- (156, 0, 0) -->
<path class="cell-path" d="M-0.4330127 0L-0.21650635 -0.125L-0.4330127 -0.25L-0.649519 -0.125Z"/>
<!-- (157, 0, 0) -->
<path class="cell-path" d="M-0.4330127 0L-0.649519 -0.125L-0.8660254 0L-0.649519 0.125Z"/>
<!-- (158, 0, 0) -->
<path class="cell-path" d="M-0.4330127 0L-0.649519 0.125L-0.4330127 0.25L-0.21650635 0.125Z"/>
<!-- (159, 0, 0) -->
<path class="cell-path" d="M-0.4330127 0L-0.21650635 0.125L0 0L-0.21650635 -0.125Z"/>
<!-- (160, 0, 0) -->
<path class="cell-path" d="M-0.21650635 0.625L0 0.75L0 0.5L-0.21650635 0.375Z"/>
<!-- (161, 0, 0) -->
<path class="cell-path" d="M-0.21650635 0.625L-0.21650635 0.375L-0.4330127 0.25L-0.4330127 0.5Z"/>
<!-- (162, 0, 0) -->
<path class="cell-path" d="M-0.21650635 0.625L-0.4330127 0.5L-0.4330127 0.75L-0.21650635 0.875Z"/>
<!-- (163, 0, 0) -->
<path class="cell-path" d="M-0.21650635 0.625L-0.21650635 0.875L0 1L0 0.75Z"/>
<!-- (164, 0, 0) -->
<path class="cell-path" d="M-1.010363 -1.25L-1.0825318 -1.125L-0.86602545 -1L-0.86602545 -1.25Z"/>
<!-- (165, 0, 0) -->
<path class="cell-path" d="M-1.010363 -1.25L-0.86602545 -1.25L-0.86602545 -1.5L-1.0825318 -1.375Z"/>
<!-- (166, 0, 0) -->
<path class="cell-path" d="M-1.010363 -1.25L-1.0825318 -1.375L-1.2990382 -1.25L-1.0825318 -1.125Z"/>
<!-- (167, 0, 0) -->
<path class="cell-path" d="M-0.57735026 1.5L-0.649519 1.625L-0.4330127 1.75L-0.4330127 1.5Z"/>
<!-- (168, 0, 0) -->
<path class="cell-path" d="M-0.57735026 1.5L-0.4330127 1.5L-0.4330127 1.25L-0.649519 1.375Z"/>
<!-- (169, 0, 0) -->
<path class="cell-path" d="M-0.57735026 1.5L-0.649519 1.375L-0.8660254 1.5L-0.649519 1.625Z"/>
<!-- (170, 0, 0) -->
<path class="cell-path" d="M-0.72168785 -0.75L-0.86602545 -0.75L-0.86602545 -0.5L-0.6495191 -0.625Z"/>
<!-- (171, 0, 0) -->
<path class="cell-path" d="M-0.72168785 -0.75L-0.6495191 -0.625L-0.43301272 -0.75L-0.6495191 -0.875Z"/>
<!-- (172, 0, 0) -->
<path class="cell-path" d="M-0.72168785 -0.75L-0.6495191 -0.875L-0.86602545 -1L-0.86602545 -0.75Z"/>
<!-- (173, 0, 0) -->
<path class="cell-path" d="M-0.28867513 -0.5L-0.4330127 -0.5L-0.4330127 -0.25L-0.21650635 -0.375Z"/>
<!-- (174, 0, 0) -->
<path class="cell-path" d="M-0.28867513 -0.5L-0.21650635 -0.375L0 -0.5L-0.21650635 -0.625Z"/>
<!-- (175, 0, 0) -->
<path class="cell-path" d="M-0.28867513 -0.5L-0.21650635 -0.625L-0.4330127 -0.75L-0.4330127 -0.5Z"/>
<!-- (176, 0, 0) -->
<path class="cell-path" d="M-0.14433758 -1.75L-0.21650636 -1.625L-1.4901161E-08 -1.5L-1.4901161E-08 -1.75Z"/>
<!-- (177, 0, 0) -->
<path class="cell-path" d="M-0.14433758 -1.75L-1.4901161E-08 -1.75L-1.4901161E-08 -2L-0.21650636 -1.875Z"/>
<!-- (178, 0, 0) -->
<path class="cell-path" d="M-0.14433758 -1.75L-0.21650636 -1.875L-0.43301272 -1.75L-0.21650636 -1.625Z"/>
<!-- (179, 0, 0) -->
<path class="cell-path" d="M0.14433758 1.25L1.4901161E-08 1.25L1.4901161E-08 1.5L0.21650636 1.375Z"/>
<!-- (180, 0, 0) -->
<path class="cell-path" d="M0.14433758 1.25L0.21650636 1.375L0.43301272 1.25L0.21650636 1.125Z"/>
<!-- (181, 0, 0) -->
<path class="cell-path" d="M0.14433758 1.25L0.21650636 1.125L1.4901161E-08 1L1.4901161E-08 1.25Z"/>
<!-- (182, 0, 0) -->
<path class="cell-path" d="M0.5773502 1L0.43301263 1L0.43301263 1.25L0.64951897 1.125Z"/>
<!-- (183, 0, 0) -->
<path class="cell-path" d="M0.5773502 1L0.64951897 1.125L0.8660253 1L0.64951897 0.875Z"/>
<!-- (184, 0, 0) -->
<path class="cell-path" d="M0.5773502 1L0.64951897 0.875L0.43301263 0.75L0.43301263 1Z"/>
<!-- (185, 0, 0) -->
<path class="cell-path" d="M0.57735026 -1.5L0.4330127 -1.5L0.4330127 -1.25L0.649519 -1.375Z"/>
<!-- (186, 0, 0) -->
<path class="cell-path" d="M0.57735026 -1.5L0.649519 -1.375L0.8660254 -1.5L0.649519 -1.625Z"/>
<!-- (187, 0, 0) -->
<path class="cell-path" d="M0.57735026 -1.5L0.649519 -1.625L0.4330127 -1.75L0.4330127 -1.5Z"/>
<!-- (188, 0, 0) -->
<path class="cell-path" d="M1.010363 1.25L0.8660253 1.25L0.8660253 1.5L1.0825317 1.375Z"/>
<!-- (189, 0, 0) -->
<path class="cell-path" d="M1.010363 1.25L1.0825317 1.375L1.2990379 1.25L1.0825317 1.125Z"/>
<!-- (190, 0, 0) -->
<path class="cell-path" d="M1.010363 1.25L1.0825317 1.125L0.8660253 1L0.8660253 1.25Z"/>
<!-- (191, 0, 0) -->
<path class="cell-path" d="M1.1547005 0.5L1.0825317 0.625L1.299038 0.75L1.299038 0.5Z"/>
<!-- (192, 0, 0) -->
<path class="cell-path" d="M1.1547005 0.5L1.299038 0.5L1.299038 0.25L1.0825317 0.375Z"/>
<!-- (193, 0, 0) -->
<path class="cell-path" d="M1.1547005 0.5L1.0825317 0.375L0.8660254 0.5L1.0825317 0.625Z"/>
<!-- (194, 0, 0) -->
<path class="cell-path" d="M1.1547004 0L1.0825316 0.125L1.2990379 0.25L1.2990379 0Z"/>
<!-- (195, 0, 0) -->
<path class="cell-path" d="M1.1547004 0L1.2990379 0L1.2990379 -0.25L1.0825316 -0.125Z"/>
<!-- (196, 0, 0) -->
<path class="cell-path" d="M1.1547004 0L1.0825316 -0.125L0.86602527 0L1.0825316 0.125Z"/>
<!-- (197, 0, 0) -->
<path class="cell-path" d="M1.010363 -0.75L0.8660253 -0.75L0.8660253 -0.5L1.0825317 -0.625Z"/>
<!-- (198, 0, 0) -->
<path class="cell-path" d="M1.010363 -0.75L1.0825317 -0.625L1.2990379 -0.75L1.0825317 -0.875Z"/>
<!-- (199, 0, 0) -->
<path class="cell-path" d="M1.010363 -0.75L1.0825317 -0.875L0.8660253 -1L0.8660253 -0.75Z"/>
<!-- (200, 0, 0) -->
<path class="cell-path" d="M1.5877132 0.25L1.5155444 0.375L1.7320508 0.5L1.7320508 0.25Z"/>
<!-- (201, 0, 0) -->
<path class="cell-path" d="M1.5877132 0.25L1.7320508 0.25L1.7320508 0L1.5155444 0.125Z"/>
<!-- (202, 0, 0) -->
<path class="cell-path" d="M1.5877132 0.25L1.5155444 0.125L1.2990382 0.25L1.5155444 0.375Z"/>
<!-- (203, 0, 0) -->
<path class="cell-path" d="M1.5877132 -0.75L1.5155444 -0.625L1.7320508 -0.5L1.7320508 -0.75Z"/>
<!-- (204, 0, 0) -->
<path class="cell-path" d="M1.5877132 -0.75L1.7320508 -0.75L1.7320508 -1L1.5155444 -0.875Z"/>
<!-- (205, 0, 0) -->
<path class="cell-path" d="M1.5877132 -0.75L1.5155444 -0.875L1.2990382 -0.75L1.5155444 -0.625Z"/>
</svg>
